<svg width="12" height="12" viewBox="0 0 12 12" fill="none" xmlns="http://www.w3.org/2000/svg">
<path d="M6.00044 0.819336C2.71304 0.819336 0.046875 3.04078 0.046875 5.7811C0.046875 7.34626 0.925311 8.7319 2.27768 9.6511C2.7919 10.0022 1.54361 11.1821 1.54361 11.1821C1.54361 11.1821 4.04105 10.4775 4.41377 10.5628C4.91814 10.6791 5.45158 10.7414 6.00101 10.7414C9.28877 10.7414 11.9533 8.51999 11.9533 5.78111C11.9528 3.04079 9.28841 0.819348 6.00065 0.819348L6.00044 0.819336ZM2.98352 6.93142C2.46929 6.93142 2.05164 6.51516 2.05164 6.00048C2.05164 5.4872 2.4693 5.06954 2.98352 5.06954C3.49821 5.06954 3.91445 5.4872 3.91445 6.00048C3.91445 6.5147 3.4982 6.93142 2.98352 6.93142ZM6.00044 6.93142C5.48621 6.93142 5.0695 6.51516 5.0695 6.00048C5.0695 5.4872 5.48576 5.06954 6.00044 5.06954C6.51513 5.06954 6.93137 5.4872 6.93137 6.00048C6.93137 6.5147 6.51512 6.93142 6.00044 6.93142ZM9.01735 6.93142C8.50266 6.93142 8.08642 6.51516 8.08642 6.00048C8.08642 5.4872 8.50268 5.06954 9.01735 5.06954C9.53063 5.06954 9.94829 5.4872 9.94829 6.00048C9.94829 6.5147 9.5311 6.93142 9.01735 6.93142Z" fill="#0095D9"/>
</svg>
