<svg width="20" height="18" viewBox="0 0 20 18" fill="none" xmlns="http://www.w3.org/2000/svg">
<path fill-rule="evenodd" clip-rule="evenodd" d="M17.9708 0.976023C18.2115 0.876986 18.4742 0.843498 18.7322 0.878989C18.9901 0.91448 19.2339 1.01767 19.4386 1.178C19.6434 1.33833 19.8017 1.55002 19.8973 1.7914C19.993 2.03277 20.0225 2.29515 19.9829 2.55165C19.4124 6.2499 18.3664 13.0267 17.8111 16.6239C17.7727 16.8729 17.6705 17.1077 17.5144 17.3057C17.3583 17.5038 17.1535 17.6583 16.92 17.7544C16.6864 17.8506 16.432 17.885 16.1811 17.8544C15.9303 17.8238 15.6917 17.7293 15.4883 17.5799C13.524 16.1374 10.5791 13.9748 9.08388 12.8764C8.96849 12.7917 8.87318 12.6827 8.80468 12.5572C8.73618 12.4317 8.69615 12.2928 8.68743 12.1502C8.67871 12.0076 8.7015 11.8648 8.7542 11.7319C8.8069 11.5991 8.88823 11.4794 8.99243 11.3813C10.3625 10.0916 13.0912 7.52299 14.9687 5.7556C15.0129 5.71371 15.0398 5.65687 15.0442 5.59621C15.0486 5.53556 15.0301 5.47547 14.9923 5.42772C14.9545 5.37996 14.9002 5.34798 14.84 5.33805C14.7798 5.32812 14.7181 5.34094 14.6669 5.37401C12.2597 6.9389 8.57292 9.33528 6.76602 10.5098C6.42739 10.7299 6.04682 10.878 5.64812 10.9448C5.24942 11.0115 4.84119 10.9955 4.44899 10.8977C3.45404 10.6498 2.01892 10.2922 0.741788 9.97402C0.541836 9.92422 0.362747 9.81281 0.23003 9.65565C0.097313 9.49848 0.0177357 9.30359 0.00263308 9.09872C-0.0124695 8.89385 0.0376729 8.68945 0.145918 8.51464C0.254163 8.33983 0.41499 8.20353 0.605492 8.12514C5.05136 6.2948 13.7519 2.71316 17.9708 0.976023Z" fill="#0095D9"/>
</svg>
