<svg width="20" height="23" viewBox="0 0 20 23" fill="none" xmlns="http://www.w3.org/2000/svg">
<path d="M18.3166 12.6738C17.7859 16.9546 14.6527 17.2236 14.076 17.4091C12.3109 17.8402 10.4897 17.9953 8.67713 17.8687C8.67713 17.8687 6.53606 20.0577 5.87159 20.7287C5.83393 20.7729 5.7862 20.8075 5.7324 20.8295C5.6786 20.8515 5.62031 20.8603 5.56243 20.8551C5.44707 20.827 5.41477 20.6908 5.41477 20.4915C5.41938 20.2073 5.43322 17.3583 5.43322 17.3583C1.2526 16.1978 1.49716 11.834 1.5433 9.5485C1.58945 7.263 2.01858 5.39141 3.29677 4.13261C5.5855 2.05753 10.306 2.36761 10.306 2.36761C14.2928 2.38468 16.2032 3.58488 16.6462 3.98726C18.1135 5.24606 18.8657 8.25879 18.3166 12.6729V12.6738ZM17.7444 2.91949C17.223 2.43683 15.105 0.901162 10.3937 0.880398C10.3937 0.880398 4.83797 0.544932 2.12933 3.02977C0.620428 4.53775 0.0897749 6.74435 0.0344024 9.48021C-0.0209701 12.2161 -0.468565 17.3436 4.47343 18.7339V20.8551C4.47343 21.3973 4.63494 22.1947 5.41477 22.1947C5.73316 22.1947 6.18537 22.0728 6.81754 21.4305L8.91708 19.4062C10.8343 19.5072 12.7562 19.3354 14.6251 18.8958C15.308 18.6744 19.1702 18.1797 19.7978 13.0531C20.4438 7.76874 19.484 4.42608 17.7444 2.91949Z" fill="#0095D9"/>
<path fill-rule="evenodd" clip-rule="evenodd" d="M10.0088 4.66016C10.6755 4.65999 11.3356 4.79116 11.9515 5.04619C12.5674 5.30121 13.127 5.67508 13.5984 6.14645C14.0697 6.61782 14.4436 7.17744 14.6986 7.79334C14.9537 8.40924 15.0848 9.06936 15.0847 9.73597C15.0836 9.85786 15.0357 9.97467 14.9508 10.0622C14.8862 10.1267 14.8039 10.1707 14.7143 10.1885C14.6247 10.2063 14.5319 10.1972 14.4475 10.1623C14.3631 10.1274 14.2909 10.0683 14.24 9.99242C14.1892 9.91655 14.162 9.82731 14.1618 9.73597C14.161 8.6348 13.7232 7.57895 12.9445 6.8003C12.1659 6.02166 11.11 5.58385 10.0088 5.58303H9.96731C9.84499 5.58284 9.72774 5.53416 9.64124 5.44767C9.55475 5.36117 9.50607 5.24392 9.50588 5.1216C9.50536 5.06105 9.51692 5.00101 9.5399 4.94499C9.56288 4.88897 9.59681 4.8381 9.63969 4.79536C9.68271 4.75236 9.73379 4.71828 9.79002 4.69508C9.84624 4.67188 9.90649 4.66001 9.96731 4.66016H10.0088Z" fill="#0095D9"/>
<path fill-rule="evenodd" clip-rule="evenodd" d="M10.0088 6.50586C10.433 6.5058 10.8531 6.58932 11.245 6.75162C11.6369 6.91393 11.993 7.15185 12.293 7.4518C12.5929 7.75175 12.8308 8.10785 12.9931 8.49977C13.1554 8.89168 13.239 9.31173 13.2389 9.73592C13.2387 9.82726 13.2115 9.9165 13.1606 9.99237C13.1098 10.0682 13.0376 10.1274 12.9532 10.1623C12.8688 10.1972 12.7759 10.2063 12.6864 10.1885C12.5968 10.1706 12.5145 10.1267 12.4498 10.0622C12.365 9.97462 12.3171 9.85781 12.316 9.73592C12.3159 9.12406 12.0728 8.53731 11.6401 8.10466C11.2075 7.67201 10.6207 7.42888 10.0088 7.42873H9.96731C9.90649 7.42888 9.84624 7.41702 9.79002 7.39381C9.73379 7.37061 9.68271 7.33653 9.63969 7.29353C9.59681 7.25079 9.56288 7.19992 9.5399 7.1439C9.51692 7.08788 9.50536 7.02784 9.50588 6.9673C9.50607 6.84498 9.55475 6.72772 9.64124 6.64123C9.72774 6.55473 9.84499 6.50605 9.96731 6.50586H10.0088Z" fill="#0095D9"/>
<path d="M14.8882 14.295C14.9737 14.1592 15.0107 13.9985 14.9931 13.839C14.9755 13.6795 14.9044 13.5307 14.7913 13.4169C14.2265 12.9187 13.6145 12.4769 12.964 12.0976C12.8029 11.9972 12.6116 11.9565 12.4236 11.9826C12.2355 12.0087 12.0626 12.1001 11.935 12.2407L11.5612 12.7062C11.0906 13.2877 9.65087 12.416 8.96794 11.7022C8.25271 11.0151 7.38059 9.57724 7.96201 9.10565L8.42806 8.73604C8.56867 8.60795 8.65998 8.43465 8.68611 8.24625C8.71224 8.05785 8.67155 7.86624 8.5711 7.70472C8.19415 7.05269 7.75198 6.44061 7.25139 5.87789C7.13802 5.76459 6.98952 5.69316 6.83023 5.6753C6.67094 5.65745 6.51031 5.69422 6.37466 5.7796C6.01765 5.98989 5.69414 6.25243 5.41487 6.55851C5.24806 6.71545 5.12885 6.91622 5.0709 7.1378C5.01295 7.35938 5.01862 7.59281 5.08725 7.81132C5.72912 9.60326 6.73814 11.2414 8.04968 12.6209C9.42972 13.9305 11.0671 14.9388 12.8579 15.5815C13.0765 15.651 13.3103 15.6573 13.5323 15.5997C13.7544 15.5422 13.9556 15.4231 14.113 15.2562C14.4053 14.9647 14.6652 14.6424 14.8882 14.295Z" fill="#0095D9"/>
</svg>
