<svg width="10" height="11" viewBox="0 0 10 11" fill="none" xmlns="http://www.w3.org/2000/svg">
<path d="M10 5.50749C10 2.79767 7.7617 0.601562 5.00151 0.601562C2.24057 0.601562 0.00301828 2.79841 0.00301816 5.50749C0.00301805 8.2173 2.24057 10.4134 5.00151 10.4134C7.7617 10.4134 10 8.2173 10 5.50749ZM4.80755 6.36614L3.45879 5.04164C3.40351 4.98738 3.37624 4.91649 3.37624 4.84488C3.37624 4.77399 3.40351 4.70237 3.45879 4.64812C3.56935 4.53961 3.74845 4.53961 3.859 4.64812L5.00728 5.77514L6.14377 4.64956C6.25359 4.54033 6.43268 4.53961 6.54398 4.64739C6.65528 4.75518 6.65601 4.93095 6.54619 5.04019L5.20997 6.36469C5.1569 6.41677 5.08467 6.44643 5.00949 6.44715C4.93284 6.44788 4.86061 6.41822 4.80755 6.36614Z" fill="white"/>
</svg>
