<svg width="20" height="20" viewBox="0 0 20 20" fill="none" xmlns="http://www.w3.org/2000/svg">
<path d="M9.83399 0.000151103C4.41087 0.000151103 0 4.48545 0 10.0001C0 15.5147 4.41087 20 9.83399 20C15.2571 20 19.668 15.5147 19.668 10.0001C19.668 9.63203 19.3743 9.33341 19.0124 9.33341H17.9675C17.7917 9.33081 17.6227 9.40025 17.498 9.52525C17.3725 9.65025 17.3025 9.82125 17.3025 10.0001C17.3025 10.1789 17.3725 10.3499 17.498 10.4749C17.6227 10.5999 17.7917 10.6693 17.9675 10.6667H18.2885C18.1451 12.5504 17.4212 14.27 16.2944 15.6249L16.0349 15.361C15.9111 15.2317 15.7412 15.1588 15.5637 15.1596C15.2973 15.1614 15.0592 15.3272 14.9602 15.5789C14.8611 15.8298 14.9217 16.1171 15.113 16.3055L15.3725 16.5693C14.0451 17.7421 12.3574 18.5007 10.4896 18.6457V18.2499C10.4913 18.0711 10.4221 17.8984 10.2975 17.7716C10.1729 17.6449 10.003 17.5746 9.82715 17.5763C9.46521 17.5798 9.17496 17.8819 9.17837 18.2499V18.6388C7.31314 18.4947 5.61694 17.749 4.28192 16.5832L4.55508 16.3055C4.75057 16.1136 4.80948 15.8194 4.70276 15.5659C4.59691 15.3116 4.3485 15.1501 4.07704 15.1597C3.90887 15.1666 3.75009 15.2387 3.63315 15.361L3.35999 15.6388C2.2178 14.2812 1.4794 12.5606 1.33856 10.6666H1.71417C1.89002 10.6692 2.05904 10.5998 2.18367 10.4748C2.30915 10.3498 2.37915 10.1788 2.37915 9.99998C2.37915 9.82116 2.30915 9.65016 2.18367 9.52516C2.05904 9.40016 1.89 9.33072 1.71417 9.33332H1.33856C1.48026 7.43838 2.22209 5.71779 3.36681 4.36114L3.63315 4.63198C3.75352 4.77 3.92424 4.85073 4.10523 4.85593C4.2862 4.86114 4.4612 4.78996 4.58924 4.65976C4.71643 4.52868 4.78557 4.34987 4.77875 4.16583C4.77277 3.9818 4.69167 3.80905 4.5551 3.68754L4.28875 3.4167C5.623 2.25437 7.31587 1.50438 9.17843 1.36116V1.74311C9.17587 1.92193 9.24416 2.0938 9.36708 2.22053C9.49001 2.34813 9.65817 2.41931 9.83402 2.41931C10.0099 2.41931 10.178 2.34813 10.301 2.22053C10.4239 2.0938 10.4922 1.92191 10.4896 1.74311V1.36116C13.3716 1.58338 15.8539 3.25872 17.2231 5.66668L15.4748 5.26391C15.1205 5.18318 14.7688 5.41061 14.6894 5.77084C14.61 6.13106 14.8337 6.48872 15.1879 6.56945L18.4592 7.31945C18.629 7.35851 18.8083 7.32726 18.9551 7.23177C19.1028 7.13716 19.2069 6.98611 19.2445 6.81251L19.9821 3.4792C20.023 3.30472 19.9932 3.12156 19.8993 2.96965C19.8054 2.81861 19.656 2.71183 19.4835 2.67365C19.3137 2.63633 19.1352 2.67018 18.9893 2.76653C18.8433 2.86289 18.7409 3.01393 18.705 3.18753L18.3158 4.93752C16.6051 1.98354 13.4431 0 9.83406 0L9.83399 0.000151103ZM9.82716 3.75012C9.65216 3.75186 9.48485 3.82478 9.36277 3.95238C9.24156 4.08085 9.17497 4.25273 9.17839 4.43066V8.36819C8.55011 8.63381 8.09938 9.27009 8.09938 10.0001C8.09938 10.9663 8.88387 11.764 9.83399 11.764C10.0696 11.764 10.2907 11.7067 10.4964 11.6182L12.4564 13.6043C12.7125 13.8647 13.129 13.8647 13.3851 13.6043C13.6412 13.3439 13.6412 12.9203 13.3851 12.6598L11.432 10.6807C11.5199 10.4706 11.5686 10.2415 11.5686 10.0001C11.5686 9.27011 11.1179 8.63384 10.4896 8.3682V4.43068C10.493 4.25012 10.4247 4.07563 10.3001 3.94803C10.1754 3.81956 10.0047 3.74838 9.82715 3.75012L9.82716 3.75012ZM9.83399 9.56963C10.0756 9.56963 10.2574 9.7554 10.2574 10.0002C10.2574 10.245 10.0756 10.4307 9.83399 10.4307C9.59325 10.4307 9.41058 10.245 9.41058 10.0002C9.41058 9.7554 9.59326 9.56963 9.83399 9.56963Z" fill="white"/>
</svg>
