<svg width="50" height="50" viewBox="0 0 50 50" fill="none" xmlns="http://www.w3.org/2000/svg">
<path d="M48.1251 22.787H47.9439L39.4417 10.3233C38.5914 9.077 36.9312 8.64327 35.5797 9.31465L31.9389 11.124C30.7861 11.6969 30.3703 13.1374 31.041 14.2364C31.6326 15.2057 32.8499 15.5647 33.8726 15.0706L36.3796 13.8602L42.3935 22.787H39.6717V22.0473C39.6717 20.7767 38.6379 19.7429 37.3672 19.7429H26.709C26.3042 19.7429 25.9766 20.071 25.9766 20.4753C25.9766 20.8801 26.3042 21.2077 26.709 21.2077H37.3672C37.83 21.2077 38.2065 21.5846 38.2065 22.0473V22.787H11.7935V22.0473C11.7935 21.5846 12.17 21.2077 12.6328 21.2077H23.291C23.6958 21.2077 24.0234 20.8801 24.0234 20.4753C24.0234 20.071 23.6958 19.7429 23.291 19.7429H12.6328C11.3625 19.7429 10.3287 20.7767 10.3287 22.0473V22.787H7.60651L13.6204 13.8602L16.1274 15.0706C17.1501 15.5647 18.3674 15.2061 18.959 14.2364C19.6297 13.1374 19.2139 11.6969 18.0611 11.124L14.4203 9.31465C13.0688 8.64327 11.4086 9.077 10.5587 10.3233L2.05612 22.787H1.87492C0.841141 22.787 0 23.6278 0 24.6616V36.798C0 38.6977 1.54572 40.2435 3.44543 40.2435H16.5054C18.3743 40.2435 19.9993 38.9781 20.4575 37.1665L22.1012 30.6651C22.3244 29.7828 22.9263 29.079 23.7061 28.7044C25.4105 27.8838 27.4368 28.8387 27.8988 30.6651L29.5425 37.1665C30.0007 38.9781 31.6257 40.2435 33.4949 40.2435H46.5546C48.4543 40.2435 50 38.6977 50 36.798V34.7682C50 34.3639 49.6723 34.0358 49.2676 34.0358C48.8628 34.0358 48.5352 34.3639 48.5352 34.7682V36.798C48.5352 37.8902 47.6467 38.7786 46.5546 38.7786H33.4949C32.2975 38.7786 31.2565 37.968 30.9631 36.8072L29.319 30.3062C29.1798 29.7557 28.9417 29.2518 28.6274 28.8104H48.5352V31.3503C48.5352 31.7546 48.8628 32.0827 49.2676 32.0827C49.6723 32.0827 50 31.7546 50 31.3503C50 30.3699 50 25.6404 50 24.6619C50 23.6278 49.1589 22.787 48.1251 22.787ZM37.5305 12.9466C37.1632 12.4007 36.4388 12.2047 35.8459 12.4908L33.2355 13.7515C32.8949 13.9163 32.4886 13.7965 32.2918 13.4731C32.0671 13.1057 32.2056 12.627 32.5909 12.4355L36.2316 10.6265C36.9312 10.2786 37.7911 10.5033 38.2313 11.1488L46.1704 22.787H44.1601L37.5305 12.9466ZM11.7687 11.1488C12.2089 10.5033 13.0688 10.279 13.7684 10.6265L17.4091 12.4355C17.7948 12.6273 17.9325 13.1061 17.7082 13.4731C17.511 13.7965 17.1055 13.9159 16.7645 13.7515L14.1541 12.4912C13.5616 12.2047 12.8368 12.4007 12.4695 12.9466L5.8403 22.787H3.82957L11.7687 11.1488ZM19.0372 36.8072C18.7435 37.968 17.7025 38.7786 16.5054 38.7786H3.44543C2.35329 38.7786 1.46484 37.8902 1.46484 36.798V28.8104H3.16544C3.48892 30.0151 4.59023 30.9051 5.89561 30.9051C7.20139 30.9051 8.30269 30.0151 8.62617 28.8104H21.373C20.7439 29.6924 20.8424 29.6687 19.0372 36.8072ZM4.53339 28.078C4.53339 27.3269 5.1445 26.7158 5.89561 26.7158C6.64673 26.7158 7.25822 27.3269 7.25822 28.078C7.25822 28.8291 6.64673 29.4399 5.89561 29.4399C5.1445 29.4399 4.53339 28.8291 4.53339 28.078ZM48.5352 27.3452H26.8509C25.7069 26.823 24.3481 26.7982 23.1495 27.3452H8.62694C8.29735 26.115 7.17201 25.2506 5.89561 25.2506C4.60739 25.2506 3.49083 26.1272 3.16467 27.3452H1.46484V24.6616C1.46484 24.4395 1.65253 24.2519 1.87492 24.2519H48.1251C48.3475 24.2519 48.5352 24.4395 48.5352 24.6616V27.3452Z" fill="white"/>
</svg>
