<svg width="1728" height="720" viewBox="0 0 1728 720" fill="none" xmlns="http://www.w3.org/2000/svg">
<g clip-path="url(#clip0_2212_11552)">
<rect width="1728" height="720" fill="url(#paint0_linear_2212_11552)"/>
<path style="mix-blend-mode:multiply" opacity="0.66" d="M-20 -70.9985L-19.9999 368.001L-19.9999 782.5C-19.948 824.564 613.785 860.825 632.392 831.015L888.357 421.656C893.905 412.78 897.014 400.756 897 388.229C896.986 375.701 893.851 363.695 888.284 354.85L631.397 -52.9706C612.691 -82.705 -20.0519 -113.083 -20 -70.9985Z" fill="url(#paint1_linear_2212_11552)"/>
<path fill-rule="evenodd" clip-rule="evenodd" d="M391.424 161.814C393.792 159.797 396.8 158.689 399.911 158.689H517.35C520.486 158.689 523.517 159.815 525.892 161.861L532.734 167.755C535.36 170.017 538.71 171.261 542.175 171.261H637.999H733.824C737.289 171.261 740.639 170.017 743.264 167.755L750.107 161.861C752.482 159.815 755.513 158.689 758.648 158.689H876.09C879.199 158.689 882.207 159.796 884.574 161.812L904.385 178.681C907.002 180.91 910.326 182.133 913.763 182.133H1362.5V180.756H913.763C910.653 180.756 907.646 179.648 905.278 177.633L885.467 160.763C882.851 158.535 879.526 157.312 876.09 157.312H758.648C755.183 157.312 751.833 158.556 749.208 160.817L742.365 166.712C739.99 168.758 736.959 169.884 733.824 169.884H637.999H542.175C539.04 169.884 536.009 168.758 533.633 166.712L526.791 160.817C524.166 158.556 520.816 157.312 517.35 157.312H399.911C396.473 157.312 393.148 158.536 390.531 160.765L370.732 177.631C368.364 179.648 365.356 180.756 362.245 180.756H147.649C144.211 180.756 140.886 181.98 138.269 184.209L110.362 207.982C107.136 210.73 105.277 214.755 105.277 218.993V323.612C105.277 327.85 107.136 331.874 110.362 334.623L118.1 341.214C121.019 343.7 122.7 347.342 122.7 351.176V437.421C122.7 441.256 121.018 444.899 118.097 447.385L105.398 458.198C102.17 460.946 100.311 464.972 100.311 469.211V629.971C100.311 634.21 102.17 638.235 105.396 640.983L164.398 691.236C167.015 693.465 170.34 694.689 173.777 694.689H460.368C463.805 694.689 467.13 693.465 469.747 691.237L500.741 664.841C503.108 662.825 506.116 661.718 509.226 661.718H766.773C769.882 661.718 772.89 662.825 775.258 664.841L806.252 691.237C808.869 693.465 812.194 694.689 815.631 694.689L1264.56 694.689H1556.23C1559.67 694.689 1563 693.465 1565.61 691.236L1624.6 640.983C1627.83 638.235 1629.69 634.21 1629.69 629.972V469.211C1629.69 464.972 1627.83 460.946 1624.6 458.198L1611.9 447.385C1608.98 444.899 1607.3 441.256 1607.3 437.421V351.177C1607.3 347.342 1608.98 343.701 1611.9 341.214L1619.64 334.623C1622.86 331.875 1624.72 327.85 1624.72 323.612V218.993C1624.72 214.755 1622.86 210.73 1619.64 207.982L1591.73 184.209C1589.11 181.98 1585.79 180.756 1582.35 180.756H1362.69V182.133H1582.35C1585.46 182.133 1588.47 183.241 1590.84 185.258L1618.74 209.031C1621.66 211.517 1623.34 215.159 1623.34 218.993V323.612C1623.34 327.446 1621.66 331.088 1618.74 333.574L1611.01 340.166C1607.78 342.914 1605.92 346.939 1605.92 351.177V437.421C1605.92 441.66 1607.78 445.686 1611.01 448.434L1623.71 459.247C1626.63 461.733 1628.31 465.376 1628.31 469.211V629.972C1628.31 633.807 1626.63 637.448 1623.71 639.935L1564.72 690.187C1562.35 692.204 1559.34 693.312 1556.23 693.312L1265.5 693.312H815.631C812.521 693.312 809.513 692.204 807.145 690.188L776.151 663.793C773.534 661.564 770.21 660.34 766.773 660.34H509.226C505.789 660.34 502.464 661.564 499.848 663.793L468.853 690.188C466.486 692.204 463.478 693.312 460.368 693.312H173.777C170.667 693.312 167.659 692.204 165.291 690.188L106.289 639.934C103.37 637.448 101.688 633.806 101.688 629.971V469.211C101.688 465.376 103.371 461.733 106.291 459.247L118.99 448.434C122.218 445.686 124.078 441.66 124.078 437.421V351.176C124.078 346.938 122.219 342.913 118.993 340.165L111.256 333.574C108.337 331.088 106.655 327.446 106.655 323.612V218.993C106.655 215.159 108.337 211.517 111.256 209.031L139.162 185.258C141.53 183.241 144.539 182.133 147.649 182.133H362.245C365.683 182.133 369.008 180.909 371.625 178.68L391.424 161.814Z" fill="url(#paint2_linear_2212_11552)"/>
<path d="M109.184 361.036V420.942L119.521 431.26V350.719L109.184 361.036Z" fill="#0095D9"/>
<path d="M1623.34 420.942V361.036L1613 350.719V431.26L1623.34 420.942Z" fill="#0254CF"/>
<path d="M250.986 190.002L229.066 211.234L246.056 211.057L267.975 189.824L250.986 190.002Z" fill="url(#paint3_linear_2212_11552)"/>
<path d="M225.236 190.002L203.316 211.234L220.306 211.057L242.225 189.824L225.236 190.002Z" fill="url(#paint4_linear_2212_11552)"/>
<path d="M198.67 190.002L176.75 211.234L193.73 211.057L215.65 189.824L198.67 190.002Z" fill="url(#paint5_linear_2212_11552)"/>
<path d="M172.097 190.002L150.178 211.234L167.158 211.057L189.077 189.824L172.097 190.002Z" fill="url(#paint6_linear_2212_11552)"/>
<path d="M145.519 190.002L123.6 211.234L140.589 211.057L162.509 189.824L145.519 190.002Z" fill="url(#paint7_linear_2212_11552)"/>
<path d="M516.871 690.771L506.935 680.696L497 690.771H516.871Z" fill="url(#paint8_linear_2212_11552)"/>
<path d="M566.733 690.771L556.797 680.696L546.871 690.771H566.733Z" fill="url(#paint9_linear_2212_11552)"/>
<path d="M616.603 690.771L606.668 680.696L596.732 690.771H616.603Z" fill="url(#paint10_linear_2212_11552)"/>
<path d="M666.474 690.771L656.539 680.696L646.604 690.771H666.474Z" fill="url(#paint11_linear_2212_11552)"/>
<path d="M716.345 690.771L706.41 680.696L696.475 690.771H716.345Z" fill="url(#paint12_linear_2212_11552)"/>
<path d="M766.217 690.771L756.281 680.696L746.346 690.771H766.217Z" fill="url(#paint13_linear_2212_11552)"/>
<path d="M45.7305 429.879L45.7305 132.001" stroke="url(#paint14_linear_2212_11552)" stroke-width="1.37759" stroke-miterlimit="10"/>
<path d="M45.7259 438.758C48.981 438.758 51.6198 436.124 51.6198 432.875C51.6198 429.627 48.981 426.993 45.7259 426.993C42.4708 426.993 39.832 429.627 39.832 432.875C39.832 436.124 42.4708 438.758 45.7259 438.758Z" fill="#0095D9"/>
<path d="M37.1992 500.708H53.0379" stroke="#0095D9" stroke-width="1.37759" stroke-miterlimit="10"/>
<path d="M37.1992 513.732H63.0294" stroke="#0095D9" stroke-width="1.37759" stroke-miterlimit="10"/>
<path d="M37.1992 526.759H53.0379" stroke="#0095D9" stroke-width="1.37759" stroke-miterlimit="10"/>
<path d="M37.1992 539.792H63.0294" stroke="#0095D9" stroke-width="1.37759" stroke-miterlimit="10"/>
<path d="M37.1992 552.817H53.0379" stroke="#0095D9" stroke-width="1.37759" stroke-miterlimit="10"/>
<path d="M37.1992 565.843H63.0294" stroke="#0095D9" stroke-width="1.37759" stroke-miterlimit="10"/>
<path d="M37.1992 578.868H53.0379" stroke="#0095D9" stroke-width="1.37759" stroke-miterlimit="10"/>
<g style="mix-blend-mode:soft-light">
<path d="M408.978 661.818L387.059 683.05L404.039 682.873L425.958 661.641L408.978 661.818Z" fill="url(#paint15_linear_2212_11552)"/>
</g>
<g style="mix-blend-mode:soft-light">
<path d="M382.41 661.818L360.48 683.05L377.47 682.873L399.39 661.641L382.41 661.818Z" fill="url(#paint16_linear_2212_11552)"/>
</g>
<g style="mix-blend-mode:soft-light">
<path d="M355.832 661.818L333.912 683.05L350.901 682.873L372.821 661.641L355.832 661.818Z" fill="url(#paint17_linear_2212_11552)"/>
</g>
<g style="mix-blend-mode:soft-light">
<path d="M329.263 661.818L307.344 683.05L324.333 682.873L346.253 661.641L329.263 661.818Z" fill="url(#paint18_linear_2212_11552)"/>
</g>
<g style="mix-blend-mode:soft-light">
<path d="M303.093 661.818L281.174 683.05L298.163 682.873L320.083 661.641L303.093 661.818Z" fill="url(#paint19_linear_2212_11552)"/>
</g>
<g style="mix-blend-mode:soft-light">
<path d="M277.345 661.818L255.426 683.05L272.415 682.873L294.335 661.641L277.345 661.818Z" fill="url(#paint20_linear_2212_11552)"/>
</g>
<g style="mix-blend-mode:soft-light">
<path d="M250.779 661.818L228.859 683.05L245.849 682.873L267.768 661.641L250.779 661.818Z" fill="url(#paint21_linear_2212_11552)"/>
</g>
<g style="mix-blend-mode:soft-light">
<path d="M224.205 661.818L202.285 683.05L219.275 682.873L241.194 661.641L224.205 661.818Z" fill="url(#paint22_linear_2212_11552)"/>
</g>
<g style="mix-blend-mode:soft-light">
<path d="M197.638 661.818L175.719 683.05L192.708 682.873L214.628 661.641L197.638 661.818Z" fill="url(#paint23_linear_2212_11552)"/>
</g>
<g clip-path="url(#clip1_2212_11552)">
<g style="mix-blend-mode:screen" opacity="0.1">
<g style="mix-blend-mode:screen">
<path d="M1254.6 801.195L1320.35 739.341V706.137L1372.79 656.765C1374.57 657.689 1376.61 658.046 1378.62 657.782C1380.63 657.519 1382.49 656.648 1383.92 655.303C1384.79 654.487 1385.48 653.519 1385.96 652.452C1386.43 651.386 1386.67 650.242 1386.67 649.087C1386.67 647.932 1386.43 646.789 1385.96 645.722C1385.48 644.656 1384.79 643.687 1383.92 642.872C1382.18 641.31 1379.87 640.438 1377.47 640.439C1375.06 640.439 1372.75 641.312 1371.01 642.875C1369.27 644.438 1368.24 646.57 1368.14 648.828C1368.03 651.086 1368.86 653.295 1370.44 654.995L1317.34 704.959V738.171L1251.66 799.995L1250.44 836.022L1198.57 884.831L1200.69 886.827L1253.39 837.229L1254.6 801.195ZM1372.83 644.875C1374.02 643.763 1375.63 643.138 1377.31 643.138C1378.99 643.138 1380.6 643.763 1381.79 644.875C1382.68 645.708 1383.28 646.77 1383.53 647.926C1383.78 649.082 1383.65 650.28 1383.17 651.37C1382.69 652.459 1381.88 653.391 1380.84 654.047C1379.8 654.703 1378.57 655.053 1377.32 655.054C1376.06 655.055 1374.83 654.706 1373.79 654.051C1372.75 653.397 1371.93 652.467 1371.45 651.378C1370.97 650.289 1370.85 649.091 1371.09 647.935C1371.34 646.779 1371.94 645.717 1372.83 644.883V644.875Z" fill="#0095D9"/>
</g>
<g style="mix-blend-mode:screen">
<path d="M1369.03 595.555C1367.14 594.244 1364.8 593.648 1362.47 593.886C1360.14 594.124 1357.98 595.178 1356.44 596.839C1354.9 598.5 1354.08 600.646 1354.14 602.85C1354.2 605.054 1355.15 607.155 1356.79 608.734C1358.43 610.313 1360.64 611.254 1362.98 611.371C1365.32 611.489 1367.63 610.773 1369.43 609.366C1371.24 607.959 1372.42 605.965 1372.73 603.78C1373.04 601.595 1372.47 599.379 1371.12 597.573L1392.77 577.231L1390.65 562.607L1503.81 456.266L1501.68 454.27L1387.44 561.612L1389.56 576.237L1369.03 595.555ZM1367.96 606.816C1367.08 607.65 1365.95 608.218 1364.72 608.449C1363.49 608.679 1362.21 608.561 1361.05 608.111C1359.89 607.66 1358.9 606.896 1358.2 605.916C1357.51 604.936 1357.13 603.783 1357.13 602.604C1357.13 601.425 1357.51 600.273 1358.2 599.293C1358.9 598.312 1359.89 597.549 1361.05 597.098C1362.21 596.647 1363.49 596.529 1364.72 596.76C1365.95 596.99 1367.08 597.558 1367.96 598.392C1368.56 598.943 1369.03 599.598 1369.35 600.321C1369.67 601.044 1369.84 601.82 1369.84 602.604C1369.84 603.388 1369.67 604.164 1369.35 604.887C1369.03 605.61 1368.56 606.266 1367.96 606.816Z" fill="#0095D9"/>
</g>
<g style="mix-blend-mode:screen">
<path d="M1694.33 458.502L1692.21 456.514L1655.79 490.727V504.847L1601.87 555.513V568.463L1580.56 588.49L1567.48 586.86L1481.32 667.805C1479.35 666.574 1476.96 666.085 1474.62 666.436C1472.29 666.787 1470.17 667.953 1468.71 669.7C1467.25 671.448 1466.54 673.65 1466.72 675.867C1466.91 678.084 1467.98 680.154 1469.71 681.665C1471.45 683.176 1473.73 684.017 1476.1 684.02C1478.46 684.024 1480.74 683.189 1482.49 681.683C1484.23 680.177 1485.3 678.11 1485.5 675.893C1485.69 673.677 1484.99 671.473 1483.53 669.721L1568.55 589.785L1581.63 591.467L1604.88 569.632V556.675L1658.8 506.017V491.897L1694.33 458.502ZM1480.67 679.329C1479.63 680.306 1478.27 680.914 1476.81 681.051C1475.35 681.187 1473.88 680.844 1472.66 680.079C1471.44 679.314 1470.54 678.175 1470.11 676.856C1469.68 675.537 1469.76 674.119 1470.32 672.845C1470.88 671.57 1471.89 670.518 1473.19 669.867C1474.48 669.216 1475.97 669.007 1477.41 669.275C1478.85 669.543 1480.15 670.272 1481.08 671.337C1482.01 672.403 1482.52 673.739 1482.52 675.118C1482.52 675.897 1482.36 676.669 1482.04 677.389C1481.72 678.11 1481.26 678.764 1480.67 679.315V679.329Z" fill="#0095D9"/>
</g>
<g style="mix-blend-mode:screen">
<path d="M1529.37 726.231L1527.07 748.657L1514 760.89L1488.38 764.715L1471.01 781.035C1469.06 779.783 1466.68 779.267 1464.34 779.59C1462 779.912 1459.88 781.049 1458.4 782.775C1456.91 784.5 1456.18 786.688 1456.33 788.902C1456.49 791.115 1457.52 793.193 1459.24 794.721C1460.95 796.249 1463.21 797.115 1465.57 797.147C1467.93 797.178 1470.22 796.373 1471.98 794.892C1473.73 793.411 1474.83 791.362 1475.06 789.153C1475.28 786.944 1474.61 784.738 1473.18 782.973L1489.8 767.391L1515.43 763.567L1529.95 749.922L1532.28 727.503L1694.48 575.052L1692.35 573.056L1529.37 726.231ZM1470.22 792.537C1469.37 793.356 1468.28 793.927 1467.09 794.182C1465.9 794.437 1464.66 794.365 1463.51 793.976C1462.37 793.586 1461.36 792.895 1460.62 791.985C1459.88 791.075 1459.44 789.984 1459.34 788.842C1459.24 787.7 1459.49 786.555 1460.07 785.545C1460.64 784.534 1461.51 783.7 1462.58 783.141C1463.64 782.583 1464.86 782.324 1466.07 782.395C1467.29 782.467 1468.46 782.865 1469.44 783.543L1470.81 784.823C1471.71 785.964 1472.14 787.372 1472.03 788.789C1471.92 790.206 1471.26 791.537 1470.19 792.537H1470.22Z" fill="#0095D9"/>
</g>
<g style="mix-blend-mode:screen">
<path d="M1550.87 511.405L1501.2 558.078L1503.32 572.702L1483.28 591.524C1482.13 590.931 1480.79 590.749 1479.51 591.012C1478.22 591.275 1477.08 591.965 1476.3 592.955C1475.52 593.944 1475.14 595.167 1475.24 596.398C1475.33 597.629 1475.9 598.785 1476.84 599.653C1477.77 600.521 1479.01 601.042 1480.32 601.121C1481.63 601.2 1482.93 600.832 1483.97 600.084C1485.02 599.335 1485.74 598.257 1486 597.049C1486.27 595.84 1486.06 594.582 1485.42 593.506L1506.49 573.697L1504.37 559.073L1552.99 513.401L1550.87 511.405Z" fill="#0095D9"/>
</g>
<g style="mix-blend-mode:screen">
<path d="M1489 492.336L1467.07 512.933C1466.36 512.534 1465.52 512.39 1464.7 512.528C1463.88 512.666 1463.15 513.076 1462.63 513.684C1462.11 514.291 1461.84 515.054 1461.87 515.833C1461.9 516.611 1462.23 517.353 1462.8 517.921C1463.37 518.489 1464.14 518.844 1464.96 518.923C1465.79 519.002 1466.61 518.797 1467.29 518.348C1467.97 517.899 1468.45 517.234 1468.65 516.478C1468.85 515.721 1468.75 514.923 1468.37 514.23L1489.78 494.113H1499.27L1533.33 462.132H1542.02L1556.69 448.349L1555.58 440.589L1609.94 389.516L1608.6 388.261L1553.91 439.643L1553.57 439.952L1554.69 447.712L1541.24 460.351H1532.53L1498.48 492.336H1489Z" fill="#0095D9"/>
</g>
<g style="mix-blend-mode:screen">
<path d="M1210.41 738.776H1224.22L1278.12 688.118H1293.16L1327.89 655.491C1329.02 656.123 1330.35 656.351 1331.64 656.132C1332.94 655.913 1334.1 655.263 1334.92 654.301C1335.75 653.339 1336.17 652.13 1336.12 650.897C1336.07 649.664 1335.55 648.489 1334.65 647.59C1333.75 646.69 1332.53 646.126 1331.23 646.002C1329.92 645.878 1328.61 646.201 1327.54 646.913C1326.46 647.625 1325.7 648.677 1325.39 649.876C1325.07 651.074 1325.23 652.339 1325.83 653.436L1291.92 685.295H1276.89L1222.97 735.961H1209.18L1185.94 757.795L1187.71 770.087L1101.61 850.981L1103.73 852.978L1190.89 771.081L1189.13 758.79L1210.41 738.776Z" fill="#0095D9"/>
</g>
</g>
<path d="M1604.21 491.233L1628.75 468.126V465.809L1602.49 490.531L1601.79 511.392L1563.74 547.222V566.036C1562.37 566.167 1561.11 566.775 1560.21 567.74C1559.3 568.704 1558.82 569.954 1558.85 571.24C1558.88 572.526 1559.42 573.755 1560.37 574.681C1561.32 575.607 1562.61 576.163 1563.97 576.238C1565.34 576.313 1566.69 575.901 1567.75 575.085C1568.81 574.269 1569.5 573.108 1569.69 571.834C1569.88 570.56 1569.55 569.265 1568.77 568.208C1567.99 567.152 1566.81 566.41 1565.47 566.131V547.851L1603.5 512.072L1604.21 491.233ZM1566.93 568.647C1567.53 569.21 1567.91 569.954 1568 570.75C1568.09 571.547 1567.88 572.347 1567.4 573.015C1566.93 573.682 1566.23 574.175 1565.42 574.41C1564.6 574.645 1563.72 574.607 1562.94 574.302C1562.15 573.997 1561.5 573.445 1561.09 572.739C1560.69 572.034 1560.56 571.219 1560.73 570.433C1560.89 569.647 1561.34 568.94 1562 568.431C1562.66 567.923 1563.48 567.645 1564.34 567.645C1564.82 567.642 1565.29 567.729 1565.74 567.901C1566.18 568.073 1566.59 568.326 1566.93 568.647ZM1617.44 520.32L1579.39 556.15V575.374L1549.04 603.95C1548.01 603.415 1546.82 603.209 1545.66 603.363C1544.5 603.517 1543.42 604.024 1542.59 604.805C1541.82 605.509 1541.3 606.411 1541.07 607.396C1540.85 608.382 1540.94 609.408 1541.33 610.345C1541.73 611.283 1542.41 612.09 1543.29 612.666C1544.17 613.242 1545.21 613.561 1546.28 613.583C1547.35 613.605 1548.41 613.33 1549.31 612.79C1550.22 612.251 1550.94 611.473 1551.37 610.553C1551.81 609.632 1551.95 608.611 1551.77 607.618C1551.59 606.624 1551.11 605.701 1550.37 604.966L1581.12 576.046V556.83L1619.19 521.052L1619.9 500.197L1628.75 491.78V489.478L1618.21 499.474L1617.44 520.32ZM1549.01 610.801C1548.41 611.37 1547.62 611.725 1546.77 611.807C1545.93 611.889 1545.08 611.692 1544.36 611.25C1543.65 610.808 1543.13 610.148 1542.88 609.383C1542.63 608.618 1542.67 607.795 1542.99 607.054C1543.32 606.314 1543.9 605.701 1544.65 605.322C1545.4 604.942 1546.27 604.819 1547.11 604.973C1547.94 605.127 1548.69 605.548 1549.24 606.166C1549.78 606.783 1550.08 607.558 1550.08 608.359C1550.09 608.811 1550 609.26 1549.83 609.681C1549.65 610.101 1549.39 610.485 1549.05 610.808L1549.01 610.801ZM1547.93 550.3L1585.05 515.37C1584.69 514.753 1584.58 514.034 1584.74 513.346C1584.9 512.657 1585.31 512.045 1585.91 511.623C1586.51 511.2 1587.25 510.995 1588 511.044C1588.75 511.094 1589.45 511.396 1589.98 511.894C1590.51 512.392 1590.83 513.053 1590.89 513.755C1590.94 514.458 1590.72 515.154 1590.27 515.718C1589.82 516.281 1589.17 516.673 1588.44 516.821C1587.7 516.97 1586.94 516.865 1586.28 516.525L1548.93 551.704L1531.7 557.883C1531.71 558.587 1531.44 559.271 1530.96 559.808C1530.47 560.345 1529.8 560.7 1529.06 560.807C1528.32 560.915 1527.56 560.768 1526.93 560.393C1526.29 560.018 1525.82 559.441 1525.61 558.767C1525.39 558.093 1525.44 557.368 1525.74 556.725C1526.05 556.082 1526.59 555.564 1527.27 555.266C1527.95 554.968 1528.72 554.911 1529.44 555.104C1530.16 555.297 1530.78 555.729 1531.19 556.318L1547.93 550.3ZM1443.1 552.494C1443.81 552.499 1444.51 552.373 1445.17 552.122C1445.82 551.871 1446.42 551.5 1446.92 551.032C1447.43 550.557 1447.83 549.993 1448.11 549.372L1467.47 553.518L1511 512.57L1528.72 516.723L1610.43 440.337V438.028L1528.22 514.917L1510.47 510.778L1466.88 551.726L1448.46 547.785C1448.46 547.668 1448.46 547.551 1448.46 547.441C1448.46 546.426 1448.15 545.43 1447.56 544.582C1446.96 543.734 1446.11 543.071 1445.12 542.678C1444.12 542.285 1443.02 542.179 1441.96 542.375C1440.9 542.57 1439.92 543.058 1439.16 543.776C1438.39 544.493 1437.87 545.409 1437.66 546.405C1437.45 547.402 1437.56 548.434 1437.98 549.371C1438.4 550.309 1439.1 551.108 1440 551.668C1440.91 552.228 1441.97 552.523 1443.05 552.516L1443.1 552.494ZM1440.51 544.984C1441.11 544.419 1441.9 544.067 1442.75 543.988C1443.59 543.91 1444.44 544.109 1445.15 544.553C1445.86 544.996 1446.38 545.657 1446.62 546.421C1446.87 547.185 1446.83 548.006 1446.5 548.744C1446.18 549.482 1445.59 550.091 1444.84 550.467C1444.09 550.844 1443.22 550.964 1442.39 550.808C1441.56 550.651 1440.81 550.228 1440.27 549.61C1439.73 548.992 1439.43 548.218 1439.44 547.419C1439.45 546.521 1439.83 545.662 1440.51 545.028V544.984ZM1483.45 522.792C1482.83 522.313 1482.44 521.629 1482.34 520.881C1482.25 520.133 1482.46 519.38 1482.94 518.778C1483.42 518.176 1484.13 517.771 1484.93 517.648C1485.72 517.526 1486.53 517.695 1487.19 518.12L1509.17 497.441L1528.44 501.097L1551.45 479.453C1551.09 478.836 1550.98 478.117 1551.13 477.428C1551.29 476.74 1551.71 476.128 1552.31 475.705C1552.91 475.283 1553.65 475.077 1554.4 475.127C1555.14 475.177 1555.85 475.479 1556.38 475.977C1556.91 476.474 1557.23 477.135 1557.28 477.838C1557.33 478.54 1557.12 479.237 1556.67 479.8C1556.22 480.364 1555.57 480.755 1554.83 480.904C1554.1 481.052 1553.33 480.947 1552.68 480.608L1529.01 502.874L1509.73 499.218L1488.42 519.275C1488.87 519.896 1489.04 520.655 1488.91 521.395C1488.78 522.136 1488.35 522.801 1487.72 523.252C1487.08 523.704 1486.28 523.908 1485.49 523.823C1484.69 523.737 1483.97 523.368 1483.45 522.792ZM1551.25 639.355C1552.33 640.105 1553.68 640.442 1555.02 640.3C1556.36 640.159 1557.6 639.548 1558.48 638.59C1559.36 637.632 1559.83 636.397 1559.79 635.13C1559.75 633.863 1559.2 632.658 1558.25 631.753C1557.31 630.848 1556.04 630.311 1554.69 630.247C1553.34 630.184 1552.02 630.599 1550.98 631.411C1549.95 632.222 1549.27 633.37 1549.1 634.627C1548.92 635.883 1549.26 637.156 1550.03 638.192L1537.5 649.958L1538.73 658.425L1473.21 719.942L1474.44 721.097L1540.59 658.944L1539.36 650.484L1551.25 639.355ZM1551.86 632.84C1552.55 632.194 1553.48 631.831 1554.45 631.831C1555.42 631.831 1556.36 632.194 1557.04 632.84C1557.39 633.157 1557.66 633.536 1557.85 633.954C1558.03 634.373 1558.13 634.822 1558.13 635.275C1558.13 635.847 1557.99 636.412 1557.71 636.919C1557.43 637.426 1557.02 637.859 1556.51 638.18C1556.01 638.5 1555.43 638.698 1554.82 638.755C1554.21 638.813 1553.6 638.728 1553.04 638.508C1552.48 638.288 1551.98 637.94 1551.6 637.496C1551.22 637.052 1550.96 636.525 1550.84 635.963C1550.73 635.401 1550.77 634.821 1550.95 634.276C1551.14 633.731 1551.46 633.237 1551.9 632.84H1551.86ZM1362.95 718.684L1364.18 719.833L1385.26 700.031V691.856L1416.47 662.534V655.032L1428.8 643.45L1436.38 644.408L1486.25 597.551C1487.39 598.264 1488.77 598.547 1490.12 598.344C1491.48 598.142 1492.7 597.468 1493.54 596.457C1494.39 595.447 1494.8 594.173 1494.7 592.891C1494.59 591.608 1493.97 590.41 1492.97 589.536C1491.96 588.661 1490.65 588.174 1489.28 588.171C1487.91 588.169 1486.59 588.65 1485.58 589.521C1484.57 590.391 1483.95 591.587 1483.84 592.869C1483.72 594.151 1484.13 595.426 1484.97 596.44L1435.75 642.682L1428.18 641.724L1414.73 654.36V661.862L1383.52 691.184V699.358L1362.95 718.684ZM1486.62 590.875C1486.96 590.555 1487.37 590.3 1487.81 590.126C1488.26 589.953 1488.73 589.863 1489.22 589.863C1489.7 589.863 1490.18 589.953 1490.62 590.126C1491.07 590.3 1491.47 590.555 1491.81 590.875C1492.31 591.359 1492.65 591.97 1492.79 592.633C1492.92 593.296 1492.85 593.981 1492.57 594.605C1492.3 595.228 1491.83 595.761 1491.24 596.138C1490.64 596.515 1489.94 596.719 1489.22 596.725C1488.5 596.717 1487.8 596.512 1487.21 596.135C1486.61 595.758 1486.15 595.226 1485.87 594.604C1485.6 593.982 1485.52 593.297 1485.65 592.634C1485.79 591.972 1486.12 591.36 1486.62 590.875ZM1491.77 567.023L1493.1 554.044L1500.7 546.944L1515.53 544.75L1525.59 535.303C1526.72 536.029 1528.1 536.329 1529.45 536.142C1530.81 535.956 1532.04 535.296 1532.9 534.296C1533.76 533.296 1534.19 532.027 1534.1 530.743C1534.01 529.46 1533.41 528.255 1532.42 527.368C1531.42 526.482 1530.11 525.979 1528.74 525.96C1527.37 525.941 1526.05 526.407 1525.03 527.266C1524.01 528.124 1523.37 529.312 1523.24 530.593C1523.11 531.873 1523.5 533.153 1524.33 534.177L1514.71 543.2L1499.87 545.394L1491.47 553.284L1490.14 566.263L1378.49 671.183H1380.9L1491.77 567.023ZM1526.02 528.642C1526.44 528.231 1526.96 527.925 1527.54 527.751C1528.12 527.578 1528.74 527.543 1529.34 527.649C1529.94 527.755 1530.5 527.999 1530.97 528.359C1531.44 528.718 1531.81 529.183 1532.05 529.711C1532.28 530.238 1532.37 530.812 1532.31 531.381C1532.25 531.95 1532.04 532.496 1531.7 532.97C1531.36 533.444 1530.9 533.831 1530.36 534.097C1529.82 534.362 1529.22 534.498 1528.61 534.491C1527.83 534.493 1527.07 534.254 1526.45 533.811L1525.67 533.08C1525.15 532.421 1524.89 531.606 1524.96 530.785C1525.02 529.964 1525.4 529.192 1526.02 528.613L1526.02 528.642ZM1444.77 686.906L1472.91 660.465L1471.68 652.005L1483.87 640.547C1483.51 639.933 1483.39 639.217 1483.54 638.528C1483.69 637.839 1484.1 637.224 1484.69 636.796C1485.29 636.368 1486.03 636.155 1486.77 636.196C1487.52 636.238 1488.23 636.531 1488.76 637.022C1489.3 637.513 1489.63 638.169 1489.69 638.87C1489.75 639.571 1489.55 640.27 1489.1 640.838C1488.66 641.407 1488.02 641.807 1487.29 641.966C1486.56 642.124 1485.8 642.031 1485.13 641.702L1473.54 652.597L1474.77 661.057L1445.99 688.061L1444.77 686.906ZM1490.94 672.318L1459.73 701.64H1451.75L1439.41 713.23L1440.44 720.344L1389.99 767.734L1388.76 766.586L1438.57 719.789L1437.54 712.674L1451 700.039H1459.01L1490.22 670.709H1498.92L1518.55 652.268C1518.21 651.64 1518.13 650.917 1518.31 650.234C1518.49 649.551 1518.93 648.953 1519.55 648.55C1520.16 648.147 1520.91 647.966 1521.66 648.04C1522.4 648.114 1523.1 648.438 1523.61 648.954C1524.12 649.469 1524.41 650.14 1524.44 650.844C1524.47 651.548 1524.22 652.237 1523.75 652.786C1523.28 653.334 1522.62 653.704 1521.88 653.828C1521.14 653.952 1520.38 653.821 1519.73 653.46L1499.64 672.347L1490.94 672.318ZM1655.38 544.867L1654.36 537.753L1704.8 490.341L1706.03 491.496L1656.22 538.294L1657.25 545.408L1643.79 558.051H1635.82L1604.6 587.373H1595.88L1576.24 605.873C1576.58 606.501 1576.67 607.224 1576.48 607.907C1576.3 608.59 1575.86 609.188 1575.25 609.591C1574.63 609.994 1573.88 610.175 1573.14 610.101C1572.39 610.027 1571.7 609.702 1571.19 609.187C1570.68 608.672 1570.38 608.001 1570.35 607.297C1570.33 606.593 1570.57 605.903 1571.04 605.355C1571.51 604.807 1572.18 604.437 1572.92 604.313C1573.66 604.189 1574.42 604.32 1575.06 604.681L1595.15 585.793H1603.86L1635.06 556.472H1643.05L1655.38 544.867ZM1587.34 639.026L1586.01 652.005L1578.45 659.112L1563.61 661.306L1553.57 670.753C1552.57 670.108 1551.37 669.794 1550.17 669.862C1548.96 669.93 1547.81 670.375 1546.91 671.127C1546 671.88 1545.39 672.895 1545.17 674.012C1544.95 675.129 1545.14 676.282 1545.7 677.289C1546.26 678.295 1547.16 679.096 1548.26 679.565C1549.36 680.033 1550.6 680.141 1551.77 679.872C1552.95 679.603 1553.99 678.972 1554.74 678.08C1555.49 677.188 1555.9 676.086 1555.9 674.951C1555.9 673.839 1555.51 672.758 1554.79 671.879L1564.41 662.834L1579.25 660.641L1587.65 652.744L1588.98 639.764L1682.93 551.521L1681.7 550.366L1587.34 639.026ZM1553.1 677.407C1552.6 677.88 1551.97 678.208 1551.28 678.354C1550.59 678.499 1549.88 678.455 1549.21 678.227C1548.55 677.999 1547.97 677.597 1547.54 677.068C1547.12 676.54 1546.86 675.907 1546.81 675.245C1546.75 674.584 1546.9 673.922 1547.24 673.338C1547.57 672.754 1548.08 672.273 1548.7 671.952C1549.31 671.631 1550.02 671.484 1550.72 671.528C1551.43 671.572 1552.1 671.806 1552.67 672.201L1553.45 672.932C1553.97 673.594 1554.22 674.409 1554.15 675.229C1554.09 676.049 1553.71 676.819 1553.09 677.4L1553.1 677.407ZM1514.74 583.081C1514.74 586.147 1515.71 589.144 1517.52 591.693C1519.33 594.242 1521.91 596.229 1524.92 597.402C1527.94 598.576 1531.26 598.883 1534.46 598.285C1537.66 597.686 1540.6 596.21 1542.9 594.042C1545.21 591.874 1546.78 589.112 1547.42 586.105C1548.06 583.098 1547.73 579.981 1546.48 577.148C1545.23 574.316 1543.12 571.895 1540.4 570.191C1537.69 568.488 1534.5 567.579 1531.24 567.579C1526.87 567.589 1522.68 569.226 1519.59 572.131C1516.5 575.037 1514.77 578.974 1514.76 583.081H1514.74ZM1531.24 569.188C1534.16 569.188 1537.02 570.002 1539.45 571.529C1541.88 573.056 1543.78 575.225 1544.9 577.764C1546.02 580.303 1546.31 583.096 1545.74 585.791C1545.17 588.486 1543.76 590.962 1541.69 592.905C1539.63 594.848 1536.99 596.171 1534.12 596.707C1531.25 597.243 1528.28 596.968 1525.58 595.916C1522.88 594.865 1520.57 593.084 1518.94 590.799C1517.32 588.515 1516.45 585.828 1516.45 583.081C1516.45 581.256 1516.84 579.45 1517.59 577.766C1518.33 576.081 1519.42 574.551 1520.8 573.263C1522.17 571.975 1523.81 570.954 1525.6 570.259C1527.4 569.563 1529.32 569.207 1531.26 569.21L1531.24 569.188ZM1531.24 594.276C1533.6 594.274 1535.91 593.615 1537.87 592.382C1539.83 591.148 1541.36 589.396 1542.26 587.346C1543.16 585.296 1543.4 583.041 1542.94 580.866C1542.48 578.691 1541.34 576.693 1539.67 575.125C1538 573.557 1535.87 572.489 1533.56 572.057C1531.24 571.625 1528.84 571.847 1526.66 572.696C1524.48 573.546 1522.61 574.983 1521.3 576.828C1519.99 578.672 1519.29 580.841 1519.29 583.059C1519.29 584.536 1519.6 585.998 1520.2 587.362C1520.8 588.727 1521.68 589.967 1522.8 591.01C1523.91 592.054 1525.23 592.882 1526.68 593.446C1528.13 594.01 1529.69 594.299 1531.26 594.298L1531.24 594.276ZM1531.24 573.473C1533.26 573.473 1535.23 574.035 1536.91 575.088C1538.58 576.141 1539.89 577.639 1540.66 579.39C1541.44 581.142 1541.64 583.069 1541.24 584.929C1540.85 586.788 1539.88 588.497 1538.45 589.837C1537.02 591.178 1535.21 592.091 1533.23 592.461C1531.25 592.831 1529.2 592.641 1527.33 591.915C1525.47 591.19 1523.88 589.961 1522.75 588.385C1521.63 586.808 1521.03 584.955 1521.03 583.059C1521.04 580.517 1522.12 578.082 1524.04 576.289C1525.96 574.496 1528.56 573.491 1531.26 573.494L1531.24 573.473ZM1525.6 583.081C1525.6 582.036 1525.93 581.015 1526.55 580.146C1527.16 579.276 1528.04 578.599 1529.07 578.198C1530.09 577.797 1531.22 577.692 1532.31 577.895C1533.4 578.097 1534.41 578.6 1535.19 579.338C1535.98 580.076 1536.51 581.016 1536.73 582.041C1536.95 583.065 1536.84 584.127 1536.41 585.092C1535.99 586.057 1535.27 586.882 1534.34 587.462C1533.42 588.043 1532.33 588.353 1531.22 588.353C1530.48 588.354 1529.75 588.218 1529.07 587.954C1528.39 587.689 1527.77 587.301 1527.25 586.811C1526.73 586.322 1526.31 585.74 1526.03 585.1C1525.75 584.46 1525.6 583.774 1525.6 583.081ZM1510.49 604.498H1516.79V610.414H1510.49V604.498ZM1510.49 614.355H1516.79V620.27H1510.49V614.355ZM1510.49 624.212H1516.79V630.127H1510.49V624.212ZM1510.49 634.068H1516.79V639.984H1510.49V634.068ZM1528.07 610.414H1521.77V604.498H1528.07V610.414ZM1521.77 614.355H1528.07V620.27H1521.77V614.355Z" fill="#0095D9"/>
</g>
<path d="M1684.53 720.229V422.352" stroke="url(#paint24_linear_2212_11552)" stroke-width="1.37759" stroke-miterlimit="10"/>
<path d="M1684.31 424.794C1687.56 424.794 1690.2 422.16 1690.2 418.912C1690.2 415.663 1687.56 413.029 1684.31 413.029C1681.05 413.029 1678.41 415.663 1678.41 418.912C1678.41 422.16 1681.05 424.794 1684.31 424.794Z" fill="#0095D9"/>
<path d="M1676 351.522H1691.84" stroke="#2DA0D2" stroke-width="1.37759" stroke-miterlimit="10"/>
<path d="M1676 338.497H1701.83" stroke="#2DA0D2" stroke-width="1.37759" stroke-miterlimit="10"/>
<path d="M1676 325.473H1691.84" stroke="#2DA0D2" stroke-width="1.37759" stroke-miterlimit="10"/>
<path d="M1676 312.438H1701.83" stroke="#2DA0D2" stroke-width="1.37759" stroke-miterlimit="10"/>
<path d="M1676 299.413H1691.84" stroke="#2DA0D2" stroke-width="1.37759" stroke-miterlimit="10"/>
<path d="M1676 286.388H1701.83" stroke="#2DA0D2" stroke-width="1.37759" stroke-miterlimit="10"/>
<path d="M1676 273.362H1691.84" stroke="#2DA0D2" stroke-width="1.37759" stroke-miterlimit="10"/>
</g>
<defs>
<linearGradient id="paint0_linear_2212_11552" x1="1538.92" y1="22.7254" x2="1327.59" y2="665.591" gradientUnits="userSpaceOnUse">
<stop stop-color="#244ACF"/>
<stop offset="0.526042" stop-color="#3296D0"/>
<stop offset="1" stop-color="#37B5D1"/>
</linearGradient>
<linearGradient id="paint1_linear_2212_11552" x1="296.778" y1="-33.745" x2="1052.7" y2="366.372" gradientUnits="userSpaceOnUse">
<stop stop-color="#9352FE"/>
<stop offset="0.99" stop-color="#009FBF"/>
</linearGradient>
<linearGradient id="paint2_linear_2212_11552" x1="100.311" y1="426.014" x2="1629.69" y2="426.014" gradientUnits="userSpaceOnUse">
<stop stop-color="#27AAE1"/>
<stop offset="1" stop-color="#273EE1"/>
</linearGradient>
<linearGradient id="paint3_linear_2212_11552" x1="228.279" y1="212.167" x2="246.003" y2="185.835" gradientUnits="userSpaceOnUse">
<stop stop-color="#09A7E9"/>
<stop offset="1" stop-color="#1294BD" stop-opacity="0"/>
</linearGradient>
<linearGradient id="paint4_linear_2212_11552" x1="202.529" y1="212.167" x2="220.253" y2="185.835" gradientUnits="userSpaceOnUse">
<stop stop-color="#09A7E9"/>
<stop offset="1" stop-color="#1294BD" stop-opacity="0"/>
</linearGradient>
<linearGradient id="paint5_linear_2212_11552" x1="175.963" y1="212.167" x2="193.688" y2="185.839" gradientUnits="userSpaceOnUse">
<stop stop-color="#09A7E9"/>
<stop offset="1" stop-color="#1294BD" stop-opacity="0"/>
</linearGradient>
<linearGradient id="paint6_linear_2212_11552" x1="149.39" y1="212.167" x2="167.116" y2="185.839" gradientUnits="userSpaceOnUse">
<stop stop-color="#09A7E9"/>
<stop offset="1" stop-color="#1294BD" stop-opacity="0"/>
</linearGradient>
<linearGradient id="paint7_linear_2212_11552" x1="122.812" y1="212.167" x2="140.536" y2="185.835" gradientUnits="userSpaceOnUse">
<stop stop-color="#09A7E9"/>
<stop offset="1" stop-color="#1294BD" stop-opacity="0"/>
</linearGradient>
<linearGradient id="paint8_linear_2212_11552" x1="496.598" y1="691.21" x2="504.662" y2="678.207" gradientUnits="userSpaceOnUse">
<stop stop-color="#09A7E9"/>
<stop offset="1" stop-color="#1294BD" stop-opacity="0"/>
</linearGradient>
<linearGradient id="paint9_linear_2212_11552" x1="546.469" y1="691.21" x2="554.535" y2="678.211" gradientUnits="userSpaceOnUse">
<stop stop-color="#09A7E9"/>
<stop offset="1" stop-color="#1294BD" stop-opacity="0"/>
</linearGradient>
<linearGradient id="paint10_linear_2212_11552" x1="596.33" y1="691.21" x2="604.395" y2="678.207" gradientUnits="userSpaceOnUse">
<stop stop-color="#09A7E9"/>
<stop offset="1" stop-color="#1294BD" stop-opacity="0"/>
</linearGradient>
<linearGradient id="paint11_linear_2212_11552" x1="646.201" y1="691.21" x2="654.266" y2="678.207" gradientUnits="userSpaceOnUse">
<stop stop-color="#09A7E9"/>
<stop offset="1" stop-color="#1294BD" stop-opacity="0"/>
</linearGradient>
<linearGradient id="paint12_linear_2212_11552" x1="696.072" y1="691.21" x2="704.137" y2="678.207" gradientUnits="userSpaceOnUse">
<stop stop-color="#09A7E9"/>
<stop offset="1" stop-color="#1294BD" stop-opacity="0"/>
</linearGradient>
<linearGradient id="paint13_linear_2212_11552" x1="745.944" y1="691.21" x2="754.008" y2="678.207" gradientUnits="userSpaceOnUse">
<stop stop-color="#09A7E9"/>
<stop offset="1" stop-color="#1294BD" stop-opacity="0"/>
</linearGradient>
<linearGradient id="paint14_linear_2212_11552" x1="30.2891" y1="424.05" x2="30.2891" y2="143.711" gradientUnits="userSpaceOnUse">
<stop stop-color="#0095D9"/>
<stop offset="0.24814" stop-color="#6BCCCB" stop-opacity="0.75186"/>
<stop offset="1" stop-color="#1294BD" stop-opacity="0"/>
</linearGradient>
<linearGradient id="paint15_linear_2212_11552" x1="386.271" y1="683.983" x2="403.997" y2="657.656" gradientUnits="userSpaceOnUse">
<stop stop-color="#09A7E9"/>
<stop offset="1" stop-color="#1294BD" stop-opacity="0"/>
</linearGradient>
<linearGradient id="paint16_linear_2212_11552" x1="359.693" y1="683.983" x2="377.417" y2="657.652" gradientUnits="userSpaceOnUse">
<stop stop-color="#09A7E9"/>
<stop offset="1" stop-color="#1294BD" stop-opacity="0"/>
</linearGradient>
<linearGradient id="paint17_linear_2212_11552" x1="333.125" y1="683.983" x2="350.848" y2="657.652" gradientUnits="userSpaceOnUse">
<stop stop-color="#09A7E9"/>
<stop offset="1" stop-color="#1294BD" stop-opacity="0"/>
</linearGradient>
<linearGradient id="paint18_linear_2212_11552" x1="306.556" y1="683.983" x2="324.28" y2="657.652" gradientUnits="userSpaceOnUse">
<stop stop-color="#09A7E9"/>
<stop offset="1" stop-color="#1294BD" stop-opacity="0"/>
</linearGradient>
<linearGradient id="paint19_linear_2212_11552" x1="280.386" y1="683.983" x2="298.11" y2="657.652" gradientUnits="userSpaceOnUse">
<stop stop-color="#09A7E9"/>
<stop offset="1" stop-color="#1294BD" stop-opacity="0"/>
</linearGradient>
<linearGradient id="paint20_linear_2212_11552" x1="254.638" y1="683.983" x2="272.362" y2="657.652" gradientUnits="userSpaceOnUse">
<stop stop-color="#09A7E9"/>
<stop offset="1" stop-color="#1294BD" stop-opacity="0"/>
</linearGradient>
<linearGradient id="paint21_linear_2212_11552" x1="228.072" y1="683.983" x2="245.796" y2="657.652" gradientUnits="userSpaceOnUse">
<stop stop-color="#09A7E9"/>
<stop offset="1" stop-color="#1294BD" stop-opacity="0"/>
</linearGradient>
<linearGradient id="paint22_linear_2212_11552" x1="201.498" y1="683.983" x2="219.221" y2="657.652" gradientUnits="userSpaceOnUse">
<stop stop-color="#09A7E9"/>
<stop offset="1" stop-color="#1294BD" stop-opacity="0"/>
</linearGradient>
<linearGradient id="paint23_linear_2212_11552" x1="174.931" y1="683.983" x2="192.655" y2="657.652" gradientUnits="userSpaceOnUse">
<stop stop-color="#09A7E9"/>
<stop offset="1" stop-color="#1294BD" stop-opacity="0"/>
</linearGradient>
<linearGradient id="paint24_linear_2212_11552" x1="1669.09" y1="428.181" x2="1669.09" y2="708.52" gradientUnits="userSpaceOnUse">
<stop stop-color="#0095D9"/>
<stop offset="0.24814" stop-color="#6BCCCB" stop-opacity="0.75186"/>
<stop offset="1" stop-color="#1294BD" stop-opacity="0"/>
</linearGradient>
<clipPath id="clip0_2212_11552">
<rect width="1728" height="720" fill="white"/>
</clipPath>
<clipPath id="clip1_2212_11552">
<rect width="323" height="324" fill="white" transform="translate(1628 693) rotate(-180)"/>
</clipPath>
</defs>
</svg>
