<svg width="1602" height="588" viewBox="0 0 1602 588" fill="none" xmlns="http://www.w3.org/2000/svg">
<path fill-rule="evenodd" clip-rule="evenodd" d="M354.424 29.8138C356.792 27.7969 359.8 26.6891 362.911 26.6891H480.35C483.486 26.6891 486.517 27.8146 488.892 29.8609L495.734 35.7554C498.36 38.0171 501.71 39.2611 505.175 39.2611H600.999H696.824C700.289 39.2611 703.639 38.0171 706.264 35.7554L713.107 29.8609C715.482 27.8146 718.513 26.6891 721.648 26.6891H839.09C842.199 26.6891 845.207 27.7962 847.574 29.8121L867.385 46.6814C870.002 48.9095 873.326 50.1332 876.763 50.1332H1325.5V48.7556H876.763C873.653 48.7556 870.646 47.6485 868.278 45.6326L848.467 28.7632C845.851 26.5352 842.526 25.3115 839.09 25.3115H721.648C718.183 25.3115 714.833 26.5555 712.208 28.8172L705.365 34.7117C702.99 36.758 699.959 37.8835 696.824 37.8835H600.999H505.175C502.04 37.8835 499.009 36.758 496.633 34.7117L489.791 28.8172C487.166 26.5555 483.816 25.3115 480.35 25.3115H362.911C359.473 25.3115 356.148 26.5359 353.531 28.7651L333.732 45.6309C331.364 47.6478 328.356 48.7556 325.245 48.7556H110.649C107.211 48.7556 103.886 49.9799 101.269 52.2091L73.3623 75.9819C70.1361 78.7301 68.2775 82.755 68.2775 86.993V191.612C68.2775 195.85 70.1361 199.874 73.3623 202.623L81.0997 209.214C84.0186 211.7 85.7002 215.342 85.7002 219.176V305.421C85.7002 309.256 84.0176 312.899 81.0973 315.385L68.398 326.198C65.1702 328.946 63.3105 332.972 63.3105 337.211V497.971C63.3105 502.21 65.1695 506.235 68.3962 508.983L127.398 559.236C130.015 561.465 133.34 562.689 136.777 562.689H423.368C426.805 562.689 430.13 561.465 432.747 559.237L463.741 532.841C466.108 530.825 469.116 529.718 472.226 529.718H729.773C732.882 529.718 735.89 530.825 738.258 532.841L769.252 559.237C771.869 561.465 775.194 562.689 778.631 562.689L1227.56 562.689H1519.23C1522.67 562.689 1526 561.465 1528.61 559.236L1587.6 508.983C1590.83 506.235 1592.69 502.21 1592.69 497.972V337.211C1592.69 332.972 1590.83 328.946 1587.6 326.198L1574.9 315.385C1571.98 312.899 1570.3 309.256 1570.3 305.421V219.177C1570.3 215.342 1571.98 211.701 1574.9 209.214L1582.64 202.623C1585.86 199.875 1587.72 195.85 1587.72 191.612V86.9933C1587.72 82.7552 1585.86 78.7304 1582.64 75.9822L1554.73 52.2094C1552.11 49.9802 1548.79 48.7559 1545.35 48.7559H1325.69V50.1334H1545.35C1548.46 50.1334 1551.47 51.2412 1553.84 53.2581L1581.74 77.0309C1584.66 79.5174 1586.34 83.1589 1586.34 86.9933V191.612C1586.34 195.446 1584.66 199.088 1581.74 201.574L1574.01 208.166C1570.78 210.914 1568.92 214.939 1568.92 219.177V305.421C1568.92 309.66 1570.78 313.686 1574.01 316.434L1586.71 327.247C1589.63 329.733 1591.31 333.376 1591.31 337.211V497.972C1591.31 501.807 1589.63 505.448 1586.71 507.935L1527.72 558.187C1525.35 560.204 1522.34 561.312 1519.23 561.312L1228.5 561.312H778.631C775.521 561.312 772.513 560.204 770.145 558.188L739.151 531.793C736.534 529.564 733.21 528.34 729.773 528.34H472.226C468.789 528.34 465.464 529.564 462.848 531.793L431.853 558.188C429.486 560.204 426.478 561.312 423.368 561.312H136.777C133.667 561.312 130.659 560.204 128.291 558.188L69.2894 507.934C66.3701 505.448 64.6881 501.806 64.6881 497.971V337.211C64.6881 333.376 66.3707 329.733 69.291 327.247L81.9903 316.434C85.2181 313.686 87.0778 309.66 87.0778 305.421V219.176C87.0778 214.938 85.2191 210.913 81.993 208.165L74.2556 201.574C71.3367 199.088 69.6551 195.446 69.6551 191.612V86.993C69.6551 83.1586 71.3367 79.5171 74.2556 77.0306L102.162 53.2578C104.53 51.2409 107.539 50.1332 110.649 50.1332H325.245C328.683 50.1332 332.008 48.9088 334.625 46.6796L354.424 29.8138Z" fill="url(#paint0_linear_2212_11555)"/>
<path d="M72.1836 229.036V288.942L82.5213 299.26V218.719L72.1836 229.036Z" fill="#0095D9"/>
<path d="M1586.34 288.942V229.036L1576 218.719V299.26L1586.34 288.942Z" fill="#0254CF"/>
<path d="M213.986 58.0016L192.066 79.2339L209.056 79.0565L230.975 57.8242L213.986 58.0016Z" fill="url(#paint1_linear_2212_11555)"/>
<path d="M188.236 58.0016L166.316 79.2339L183.306 79.0565L205.225 57.8242L188.236 58.0016Z" fill="url(#paint2_linear_2212_11555)"/>
<path d="M161.67 58.0016L139.75 79.2339L156.73 79.0565L178.65 57.8242L161.67 58.0016Z" fill="url(#paint3_linear_2212_11555)"/>
<path d="M135.097 58.0016L113.178 79.2339L130.158 79.0565L152.077 57.8242L135.097 58.0016Z" fill="url(#paint4_linear_2212_11555)"/>
<path d="M108.519 58.0016L86.5996 79.2339L103.589 79.0565L125.509 57.8242L108.519 58.0016Z" fill="url(#paint5_linear_2212_11555)"/>
<path d="M479.871 558.771L469.935 548.696L460 558.771H479.871Z" fill="url(#paint6_linear_2212_11555)"/>
<path d="M529.733 558.771L519.797 548.696L509.871 558.771H529.733Z" fill="url(#paint7_linear_2212_11555)"/>
<path d="M579.603 558.771L569.668 548.696L559.732 558.771H579.603Z" fill="url(#paint8_linear_2212_11555)"/>
<path d="M629.474 558.771L619.539 548.696L609.604 558.771H629.474Z" fill="url(#paint9_linear_2212_11555)"/>
<path d="M679.345 558.771L669.41 548.696L659.475 558.771H679.345Z" fill="url(#paint10_linear_2212_11555)"/>
<path d="M729.217 558.771L719.281 548.696L709.346 558.771H729.217Z" fill="url(#paint11_linear_2212_11555)"/>
<path d="M8.73047 297.879L8.73052 0.00121591" stroke="url(#paint12_linear_2212_11555)" stroke-width="1.37759" stroke-miterlimit="10"/>
<path d="M8.72593 306.758C11.981 306.758 14.6198 304.124 14.6198 300.875C14.6198 297.627 11.981 294.993 8.72593 294.993C5.47082 294.993 2.83203 297.627 2.83203 300.875C2.83203 304.124 5.47082 306.758 8.72593 306.758Z" fill="#0095D9"/>
<path d="M0.199219 368.708H16.0379" stroke="#0095D9" stroke-width="1.37759" stroke-miterlimit="10"/>
<path d="M0.199219 381.732H26.0294" stroke="#0095D9" stroke-width="1.37759" stroke-miterlimit="10"/>
<path d="M0.199219 394.759H16.0379" stroke="#0095D9" stroke-width="1.37759" stroke-miterlimit="10"/>
<path d="M0.199219 407.792H26.0294" stroke="#0095D9" stroke-width="1.37759" stroke-miterlimit="10"/>
<path d="M0.199219 420.817H16.0379" stroke="#0095D9" stroke-width="1.37759" stroke-miterlimit="10"/>
<path d="M0.199219 433.843H26.0294" stroke="#0095D9" stroke-width="1.37759" stroke-miterlimit="10"/>
<path d="M0.199219 446.868H16.0379" stroke="#0095D9" stroke-width="1.37759" stroke-miterlimit="10"/>
<g style="mix-blend-mode:soft-light">
<path d="M371.978 529.818L350.059 551.05L367.039 550.873L388.958 529.641L371.978 529.818Z" fill="url(#paint13_linear_2212_11555)"/>
</g>
<g style="mix-blend-mode:soft-light">
<path d="M345.41 529.818L323.48 551.05L340.47 550.873L362.39 529.641L345.41 529.818Z" fill="url(#paint14_linear_2212_11555)"/>
</g>
<g style="mix-blend-mode:soft-light">
<path d="M318.832 529.818L296.912 551.05L313.901 550.873L335.821 529.641L318.832 529.818Z" fill="url(#paint15_linear_2212_11555)"/>
</g>
<g style="mix-blend-mode:soft-light">
<path d="M292.263 529.818L270.344 551.05L287.333 550.873L309.253 529.641L292.263 529.818Z" fill="url(#paint16_linear_2212_11555)"/>
</g>
<g style="mix-blend-mode:soft-light">
<path d="M266.093 529.818L244.174 551.05L261.163 550.873L283.083 529.641L266.093 529.818Z" fill="url(#paint17_linear_2212_11555)"/>
</g>
<g style="mix-blend-mode:soft-light">
<path d="M240.345 529.818L218.426 551.05L235.415 550.873L257.335 529.641L240.345 529.818Z" fill="url(#paint18_linear_2212_11555)"/>
</g>
<g style="mix-blend-mode:soft-light">
<path d="M213.779 529.818L191.859 551.05L208.849 550.873L230.768 529.641L213.779 529.818Z" fill="url(#paint19_linear_2212_11555)"/>
</g>
<g style="mix-blend-mode:soft-light">
<path d="M187.205 529.818L165.285 551.05L182.275 550.873L204.194 529.641L187.205 529.818Z" fill="url(#paint20_linear_2212_11555)"/>
</g>
<g style="mix-blend-mode:soft-light">
<path d="M160.638 529.818L138.719 551.05L155.708 550.873L177.628 529.641L160.638 529.818Z" fill="url(#paint21_linear_2212_11555)"/>
</g>
<g clip-path="url(#clip0_2212_11555)">
<g style="mix-blend-mode:screen" opacity="0.1">
<g style="mix-blend-mode:screen">
<path d="M1217.6 669.195L1283.35 607.341V574.137L1335.79 524.765C1337.57 525.689 1339.61 526.046 1341.62 525.782C1343.63 525.519 1345.49 524.648 1346.92 523.303C1347.79 522.487 1348.48 521.519 1348.96 520.452C1349.43 519.386 1349.67 518.242 1349.67 517.087C1349.67 515.932 1349.43 514.789 1348.96 513.722C1348.48 512.656 1347.79 511.687 1346.92 510.872C1345.18 509.31 1342.87 508.438 1340.47 508.439C1338.06 508.439 1335.75 509.312 1334.01 510.875C1332.27 512.438 1331.24 514.57 1331.14 516.828C1331.03 519.086 1331.86 521.295 1333.44 522.995L1280.34 572.959V606.171L1214.66 667.995L1213.44 704.022L1161.57 752.831L1163.69 754.827L1216.39 705.229L1217.6 669.195ZM1335.83 512.875C1337.02 511.763 1338.63 511.138 1340.31 511.138C1341.99 511.138 1343.6 511.763 1344.79 512.875C1345.68 513.708 1346.28 514.77 1346.53 515.926C1346.78 517.082 1346.65 518.28 1346.17 519.37C1345.69 520.459 1344.88 521.391 1343.84 522.047C1342.8 522.703 1341.57 523.053 1340.32 523.054C1339.06 523.055 1337.83 522.706 1336.79 522.051C1335.75 521.397 1334.93 520.467 1334.45 519.378C1333.97 518.289 1333.85 517.091 1334.09 515.935C1334.34 514.779 1334.94 513.717 1335.83 512.883V512.875Z" fill="#0095D9"/>
</g>
<g style="mix-blend-mode:screen">
<path d="M1332.03 463.555C1330.14 462.244 1327.8 461.648 1325.47 461.886C1323.14 462.124 1320.98 463.178 1319.44 464.839C1317.9 466.5 1317.08 468.646 1317.14 470.85C1317.2 473.054 1318.15 475.155 1319.79 476.734C1321.43 478.313 1323.64 479.254 1325.98 479.371C1328.32 479.489 1330.63 478.773 1332.43 477.366C1334.24 475.959 1335.42 473.965 1335.73 471.78C1336.04 469.595 1335.47 467.379 1334.12 465.573L1355.77 445.231L1353.65 430.607L1466.81 324.266L1464.68 322.27L1350.44 429.612L1352.56 444.237L1332.03 463.555ZM1330.96 474.816C1330.08 475.65 1328.95 476.218 1327.72 476.449C1326.49 476.679 1325.21 476.561 1324.05 476.111C1322.89 475.66 1321.9 474.896 1321.2 473.916C1320.51 472.936 1320.13 471.783 1320.13 470.604C1320.13 469.425 1320.51 468.273 1321.2 467.293C1321.9 466.312 1322.89 465.549 1324.05 465.098C1325.21 464.647 1326.49 464.529 1327.72 464.76C1328.95 464.99 1330.08 465.558 1330.96 466.392C1331.56 466.943 1332.03 467.598 1332.35 468.321C1332.67 469.044 1332.84 469.82 1332.84 470.604C1332.84 471.388 1332.67 472.164 1332.35 472.887C1332.03 473.61 1331.56 474.266 1330.96 474.816Z" fill="#0095D9"/>
</g>
<g style="mix-blend-mode:screen">
<path d="M1657.33 326.502L1655.21 324.514L1618.79 358.727V372.847L1564.87 423.513V436.463L1543.56 456.49L1530.48 454.86L1444.32 535.805C1442.35 534.574 1439.96 534.085 1437.62 534.436C1435.29 534.787 1433.17 535.953 1431.71 537.7C1430.25 539.448 1429.54 541.65 1429.72 543.867C1429.91 546.084 1430.98 548.154 1432.71 549.665C1434.45 551.176 1436.73 552.017 1439.1 552.02C1441.46 552.024 1443.74 551.189 1445.49 549.683C1447.23 548.177 1448.3 546.11 1448.5 543.893C1448.69 541.677 1447.99 539.473 1446.53 537.721L1531.55 457.785L1544.63 459.467L1567.88 437.632V424.675L1621.8 374.017V359.897L1657.33 326.502ZM1443.67 547.329C1442.63 548.306 1441.27 548.914 1439.81 549.051C1438.35 549.187 1436.88 548.844 1435.66 548.079C1434.44 547.314 1433.54 546.175 1433.11 544.856C1432.68 543.537 1432.76 542.119 1433.32 540.845C1433.88 539.57 1434.89 538.518 1436.19 537.867C1437.48 537.216 1438.97 537.007 1440.41 537.275C1441.85 537.543 1443.15 538.272 1444.08 539.337C1445.01 540.403 1445.52 541.739 1445.52 543.118C1445.52 543.897 1445.36 544.669 1445.04 545.389C1444.72 546.11 1444.26 546.764 1443.67 547.315V547.329Z" fill="#0095D9"/>
</g>
<g style="mix-blend-mode:screen">
<path d="M1492.37 594.231L1490.07 616.657L1477 628.89L1451.38 632.715L1434.01 649.035C1432.06 647.783 1429.68 647.267 1427.34 647.59C1425 647.912 1422.88 649.049 1421.4 650.775C1419.91 652.5 1419.18 654.688 1419.33 656.902C1419.49 659.115 1420.52 661.193 1422.24 662.721C1423.95 664.249 1426.21 665.115 1428.57 665.147C1430.93 665.178 1433.22 664.373 1434.98 662.892C1436.73 661.411 1437.83 659.362 1438.06 657.153C1438.28 654.944 1437.61 652.738 1436.18 650.973L1452.8 635.391L1478.43 631.567L1492.95 617.922L1495.28 595.503L1657.48 443.052L1655.35 441.056L1492.37 594.231ZM1433.22 660.537C1432.37 661.356 1431.28 661.927 1430.09 662.182C1428.9 662.437 1427.66 662.365 1426.51 661.976C1425.37 661.586 1424.36 660.895 1423.62 659.985C1422.88 659.075 1422.44 657.984 1422.34 656.842C1422.24 655.7 1422.49 654.555 1423.07 653.545C1423.64 652.534 1424.51 651.7 1425.58 651.141C1426.64 650.583 1427.86 650.324 1429.07 650.395C1430.29 650.467 1431.46 650.865 1432.44 651.543L1433.81 652.823C1434.71 653.964 1435.14 655.372 1435.03 656.789C1434.92 658.206 1434.26 659.537 1433.19 660.537H1433.22Z" fill="#0095D9"/>
</g>
<g style="mix-blend-mode:screen">
<path d="M1513.87 379.405L1464.2 426.078L1466.32 440.702L1446.28 459.524C1445.13 458.931 1443.79 458.749 1442.51 459.012C1441.22 459.275 1440.08 459.965 1439.3 460.955C1438.52 461.944 1438.14 463.167 1438.24 464.398C1438.33 465.629 1438.9 466.785 1439.84 467.653C1440.77 468.521 1442.01 469.042 1443.32 469.121C1444.63 469.2 1445.93 468.832 1446.97 468.084C1448.02 467.335 1448.74 466.257 1449 465.049C1449.27 463.84 1449.06 462.582 1448.42 461.506L1469.49 441.697L1467.37 427.073L1515.99 381.401L1513.87 379.405Z" fill="#0095D9"/>
</g>
<g style="mix-blend-mode:screen">
<path d="M1452 360.336L1430.07 380.933C1429.36 380.534 1428.52 380.39 1427.7 380.528C1426.88 380.666 1426.15 381.076 1425.63 381.684C1425.11 382.291 1424.84 383.054 1424.87 383.833C1424.9 384.611 1425.23 385.353 1425.8 385.921C1426.37 386.489 1427.14 386.844 1427.96 386.923C1428.79 387.002 1429.61 386.797 1430.29 386.348C1430.97 385.899 1431.45 385.234 1431.65 384.478C1431.85 383.721 1431.75 382.923 1431.37 382.23L1452.78 362.113H1462.27L1496.33 330.132H1505.02L1519.69 316.349L1518.58 308.589L1572.94 257.516L1571.6 256.261L1516.91 307.643L1516.57 307.952L1517.69 315.712L1504.24 328.351H1495.53L1461.48 360.336H1452Z" fill="#0095D9"/>
</g>
<g style="mix-blend-mode:screen">
<path d="M1173.41 606.776H1187.22L1241.12 556.118H1256.16L1290.89 523.491C1292.02 524.123 1293.35 524.351 1294.64 524.132C1295.94 523.913 1297.1 523.263 1297.92 522.301C1298.75 521.339 1299.17 520.13 1299.12 518.897C1299.07 517.664 1298.55 516.489 1297.65 515.59C1296.75 514.69 1295.53 514.126 1294.23 514.002C1292.92 513.878 1291.61 514.201 1290.54 514.913C1289.46 515.625 1288.7 516.677 1288.39 517.876C1288.07 519.074 1288.23 520.339 1288.83 521.436L1254.92 553.295H1239.89L1185.97 603.961H1172.18L1148.94 625.795L1150.71 638.087L1064.61 718.981L1066.73 720.978L1153.89 639.081L1152.13 626.79L1173.41 606.776Z" fill="#0095D9"/>
</g>
</g>
<path d="M1567.21 359.233L1591.75 336.126V333.809L1565.49 358.531L1564.79 379.392L1526.74 415.222V434.036C1525.37 434.167 1524.11 434.775 1523.21 435.74C1522.3 436.704 1521.82 437.954 1521.85 439.24C1521.88 440.526 1522.42 441.755 1523.37 442.681C1524.32 443.607 1525.61 444.163 1526.97 444.238C1528.34 444.313 1529.69 443.901 1530.75 443.085C1531.81 442.269 1532.5 441.108 1532.69 439.834C1532.88 438.56 1532.55 437.265 1531.77 436.208C1530.99 435.152 1529.81 434.41 1528.47 434.131V415.851L1566.5 380.072L1567.21 359.233ZM1529.93 436.647C1530.53 437.21 1530.91 437.954 1531 438.75C1531.09 439.547 1530.88 440.347 1530.4 441.015C1529.93 441.682 1529.23 442.175 1528.42 442.41C1527.6 442.645 1526.72 442.607 1525.94 442.302C1525.15 441.997 1524.5 441.445 1524.09 440.739C1523.69 440.034 1523.56 439.219 1523.73 438.433C1523.89 437.647 1524.34 436.94 1525 436.431C1525.66 435.923 1526.48 435.645 1527.34 435.645C1527.82 435.642 1528.29 435.729 1528.74 435.901C1529.18 436.073 1529.59 436.326 1529.93 436.647ZM1580.44 388.32L1542.39 424.15V443.374L1512.04 471.95C1511.01 471.415 1509.82 471.209 1508.66 471.363C1507.5 471.517 1506.42 472.024 1505.59 472.805C1504.82 473.509 1504.3 474.411 1504.07 475.396C1503.85 476.382 1503.94 477.408 1504.33 478.345C1504.73 479.283 1505.41 480.09 1506.29 480.666C1507.17 481.242 1508.21 481.561 1509.28 481.583C1510.35 481.605 1511.41 481.33 1512.31 480.79C1513.22 480.251 1513.94 479.473 1514.37 478.553C1514.81 477.632 1514.95 476.611 1514.77 475.618C1514.59 474.624 1514.11 473.701 1513.37 472.966L1544.12 444.046V424.83L1582.19 389.052L1582.9 368.197L1591.75 359.78V357.478L1581.21 367.474L1580.44 388.32ZM1512.01 478.801C1511.41 479.37 1510.62 479.725 1509.77 479.807C1508.93 479.889 1508.08 479.692 1507.36 479.25C1506.65 478.808 1506.13 478.148 1505.88 477.383C1505.63 476.618 1505.67 475.795 1505.99 475.054C1506.32 474.314 1506.9 473.701 1507.65 473.322C1508.4 472.942 1509.27 472.819 1510.11 472.973C1510.94 473.127 1511.69 473.548 1512.24 474.166C1512.78 474.783 1513.08 475.558 1513.08 476.359C1513.09 476.811 1513 477.26 1512.83 477.681C1512.65 478.101 1512.39 478.485 1512.05 478.808L1512.01 478.801ZM1510.93 418.3L1548.05 383.37C1547.69 382.753 1547.58 382.034 1547.74 381.346C1547.9 380.657 1548.31 380.045 1548.91 379.623C1549.51 379.2 1550.25 378.995 1551 379.044C1551.75 379.094 1552.45 379.396 1552.98 379.894C1553.51 380.392 1553.83 381.053 1553.89 381.755C1553.94 382.458 1553.72 383.154 1553.27 383.718C1552.82 384.281 1552.17 384.673 1551.44 384.821C1550.7 384.97 1549.94 384.865 1549.28 384.525L1511.93 419.704L1494.7 425.883C1494.71 426.587 1494.44 427.271 1493.96 427.808C1493.47 428.345 1492.8 428.7 1492.06 428.807C1491.32 428.915 1490.56 428.768 1489.93 428.393C1489.29 428.018 1488.82 427.441 1488.61 426.767C1488.39 426.093 1488.44 425.368 1488.74 424.725C1489.05 424.082 1489.59 423.564 1490.27 423.266C1490.95 422.968 1491.72 422.911 1492.44 423.104C1493.16 423.297 1493.78 423.729 1494.19 424.318L1510.93 418.3ZM1406.1 420.494C1406.81 420.499 1407.51 420.373 1408.17 420.122C1408.82 419.871 1409.42 419.5 1409.92 419.032C1410.43 418.557 1410.83 417.993 1411.11 417.372L1430.47 421.518L1474 380.57L1491.72 384.723L1573.43 308.337V306.028L1491.22 382.917L1473.47 378.778L1429.88 419.726L1411.46 415.785C1411.46 415.668 1411.46 415.551 1411.46 415.441C1411.46 414.426 1411.15 413.43 1410.56 412.582C1409.96 411.734 1409.11 411.071 1408.12 410.678C1407.12 410.285 1406.02 410.179 1404.96 410.375C1403.9 410.57 1402.92 411.058 1402.16 411.776C1401.39 412.493 1400.87 413.409 1400.66 414.405C1400.45 415.402 1400.56 416.434 1400.98 417.371C1401.4 418.309 1402.1 419.108 1403 419.668C1403.91 420.228 1404.97 420.523 1406.05 420.516L1406.1 420.494ZM1403.51 412.984C1404.11 412.419 1404.9 412.067 1405.75 411.988C1406.59 411.91 1407.44 412.109 1408.15 412.553C1408.86 412.996 1409.38 413.657 1409.62 414.421C1409.87 415.185 1409.83 416.006 1409.5 416.744C1409.18 417.482 1408.59 418.091 1407.84 418.467C1407.09 418.844 1406.22 418.964 1405.39 418.808C1404.56 418.651 1403.81 418.228 1403.27 417.61C1402.73 416.992 1402.43 416.218 1402.44 415.419C1402.45 414.521 1402.83 413.662 1403.51 413.028V412.984ZM1446.45 390.792C1445.83 390.313 1445.44 389.629 1445.34 388.881C1445.25 388.133 1445.46 387.38 1445.94 386.778C1446.42 386.176 1447.13 385.771 1447.93 385.648C1448.72 385.526 1449.53 385.695 1450.19 386.12L1472.17 365.441L1491.44 369.097L1514.45 347.453C1514.09 346.836 1513.98 346.117 1514.13 345.428C1514.29 344.74 1514.71 344.128 1515.31 343.705C1515.91 343.283 1516.65 343.077 1517.4 343.127C1518.14 343.177 1518.85 343.479 1519.38 343.977C1519.91 344.474 1520.23 345.135 1520.28 345.838C1520.33 346.54 1520.12 347.237 1519.67 347.8C1519.22 348.364 1518.57 348.755 1517.83 348.904C1517.1 349.052 1516.33 348.947 1515.68 348.608L1492.01 370.874L1472.73 367.218L1451.42 387.275C1451.87 387.896 1452.04 388.655 1451.91 389.395C1451.78 390.136 1451.35 390.801 1450.72 391.252C1450.08 391.704 1449.28 391.908 1448.49 391.823C1447.69 391.737 1446.97 391.368 1446.45 390.792ZM1514.25 507.355C1515.33 508.105 1516.68 508.442 1518.02 508.3C1519.36 508.159 1520.6 507.548 1521.48 506.59C1522.36 505.632 1522.83 504.397 1522.79 503.13C1522.75 501.863 1522.2 500.658 1521.25 499.753C1520.31 498.848 1519.04 498.311 1517.69 498.247C1516.34 498.184 1515.02 498.599 1513.98 499.411C1512.95 500.222 1512.27 501.37 1512.1 502.627C1511.92 503.883 1512.26 505.156 1513.03 506.192L1500.5 517.958L1501.73 526.425L1436.21 587.942L1437.44 589.097L1503.59 526.944L1502.36 518.484L1514.25 507.355ZM1514.86 500.84C1515.55 500.194 1516.48 499.831 1517.45 499.831C1518.42 499.831 1519.36 500.194 1520.04 500.84C1520.39 501.157 1520.66 501.536 1520.85 501.954C1521.03 502.373 1521.13 502.822 1521.13 503.275C1521.13 503.847 1520.99 504.412 1520.71 504.919C1520.43 505.426 1520.02 505.859 1519.51 506.18C1519.01 506.5 1518.43 506.698 1517.82 506.755C1517.21 506.813 1516.6 506.728 1516.04 506.508C1515.48 506.288 1514.98 505.94 1514.6 505.496C1514.22 505.052 1513.96 504.525 1513.84 503.963C1513.73 503.401 1513.77 502.821 1513.95 502.276C1514.14 501.731 1514.46 501.237 1514.9 500.84H1514.86ZM1325.95 586.684L1327.18 587.833L1348.26 568.031V559.856L1379.47 530.534V523.032L1391.8 511.45L1399.38 512.408L1449.25 465.551C1450.39 466.264 1451.77 466.547 1453.12 466.344C1454.48 466.142 1455.7 465.468 1456.54 464.457C1457.39 463.447 1457.8 462.173 1457.7 460.891C1457.59 459.608 1456.97 458.41 1455.97 457.536C1454.96 456.661 1453.65 456.174 1452.28 456.171C1450.91 456.169 1449.59 456.65 1448.58 457.521C1447.57 458.391 1446.95 459.587 1446.84 460.869C1446.72 462.151 1447.13 463.426 1447.97 464.44L1398.75 510.682L1391.18 509.724L1377.73 522.36V529.862L1346.52 559.184V567.358L1325.95 586.684ZM1449.62 458.875C1449.96 458.555 1450.37 458.3 1450.81 458.126C1451.26 457.953 1451.73 457.863 1452.22 457.863C1452.7 457.863 1453.18 457.953 1453.62 458.126C1454.07 458.3 1454.47 458.555 1454.81 458.875C1455.31 459.359 1455.65 459.97 1455.79 460.633C1455.92 461.296 1455.85 461.981 1455.57 462.605C1455.3 463.228 1454.83 463.761 1454.24 464.138C1453.64 464.515 1452.94 464.719 1452.22 464.725C1451.5 464.717 1450.8 464.512 1450.21 464.135C1449.61 463.758 1449.15 463.226 1448.87 462.604C1448.6 461.982 1448.52 461.297 1448.65 460.634C1448.79 459.972 1449.12 459.36 1449.62 458.875ZM1454.77 435.023L1456.1 422.044L1463.7 414.944L1478.53 412.75L1488.59 403.303C1489.72 404.029 1491.1 404.329 1492.45 404.142C1493.81 403.956 1495.04 403.296 1495.9 402.296C1496.76 401.296 1497.19 400.027 1497.1 398.743C1497.01 397.46 1496.41 396.255 1495.42 395.368C1494.42 394.482 1493.11 393.979 1491.74 393.96C1490.37 393.941 1489.05 394.407 1488.03 395.266C1487.01 396.124 1486.37 397.312 1486.24 398.593C1486.11 399.873 1486.5 401.153 1487.33 402.177L1477.71 411.2L1462.87 413.394L1454.47 421.284L1453.14 434.263L1341.49 539.183H1343.9L1454.77 435.023ZM1489.02 396.642C1489.44 396.231 1489.96 395.925 1490.54 395.751C1491.12 395.578 1491.74 395.543 1492.34 395.649C1492.94 395.755 1493.5 395.999 1493.97 396.359C1494.44 396.718 1494.81 397.183 1495.05 397.711C1495.28 398.238 1495.37 398.812 1495.31 399.381C1495.25 399.95 1495.04 400.496 1494.7 400.97C1494.36 401.444 1493.9 401.831 1493.36 402.097C1492.82 402.362 1492.22 402.498 1491.61 402.491C1490.83 402.493 1490.07 402.254 1489.45 401.811L1488.67 401.08C1488.15 400.421 1487.89 399.606 1487.96 398.785C1488.02 397.964 1488.4 397.192 1489.02 396.613L1489.02 396.642ZM1407.77 554.906L1435.91 528.465L1434.68 520.005L1446.87 508.547C1446.51 507.933 1446.39 507.217 1446.54 506.528C1446.69 505.839 1447.1 505.224 1447.69 504.796C1448.29 504.368 1449.03 504.155 1449.77 504.196C1450.52 504.238 1451.23 504.531 1451.76 505.022C1452.3 505.513 1452.63 506.169 1452.69 506.87C1452.75 507.571 1452.55 508.27 1452.1 508.838C1451.66 509.407 1451.02 509.807 1450.29 509.966C1449.56 510.124 1448.8 510.031 1448.13 509.702L1436.54 520.597L1437.77 529.057L1408.99 556.061L1407.77 554.906ZM1453.94 540.318L1422.73 569.64H1414.75L1402.41 581.23L1403.44 588.344L1352.99 635.734L1351.76 634.586L1401.57 587.789L1400.54 580.674L1414 568.039H1422.01L1453.22 538.709H1461.92L1481.55 520.268C1481.21 519.64 1481.13 518.917 1481.31 518.234C1481.49 517.551 1481.93 516.953 1482.55 516.55C1483.16 516.147 1483.91 515.966 1484.66 516.04C1485.4 516.114 1486.1 516.438 1486.61 516.954C1487.12 517.469 1487.41 518.14 1487.44 518.844C1487.47 519.548 1487.22 520.237 1486.75 520.786C1486.28 521.334 1485.62 521.704 1484.88 521.828C1484.14 521.952 1483.38 521.821 1482.73 521.46L1462.64 540.347L1453.94 540.318ZM1618.38 412.867L1617.36 405.753L1667.8 358.341L1669.03 359.496L1619.22 406.294L1620.25 413.408L1606.79 426.051H1598.82L1567.6 455.373H1558.88L1539.24 473.873C1539.58 474.501 1539.67 475.224 1539.48 475.907C1539.3 476.59 1538.86 477.188 1538.25 477.591C1537.63 477.994 1536.88 478.175 1536.14 478.101C1535.39 478.027 1534.7 477.702 1534.19 477.187C1533.68 476.672 1533.38 476.001 1533.35 475.297C1533.33 474.593 1533.57 473.903 1534.04 473.355C1534.51 472.807 1535.18 472.437 1535.92 472.313C1536.66 472.189 1537.42 472.32 1538.06 472.681L1558.15 453.793H1566.86L1598.06 424.472H1606.05L1618.38 412.867ZM1550.34 507.026L1549.01 520.005L1541.45 527.112L1526.61 529.306L1516.57 538.753C1515.57 538.108 1514.37 537.794 1513.17 537.862C1511.96 537.93 1510.81 538.375 1509.91 539.127C1509 539.88 1508.39 540.895 1508.17 542.012C1507.95 543.129 1508.14 544.282 1508.7 545.289C1509.26 546.295 1510.16 547.096 1511.26 547.565C1512.36 548.033 1513.6 548.141 1514.77 547.872C1515.95 547.603 1516.99 546.972 1517.74 546.08C1518.49 545.188 1518.9 544.086 1518.9 542.951C1518.9 541.839 1518.51 540.758 1517.79 539.879L1527.41 530.834L1542.25 528.641L1550.65 520.744L1551.98 507.764L1645.93 419.521L1644.7 418.366L1550.34 507.026ZM1516.1 545.407C1515.6 545.88 1514.97 546.208 1514.28 546.354C1513.59 546.499 1512.88 546.455 1512.21 546.227C1511.55 545.999 1510.97 545.597 1510.54 545.068C1510.12 544.54 1509.86 543.907 1509.81 543.245C1509.75 542.584 1509.9 541.922 1510.24 541.338C1510.57 540.754 1511.08 540.273 1511.7 539.952C1512.31 539.631 1513.02 539.484 1513.72 539.528C1514.43 539.572 1515.1 539.806 1515.67 540.201L1516.45 540.932C1516.97 541.594 1517.22 542.409 1517.15 543.229C1517.09 544.049 1516.71 544.819 1516.09 545.4L1516.1 545.407ZM1477.74 451.081C1477.74 454.147 1478.71 457.144 1480.52 459.693C1482.33 462.242 1484.91 464.229 1487.92 465.402C1490.94 466.576 1494.26 466.883 1497.46 466.285C1500.66 465.686 1503.6 464.21 1505.9 462.042C1508.21 459.874 1509.78 457.112 1510.42 454.105C1511.06 451.098 1510.73 447.981 1509.48 445.148C1508.23 442.316 1506.12 439.895 1503.4 438.191C1500.69 436.488 1497.5 435.579 1494.24 435.579C1489.87 435.589 1485.68 437.226 1482.59 440.131C1479.5 443.037 1477.77 446.974 1477.76 451.081H1477.74ZM1494.24 437.188C1497.16 437.188 1500.02 438.002 1502.45 439.529C1504.88 441.056 1506.78 443.225 1507.9 445.764C1509.02 448.303 1509.31 451.096 1508.74 453.791C1508.17 456.486 1506.76 458.962 1504.69 460.905C1502.63 462.848 1499.99 464.171 1497.12 464.707C1494.25 465.243 1491.28 464.968 1488.58 463.916C1485.88 462.865 1483.57 461.084 1481.94 458.799C1480.32 456.515 1479.45 453.828 1479.45 451.081C1479.45 449.256 1479.84 447.45 1480.59 445.766C1481.33 444.081 1482.42 442.551 1483.8 441.263C1485.17 439.975 1486.81 438.954 1488.6 438.259C1490.4 437.563 1492.32 437.207 1494.26 437.21L1494.24 437.188ZM1494.24 462.276C1496.6 462.274 1498.91 461.615 1500.87 460.382C1502.83 459.148 1504.36 457.396 1505.26 455.346C1506.16 453.296 1506.4 451.041 1505.94 448.866C1505.48 446.691 1504.34 444.693 1502.67 443.125C1501 441.557 1498.87 440.489 1496.56 440.057C1494.24 439.625 1491.84 439.847 1489.66 440.696C1487.48 441.546 1485.61 442.983 1484.3 444.828C1482.99 446.672 1482.29 448.841 1482.29 451.059C1482.29 452.536 1482.6 453.998 1483.2 455.362C1483.8 456.727 1484.68 457.967 1485.8 459.01C1486.91 460.054 1488.23 460.882 1489.68 461.446C1491.13 462.01 1492.69 462.299 1494.26 462.298L1494.24 462.276ZM1494.24 441.473C1496.26 441.473 1498.23 442.035 1499.91 443.088C1501.58 444.141 1502.89 445.639 1503.66 447.39C1504.44 449.142 1504.64 451.069 1504.24 452.929C1503.85 454.788 1502.88 456.497 1501.45 457.837C1500.02 459.178 1498.21 460.091 1496.23 460.461C1494.25 460.831 1492.2 460.641 1490.33 459.915C1488.47 459.19 1486.88 457.961 1485.75 456.385C1484.63 454.808 1484.03 452.955 1484.03 451.059C1484.04 448.517 1485.12 446.082 1487.04 444.289C1488.96 442.496 1491.56 441.491 1494.26 441.494L1494.24 441.473ZM1488.6 451.081C1488.6 450.036 1488.93 449.015 1489.55 448.146C1490.16 447.276 1491.04 446.599 1492.07 446.198C1493.09 445.797 1494.22 445.692 1495.31 445.895C1496.4 446.097 1497.41 446.6 1498.19 447.338C1498.98 448.076 1499.51 449.016 1499.73 450.041C1499.95 451.065 1499.84 452.127 1499.41 453.092C1498.99 454.057 1498.27 454.882 1497.34 455.462C1496.42 456.043 1495.33 456.353 1494.22 456.353C1493.48 456.354 1492.75 456.218 1492.07 455.954C1491.39 455.689 1490.77 455.301 1490.25 454.811C1489.73 454.322 1489.31 453.74 1489.03 453.1C1488.75 452.46 1488.6 451.774 1488.6 451.081ZM1473.49 472.498H1479.79V478.414H1473.49V472.498ZM1473.49 482.355H1479.79V488.27H1473.49V482.355ZM1473.49 492.212H1479.79V498.127H1473.49V492.212ZM1473.49 502.068H1479.79V507.984H1473.49V502.068ZM1491.07 478.414H1484.77V472.498H1491.07V478.414ZM1484.77 482.355H1491.07V488.27H1484.77V482.355Z" fill="#0095D9"/>
</g>
<defs>
<linearGradient id="paint0_linear_2212_11555" x1="63.3105" y1="294.014" x2="1592.69" y2="294.014" gradientUnits="userSpaceOnUse">
<stop stop-color="#27AAE1"/>
<stop offset="1" stop-color="#273EE1"/>
</linearGradient>
<linearGradient id="paint1_linear_2212_11555" x1="191.279" y1="80.1669" x2="209.003" y2="53.8354" gradientUnits="userSpaceOnUse">
<stop stop-color="#09A7E9"/>
<stop offset="1" stop-color="#1294BD" stop-opacity="0"/>
</linearGradient>
<linearGradient id="paint2_linear_2212_11555" x1="165.529" y1="80.1669" x2="183.253" y2="53.8354" gradientUnits="userSpaceOnUse">
<stop stop-color="#09A7E9"/>
<stop offset="1" stop-color="#1294BD" stop-opacity="0"/>
</linearGradient>
<linearGradient id="paint3_linear_2212_11555" x1="138.963" y1="80.1669" x2="156.688" y2="53.8394" gradientUnits="userSpaceOnUse">
<stop stop-color="#09A7E9"/>
<stop offset="1" stop-color="#1294BD" stop-opacity="0"/>
</linearGradient>
<linearGradient id="paint4_linear_2212_11555" x1="112.39" y1="80.1669" x2="130.116" y2="53.8394" gradientUnits="userSpaceOnUse">
<stop stop-color="#09A7E9"/>
<stop offset="1" stop-color="#1294BD" stop-opacity="0"/>
</linearGradient>
<linearGradient id="paint5_linear_2212_11555" x1="85.8121" y1="80.1669" x2="103.536" y2="53.8354" gradientUnits="userSpaceOnUse">
<stop stop-color="#09A7E9"/>
<stop offset="1" stop-color="#1294BD" stop-opacity="0"/>
</linearGradient>
<linearGradient id="paint6_linear_2212_11555" x1="459.598" y1="559.21" x2="467.662" y2="546.207" gradientUnits="userSpaceOnUse">
<stop stop-color="#09A7E9"/>
<stop offset="1" stop-color="#1294BD" stop-opacity="0"/>
</linearGradient>
<linearGradient id="paint7_linear_2212_11555" x1="509.469" y1="559.21" x2="517.535" y2="546.211" gradientUnits="userSpaceOnUse">
<stop stop-color="#09A7E9"/>
<stop offset="1" stop-color="#1294BD" stop-opacity="0"/>
</linearGradient>
<linearGradient id="paint8_linear_2212_11555" x1="559.33" y1="559.21" x2="567.395" y2="546.207" gradientUnits="userSpaceOnUse">
<stop stop-color="#09A7E9"/>
<stop offset="1" stop-color="#1294BD" stop-opacity="0"/>
</linearGradient>
<linearGradient id="paint9_linear_2212_11555" x1="609.201" y1="559.21" x2="617.266" y2="546.207" gradientUnits="userSpaceOnUse">
<stop stop-color="#09A7E9"/>
<stop offset="1" stop-color="#1294BD" stop-opacity="0"/>
</linearGradient>
<linearGradient id="paint10_linear_2212_11555" x1="659.072" y1="559.21" x2="667.137" y2="546.207" gradientUnits="userSpaceOnUse">
<stop stop-color="#09A7E9"/>
<stop offset="1" stop-color="#1294BD" stop-opacity="0"/>
</linearGradient>
<linearGradient id="paint11_linear_2212_11555" x1="708.944" y1="559.21" x2="717.008" y2="546.207" gradientUnits="userSpaceOnUse">
<stop stop-color="#09A7E9"/>
<stop offset="1" stop-color="#1294BD" stop-opacity="0"/>
</linearGradient>
<linearGradient id="paint12_linear_2212_11555" x1="-6.71094" y1="292.05" x2="-6.71089" y2="11.7107" gradientUnits="userSpaceOnUse">
<stop stop-color="#0095D9"/>
<stop offset="0.24814" stop-color="#6BCCCB" stop-opacity="0.75186"/>
<stop offset="1" stop-color="#1294BD" stop-opacity="0"/>
</linearGradient>
<linearGradient id="paint13_linear_2212_11555" x1="349.271" y1="551.983" x2="366.997" y2="525.656" gradientUnits="userSpaceOnUse">
<stop stop-color="#09A7E9"/>
<stop offset="1" stop-color="#1294BD" stop-opacity="0"/>
</linearGradient>
<linearGradient id="paint14_linear_2212_11555" x1="322.693" y1="551.983" x2="340.417" y2="525.652" gradientUnits="userSpaceOnUse">
<stop stop-color="#09A7E9"/>
<stop offset="1" stop-color="#1294BD" stop-opacity="0"/>
</linearGradient>
<linearGradient id="paint15_linear_2212_11555" x1="296.125" y1="551.983" x2="313.848" y2="525.652" gradientUnits="userSpaceOnUse">
<stop stop-color="#09A7E9"/>
<stop offset="1" stop-color="#1294BD" stop-opacity="0"/>
</linearGradient>
<linearGradient id="paint16_linear_2212_11555" x1="269.556" y1="551.983" x2="287.28" y2="525.652" gradientUnits="userSpaceOnUse">
<stop stop-color="#09A7E9"/>
<stop offset="1" stop-color="#1294BD" stop-opacity="0"/>
</linearGradient>
<linearGradient id="paint17_linear_2212_11555" x1="243.386" y1="551.983" x2="261.11" y2="525.652" gradientUnits="userSpaceOnUse">
<stop stop-color="#09A7E9"/>
<stop offset="1" stop-color="#1294BD" stop-opacity="0"/>
</linearGradient>
<linearGradient id="paint18_linear_2212_11555" x1="217.638" y1="551.983" x2="235.362" y2="525.652" gradientUnits="userSpaceOnUse">
<stop stop-color="#09A7E9"/>
<stop offset="1" stop-color="#1294BD" stop-opacity="0"/>
</linearGradient>
<linearGradient id="paint19_linear_2212_11555" x1="191.072" y1="551.983" x2="208.796" y2="525.652" gradientUnits="userSpaceOnUse">
<stop stop-color="#09A7E9"/>
<stop offset="1" stop-color="#1294BD" stop-opacity="0"/>
</linearGradient>
<linearGradient id="paint20_linear_2212_11555" x1="164.498" y1="551.983" x2="182.221" y2="525.652" gradientUnits="userSpaceOnUse">
<stop stop-color="#09A7E9"/>
<stop offset="1" stop-color="#1294BD" stop-opacity="0"/>
</linearGradient>
<linearGradient id="paint21_linear_2212_11555" x1="137.931" y1="551.983" x2="155.655" y2="525.652" gradientUnits="userSpaceOnUse">
<stop stop-color="#09A7E9"/>
<stop offset="1" stop-color="#1294BD" stop-opacity="0"/>
</linearGradient>
<clipPath id="clip0_2212_11555">
<rect width="323" height="324" fill="white" transform="translate(1591 561) rotate(-180)"/>
</clipPath>
</defs>
</svg>
