<svg width="100" height="100" viewBox="0 0 100 100" fill="none" xmlns="http://www.w3.org/2000/svg">
<g clip-path="url(#clip0_1985_7521)">
<rect width="100" height="100" rx="50" fill="url(#paint0_linear_1985_7521)"/>
<rect opacity="0.5" x="5.5" y="5.5" width="89" height="89" rx="44.5" stroke="url(#paint1_linear_1985_7521)"/>
<circle cx="50" cy="50" r="37.5" fill="url(#paint2_linear_1985_7521)" stroke="white" stroke-width="5"/>
<path d="M61.6667 75C63.5076 75 65 73.5076 65 71.6667V28.3333C65 26.4924 63.5076 25 61.6667 25H38.3333C36.4924 25 35 26.4924 35 28.3333V71.6666C35 73.5075 36.4924 74.9999 38.3333 74.9999H61.6667V75ZM56.4092 26.6667L55.34 27.8066C55.0252 28.1425 54.5854 28.3331 54.125 28.3333H45.875C45.4145 28.3327 44.9746 28.1422 44.6592 27.8066L43.5908 26.6666H56.4092V26.6667ZM36.6667 28.3333C36.6667 27.4128 37.4129 26.6666 38.3334 26.6666H41.3059L43.4434 28.9466C44.0745 29.6173 44.9541 29.9982 45.875 29.9999H54.125C55.0461 29.9988 55.9259 29.6177 56.5566 28.9466L58.6941 26.6666H61.6666C62.5871 26.6666 63.3333 27.4128 63.3333 28.3333V67.5C63.3333 68.4205 62.5871 69.1667 61.6666 69.1667H38.3333C37.4128 69.1667 36.6666 68.4205 36.6666 67.5V28.3333H36.6667ZM36.6667 71.6667V70.37C37.1712 70.6699 37.7465 70.8299 38.3334 70.8334H61.6667C62.2536 70.83 62.8289 70.67 63.3334 70.37V71.6667C63.3334 72.5872 62.5872 73.3334 61.6667 73.3334H38.3333C37.4129 73.3333 36.6667 72.5871 36.6667 71.6667Z" fill="white"/>
<path d="M39.1673 50.8333H42.1557L44.0957 52.7741L43.3999 56.2558L41.0782 58.5774C40.8553 58.8007 40.7775 59.1307 40.8773 59.43L41.7106 61.93C41.8047 62.2128 42.0426 62.424 42.3346 62.4839C42.6266 62.5437 42.9283 62.4435 43.1263 62.2205C43.3242 61.9977 43.3881 61.686 43.294 61.4032L42.6273 59.3916L44.6231 57.3916L48.8331 55.9883L50.0006 57.75V63.3333C50.0006 63.5543 50.0885 63.7662 50.2447 63.9225L52.7447 66.4225C53.0717 66.7383 53.5915 66.7338 53.9129 66.4123C54.2344 66.0908 54.2389 65.5711 53.923 65.2441L51.6672 62.9883V57.75L52.8681 55.9483L55.4081 56.5833L59.4081 60.5833C59.7351 60.8991 60.2549 60.8946 60.5763 60.5731C60.8978 60.2517 60.9022 59.7319 60.5864 59.405L56.5156 55.3342L55.1814 52.6667L57.848 50H60.8339C61.2941 50 61.6672 49.627 61.6672 49.1667C61.6672 48.7064 61.2941 48.3334 60.8339 48.3334H57.6364L55.8339 47.7325V45.25L59.0272 40.46C59.1925 40.2123 59.213 39.8952 59.0812 39.6282C58.9492 39.3612 58.685 39.185 58.3878 39.1657C58.0906 39.1465 57.8059 39.2872 57.6406 39.535L54.4298 44.3508L52.1539 45.4916L51.7247 44.2041L54.0997 38.6616C54.1964 38.4364 54.1891 38.1801 54.0797 37.9607L52.413 34.6274C52.2799 34.3609 52.0147 34.1857 51.7175 34.1678C51.4202 34.1498 51.1358 34.2918 50.9717 34.5402C50.8074 34.7887 50.7883 35.106 50.9214 35.3724L52.4172 38.3599L50.1672 43.6099L48.238 44.8957L44.6371 43.4549L42.0121 40.8332L44.7563 38.0891C44.9685 37.8768 45.05 37.5667 44.9698 37.2773C44.8896 36.988 44.6601 36.7643 44.3688 36.6915L41.6671 36.0156V33.3333C41.6671 32.873 41.294 32.5 40.8338 32.5C40.3735 32.5 40.0005 32.8731 40.0005 33.3333V36.6666C40.0006 37.0491 40.261 37.3824 40.6321 37.4749L42.5371 37.9516L40.2447 40.2441C39.9194 40.5695 39.9194 41.0971 40.2447 41.4225L43.4563 44.6341L44.7747 47.9308L42.3039 49.1666H39.1673C38.707 49.1666 38.334 49.5397 38.334 49.9999C38.3339 50.4603 38.707 50.8333 39.1673 50.8333ZM46.2064 49.0833C46.5948 48.8896 46.7696 48.4303 46.6081 48.0274L45.6673 45.6666L48.0289 46.6116C48.2842 46.7126 48.5728 46.6814 48.8006 46.5283L50.3931 45.4667L50.8814 46.9317C50.9575 47.162 51.1302 47.3477 51.3542 47.4403C51.5783 47.533 51.8316 47.5234 52.0481 47.4143L54.1673 46.3484V48.3334C54.1672 48.6923 54.3969 49.0108 54.7373 49.1242L55.9573 49.5309L53.5781 51.9108C53.3244 52.1643 53.2613 52.5517 53.4215 52.8725L54.2781 54.5833L52.7022 54.1899C52.3608 54.1047 52.0026 54.2431 51.8072 54.5357L50.8339 55.9999L49.8605 54.5399C49.7065 54.3072 49.4463 54.1671 49.1672 54.1666C49.0777 54.1668 48.9889 54.1812 48.9038 54.2091L45.2654 55.4216L45.8171 52.6633C45.8709 52.391 45.7855 52.1098 45.5896 51.9133L43.907 50.2308L46.2064 49.0833Z" fill="white"/>
</g>
<defs>
<linearGradient id="paint0_linear_1985_7521" x1="6.69873" y1="75" x2="93.3013" y2="25" gradientUnits="userSpaceOnUse">
<stop stop-color="#A3DE61"/>
<stop offset="1" stop-color="#F0CF29"/>
</linearGradient>
<linearGradient id="paint1_linear_1985_7521" x1="50" y1="-2.46138" x2="50" y2="102.464" gradientUnits="userSpaceOnUse">
<stop stop-color="white" stop-opacity="0.867088"/>
<stop stop-color="white"/>
<stop offset="0.255208" stop-color="white" stop-opacity="0.47"/>
<stop offset="0.479167" stop-color="white" stop-opacity="0.37"/>
<stop offset="0.625" stop-color="white" stop-opacity="0.24"/>
<stop offset="0.828125" stop-color="white" stop-opacity="0.03"/>
<stop offset="1" stop-color="white" stop-opacity="0"/>
</linearGradient>
<linearGradient id="paint2_linear_1985_7521" x1="67.5" y1="19.6891" x2="32.5" y2="80.3109" gradientUnits="userSpaceOnUse">
<stop stop-color="#3A65D3"/>
<stop offset="1" stop-color="#75D473"/>
</linearGradient>
<clipPath id="clip0_1985_7521">
<rect width="100" height="100" fill="white"/>
</clipPath>
</defs>
</svg>
