<svg width="100" height="100" viewBox="0 0 100 100" fill="none" xmlns="http://www.w3.org/2000/svg">
<g clip-path="url(#clip0_1985_7505)">
<rect width="100" height="100" rx="50" fill="url(#paint0_linear_1985_7505)"/>
<rect opacity="0.5" x="5.5" y="5.5" width="89" height="89" rx="44.5" stroke="url(#paint1_linear_1985_7505)"/>
<circle cx="50" cy="50" r="37.5" fill="url(#paint2_linear_1985_7505)" stroke="white" stroke-width="5"/>
<g clip-path="url(#clip1_1985_7505)">
<path d="M73.1251 47.162H72.9439L64.4417 34.6983C63.5914 33.452 61.9312 33.0183 60.5797 33.6897L56.9389 35.499C55.7861 36.0719 55.3703 37.5124 56.041 38.6114C56.6326 39.5807 57.8499 39.9397 58.8726 39.4456L61.3796 38.2352L67.3935 47.162H64.6717V46.4223C64.6717 45.1517 63.6379 44.1179 62.3672 44.1179H51.709C51.3042 44.1179 50.9766 44.446 50.9766 44.8503C50.9766 45.2551 51.3042 45.5827 51.709 45.5827H62.3672C62.83 45.5827 63.2065 45.9596 63.2065 46.4223V47.162H36.7935V46.4223C36.7935 45.9596 37.17 45.5827 37.6328 45.5827H48.291C48.6958 45.5827 49.0234 45.2551 49.0234 44.8503C49.0234 44.446 48.6958 44.1179 48.291 44.1179H37.6328C36.3625 44.1179 35.3287 45.1517 35.3287 46.4223V47.162H32.6065L38.6204 38.2352L41.1274 39.4456C42.1501 39.9397 43.3674 39.5811 43.959 38.6114C44.6297 37.5124 44.2139 36.0719 43.0611 35.499L39.4203 33.6897C38.0688 33.0183 36.4086 33.452 35.5587 34.6983L27.0561 47.162H26.8749C25.8411 47.162 25 48.0028 25 49.0366V61.173C25 63.0727 26.5457 64.6185 28.4454 64.6185H41.5054C43.3743 64.6185 44.9993 63.3531 45.4575 61.5415L47.1012 55.0401C47.3244 54.1578 47.9263 53.454 48.7061 53.0794C50.4105 52.2588 52.4368 53.2137 52.8988 55.0401L54.5425 61.5415C55.0007 63.3531 56.6257 64.6185 58.4949 64.6185H71.5546C73.4543 64.6185 75 63.0727 75 61.173V59.1432C75 58.7389 74.6723 58.4108 74.2676 58.4108C73.8628 58.4108 73.5352 58.7389 73.5352 59.1432V61.173C73.5352 62.2652 72.6467 63.1536 71.5546 63.1536H58.4949C57.2975 63.1536 56.2565 62.343 55.9631 61.1822L54.319 54.6812C54.1798 54.1307 53.9417 53.6268 53.6274 53.1854H73.5352V55.7253C73.5352 56.1296 73.8628 56.4577 74.2676 56.4577C74.6723 56.4577 75 56.1296 75 55.7253C75 54.7449 75 50.0154 75 49.0369C75 48.0028 74.1589 47.162 73.1251 47.162ZM62.5305 37.3216C62.1632 36.7757 61.4388 36.5797 60.8459 36.8658L58.2355 38.1265C57.8949 38.2913 57.4886 38.1715 57.2918 37.8481C57.0671 37.4807 57.2056 37.002 57.5909 36.8105L61.2316 35.0015C61.9312 34.6536 62.7911 34.8783 63.2313 35.5238L71.1704 47.162H69.1601L62.5305 37.3216ZM36.7687 35.5238C37.2089 34.8783 38.0688 34.654 38.7684 35.0015L42.4091 36.8105C42.7948 37.0023 42.9325 37.4811 42.7082 37.8481C42.511 38.1715 42.1055 38.2909 41.7645 38.1265L39.1541 36.8662C38.5616 36.5797 37.8368 36.7757 37.4695 37.3216L30.8403 47.162H28.8296L36.7687 35.5238ZM44.0372 61.1822C43.7435 62.343 42.7025 63.1536 41.5054 63.1536H28.4454C27.3533 63.1536 26.4648 62.2652 26.4648 61.173V53.1854H28.1654C28.4889 54.3901 29.5902 55.2801 30.8956 55.2801C32.2014 55.2801 33.3027 54.3901 33.6262 53.1854H46.373C45.7439 54.0674 45.8424 54.0437 44.0372 61.1822ZM29.5334 52.453C29.5334 51.7019 30.1445 51.0908 30.8956 51.0908C31.6467 51.0908 32.2582 51.7019 32.2582 52.453C32.2582 53.2041 31.6467 53.8149 30.8956 53.8149C30.1445 53.8149 29.5334 53.2041 29.5334 52.453ZM73.5352 51.7202H51.8509C50.7069 51.198 49.3481 51.1732 48.1495 51.7202H33.6269C33.2973 50.49 32.172 49.6256 30.8956 49.6256C29.6074 49.6256 28.4908 50.5022 28.1647 51.7202H26.4648V49.0366C26.4648 48.8145 26.6525 48.6269 26.8749 48.6269H73.1251C73.3475 48.6269 73.5352 48.8145 73.5352 49.0366V51.7202Z" fill="white"/>
</g>
</g>
<defs>
<linearGradient id="paint0_linear_1985_7505" x1="6.69873" y1="75" x2="93.3013" y2="25" gradientUnits="userSpaceOnUse">
<stop stop-color="#A3DE61"/>
<stop offset="1" stop-color="#F0CF29"/>
</linearGradient>
<linearGradient id="paint1_linear_1985_7505" x1="50" y1="-2.46138" x2="50" y2="102.464" gradientUnits="userSpaceOnUse">
<stop stop-color="white" stop-opacity="0.867088"/>
<stop stop-color="white"/>
<stop offset="0.255208" stop-color="white" stop-opacity="0.47"/>
<stop offset="0.479167" stop-color="white" stop-opacity="0.37"/>
<stop offset="0.625" stop-color="white" stop-opacity="0.24"/>
<stop offset="0.828125" stop-color="white" stop-opacity="0.03"/>
<stop offset="1" stop-color="white" stop-opacity="0"/>
</linearGradient>
<linearGradient id="paint2_linear_1985_7505" x1="67.5" y1="19.6891" x2="32.5" y2="80.3109" gradientUnits="userSpaceOnUse">
<stop stop-color="#3A65D3"/>
<stop offset="1" stop-color="#75D473"/>
</linearGradient>
<clipPath id="clip0_1985_7505">
<rect width="100" height="100" fill="white"/>
</clipPath>
<clipPath id="clip1_1985_7505">
<rect width="50" height="50" fill="white" transform="translate(25 24)"/>
</clipPath>
</defs>
</svg>
