<svg width="1728" height="594" viewBox="0 0 1728 594" fill="none" xmlns="http://www.w3.org/2000/svg">
<g clip-path="url(#clip0_1985_7374)">
<path d="M0 0H1728V594H0V0Z" fill="url(#paint0_linear_1985_7374)"/>
<path style="mix-blend-mode:multiply" opacity="0.66" d="M-20 -194.305L-19.9999 244.695L-19.9999 659.193C-19.948 701.257 613.785 737.518 632.392 707.708L888.357 298.349C893.905 289.473 897.014 277.45 897 264.922C896.986 252.394 893.851 240.388 888.284 231.543L631.397 -176.277C612.691 -206.012 -20.0519 -236.39 -20 -194.305Z" fill="url(#paint1_linear_1985_7374)"/>
<path fill-rule="evenodd" clip-rule="evenodd" d="M391.424 35.8138C393.792 33.7969 396.8 32.6891 399.911 32.6891H517.35C520.486 32.6891 523.517 33.8146 525.892 35.8609L532.734 41.7554C535.36 44.0171 538.71 45.2611 542.175 45.2611H637.999H733.824C737.289 45.2611 740.639 44.0171 743.264 41.7554L750.107 35.8609C752.482 33.8146 755.513 32.6891 758.648 32.6891H876.09C879.199 32.6891 882.207 33.7962 884.574 35.8121L904.385 52.6814C907.002 54.9095 910.326 56.1332 913.763 56.1332H1362.5V54.7556H913.763C910.653 54.7556 907.646 53.6485 905.278 51.6326L885.467 34.7632C882.851 32.5352 879.526 31.3115 876.09 31.3115H758.648C755.183 31.3115 751.833 32.5555 749.208 34.8172L742.365 40.7117C739.99 42.758 736.959 43.8835 733.824 43.8835H637.999H542.175C539.04 43.8835 536.009 42.758 533.633 40.7117L526.791 34.8172C524.166 32.5555 520.816 31.3115 517.35 31.3115H399.911C396.473 31.3115 393.148 32.5359 390.531 34.7651L370.732 51.6309C368.364 53.6478 365.356 54.7556 362.245 54.7556H147.649C144.211 54.7556 140.886 55.9799 138.269 58.2091L110.362 81.9819C107.136 84.7301 105.277 88.755 105.277 92.993V197.612C105.277 201.85 107.136 205.874 110.362 208.623L118.1 215.214C121.019 217.7 122.7 221.342 122.7 225.176V311.421C122.7 315.256 121.018 318.899 118.097 321.385L105.398 332.198C102.17 334.946 100.311 338.972 100.311 343.211V503.971C100.311 508.21 102.17 512.235 105.396 514.983L164.398 565.236C167.015 567.465 170.34 568.689 173.777 568.689H460.368C463.805 568.689 467.13 567.465 469.747 565.237L500.741 538.842C503.108 536.825 506.116 535.718 509.226 535.718H766.773C769.882 535.718 772.89 536.825 775.258 538.841L806.252 565.237C808.869 567.465 812.194 568.689 815.631 568.689L1264.56 568.689H1556.23C1559.67 568.689 1563 567.465 1565.61 565.236L1624.6 514.983C1627.83 512.235 1629.69 508.21 1629.69 503.972V343.211C1629.69 338.972 1627.83 334.946 1624.6 332.198L1611.9 321.385C1608.98 318.899 1607.3 315.256 1607.3 311.421V225.177C1607.3 221.342 1608.98 217.701 1611.9 215.214L1619.64 208.623C1622.86 205.875 1624.72 201.85 1624.72 197.612V92.9933C1624.72 88.7552 1622.86 84.7304 1619.64 81.9822L1591.73 58.2094C1589.11 55.9802 1585.79 54.7559 1582.35 54.7559H1362.69V56.1334H1582.35C1585.46 56.1334 1588.47 57.2412 1590.84 59.2581L1618.74 83.0309C1621.66 85.5174 1623.34 89.1589 1623.34 92.9933V197.612C1623.34 201.446 1621.66 205.088 1618.74 207.574L1611.01 214.166C1607.78 216.914 1605.92 220.939 1605.92 225.177V311.421C1605.92 315.66 1607.78 319.686 1611.01 322.434L1623.71 333.247C1626.63 335.734 1628.31 339.376 1628.31 343.211V503.972C1628.31 507.807 1626.63 511.448 1623.71 513.935L1564.72 564.187C1562.35 566.204 1559.34 567.312 1556.23 567.312L1265.5 567.312H815.631C812.521 567.312 809.513 566.204 807.145 564.188L776.151 537.793C773.534 535.564 770.21 534.34 766.773 534.34H509.226C505.789 534.34 502.464 535.564 499.848 537.793L468.853 564.188C466.486 566.204 463.478 567.312 460.368 567.312H173.777C170.667 567.312 167.659 566.204 165.291 564.188L106.289 513.934C103.37 511.448 101.688 507.806 101.688 503.971V343.211C101.688 339.376 103.371 335.733 106.291 333.247L118.99 322.434C122.218 319.686 124.078 315.66 124.078 311.421V225.176C124.078 220.938 122.219 216.913 118.993 214.165L111.256 207.574C108.337 205.088 106.655 201.446 106.655 197.612V92.993C106.655 89.1586 108.337 85.5171 111.256 83.0306L139.162 59.2578C141.53 57.2409 144.539 56.1332 147.649 56.1332H362.245C365.683 56.1332 369.008 54.9088 371.625 52.6796L391.424 35.8138Z" fill="url(#paint2_linear_1985_7374)"/>
<path d="M109.184 235.036V294.942L119.521 305.26V224.719L109.184 235.036Z" fill="#0095D9"/>
<path d="M1623.34 294.942V235.036L1613 224.719V305.26L1623.34 294.942Z" fill="#0254CF"/>
<path d="M250.986 64.0016L229.066 85.2339L246.056 85.0565L267.975 63.8242L250.986 64.0016Z" fill="url(#paint3_linear_1985_7374)"/>
<path d="M225.236 64.0016L203.316 85.2339L220.306 85.0565L242.225 63.8242L225.236 64.0016Z" fill="url(#paint4_linear_1985_7374)"/>
<path d="M198.67 64.0016L176.75 85.2339L193.73 85.0565L215.65 63.8242L198.67 64.0016Z" fill="url(#paint5_linear_1985_7374)"/>
<path d="M172.097 64.0016L150.178 85.2339L167.158 85.0565L189.077 63.8242L172.097 64.0016Z" fill="url(#paint6_linear_1985_7374)"/>
<path d="M145.519 64.0016L123.6 85.2339L140.589 85.0565L162.509 63.8242L145.519 64.0016Z" fill="url(#paint7_linear_1985_7374)"/>
<path d="M516.871 564.771L506.935 554.696L497 564.771H516.871Z" fill="url(#paint8_linear_1985_7374)"/>
<path d="M566.733 564.771L556.797 554.696L546.871 564.771H566.733Z" fill="url(#paint9_linear_1985_7374)"/>
<path d="M616.603 564.771L606.668 554.696L596.732 564.771H616.603Z" fill="url(#paint10_linear_1985_7374)"/>
<path d="M666.474 564.771L656.539 554.696L646.604 564.771H666.474Z" fill="url(#paint11_linear_1985_7374)"/>
<path d="M716.345 564.771L706.41 554.696L696.475 564.771H716.345Z" fill="url(#paint12_linear_1985_7374)"/>
<path d="M766.217 564.771L756.281 554.696L746.346 564.771H766.217Z" fill="url(#paint13_linear_1985_7374)"/>
<path d="M45.7305 303.879L45.7305 6.00122" stroke="url(#paint14_linear_1985_7374)" stroke-width="1.37759" stroke-miterlimit="10"/>
<path d="M45.7259 312.758C48.981 312.758 51.6198 310.124 51.6198 306.875C51.6198 303.627 48.981 300.993 45.7259 300.993C42.4708 300.993 39.832 303.627 39.832 306.875C39.832 310.124 42.4708 312.758 45.7259 312.758Z" fill="#0095D9"/>
<path d="M37.1992 374.708H53.0379" stroke="#0095D9" stroke-width="1.37759" stroke-miterlimit="10"/>
<path d="M37.1992 387.732H63.0294" stroke="#0095D9" stroke-width="1.37759" stroke-miterlimit="10"/>
<path d="M37.1992 400.759H53.0379" stroke="#0095D9" stroke-width="1.37759" stroke-miterlimit="10"/>
<path d="M37.1992 413.792H63.0294" stroke="#0095D9" stroke-width="1.37759" stroke-miterlimit="10"/>
<path d="M37.1992 426.817H53.0379" stroke="#0095D9" stroke-width="1.37759" stroke-miterlimit="10"/>
<path d="M37.1992 439.843H63.0294" stroke="#0095D9" stroke-width="1.37759" stroke-miterlimit="10"/>
<path d="M37.1992 452.868H53.0379" stroke="#0095D9" stroke-width="1.37759" stroke-miterlimit="10"/>
<g style="mix-blend-mode:soft-light">
<path d="M408.978 535.818L387.059 557.05L404.039 556.873L425.958 535.641L408.978 535.818Z" fill="url(#paint15_linear_1985_7374)"/>
</g>
<g style="mix-blend-mode:soft-light">
<path d="M382.41 535.818L360.48 557.05L377.47 556.873L399.39 535.641L382.41 535.818Z" fill="url(#paint16_linear_1985_7374)"/>
</g>
<g style="mix-blend-mode:soft-light">
<path d="M355.832 535.818L333.912 557.05L350.901 556.873L372.821 535.641L355.832 535.818Z" fill="url(#paint17_linear_1985_7374)"/>
</g>
<g style="mix-blend-mode:soft-light">
<path d="M329.263 535.818L307.344 557.05L324.333 556.873L346.253 535.641L329.263 535.818Z" fill="url(#paint18_linear_1985_7374)"/>
</g>
<g style="mix-blend-mode:soft-light">
<path d="M303.093 535.818L281.174 557.05L298.163 556.873L320.083 535.641L303.093 535.818Z" fill="url(#paint19_linear_1985_7374)"/>
</g>
<g style="mix-blend-mode:soft-light">
<path d="M277.345 535.818L255.426 557.05L272.415 556.873L294.335 535.641L277.345 535.818Z" fill="url(#paint20_linear_1985_7374)"/>
</g>
<g style="mix-blend-mode:soft-light">
<path d="M250.779 535.818L228.859 557.05L245.849 556.873L267.768 535.641L250.779 535.818Z" fill="url(#paint21_linear_1985_7374)"/>
</g>
<g style="mix-blend-mode:soft-light">
<path d="M224.205 535.818L202.285 557.05L219.275 556.873L241.194 535.641L224.205 535.818Z" fill="url(#paint22_linear_1985_7374)"/>
</g>
<g style="mix-blend-mode:soft-light">
<path d="M197.638 535.818L175.719 557.05L192.708 556.873L214.628 535.641L197.638 535.818Z" fill="url(#paint23_linear_1985_7374)"/>
</g>
<g clip-path="url(#clip1_1985_7374)">
<g style="mix-blend-mode:screen" opacity="0.1">
<g style="mix-blend-mode:screen">
<path d="M1254.6 675.195L1320.35 613.341V580.137L1372.79 530.765C1374.57 531.689 1376.61 532.046 1378.62 531.782C1380.63 531.519 1382.49 530.648 1383.92 529.303C1384.79 528.487 1385.48 527.519 1385.96 526.452C1386.43 525.386 1386.67 524.242 1386.67 523.087C1386.67 521.932 1386.43 520.789 1385.96 519.722C1385.48 518.656 1384.79 517.687 1383.92 516.872C1382.18 515.31 1379.87 514.438 1377.47 514.439C1375.06 514.439 1372.75 515.312 1371.01 516.875C1369.27 518.438 1368.24 520.57 1368.14 522.828C1368.03 525.086 1368.86 527.295 1370.44 528.995L1317.34 578.959V612.171L1251.66 673.995L1250.44 710.022L1198.57 758.831L1200.69 760.827L1253.39 711.229L1254.6 675.195ZM1372.83 518.875C1374.02 517.763 1375.63 517.138 1377.31 517.138C1378.99 517.138 1380.6 517.763 1381.79 518.875C1382.68 519.708 1383.28 520.77 1383.53 521.926C1383.78 523.082 1383.65 524.28 1383.17 525.37C1382.69 526.459 1381.88 527.391 1380.84 528.047C1379.8 528.703 1378.57 529.053 1377.32 529.054C1376.06 529.055 1374.83 528.706 1373.79 528.051C1372.75 527.397 1371.93 526.467 1371.45 525.378C1370.97 524.289 1370.85 523.091 1371.09 521.935C1371.34 520.779 1371.94 519.717 1372.83 518.883V518.875Z" fill="#0095D9"/>
</g>
<g style="mix-blend-mode:screen">
<path d="M1369.03 469.555C1367.14 468.244 1364.8 467.648 1362.47 467.886C1360.14 468.124 1357.98 469.178 1356.44 470.839C1354.9 472.5 1354.08 474.646 1354.14 476.85C1354.2 479.054 1355.15 481.155 1356.79 482.734C1358.43 484.313 1360.64 485.254 1362.98 485.371C1365.32 485.489 1367.63 484.773 1369.43 483.366C1371.24 481.959 1372.42 479.965 1372.73 477.78C1373.04 475.595 1372.47 473.379 1371.12 471.573L1392.77 451.231L1390.65 436.607L1503.81 330.266L1501.68 328.27L1387.44 435.612L1389.56 450.237L1369.03 469.555ZM1367.96 480.816C1367.08 481.65 1365.95 482.218 1364.72 482.449C1363.49 482.679 1362.21 482.561 1361.05 482.111C1359.89 481.66 1358.9 480.896 1358.2 479.916C1357.51 478.936 1357.13 477.783 1357.13 476.604C1357.13 475.425 1357.51 474.273 1358.2 473.293C1358.9 472.312 1359.89 471.549 1361.05 471.098C1362.21 470.647 1363.49 470.529 1364.72 470.76C1365.95 470.99 1367.08 471.558 1367.96 472.392C1368.56 472.943 1369.03 473.598 1369.35 474.321C1369.67 475.044 1369.84 475.82 1369.84 476.604C1369.84 477.388 1369.67 478.164 1369.35 478.887C1369.03 479.61 1368.56 480.266 1367.96 480.816Z" fill="#0095D9"/>
</g>
<g style="mix-blend-mode:screen">
<path d="M1694.33 332.502L1692.21 330.514L1655.79 364.727V378.847L1601.87 429.513V442.463L1580.56 462.49L1567.48 460.86L1481.32 541.805C1479.35 540.574 1476.96 540.085 1474.62 540.436C1472.29 540.787 1470.17 541.953 1468.71 543.7C1467.25 545.448 1466.54 547.65 1466.72 549.867C1466.91 552.084 1467.98 554.154 1469.71 555.665C1471.45 557.176 1473.73 558.017 1476.1 558.02C1478.46 558.024 1480.74 557.189 1482.49 555.683C1484.23 554.177 1485.3 552.11 1485.5 549.893C1485.69 547.677 1484.99 545.473 1483.53 543.721L1568.55 463.785L1581.63 465.467L1604.88 443.632V430.675L1658.8 380.017V365.897L1694.33 332.502ZM1480.67 553.329C1479.63 554.306 1478.27 554.914 1476.81 555.051C1475.35 555.187 1473.88 554.844 1472.66 554.079C1471.44 553.314 1470.54 552.175 1470.11 550.856C1469.68 549.537 1469.76 548.119 1470.32 546.845C1470.88 545.57 1471.89 544.518 1473.19 543.867C1474.48 543.216 1475.97 543.007 1477.41 543.275C1478.85 543.543 1480.15 544.272 1481.08 545.337C1482.01 546.403 1482.52 547.739 1482.52 549.118C1482.52 549.897 1482.36 550.669 1482.04 551.389C1481.72 552.11 1481.26 552.764 1480.67 553.315V553.329Z" fill="#0095D9"/>
</g>
<g style="mix-blend-mode:screen">
<path d="M1529.37 600.231L1527.07 622.657L1514 634.89L1488.38 638.715L1471.01 655.035C1469.06 653.783 1466.68 653.267 1464.34 653.59C1462 653.912 1459.88 655.049 1458.4 656.775C1456.91 658.5 1456.18 660.688 1456.33 662.902C1456.49 665.115 1457.52 667.193 1459.24 668.721C1460.95 670.249 1463.21 671.115 1465.57 671.147C1467.93 671.178 1470.22 670.373 1471.98 668.892C1473.73 667.411 1474.83 665.362 1475.06 663.153C1475.28 660.944 1474.61 658.738 1473.18 656.973L1489.8 641.391L1515.43 637.567L1529.95 623.922L1532.28 601.503L1694.48 449.052L1692.35 447.056L1529.37 600.231ZM1470.22 666.537C1469.37 667.356 1468.28 667.927 1467.09 668.182C1465.9 668.437 1464.66 668.365 1463.51 667.976C1462.37 667.586 1461.36 666.895 1460.62 665.985C1459.88 665.075 1459.44 663.984 1459.34 662.842C1459.24 661.7 1459.49 660.555 1460.07 659.545C1460.64 658.534 1461.51 657.7 1462.58 657.141C1463.64 656.583 1464.86 656.324 1466.07 656.395C1467.29 656.467 1468.46 656.865 1469.44 657.543L1470.81 658.823C1471.71 659.964 1472.14 661.372 1472.03 662.789C1471.92 664.206 1471.26 665.537 1470.19 666.537H1470.22Z" fill="#0095D9"/>
</g>
<g style="mix-blend-mode:screen">
<path d="M1550.87 385.405L1501.2 432.078L1503.32 446.702L1483.28 465.524C1482.13 464.931 1480.79 464.749 1479.51 465.012C1478.22 465.275 1477.08 465.965 1476.3 466.955C1475.52 467.944 1475.14 469.167 1475.24 470.398C1475.33 471.629 1475.9 472.785 1476.84 473.653C1477.77 474.521 1479.01 475.042 1480.32 475.121C1481.63 475.2 1482.93 474.832 1483.97 474.084C1485.02 473.335 1485.74 472.257 1486 471.049C1486.27 469.84 1486.06 468.582 1485.42 467.506L1506.49 447.697L1504.37 433.073L1552.99 387.401L1550.87 385.405Z" fill="#0095D9"/>
</g>
<g style="mix-blend-mode:screen">
<path d="M1489 366.336L1467.07 386.933C1466.36 386.534 1465.52 386.39 1464.7 386.528C1463.88 386.666 1463.15 387.076 1462.63 387.684C1462.11 388.291 1461.84 389.054 1461.87 389.833C1461.9 390.611 1462.23 391.353 1462.8 391.921C1463.37 392.489 1464.14 392.844 1464.96 392.923C1465.79 393.002 1466.61 392.797 1467.29 392.348C1467.97 391.899 1468.45 391.234 1468.65 390.478C1468.85 389.721 1468.75 388.923 1468.37 388.23L1489.78 368.113H1499.27L1533.33 336.132H1542.02L1556.69 322.349L1555.58 314.589L1609.94 263.516L1608.6 262.261L1553.91 313.643L1553.57 313.952L1554.69 321.712L1541.24 334.351H1532.53L1498.48 366.336H1489Z" fill="#0095D9"/>
</g>
<g style="mix-blend-mode:screen">
<path d="M1210.41 612.776H1224.22L1278.12 562.118H1293.16L1327.89 529.491C1329.02 530.123 1330.35 530.351 1331.64 530.132C1332.94 529.913 1334.1 529.263 1334.92 528.301C1335.75 527.339 1336.17 526.13 1336.12 524.897C1336.07 523.664 1335.55 522.489 1334.65 521.59C1333.75 520.69 1332.53 520.126 1331.23 520.002C1329.92 519.878 1328.61 520.201 1327.54 520.913C1326.46 521.625 1325.7 522.677 1325.39 523.876C1325.07 525.074 1325.23 526.339 1325.83 527.436L1291.92 559.295H1276.89L1222.97 609.961H1209.18L1185.94 631.795L1187.71 644.087L1101.61 724.981L1103.73 726.978L1190.89 645.081L1189.13 632.79L1210.41 612.776Z" fill="#0095D9"/>
</g>
</g>
<path d="M1604.21 365.233L1628.75 342.126V339.809L1602.49 364.531L1601.79 385.392L1563.74 421.222V440.036C1562.37 440.167 1561.11 440.775 1560.21 441.74C1559.3 442.704 1558.82 443.954 1558.85 445.24C1558.88 446.526 1559.42 447.755 1560.37 448.681C1561.32 449.607 1562.61 450.163 1563.97 450.238C1565.34 450.313 1566.69 449.901 1567.75 449.085C1568.81 448.269 1569.5 447.108 1569.69 445.834C1569.88 444.56 1569.55 443.265 1568.77 442.208C1567.99 441.152 1566.81 440.41 1565.47 440.131V421.851L1603.5 386.072L1604.21 365.233ZM1566.93 442.647C1567.53 443.21 1567.91 443.954 1568 444.75C1568.09 445.547 1567.88 446.347 1567.4 447.015C1566.93 447.682 1566.23 448.175 1565.42 448.41C1564.6 448.645 1563.72 448.607 1562.94 448.302C1562.15 447.997 1561.5 447.445 1561.09 446.739C1560.69 446.034 1560.56 445.219 1560.73 444.433C1560.89 443.647 1561.34 442.94 1562 442.431C1562.66 441.923 1563.48 441.645 1564.34 441.645C1564.82 441.642 1565.29 441.729 1565.74 441.901C1566.18 442.073 1566.59 442.326 1566.93 442.647ZM1617.44 394.32L1579.39 430.15V449.374L1549.04 477.95C1548.01 477.415 1546.82 477.209 1545.66 477.363C1544.5 477.517 1543.42 478.024 1542.59 478.805C1541.82 479.509 1541.3 480.411 1541.07 481.396C1540.85 482.382 1540.94 483.408 1541.33 484.345C1541.73 485.283 1542.41 486.09 1543.29 486.666C1544.17 487.242 1545.21 487.561 1546.28 487.583C1547.35 487.605 1548.41 487.33 1549.31 486.79C1550.22 486.251 1550.94 485.473 1551.37 484.553C1551.81 483.632 1551.95 482.611 1551.77 481.618C1551.59 480.624 1551.11 479.701 1550.37 478.966L1581.12 450.046V430.83L1619.19 395.052L1619.9 374.197L1628.75 365.78V363.478L1618.21 373.474L1617.44 394.32ZM1549.01 484.801C1548.41 485.37 1547.62 485.725 1546.77 485.807C1545.93 485.889 1545.08 485.692 1544.36 485.25C1543.65 484.808 1543.13 484.148 1542.88 483.383C1542.63 482.618 1542.67 481.795 1542.99 481.054C1543.32 480.314 1543.9 479.701 1544.65 479.322C1545.4 478.942 1546.27 478.819 1547.11 478.973C1547.94 479.127 1548.69 479.548 1549.24 480.166C1549.78 480.783 1550.08 481.558 1550.08 482.359C1550.09 482.811 1550 483.26 1549.83 483.681C1549.65 484.101 1549.39 484.485 1549.05 484.808L1549.01 484.801ZM1547.93 424.3L1585.05 389.37C1584.69 388.753 1584.58 388.034 1584.74 387.346C1584.9 386.657 1585.31 386.045 1585.91 385.623C1586.51 385.2 1587.25 384.995 1588 385.044C1588.75 385.094 1589.45 385.396 1589.98 385.894C1590.51 386.392 1590.83 387.053 1590.89 387.755C1590.94 388.458 1590.72 389.154 1590.27 389.718C1589.82 390.281 1589.17 390.673 1588.44 390.821C1587.7 390.97 1586.94 390.865 1586.28 390.525L1548.93 425.704L1531.7 431.883C1531.71 432.587 1531.44 433.271 1530.96 433.808C1530.47 434.345 1529.8 434.7 1529.06 434.807C1528.32 434.915 1527.56 434.768 1526.93 434.393C1526.29 434.018 1525.82 433.441 1525.61 432.767C1525.39 432.093 1525.44 431.368 1525.74 430.725C1526.05 430.082 1526.59 429.564 1527.27 429.266C1527.95 428.968 1528.72 428.911 1529.44 429.104C1530.16 429.297 1530.78 429.729 1531.19 430.318L1547.93 424.3ZM1443.1 426.494C1443.81 426.499 1444.51 426.373 1445.17 426.122C1445.82 425.871 1446.42 425.5 1446.92 425.032C1447.43 424.557 1447.83 423.993 1448.11 423.372L1467.47 427.518L1511 386.57L1528.72 390.723L1610.43 314.337V312.028L1528.22 388.917L1510.47 384.778L1466.88 425.726L1448.46 421.785C1448.46 421.668 1448.46 421.551 1448.46 421.441C1448.46 420.426 1448.15 419.43 1447.56 418.582C1446.96 417.734 1446.11 417.071 1445.12 416.678C1444.12 416.285 1443.02 416.179 1441.96 416.375C1440.9 416.57 1439.92 417.058 1439.16 417.776C1438.39 418.493 1437.87 419.409 1437.66 420.405C1437.45 421.402 1437.56 422.434 1437.98 423.371C1438.4 424.309 1439.1 425.108 1440 425.668C1440.91 426.228 1441.97 426.523 1443.05 426.516L1443.1 426.494ZM1440.51 418.984C1441.11 418.419 1441.9 418.067 1442.75 417.988C1443.59 417.91 1444.44 418.109 1445.15 418.553C1445.86 418.996 1446.38 419.657 1446.62 420.421C1446.87 421.185 1446.83 422.006 1446.5 422.744C1446.18 423.482 1445.59 424.091 1444.84 424.467C1444.09 424.844 1443.22 424.964 1442.39 424.808C1441.56 424.651 1440.81 424.228 1440.27 423.61C1439.73 422.992 1439.43 422.218 1439.44 421.419C1439.45 420.521 1439.83 419.662 1440.51 419.028V418.984ZM1483.45 396.792C1482.83 396.313 1482.44 395.629 1482.34 394.881C1482.25 394.133 1482.46 393.38 1482.94 392.778C1483.42 392.176 1484.13 391.771 1484.93 391.648C1485.72 391.526 1486.53 391.695 1487.19 392.12L1509.17 371.441L1528.44 375.097L1551.45 353.453C1551.09 352.836 1550.98 352.117 1551.13 351.428C1551.29 350.74 1551.71 350.128 1552.31 349.705C1552.91 349.283 1553.65 349.077 1554.4 349.127C1555.14 349.177 1555.85 349.479 1556.38 349.977C1556.91 350.474 1557.23 351.135 1557.28 351.838C1557.33 352.54 1557.12 353.237 1556.67 353.8C1556.22 354.364 1555.57 354.755 1554.83 354.904C1554.1 355.052 1553.33 354.947 1552.68 354.608L1529.01 376.874L1509.73 373.218L1488.42 393.275C1488.87 393.896 1489.04 394.655 1488.91 395.395C1488.78 396.136 1488.35 396.801 1487.72 397.252C1487.08 397.704 1486.28 397.908 1485.49 397.823C1484.69 397.737 1483.97 397.368 1483.45 396.792ZM1551.25 513.355C1552.33 514.105 1553.68 514.442 1555.02 514.3C1556.36 514.159 1557.6 513.548 1558.48 512.59C1559.36 511.632 1559.83 510.397 1559.79 509.13C1559.75 507.863 1559.2 506.658 1558.25 505.753C1557.31 504.848 1556.04 504.311 1554.69 504.247C1553.34 504.184 1552.02 504.599 1550.98 505.411C1549.95 506.222 1549.27 507.37 1549.1 508.627C1548.92 509.883 1549.26 511.156 1550.03 512.192L1537.5 523.958L1538.73 532.425L1473.21 593.942L1474.44 595.097L1540.59 532.944L1539.36 524.484L1551.25 513.355ZM1551.86 506.84C1552.55 506.194 1553.48 505.831 1554.45 505.831C1555.42 505.831 1556.36 506.194 1557.04 506.84C1557.39 507.157 1557.66 507.536 1557.85 507.954C1558.03 508.373 1558.13 508.822 1558.13 509.275C1558.13 509.847 1557.99 510.412 1557.71 510.919C1557.43 511.426 1557.02 511.859 1556.51 512.18C1556.01 512.5 1555.43 512.698 1554.82 512.755C1554.21 512.813 1553.6 512.728 1553.04 512.508C1552.48 512.288 1551.98 511.94 1551.6 511.496C1551.22 511.052 1550.96 510.525 1550.84 509.963C1550.73 509.401 1550.77 508.821 1550.95 508.276C1551.14 507.731 1551.46 507.237 1551.9 506.84H1551.86ZM1362.95 592.684L1364.18 593.833L1385.26 574.031V565.856L1416.47 536.534V529.032L1428.8 517.45L1436.38 518.408L1486.25 471.551C1487.39 472.264 1488.77 472.547 1490.12 472.344C1491.48 472.142 1492.7 471.468 1493.54 470.457C1494.39 469.447 1494.8 468.173 1494.7 466.891C1494.59 465.608 1493.97 464.41 1492.97 463.536C1491.96 462.661 1490.65 462.174 1489.28 462.171C1487.91 462.169 1486.59 462.65 1485.58 463.521C1484.57 464.391 1483.95 465.587 1483.84 466.869C1483.72 468.151 1484.13 469.426 1484.97 470.44L1435.75 516.682L1428.18 515.724L1414.73 528.36V535.862L1383.52 565.184V573.358L1362.95 592.684ZM1486.62 464.875C1486.96 464.555 1487.37 464.3 1487.81 464.126C1488.26 463.953 1488.73 463.863 1489.22 463.863C1489.7 463.863 1490.18 463.953 1490.62 464.126C1491.07 464.3 1491.47 464.555 1491.81 464.875C1492.31 465.359 1492.65 465.97 1492.79 466.633C1492.92 467.296 1492.85 467.981 1492.57 468.605C1492.3 469.228 1491.83 469.761 1491.24 470.138C1490.64 470.515 1489.94 470.719 1489.22 470.725C1488.5 470.717 1487.8 470.512 1487.21 470.135C1486.61 469.758 1486.15 469.226 1485.87 468.604C1485.6 467.982 1485.52 467.297 1485.65 466.634C1485.79 465.972 1486.12 465.36 1486.62 464.875ZM1491.77 441.023L1493.1 428.044L1500.7 420.944L1515.53 418.75L1525.59 409.303C1526.72 410.029 1528.1 410.329 1529.45 410.142C1530.81 409.956 1532.04 409.296 1532.9 408.296C1533.76 407.296 1534.19 406.027 1534.1 404.743C1534.01 403.46 1533.41 402.255 1532.42 401.368C1531.42 400.482 1530.11 399.979 1528.74 399.96C1527.37 399.941 1526.05 400.407 1525.03 401.266C1524.01 402.124 1523.37 403.312 1523.24 404.593C1523.11 405.873 1523.5 407.153 1524.33 408.177L1514.71 417.2L1499.87 419.394L1491.47 427.284L1490.14 440.263L1378.49 545.183H1380.9L1491.77 441.023ZM1526.02 402.642C1526.44 402.231 1526.96 401.925 1527.54 401.751C1528.12 401.578 1528.74 401.543 1529.34 401.649C1529.94 401.755 1530.5 401.999 1530.97 402.359C1531.44 402.718 1531.81 403.183 1532.05 403.711C1532.28 404.238 1532.37 404.812 1532.31 405.381C1532.25 405.95 1532.04 406.496 1531.7 406.97C1531.36 407.444 1530.9 407.831 1530.36 408.097C1529.82 408.362 1529.22 408.498 1528.61 408.491C1527.83 408.493 1527.07 408.254 1526.45 407.811L1525.67 407.08C1525.15 406.421 1524.89 405.606 1524.96 404.785C1525.02 403.964 1525.4 403.192 1526.02 402.613L1526.02 402.642ZM1444.77 560.906L1472.91 534.465L1471.68 526.005L1483.87 514.547C1483.51 513.933 1483.39 513.217 1483.54 512.528C1483.69 511.839 1484.1 511.224 1484.69 510.796C1485.29 510.368 1486.03 510.155 1486.77 510.196C1487.52 510.238 1488.23 510.531 1488.76 511.022C1489.3 511.513 1489.63 512.169 1489.69 512.87C1489.75 513.571 1489.55 514.27 1489.1 514.838C1488.66 515.407 1488.02 515.807 1487.29 515.966C1486.56 516.124 1485.8 516.031 1485.13 515.702L1473.54 526.597L1474.77 535.057L1445.99 562.061L1444.77 560.906ZM1490.94 546.318L1459.73 575.64H1451.75L1439.41 587.23L1440.44 594.344L1389.99 641.734L1388.76 640.586L1438.57 593.789L1437.54 586.674L1451 574.039H1459.01L1490.22 544.709H1498.92L1518.55 526.268C1518.21 525.64 1518.13 524.917 1518.31 524.234C1518.49 523.551 1518.93 522.953 1519.55 522.55C1520.16 522.147 1520.91 521.966 1521.66 522.04C1522.4 522.114 1523.1 522.438 1523.61 522.954C1524.12 523.469 1524.41 524.14 1524.44 524.844C1524.47 525.548 1524.22 526.237 1523.75 526.786C1523.28 527.334 1522.62 527.704 1521.88 527.828C1521.14 527.952 1520.38 527.821 1519.73 527.46L1499.64 546.347L1490.94 546.318ZM1655.38 418.867L1654.36 411.753L1704.8 364.341L1706.03 365.496L1656.22 412.294L1657.25 419.408L1643.79 432.051H1635.82L1604.6 461.373H1595.88L1576.24 479.873C1576.58 480.501 1576.67 481.224 1576.48 481.907C1576.3 482.59 1575.86 483.188 1575.25 483.591C1574.63 483.994 1573.88 484.175 1573.14 484.101C1572.39 484.027 1571.7 483.702 1571.19 483.187C1570.68 482.672 1570.38 482.001 1570.35 481.297C1570.33 480.593 1570.57 479.903 1571.04 479.355C1571.51 478.807 1572.18 478.437 1572.92 478.313C1573.66 478.189 1574.42 478.32 1575.06 478.681L1595.15 459.793H1603.86L1635.06 430.472H1643.05L1655.38 418.867ZM1587.34 513.026L1586.01 526.005L1578.45 533.112L1563.61 535.306L1553.57 544.753C1552.57 544.108 1551.37 543.794 1550.17 543.862C1548.96 543.93 1547.81 544.375 1546.91 545.127C1546 545.88 1545.39 546.895 1545.17 548.012C1544.95 549.129 1545.14 550.282 1545.7 551.289C1546.26 552.295 1547.16 553.096 1548.26 553.565C1549.36 554.033 1550.6 554.141 1551.77 553.872C1552.95 553.603 1553.99 552.972 1554.74 552.08C1555.49 551.188 1555.9 550.086 1555.9 548.951C1555.9 547.839 1555.51 546.758 1554.79 545.879L1564.41 536.834L1579.25 534.641L1587.65 526.744L1588.98 513.764L1682.93 425.521L1681.7 424.366L1587.34 513.026ZM1553.1 551.407C1552.6 551.88 1551.97 552.208 1551.28 552.354C1550.59 552.499 1549.88 552.455 1549.21 552.227C1548.55 551.999 1547.97 551.597 1547.54 551.068C1547.12 550.54 1546.86 549.907 1546.81 549.245C1546.75 548.584 1546.9 547.922 1547.24 547.338C1547.57 546.754 1548.08 546.273 1548.7 545.952C1549.31 545.631 1550.02 545.484 1550.72 545.528C1551.43 545.572 1552.1 545.806 1552.67 546.201L1553.45 546.932C1553.97 547.594 1554.22 548.409 1554.15 549.229C1554.09 550.049 1553.71 550.819 1553.09 551.4L1553.1 551.407ZM1514.74 457.081C1514.74 460.147 1515.71 463.144 1517.52 465.693C1519.33 468.242 1521.91 470.229 1524.92 471.402C1527.94 472.576 1531.26 472.883 1534.46 472.285C1537.66 471.686 1540.6 470.21 1542.9 468.042C1545.21 465.874 1546.78 463.112 1547.42 460.105C1548.06 457.098 1547.73 453.981 1546.48 451.148C1545.23 448.316 1543.12 445.895 1540.4 444.191C1537.69 442.488 1534.5 441.579 1531.24 441.579C1526.87 441.589 1522.68 443.226 1519.59 446.131C1516.5 449.037 1514.77 452.974 1514.76 457.081H1514.74ZM1531.24 443.188C1534.16 443.188 1537.02 444.002 1539.45 445.529C1541.88 447.056 1543.78 449.225 1544.9 451.764C1546.02 454.303 1546.31 457.096 1545.74 459.791C1545.17 462.486 1543.76 464.962 1541.69 466.905C1539.63 468.848 1536.99 470.171 1534.12 470.707C1531.25 471.243 1528.28 470.968 1525.58 469.916C1522.88 468.865 1520.57 467.084 1518.94 464.799C1517.32 462.515 1516.45 459.828 1516.45 457.081C1516.45 455.256 1516.84 453.45 1517.59 451.766C1518.33 450.081 1519.42 448.551 1520.8 447.263C1522.17 445.975 1523.81 444.954 1525.6 444.259C1527.4 443.563 1529.32 443.207 1531.26 443.21L1531.24 443.188ZM1531.24 468.276C1533.6 468.274 1535.91 467.615 1537.87 466.382C1539.83 465.148 1541.36 463.396 1542.26 461.346C1543.16 459.296 1543.4 457.041 1542.94 454.866C1542.48 452.691 1541.34 450.693 1539.67 449.125C1538 447.557 1535.87 446.489 1533.56 446.057C1531.24 445.625 1528.84 445.847 1526.66 446.696C1524.48 447.546 1522.61 448.983 1521.3 450.828C1519.99 452.672 1519.29 454.841 1519.29 457.059C1519.29 458.536 1519.6 459.998 1520.2 461.362C1520.8 462.727 1521.68 463.967 1522.8 465.01C1523.91 466.054 1525.23 466.882 1526.68 467.446C1528.13 468.01 1529.69 468.299 1531.26 468.298L1531.24 468.276ZM1531.24 447.473C1533.26 447.473 1535.23 448.035 1536.91 449.088C1538.58 450.141 1539.89 451.639 1540.66 453.39C1541.44 455.142 1541.64 457.069 1541.24 458.929C1540.85 460.788 1539.88 462.497 1538.45 463.837C1537.02 465.178 1535.21 466.091 1533.23 466.461C1531.25 466.831 1529.2 466.641 1527.33 465.915C1525.47 465.19 1523.88 463.961 1522.75 462.385C1521.63 460.808 1521.03 458.955 1521.03 457.059C1521.04 454.517 1522.12 452.082 1524.04 450.289C1525.96 448.496 1528.56 447.491 1531.26 447.494L1531.24 447.473ZM1525.6 457.081C1525.6 456.036 1525.93 455.015 1526.55 454.146C1527.16 453.276 1528.04 452.599 1529.07 452.198C1530.09 451.797 1531.22 451.692 1532.31 451.895C1533.4 452.097 1534.41 452.6 1535.19 453.338C1535.98 454.076 1536.51 455.016 1536.73 456.041C1536.95 457.065 1536.84 458.127 1536.41 459.092C1535.99 460.057 1535.27 460.882 1534.34 461.462C1533.42 462.043 1532.33 462.353 1531.22 462.353C1530.48 462.354 1529.75 462.218 1529.07 461.954C1528.39 461.689 1527.77 461.301 1527.25 460.811C1526.73 460.322 1526.31 459.74 1526.03 459.1C1525.75 458.46 1525.6 457.774 1525.6 457.081ZM1510.49 478.498H1516.79V484.414H1510.49V478.498ZM1510.49 488.355H1516.79V494.27H1510.49V488.355ZM1510.49 498.212H1516.79V504.127H1510.49V498.212ZM1510.49 508.068H1516.79V513.984H1510.49V508.068ZM1528.07 484.414H1521.77V478.498H1528.07V484.414ZM1521.77 488.355H1528.07V494.27H1521.77V488.355Z" fill="#0095D9"/>
</g>
<path d="M1684.53 594.229V296.352" stroke="url(#paint24_linear_1985_7374)" stroke-width="1.37759" stroke-miterlimit="10"/>
<path d="M1684.31 298.794C1687.56 298.794 1690.2 296.16 1690.2 292.912C1690.2 289.663 1687.56 287.029 1684.31 287.029C1681.05 287.029 1678.41 289.663 1678.41 292.912C1678.41 296.16 1681.05 298.794 1684.31 298.794Z" fill="#0095D9"/>
<path d="M1676 225.522H1691.84" stroke="#2DA0D2" stroke-width="1.37759" stroke-miterlimit="10"/>
<path d="M1676 212.497H1701.83" stroke="#2DA0D2" stroke-width="1.37759" stroke-miterlimit="10"/>
<path d="M1676 199.473H1691.84" stroke="#2DA0D2" stroke-width="1.37759" stroke-miterlimit="10"/>
<path d="M1676 186.438H1701.83" stroke="#2DA0D2" stroke-width="1.37759" stroke-miterlimit="10"/>
<path d="M1676 173.413H1691.84" stroke="#2DA0D2" stroke-width="1.37759" stroke-miterlimit="10"/>
<path d="M1676 160.388H1701.83" stroke="#2DA0D2" stroke-width="1.37759" stroke-miterlimit="10"/>
<path d="M1676 147.362H1691.84" stroke="#2DA0D2" stroke-width="1.37759" stroke-miterlimit="10"/>
<g clip-path="url(#clip2_1985_7374)">
<path opacity="0.15" d="M148 181.152L147.429 180.331L147 180.629L147 181.152L148 181.152ZM159.664 173.04L160.235 173.861L161.426 173.033L160.228 172.214L159.664 173.04ZM148 165.072L147 165.072L147 165.6L147.436 165.898L148 165.072ZM148 156.144L148.588 155.335L147 154.18L147 156.144L148 156.144ZM165.088 168.576L164.5 169.385L165.083 169.809L165.67 169.389L165.088 168.576ZM181.6 156.768L182.6 156.768L182.6 154.823L181.018 155.955L181.6 156.768ZM181.6 165.6L182.179 166.416L182.6 166.117L182.6 165.6L181.6 165.6ZM170.704 173.328L170.125 172.512L168.965 173.336L170.133 174.149L170.704 173.328ZM181.6 180.912L182.6 180.912L182.6 180.39L182.171 180.091L181.6 180.912ZM181.6 189.312L181.015 190.123L182.6 191.267L182.6 189.312L181.6 189.312ZM165.376 177.6L165.961 176.789L165.376 176.367L164.791 176.789L165.376 177.6ZM148 190.128L147 190.128L147 192.082L148.585 190.939L148 190.128ZM148.571 181.973L160.235 173.861L159.093 172.219L147.429 180.331L148.571 181.973ZM160.228 172.214L148.564 164.246L147.436 165.898L159.1 173.866L160.228 172.214ZM149 165.072L149 156.144L147 156.144L147 165.072L149 165.072ZM147.412 156.953L164.5 169.385L165.676 167.767L148.588 155.335L147.412 156.953ZM165.67 169.389L182.182 157.581L181.018 155.955L164.506 167.763L165.67 169.389ZM180.6 156.768L180.6 165.6L182.6 165.6L182.6 156.768L180.6 156.768ZM181.021 164.784L170.125 172.512L171.283 174.144L182.179 166.416L181.021 164.784ZM170.133 174.149L181.029 181.733L182.171 180.091L171.275 172.507L170.133 174.149ZM180.6 180.912L180.6 189.312L182.6 189.312L182.6 180.912L180.6 180.912ZM182.185 188.501L165.961 176.789L164.791 178.411L181.015 190.123L182.185 188.501ZM164.791 176.789L147.415 189.317L148.585 190.939L165.961 178.411L164.791 176.789ZM149 190.128L149 181.152L147 181.152L147 190.128L149 190.128ZM148 214.58L147.431 213.757L147 214.056L147 214.58L148 214.58ZM157.36 208.1L157.929 208.922L158.36 208.623L158.36 208.1L157.36 208.1ZM157.36 200.948L158.36 200.948L158.36 199.948L157.36 199.948L157.36 200.948ZM148 200.948L147 200.948L147 201.948L148 201.948L148 200.948ZM148 193.171L148 192.171L147 192.171L147 193.171L148 193.171ZM181.6 193.172L182.6 193.172L182.6 192.172L181.6 192.172L181.6 193.172ZM180.112 215.444L179.202 215.029L179.2 215.034L180.112 215.444ZM162.928 220.483L163.483 219.651L163.479 219.649L162.928 220.483ZM158.8 215.395L159.717 214.997L159.23 213.876L158.228 214.575L158.8 215.395ZM148 222.932L147 222.932L147 224.849L148.572 223.752L148 222.932ZM173.728 212.612L172.963 211.967L172.958 211.973L172.953 211.979L173.728 212.612ZM175.264 200.948L176.264 200.948L176.264 199.948L175.264 199.948L175.264 200.948ZM163.552 200.948L163.552 199.948L162.552 199.948L162.552 200.948L163.552 200.948ZM165.088 212.612L164.323 213.256L165.088 212.612ZM148.569 215.402L157.929 208.922L156.791 207.277L147.431 213.757L148.569 215.402ZM158.36 208.1L158.36 207.715L156.36 207.715L156.36 208.1L158.36 208.1ZM158.36 207.715L158.36 200.948L156.36 200.948L156.36 207.715L158.36 207.715ZM157.36 199.948L148 199.948L148 201.948L157.36 201.948L157.36 199.948ZM149 200.948L149 193.171L147 193.171L147 200.948L149 200.948ZM148 194.171L181.6 194.172L181.6 192.172L148 192.171L148 194.171ZM180.6 193.172L180.6 207.715L182.6 207.715L182.6 193.172L180.6 193.172ZM180.6 207.715C180.6 210.582 180.122 213.011 179.202 215.029L181.022 215.858C182.086 213.524 182.6 210.801 182.6 207.715L180.6 207.715ZM179.2 215.034C178.277 217.087 176.988 218.625 175.344 219.693L176.432 221.37C178.436 220.07 179.963 218.216 181.024 215.853L179.2 215.034ZM175.344 219.693C173.705 220.757 171.74 221.308 169.408 221.308L169.408 223.308C172.068 223.308 174.423 222.674 176.432 221.37L175.344 219.693ZM169.408 221.308C167.081 221.308 165.12 220.743 163.483 219.651L162.373 221.316C164.384 222.656 166.743 223.308 169.408 223.308L169.408 221.308ZM163.479 219.649C161.868 218.584 160.61 217.049 159.717 214.997L157.883 215.794C158.91 218.158 160.404 220.015 162.377 221.318L163.479 219.649ZM158.228 214.575L147.428 222.111L148.572 223.752L159.372 216.216L158.228 214.575ZM149 222.932L149 214.58L147 214.58L147 222.932L149 222.932ZM169.408 215.436C171.529 215.436 173.282 214.74 174.503 213.244L172.953 211.979C172.19 212.915 171.063 213.436 169.408 213.436L169.408 215.436ZM174.493 213.256C175.726 211.791 176.264 209.748 176.264 207.284L174.264 207.284C174.264 209.491 173.778 211 172.963 211.967L174.493 213.256ZM176.264 207.284L176.264 200.948L174.264 200.948L174.264 207.284L176.264 207.284ZM175.264 199.948L163.552 199.948L163.552 201.948L175.264 201.948L175.264 199.948ZM162.552 200.948L162.552 207.283L164.552 207.283L164.552 200.948L162.552 200.948ZM162.552 207.283C162.552 209.748 163.09 211.791 164.323 213.256L165.853 211.967C165.038 211 164.552 209.491 164.552 207.283L162.552 207.283ZM164.323 213.256C165.57 214.736 167.312 215.436 169.408 215.436L169.408 213.436C167.792 213.436 166.654 212.919 165.853 211.967L164.323 213.256ZM148 263.47L147.431 262.648L147 262.946L147 263.47L148 263.47ZM157.36 256.99L157.929 257.812L158.36 257.514L158.36 256.99L157.36 256.99ZM157.36 249.838L158.36 249.838L158.36 248.838L157.36 248.838L157.36 249.838ZM148 249.838L147 249.838L147 250.838L148 250.838L148 249.838ZM148 242.062L148 241.062L147 241.062L147 242.062L148 242.062ZM181.6 242.062L182.6 242.062L182.6 241.062L181.6 241.062L181.6 242.062ZM180.112 264.334L179.202 263.919L179.2 263.924L180.112 264.334ZM162.928 269.374L163.483 268.542L163.479 268.54L162.928 269.374ZM158.8 264.286L159.717 263.887L159.23 262.767L158.228 263.466L158.8 264.286ZM148 271.822L147 271.822L147 273.739L148.572 272.642L148 271.822ZM173.728 261.502L172.963 260.858L172.958 260.864L172.953 260.87L173.728 261.502ZM175.264 249.838L176.264 249.838L176.264 248.838L175.264 248.838L175.264 249.838ZM163.552 249.838L163.552 248.838L162.552 248.838L162.552 249.838L163.552 249.838ZM165.088 261.502L164.323 262.146L165.088 261.502ZM148.569 264.292L157.929 257.812L156.791 256.168L147.431 262.648L148.569 264.292ZM158.36 256.99L158.36 256.606L156.36 256.606L156.36 256.99L158.36 256.99ZM158.36 256.606L158.36 249.838L156.36 249.838L156.36 256.606L158.36 256.606ZM157.36 248.838L148 248.838L148 250.838L157.36 250.838L157.36 248.838ZM149 249.838L149 242.062L147 242.062L147 249.838L149 249.838ZM148 243.062L181.6 243.062L181.6 241.062L148 241.062L148 243.062ZM180.6 242.062L180.6 256.606L182.6 256.606L182.6 242.062L180.6 242.062ZM180.6 256.606C180.6 259.473 180.122 261.901 179.202 263.919L181.022 264.749C182.086 262.415 182.6 259.691 182.6 256.606L180.6 256.606ZM179.2 263.924C178.277 265.977 176.988 267.516 175.344 268.583L176.432 270.261C178.436 268.961 179.963 267.107 181.024 264.744L179.2 263.924ZM175.344 268.583C173.705 269.647 171.74 270.198 169.408 270.198L169.408 272.198C172.068 272.198 174.423 271.565 176.432 270.261L175.344 268.583ZM169.408 270.198C167.081 270.198 165.12 269.634 163.483 268.542L162.373 270.206C164.384 271.546 166.743 272.198 169.408 272.198L169.408 270.198ZM163.479 268.54C161.868 267.475 160.61 265.94 159.717 263.887L157.883 264.685C158.91 267.048 160.404 268.905 162.377 270.208L163.479 268.54ZM158.228 263.466L147.428 271.002L148.572 272.642L159.372 265.106L158.228 263.466ZM149 271.822L149 263.47L147 263.47L147 271.822L149 271.822ZM169.408 264.326C171.529 264.326 173.282 263.631 174.503 262.134L172.953 260.87C172.19 261.806 171.063 262.326 169.408 262.326L169.408 264.326ZM174.493 262.146C175.726 260.682 176.264 258.638 176.264 256.174L174.264 256.174C174.264 258.382 173.778 259.89 172.963 260.858L174.493 262.146ZM176.264 256.174L176.264 249.838L174.264 249.838L174.264 256.174L176.264 256.174ZM175.264 248.838L163.552 248.838L163.552 250.838L175.264 250.838L175.264 248.838ZM162.552 249.838L162.552 256.174L164.552 256.174L164.552 249.838L162.552 249.838ZM162.552 256.174C162.552 258.638 163.09 260.682 164.323 262.146L165.853 260.858C165.038 259.89 164.552 258.382 164.552 256.174L162.552 256.174ZM164.323 262.146C165.57 263.627 167.312 264.326 169.408 264.326L169.408 262.326C167.792 262.326 166.654 261.81 165.853 260.858L164.323 262.146ZM154.24 303.375L154.24 304.375L155.24 304.375L155.24 303.375L154.24 303.375ZM148 303.375L147 303.375L147 304.375L148 304.375L148 303.375ZM148 277.359L148 276.359L147 276.359L147 277.359L148 277.359ZM181.6 277.359L182.6 277.359L182.6 276.359L181.6 276.359L181.6 277.359ZM181.6 302.751L181.6 303.751L182.6 303.751L182.6 302.751L181.6 302.751ZM175.36 302.751L174.36 302.751L174.36 303.751L175.36 303.751L175.36 302.751ZM175.36 285.087L176.36 285.087L176.36 284.087L175.36 284.087L175.36 285.087ZM168.064 285.087L168.064 284.087L167.064 284.087L167.064 285.087L168.064 285.087ZM168.064 300.687L168.064 301.687L169.064 301.687L169.064 300.687L168.064 300.687ZM162.016 300.687L161.016 300.687L161.016 301.687L162.016 301.687L162.016 300.687ZM162.016 285.087L163.016 285.087L163.016 284.087L162.016 284.087L162.016 285.087ZM154.24 285.087L154.24 284.087L153.24 284.087L153.24 285.087L154.24 285.087ZM154.24 302.375L148 302.375L148 304.375L154.24 304.375L154.24 302.375ZM149 303.375L149 277.359L147 277.359L147 303.375L149 303.375ZM148 278.359L181.6 278.359L181.6 276.359L148 276.359L148 278.359ZM180.6 277.359L180.6 302.751L182.6 302.751L182.6 277.359L180.6 277.359ZM181.6 301.751L175.36 301.751L175.36 303.751L181.6 303.751L181.6 301.751ZM176.36 302.751L176.36 285.087L174.36 285.087L174.36 302.751L176.36 302.751ZM175.36 284.087L168.064 284.087L168.064 286.087L175.36 286.087L175.36 284.087ZM167.064 285.087L167.064 300.687L169.064 300.687L169.064 285.087L167.064 285.087ZM168.064 299.687L162.016 299.687L162.016 301.687L168.064 301.687L168.064 299.687ZM163.016 300.687L163.016 285.087L161.016 285.087L161.016 300.687L163.016 300.687ZM162.016 284.087L154.24 284.087L154.24 286.087L162.016 286.087L162.016 284.087ZM153.24 285.087L153.24 303.375L155.24 303.375L155.24 285.087L153.24 285.087ZM149.632 316.236L148.754 315.757L148.748 315.769L149.632 316.236ZM155.824 309.708L155.316 308.847L155.309 308.851L155.303 308.855L155.824 309.708ZM173.728 309.708L174.244 308.852L174.241 308.85L173.728 309.708ZM179.92 316.236L179.038 316.708L179.04 316.712L179.92 316.236ZM180.64 333.468L179.724 333.067L179.722 333.071L180.64 333.468ZM176.224 339.42L175.489 340.099L176.134 340.797L176.864 340.189L176.224 339.42ZM171.616 334.428L170.961 333.672L170.181 334.348L170.881 335.107L171.616 334.428ZM174.16 320.412L173.283 320.894L173.287 320.9L173.291 320.907L174.16 320.412ZM170.368 316.572L170.862 315.703L170.856 315.699L170.849 315.696L170.368 316.572ZM159.232 316.572L158.751 315.696L158.744 315.699L158.738 315.703L159.232 316.572ZM155.392 320.412L154.523 319.918L154.519 319.925L154.515 319.931L155.392 320.412ZM158.032 334.428L158.767 335.107L159.471 334.344L158.682 333.668L158.032 334.428ZM153.424 339.42L152.79 340.194L153.519 340.791L154.159 340.099L153.424 339.42ZM148.96 333.468L149.878 333.071L148.96 333.468ZM148.424 325.548C148.424 322.273 149.127 319.331 150.516 316.704L148.748 315.769C147.193 318.709 146.424 321.976 146.424 325.548L148.424 325.548ZM150.509 316.716C151.931 314.115 153.873 312.069 156.345 310.562L155.303 308.855C152.526 310.548 150.341 312.854 148.754 315.757L150.509 316.716ZM156.332 310.57C158.822 309.1 161.636 308.356 164.8 308.356L164.8 306.356C161.308 306.356 158.138 307.181 155.316 308.847L156.332 310.57ZM164.8 308.356C167.964 308.356 170.76 309.1 173.215 310.567L174.241 308.85C171.448 307.181 168.292 306.356 164.8 306.356L164.8 308.356ZM173.212 310.565C175.713 312.071 177.651 314.114 179.038 316.708L180.802 315.765C179.245 312.855 177.055 310.545 174.244 308.852L173.212 310.565ZM179.04 316.712C180.458 319.336 181.176 322.291 181.176 325.596L183.176 325.596C183.176 321.99 182.39 318.704 180.8 315.761L179.04 316.712ZM181.176 325.596C181.176 328.39 180.685 330.874 179.724 333.067L181.556 333.87C182.643 331.391 183.176 328.627 183.176 325.596L181.176 325.596ZM179.722 333.071C178.758 335.3 177.379 337.156 175.584 338.652L176.864 340.189C178.908 338.485 180.474 336.372 181.558 333.865L179.722 333.071ZM176.959 338.742L172.351 333.75L170.881 335.107L175.489 340.099L176.959 338.742ZM172.271 335.184C175.106 332.73 176.552 329.641 176.552 325.98L174.552 325.98C174.552 329.039 173.374 331.583 170.961 333.672L172.271 335.184ZM176.552 325.98C176.552 323.746 176.052 321.717 175.029 319.918L173.291 320.907C174.124 322.372 174.552 324.055 174.552 325.98L176.552 325.98ZM175.037 319.931C174.051 318.135 172.654 316.722 170.862 315.703L169.874 317.442C171.346 318.279 172.477 319.425 173.283 320.894L175.037 319.931ZM170.849 315.696C169.053 314.71 167.028 314.228 164.8 314.228L164.8 316.228C166.732 316.228 168.419 316.643 169.887 317.449L170.849 315.696ZM164.8 314.228C162.572 314.228 160.547 314.71 158.751 315.696L159.713 317.449C161.181 316.643 162.868 316.228 164.8 316.228L164.8 314.228ZM158.738 315.703C156.949 316.72 155.54 318.13 154.523 319.918L156.261 320.907C157.1 319.431 158.251 318.281 159.726 317.442L158.738 315.703ZM154.515 319.931C153.529 321.727 153.048 323.752 153.048 325.98L155.048 325.98C155.048 324.049 155.463 322.361 156.269 320.894L154.515 319.931ZM153.048 325.98C153.048 329.646 154.514 332.735 157.382 335.188L158.682 333.668C156.238 331.578 155.048 329.035 155.048 325.98L153.048 325.98ZM157.297 333.75L152.689 338.742L154.159 340.099L158.767 335.107L157.297 333.75ZM154.058 338.647C152.232 337.15 150.84 335.296 149.878 333.071L148.042 333.865C149.128 336.376 150.712 338.49 152.79 340.194L154.058 338.647ZM149.878 333.071C148.915 330.844 148.424 328.341 148.424 325.548L146.424 325.548C146.424 328.579 146.957 331.357 148.042 333.865L149.878 333.071ZM149.68 350.784L148.8 350.309L148.798 350.313L149.68 350.784ZM155.872 344.208L155.364 343.347L155.357 343.351L155.351 343.355L155.872 344.208ZM173.68 344.208L174.196 343.352L174.193 343.35L173.68 344.208ZM179.92 350.784L180.802 350.313L180.8 350.309L179.92 350.784ZM173.68 376.224L173.164 375.368L173.159 375.371L173.68 376.224ZM155.872 376.224L155.351 377.078L155.356 377.081L155.872 376.224ZM149.68 369.648L148.8 370.124L149.68 369.648ZM155.392 365.616L154.519 366.105L154.523 366.112L154.527 366.118L155.392 365.616ZM159.232 369.36L159.726 368.491L159.72 368.487L159.713 368.484L159.232 369.36ZM170.368 369.36L169.887 368.484L169.88 368.487L169.874 368.491L170.368 369.36ZM174.16 365.616L173.295 365.115L173.291 365.121L173.287 365.128L174.16 365.616ZM174.16 354.864L173.287 355.353L173.291 355.36L173.295 355.366L174.16 354.864ZM170.368 351.072L170.862 350.203L170.856 350.199L170.849 350.196L170.368 351.072ZM159.232 351.072L158.751 350.196L158.744 350.199L158.738 350.203L159.232 351.072ZM155.392 354.864L154.527 354.363L154.523 354.369L154.519 354.376L155.392 354.864ZM148.424 360.24C148.424 356.901 149.143 353.913 150.562 351.255L148.798 350.313C147.209 353.287 146.424 356.604 146.424 360.24L148.424 360.24ZM150.56 351.26C151.982 348.627 153.924 346.567 156.393 345.062L155.351 343.355C152.572 345.05 150.386 347.374 148.8 350.309L150.56 351.26ZM156.38 345.07C158.872 343.599 161.67 342.856 164.8 342.856L164.8 340.856C161.338 340.856 158.184 341.682 155.364 343.347L156.38 345.07ZM164.8 342.856C167.93 342.856 170.71 343.599 173.167 345.067L174.193 343.35C171.402 341.682 168.262 340.856 164.8 340.856L164.8 342.856ZM173.164 345.065C175.664 346.571 177.619 348.63 179.04 351.26L180.8 350.309C179.213 347.371 177.008 345.046 174.196 343.352L173.164 345.065ZM179.038 351.255C180.457 353.913 181.176 356.901 181.176 360.24L183.176 360.24C183.176 356.604 182.391 353.287 180.802 350.313L179.038 351.255ZM181.176 360.24C181.176 363.58 180.457 366.55 179.04 369.173L180.8 370.124C182.391 367.179 183.176 363.877 183.176 360.24L181.176 360.24ZM179.04 369.173C177.619 371.803 175.664 373.862 173.164 375.368L174.196 377.081C177.008 375.387 179.213 373.062 180.8 370.124L179.04 369.173ZM173.159 375.371C170.704 376.868 167.926 377.624 164.8 377.624L164.8 379.624C168.266 379.624 171.408 378.781 174.201 377.078L173.159 375.371ZM164.8 377.624C161.674 377.624 158.878 376.868 156.388 375.368L155.356 377.081C158.178 378.781 161.334 379.624 164.8 379.624L164.8 377.624ZM156.393 375.371C153.924 373.866 151.982 371.806 150.56 369.173L148.8 370.124C150.386 373.059 152.572 375.383 155.351 377.078L156.393 375.371ZM150.56 369.173C149.143 366.55 148.424 363.58 148.424 360.24L146.424 360.24C146.424 363.877 147.209 367.179 148.8 370.124L150.56 369.173ZM153.048 360.24C153.048 362.381 153.533 364.344 154.519 366.105L156.264 365.128C155.459 363.689 155.048 362.068 155.048 360.24L153.048 360.24ZM154.527 366.118C155.547 367.877 156.96 369.254 158.751 370.237L159.713 368.484C158.24 367.675 157.093 366.556 156.257 365.115L154.527 366.118ZM158.738 370.23C160.536 371.252 162.566 371.752 164.8 371.752L164.8 369.752C162.874 369.752 161.192 369.324 159.726 368.491L158.738 370.23ZM164.8 371.752C167.034 371.752 169.064 371.252 170.862 370.23L169.874 368.491C168.408 369.324 166.726 369.752 164.8 369.752L164.8 371.752ZM170.849 370.237C172.643 369.252 174.044 367.871 175.032 366.105L173.287 365.128C172.484 366.562 171.357 367.676 169.887 368.484L170.849 370.237ZM175.025 366.118C176.048 364.355 176.552 362.387 176.552 360.24L174.552 360.24C174.552 362.061 174.128 363.678 173.295 365.115L175.025 366.118ZM176.552 360.24C176.552 358.093 176.048 356.126 175.025 354.363L173.295 355.366C174.128 356.803 174.552 358.419 174.552 360.24L176.552 360.24ZM175.032 354.376C174.045 352.613 172.649 351.219 170.862 350.203L169.874 351.942C171.351 352.782 172.483 353.916 173.287 355.353L175.032 354.376ZM170.849 350.196C169.053 349.21 167.028 348.728 164.8 348.728L164.8 350.728C166.732 350.728 168.419 351.143 169.887 351.949L170.849 350.196ZM164.8 348.728C162.572 348.728 160.547 349.21 158.751 350.196L159.713 351.949C161.181 351.143 162.868 350.728 164.8 350.728L164.8 348.728ZM158.738 350.203C156.954 351.217 155.545 352.607 154.527 354.363L156.257 355.366C157.095 353.922 158.246 352.784 159.726 351.942L158.738 350.203ZM154.519 354.376C153.533 356.137 153.048 358.1 153.048 360.24L155.048 360.24C155.048 358.413 155.459 356.792 156.264 355.353L154.519 354.376ZM181.6 415.647L181.203 416.565L182.6 417.17L182.6 415.647L181.6 415.647ZM148 401.103L147 401.103L147 401.76L147.603 402.021L148 401.103ZM148 393.423L147.604 392.505L147 392.766L147 393.423L148 393.423ZM181.6 378.927L182.6 378.927L182.6 377.407L181.204 378.009L181.6 378.927ZM181.6 387.327L181.992 388.247L182.6 387.988L182.6 387.327L181.6 387.327ZM157.6 397.551L157.208 396.631L155.064 397.545L157.203 398.469L157.6 397.551ZM181.6 407.919L182.6 407.919L182.6 407.262L181.997 407.001L181.6 407.919ZM181.997 414.73L148.397 400.186L147.603 402.021L181.203 416.565L181.997 414.73ZM149 401.103L149 393.423L147 393.423L147 401.103L149 401.103ZM148.396 394.342L181.996 379.846L181.204 378.009L147.604 392.505L148.396 394.342ZM180.6 378.927L180.6 387.327L182.6 387.327L182.6 378.927L180.6 378.927ZM181.208 386.407L157.208 396.631L157.992 398.471L181.992 388.247L181.208 386.407ZM157.203 398.469L181.203 408.837L181.997 407.001L157.997 396.633L157.203 398.469ZM180.6 407.919L180.6 415.647L182.6 415.647L182.6 407.919L180.6 407.919ZM154.24 444.469L154.24 445.469L155.24 445.469L155.24 444.469L154.24 444.469ZM148 444.469L147 444.469L147 445.469L148 445.469L148 444.469ZM148 418.453L148 417.453L147 417.453L147 418.453L148 418.453ZM181.6 418.453L182.6 418.453L182.6 417.453L181.6 417.453L181.6 418.453ZM181.6 443.845L181.6 444.845L182.6 444.845L182.6 443.845L181.6 443.845ZM175.36 443.845L174.36 443.845L174.36 444.845L175.36 444.845L175.36 443.845ZM175.36 426.181L176.36 426.181L176.36 425.181L175.36 425.181L175.36 426.181ZM168.064 426.181L168.064 425.181L167.064 425.181L167.064 426.181L168.064 426.181ZM168.064 441.781L168.064 442.781L169.064 442.781L169.064 441.781L168.064 441.781ZM162.016 441.781L161.016 441.781L161.016 442.781L162.016 442.781L162.016 441.781ZM162.016 426.181L163.016 426.181L163.016 425.181L162.016 425.181L162.016 426.181ZM154.24 426.181L154.24 425.181L153.24 425.181L153.24 426.181L154.24 426.181ZM154.24 443.469L148 443.469L148 445.469L154.24 445.469L154.24 443.469ZM149 444.469L149 418.453L147 418.453L147 444.469L149 444.469ZM148 419.453L181.6 419.453L181.6 417.453L148 417.453L148 419.453ZM180.6 418.453L180.6 443.845L182.6 443.845L182.6 418.453L180.6 418.453ZM181.6 442.845L175.36 442.845L175.36 444.845L181.6 444.845L181.6 442.845ZM176.36 443.845L176.36 426.181L174.36 426.181L174.36 443.845L176.36 443.845ZM175.36 425.181L168.064 425.181L168.064 427.181L175.36 427.181L175.36 425.181ZM167.064 426.181L167.064 441.781L169.064 441.781L169.064 426.181L167.064 426.181ZM168.064 440.781L162.016 440.781L162.016 442.781L168.064 442.781L168.064 440.781ZM163.016 441.781L163.016 426.181L161.016 426.181L161.016 441.781L163.016 441.781ZM162.016 425.181L154.24 425.181L154.24 427.181L162.016 427.181L162.016 425.181ZM153.24 426.181L153.24 444.469L155.24 444.469L155.24 426.181L153.24 426.181ZM148 472.064L147.431 471.242L147 471.54L147 472.064L148 472.064ZM157.36 465.584L157.929 466.406L158.36 466.108L158.36 465.584L157.36 465.584ZM157.36 458.432L158.36 458.432L158.36 457.432L157.36 457.432L157.36 458.432ZM148 458.432L147 458.432L147 459.432L148 459.432L148 458.432ZM148 450.656L148 449.656L147 449.656L147 450.656L148 450.656ZM181.6 450.656L182.6 450.656L182.6 449.656L181.6 449.656L181.6 450.656ZM180.112 472.928L179.202 472.513L179.2 472.518L180.112 472.928ZM162.928 477.968L163.483 477.136L163.479 477.134L162.928 477.968ZM158.8 472.88L159.717 472.481L159.23 471.361L158.228 472.06L158.8 472.88ZM148 480.416L147 480.416L147 482.333L148.572 481.236L148 480.416ZM173.728 470.096L172.963 469.452L172.958 469.458L172.953 469.464L173.728 470.096ZM175.264 458.432L176.264 458.432L176.264 457.432L175.264 457.432L175.264 458.432ZM163.552 458.432L163.552 457.432L162.552 457.432L162.552 458.432L163.552 458.432ZM165.088 470.096L164.323 470.74L165.088 470.096ZM148.569 472.886L157.929 466.406L156.791 464.762L147.431 471.242L148.569 472.886ZM158.36 465.584L158.36 465.2L156.36 465.2L156.36 465.584L158.36 465.584ZM158.36 465.2L158.36 458.432L156.36 458.432L156.36 465.2L158.36 465.2ZM157.36 457.432L148 457.432L148 459.432L157.36 459.432L157.36 457.432ZM149 458.432L149 450.656L147 450.656L147 458.432L149 458.432ZM148 451.656L181.6 451.656L181.6 449.656L148 449.656L148 451.656ZM180.6 450.656L180.6 465.2L182.6 465.2L182.6 450.656L180.6 450.656ZM180.6 465.2C180.6 468.067 180.122 470.495 179.202 472.513L181.022 473.343C182.086 471.009 182.6 468.285 182.6 465.2L180.6 465.2ZM179.2 472.518C178.277 474.571 176.988 476.109 175.344 477.177L176.432 478.855C178.436 477.554 179.963 475.701 181.024 473.338L179.2 472.518ZM175.344 477.177C173.705 478.241 171.74 478.792 169.408 478.792L169.408 480.792C172.068 480.792 174.423 480.159 176.432 478.855L175.344 477.177ZM169.408 478.792C167.081 478.792 165.12 478.228 163.483 477.136L162.373 478.8C164.384 480.14 166.743 480.792 169.408 480.792L169.408 478.792ZM163.479 477.134C161.868 476.069 160.61 474.534 159.717 472.481L157.883 473.279C158.91 475.642 160.404 477.499 162.377 478.802L163.479 477.134ZM158.228 472.06L147.428 479.596L148.572 481.236L159.372 473.7L158.228 472.06ZM149 480.416L149 472.064L147 472.064L147 480.416L149 480.416ZM169.408 472.92C171.529 472.92 173.282 472.224 174.503 470.728L172.953 469.464C172.19 470.399 171.063 470.92 169.408 470.92L169.408 472.92ZM174.493 470.74C175.726 469.276 176.264 467.232 176.264 464.768L174.264 464.768C174.264 466.976 173.778 468.484 172.963 469.452L174.493 470.74ZM176.264 464.768L176.264 458.432L174.264 458.432L174.264 464.768L176.264 464.768ZM175.264 457.432L163.552 457.432L163.552 459.432L175.264 459.432L175.264 457.432ZM162.552 458.432L162.552 464.768L164.552 464.768L164.552 458.432L162.552 458.432ZM162.552 464.768C162.552 467.232 163.09 469.276 164.323 470.74L165.853 469.452C165.038 468.484 164.552 466.976 164.552 464.768L162.552 464.768ZM164.323 470.74C165.57 472.22 167.312 472.92 169.408 472.92L169.408 470.92C167.792 470.92 166.654 470.403 165.853 469.452L164.323 470.74Z" fill="white"/>
</g>
</g>
<defs>
<linearGradient id="paint0_linear_1985_7374" x1="1538.92" y1="18.7484" x2="1390.46" y2="566.164" gradientUnits="userSpaceOnUse">
<stop stop-color="#244ACF"/>
<stop offset="0.526042" stop-color="#3296D0"/>
<stop offset="1" stop-color="#37B5D1"/>
</linearGradient>
<linearGradient id="paint1_linear_1985_7374" x1="296.778" y1="-157.052" x2="1052.7" y2="243.066" gradientUnits="userSpaceOnUse">
<stop stop-color="#9352FE"/>
<stop offset="0.99" stop-color="#009FBF"/>
</linearGradient>
<linearGradient id="paint2_linear_1985_7374" x1="100.311" y1="300.014" x2="1629.69" y2="300.014" gradientUnits="userSpaceOnUse">
<stop stop-color="#27AAE1"/>
<stop offset="1" stop-color="#273EE1"/>
</linearGradient>
<linearGradient id="paint3_linear_1985_7374" x1="228.279" y1="86.1669" x2="246.003" y2="59.8354" gradientUnits="userSpaceOnUse">
<stop stop-color="#09A7E9"/>
<stop offset="1" stop-color="#1294BD" stop-opacity="0"/>
</linearGradient>
<linearGradient id="paint4_linear_1985_7374" x1="202.529" y1="86.1669" x2="220.253" y2="59.8354" gradientUnits="userSpaceOnUse">
<stop stop-color="#09A7E9"/>
<stop offset="1" stop-color="#1294BD" stop-opacity="0"/>
</linearGradient>
<linearGradient id="paint5_linear_1985_7374" x1="175.963" y1="86.1669" x2="193.688" y2="59.8394" gradientUnits="userSpaceOnUse">
<stop stop-color="#09A7E9"/>
<stop offset="1" stop-color="#1294BD" stop-opacity="0"/>
</linearGradient>
<linearGradient id="paint6_linear_1985_7374" x1="149.39" y1="86.1669" x2="167.116" y2="59.8394" gradientUnits="userSpaceOnUse">
<stop stop-color="#09A7E9"/>
<stop offset="1" stop-color="#1294BD" stop-opacity="0"/>
</linearGradient>
<linearGradient id="paint7_linear_1985_7374" x1="122.812" y1="86.1669" x2="140.536" y2="59.8354" gradientUnits="userSpaceOnUse">
<stop stop-color="#09A7E9"/>
<stop offset="1" stop-color="#1294BD" stop-opacity="0"/>
</linearGradient>
<linearGradient id="paint8_linear_1985_7374" x1="496.598" y1="565.21" x2="504.662" y2="552.207" gradientUnits="userSpaceOnUse">
<stop stop-color="#09A7E9"/>
<stop offset="1" stop-color="#1294BD" stop-opacity="0"/>
</linearGradient>
<linearGradient id="paint9_linear_1985_7374" x1="546.469" y1="565.21" x2="554.535" y2="552.211" gradientUnits="userSpaceOnUse">
<stop stop-color="#09A7E9"/>
<stop offset="1" stop-color="#1294BD" stop-opacity="0"/>
</linearGradient>
<linearGradient id="paint10_linear_1985_7374" x1="596.33" y1="565.21" x2="604.395" y2="552.207" gradientUnits="userSpaceOnUse">
<stop stop-color="#09A7E9"/>
<stop offset="1" stop-color="#1294BD" stop-opacity="0"/>
</linearGradient>
<linearGradient id="paint11_linear_1985_7374" x1="646.201" y1="565.21" x2="654.266" y2="552.207" gradientUnits="userSpaceOnUse">
<stop stop-color="#09A7E9"/>
<stop offset="1" stop-color="#1294BD" stop-opacity="0"/>
</linearGradient>
<linearGradient id="paint12_linear_1985_7374" x1="696.072" y1="565.21" x2="704.137" y2="552.207" gradientUnits="userSpaceOnUse">
<stop stop-color="#09A7E9"/>
<stop offset="1" stop-color="#1294BD" stop-opacity="0"/>
</linearGradient>
<linearGradient id="paint13_linear_1985_7374" x1="745.944" y1="565.21" x2="754.008" y2="552.207" gradientUnits="userSpaceOnUse">
<stop stop-color="#09A7E9"/>
<stop offset="1" stop-color="#1294BD" stop-opacity="0"/>
</linearGradient>
<linearGradient id="paint14_linear_1985_7374" x1="30.2891" y1="298.05" x2="30.2891" y2="17.7107" gradientUnits="userSpaceOnUse">
<stop stop-color="#0095D9"/>
<stop offset="0.24814" stop-color="#6BCCCB" stop-opacity="0.75186"/>
<stop offset="1" stop-color="#1294BD" stop-opacity="0"/>
</linearGradient>
<linearGradient id="paint15_linear_1985_7374" x1="386.271" y1="557.983" x2="403.997" y2="531.656" gradientUnits="userSpaceOnUse">
<stop stop-color="#09A7E9"/>
<stop offset="1" stop-color="#1294BD" stop-opacity="0"/>
</linearGradient>
<linearGradient id="paint16_linear_1985_7374" x1="359.693" y1="557.983" x2="377.417" y2="531.652" gradientUnits="userSpaceOnUse">
<stop stop-color="#09A7E9"/>
<stop offset="1" stop-color="#1294BD" stop-opacity="0"/>
</linearGradient>
<linearGradient id="paint17_linear_1985_7374" x1="333.125" y1="557.983" x2="350.848" y2="531.652" gradientUnits="userSpaceOnUse">
<stop stop-color="#09A7E9"/>
<stop offset="1" stop-color="#1294BD" stop-opacity="0"/>
</linearGradient>
<linearGradient id="paint18_linear_1985_7374" x1="306.556" y1="557.983" x2="324.28" y2="531.652" gradientUnits="userSpaceOnUse">
<stop stop-color="#09A7E9"/>
<stop offset="1" stop-color="#1294BD" stop-opacity="0"/>
</linearGradient>
<linearGradient id="paint19_linear_1985_7374" x1="280.386" y1="557.983" x2="298.11" y2="531.652" gradientUnits="userSpaceOnUse">
<stop stop-color="#09A7E9"/>
<stop offset="1" stop-color="#1294BD" stop-opacity="0"/>
</linearGradient>
<linearGradient id="paint20_linear_1985_7374" x1="254.638" y1="557.983" x2="272.362" y2="531.652" gradientUnits="userSpaceOnUse">
<stop stop-color="#09A7E9"/>
<stop offset="1" stop-color="#1294BD" stop-opacity="0"/>
</linearGradient>
<linearGradient id="paint21_linear_1985_7374" x1="228.072" y1="557.983" x2="245.796" y2="531.652" gradientUnits="userSpaceOnUse">
<stop stop-color="#09A7E9"/>
<stop offset="1" stop-color="#1294BD" stop-opacity="0"/>
</linearGradient>
<linearGradient id="paint22_linear_1985_7374" x1="201.498" y1="557.983" x2="219.221" y2="531.652" gradientUnits="userSpaceOnUse">
<stop stop-color="#09A7E9"/>
<stop offset="1" stop-color="#1294BD" stop-opacity="0"/>
</linearGradient>
<linearGradient id="paint23_linear_1985_7374" x1="174.931" y1="557.983" x2="192.655" y2="531.652" gradientUnits="userSpaceOnUse">
<stop stop-color="#09A7E9"/>
<stop offset="1" stop-color="#1294BD" stop-opacity="0"/>
</linearGradient>
<linearGradient id="paint24_linear_1985_7374" x1="1669.09" y1="302.181" x2="1669.09" y2="582.52" gradientUnits="userSpaceOnUse">
<stop stop-color="#0095D9"/>
<stop offset="0.24814" stop-color="#6BCCCB" stop-opacity="0.75186"/>
<stop offset="1" stop-color="#1294BD" stop-opacity="0"/>
</linearGradient>
<clipPath id="clip0_1985_7374">
<rect width="1728" height="594" fill="white"/>
</clipPath>
<clipPath id="clip1_1985_7374">
<rect width="323" height="324" fill="white" transform="translate(1628 567) rotate(-180)"/>
</clipPath>
<clipPath id="clip2_1985_7374">
<rect width="776" height="410" fill="white" transform="translate(144 124)"/>
</clipPath>
</defs>
</svg>
