<svg width="100" height="100" viewBox="0 0 100 100" fill="none" xmlns="http://www.w3.org/2000/svg">
<g clip-path="url(#clip0_1985_7486)">
<rect width="100" height="100" rx="50" fill="url(#paint0_linear_1985_7486)"/>
<rect opacity="0.5" x="5.5" y="5.5" width="89" height="89" rx="44.5" stroke="url(#paint1_linear_1985_7486)"/>
<circle cx="50" cy="50" r="37.5" fill="url(#paint2_linear_1985_7486)" stroke="white" stroke-width="5"/>
<g clip-path="url(#clip1_1985_7486)">
<path d="M74.2188 46.8719H71.093V46.0891C71.093 42.2117 67.9391 39.0578 64.0617 39.0578H57.0312V35.1562C57.0312 34.7242 56.682 34.375 56.25 34.375H43.75C43.318 34.375 42.9688 34.7242 42.9688 35.1562V39.0578H35.9383C32.0609 39.0578 28.907 42.2117 28.907 46.0891V46.8719H25.7812C25.3492 46.8719 25 47.2211 25 47.6531V57.0297C25 57.4617 25.3492 57.8109 25.7812 57.8109H28.907V58.5938C28.907 62.4711 32.0609 65.625 35.9383 65.625H47.6562C47.8641 65.625 48.0625 65.543 48.2094 65.3961L50 63.6023L51.7906 65.3961C51.9375 65.543 52.1359 65.625 52.3438 65.625H64.0617C67.9391 65.625 71.093 62.4711 71.093 58.5938V57.8109H74.2188C74.6508 57.8109 75 57.4617 75 57.0297V47.6531C75 47.2211 74.6508 46.8719 74.2188 46.8719ZM44.5312 35.9375H55.4688V39.0578H44.5312V35.9375ZM35.9383 40.6203H43.75H56.25H64.0617C66.5422 40.6203 68.6391 42.282 69.3063 44.5492C68.018 43.1031 66.1469 42.1859 64.0617 42.1859H35.9383C33.8531 42.1859 31.9828 43.1031 30.6937 44.5492C31.3609 42.282 33.4578 40.6203 35.9383 40.6203ZM28.9039 56.2484H26.5625V48.4344H28.9039V56.2484ZM69.5305 58.5938C69.5305 61.6086 67.0766 64.0625 64.0617 64.0625H52.668L50.5531 61.9445C50.2586 61.6516 49.7414 61.6516 49.4469 61.9445L47.332 64.0625H35.9383C32.9234 64.0625 30.4695 61.6086 30.4695 58.5938V55.4656V49.2172C30.4695 46.2023 32.9234 43.7484 35.9383 43.7484H64.0617C67.0766 43.7484 69.5305 46.2023 69.5305 49.2172V55.4656V58.5938ZM73.4375 56.2484H71.0961V48.4344H73.4375V56.2484Z" fill="white"/>
<path d="M60.9375 55.4707H39.0625C38.6305 55.4707 38.2812 55.8199 38.2812 56.252C38.2812 56.684 38.6305 57.0332 39.0625 57.0332H60.9375C61.3695 57.0332 61.7188 56.684 61.7188 56.252C61.7188 55.8199 61.3695 55.4707 60.9375 55.4707Z" fill="white"/>
<path d="M60.9375 52.3457H39.0625C38.6305 52.3457 38.2812 52.6949 38.2812 53.127C38.2812 53.559 38.6305 53.9082 39.0625 53.9082H60.9375C61.3695 53.9082 61.7188 53.559 61.7188 53.127C61.7188 52.6949 61.3695 52.3457 60.9375 52.3457Z" fill="white"/>
<path d="M60.9375 49.2207H39.0625C38.6305 49.2207 38.2812 49.5699 38.2812 50.002C38.2812 50.434 38.6305 50.7832 39.0625 50.7832H60.9375C61.3695 50.7832 61.7188 50.434 61.7188 50.002C61.7188 49.5699 61.3695 49.2207 60.9375 49.2207Z" fill="white"/>
</g>
</g>
<defs>
<linearGradient id="paint0_linear_1985_7486" x1="6.69873" y1="75" x2="93.3013" y2="25" gradientUnits="userSpaceOnUse">
<stop stop-color="#A3DE61"/>
<stop offset="1" stop-color="#F0CF29"/>
</linearGradient>
<linearGradient id="paint1_linear_1985_7486" x1="50" y1="-2.46138" x2="50" y2="102.464" gradientUnits="userSpaceOnUse">
<stop stop-color="white" stop-opacity="0.867088"/>
<stop stop-color="white"/>
<stop offset="0.255208" stop-color="white" stop-opacity="0.47"/>
<stop offset="0.479167" stop-color="white" stop-opacity="0.37"/>
<stop offset="0.625" stop-color="white" stop-opacity="0.24"/>
<stop offset="0.828125" stop-color="white" stop-opacity="0.03"/>
<stop offset="1" stop-color="white" stop-opacity="0"/>
</linearGradient>
<linearGradient id="paint2_linear_1985_7486" x1="67.5" y1="19.6891" x2="32.5" y2="80.3109" gradientUnits="userSpaceOnUse">
<stop stop-color="#3A65D3"/>
<stop offset="1" stop-color="#75D473"/>
</linearGradient>
<clipPath id="clip0_1985_7486">
<rect width="100" height="100" fill="white"/>
</clipPath>
<clipPath id="clip1_1985_7486">
<rect width="50" height="50" fill="white" transform="translate(25 25)"/>
</clipPath>
</defs>
</svg>
