<svg width="100" height="100" viewBox="0 0 100 100" fill="none" xmlns="http://www.w3.org/2000/svg">
<g clip-path="url(#clip0_1985_7541)">
<rect width="100" height="100" rx="50" fill="url(#paint0_linear_1985_7541)"/>
<rect opacity="0.5" x="5.5" y="5.5" width="89" height="89" rx="44.5" stroke="url(#paint1_linear_1985_7541)"/>
<circle cx="50" cy="50" r="37.5" fill="url(#paint2_linear_1985_7541)" stroke="white" stroke-width="5"/>
<g clip-path="url(#clip1_1985_7541)">
<path d="M71 30H31C28.2397 30.0027 26.0027 32.2397 26 35V65C26.0027 67.7603 28.2397 69.9973 31 70H71C73.7603 69.9973 75.9973 67.7603 76 65V35C75.9973 32.2397 73.7603 30.0027 71 30ZM71 68.3333H31C29.1591 68.3333 27.6667 66.8409 27.6667 65V35C27.6667 33.1591 29.1591 31.6667 31 31.6667H71C72.8409 31.6667 74.3333 33.1591 74.3333 35V47.6533C73.7966 47.4488 73.2034 47.4488 72.6666 47.6533V35C72.6666 34.0795 71.9204 33.3333 70.9999 33.3333H31C30.0795 33.3333 29.3333 34.0795 29.3333 35V65C29.3333 65.9205 30.0795 66.6667 31 66.6667H71C71.9205 66.6667 72.6667 65.9205 72.6667 65V52.3467C73.2034 52.5512 73.7966 52.5512 74.3334 52.3467V65C74.3333 66.8409 72.8409 68.3333 71 68.3333ZM71 65H31V35H71V65ZM74.3333 50C74.3333 50.4603 73.9603 50.8333 73.5 50.8333C73.0397 50.8333 72.6667 50.4602 72.6667 50C72.6667 49.5397 73.0397 49.1667 73.5 49.1667C73.9603 49.1667 74.3333 49.5397 74.3333 50Z" fill="white"/>
<path d="M35.1673 59.1668H38.5006C38.8831 59.1667 39.2164 58.9062 39.3089 58.5352L39.7855 56.6302L42.078 58.9227C42.4034 59.2479 42.931 59.2479 43.2563 58.9227L46.4688 55.711L49.7646 54.3927L51.0006 56.8635V60.0001C51.0006 60.4604 51.3737 60.8334 51.8339 60.8334C52.294 60.8334 52.6672 60.4604 52.6672 60.0001V57.0117L54.608 55.0717L58.0896 55.7675L60.4113 58.0892C60.5676 58.2454 60.7795 58.3333 61.0005 58.3333C61.09 58.3333 61.179 58.3187 61.2639 58.2899L63.7639 57.4566C64.2011 57.3112 64.4376 56.8389 64.2922 56.4017C64.1468 55.9645 63.6744 55.7279 63.2372 55.8733L61.2264 56.54L59.2264 54.54L57.8255 50.34L59.5838 49.1667H65.1671C65.3881 49.1667 65.6 49.0788 65.7562 48.9226L68.2563 46.4226C68.5721 46.0956 68.5676 45.5758 68.2461 45.2544C67.9246 44.9329 67.4049 44.9284 67.0779 45.2442L64.8221 47.5001H59.5837L57.782 46.2992L58.4162 43.7601L62.4204 39.7601C62.7362 39.4331 62.7317 38.9133 62.4103 38.5919C62.0888 38.2704 61.569 38.2659 61.2421 38.5817L57.1713 42.6525L54.5005 43.9858L51.8338 41.3191V38.3333C51.8338 37.873 51.4606 37.5 51.0005 37.5C50.5402 37.5 50.1672 37.8731 50.1672 38.3333V41.5324L49.5663 43.3333H47.0838L42.2937 40.1399C41.9108 39.8845 41.3934 39.9879 41.1379 40.3708C40.8824 40.7537 40.9858 41.2712 41.3687 41.5267L46.1846 44.7375L47.3229 47.0134L46.0346 47.4426L40.4929 45.0676C40.2677 44.9709 40.0113 44.9782 39.792 45.0876L36.4587 46.7543C36.1922 46.8874 36.017 47.1525 35.999 47.4498C35.9811 47.7471 36.123 48.0314 36.3715 48.1956C36.6199 48.3598 36.9372 48.379 37.2036 48.2459L40.1937 46.7501L45.4437 49.0001L46.7295 50.9293L45.2887 54.5302L42.667 57.1552L39.9229 54.411C39.7105 54.1988 39.4005 54.1173 39.1111 54.1975C38.8218 54.2776 38.598 54.5072 38.5253 54.7985L37.8494 57.5002H35.1673C34.707 57.5002 34.334 57.8732 34.334 58.3335C34.334 58.7938 34.707 59.1668 35.1673 59.1668ZM48.764 48.2901C48.9931 48.2139 49.1778 48.042 49.2704 47.8189C49.363 47.5959 49.3543 47.3438 49.2465 47.1276L48.1822 45.0001H50.1672C50.5257 44.9998 50.8438 44.7702 50.9572 44.4301L51.3655 43.2101L53.7447 45.5893C53.9981 45.843 54.3855 45.9061 54.7063 45.7459L56.4172 44.8893L56.023 46.4651C55.9378 46.8065 56.0762 47.1647 56.3688 47.3602L57.8339 48.3335L56.3739 49.3068C56.0616 49.5155 55.9275 49.9072 56.0464 50.2635L57.2589 53.9019L54.5006 53.3502C54.2283 53.2964 53.9471 53.3817 53.7506 53.5777L52.0681 55.2603L50.9172 52.9611C50.7235 52.5731 50.2648 52.3985 49.8622 52.5595L47.5006 53.5045L48.4456 51.1429C48.5466 50.8876 48.5154 50.599 48.3623 50.3712L47.3015 48.7787L48.764 48.2901Z" fill="white"/>
</g>
</g>
<defs>
<linearGradient id="paint0_linear_1985_7541" x1="6.69873" y1="75" x2="93.3013" y2="25" gradientUnits="userSpaceOnUse">
<stop stop-color="#A3DE61"/>
<stop offset="1" stop-color="#F0CF29"/>
</linearGradient>
<linearGradient id="paint1_linear_1985_7541" x1="50" y1="-2.46138" x2="50" y2="102.464" gradientUnits="userSpaceOnUse">
<stop stop-color="white" stop-opacity="0.867088"/>
<stop stop-color="white"/>
<stop offset="0.255208" stop-color="white" stop-opacity="0.47"/>
<stop offset="0.479167" stop-color="white" stop-opacity="0.37"/>
<stop offset="0.625" stop-color="white" stop-opacity="0.24"/>
<stop offset="0.828125" stop-color="white" stop-opacity="0.03"/>
<stop offset="1" stop-color="white" stop-opacity="0"/>
</linearGradient>
<linearGradient id="paint2_linear_1985_7541" x1="67.5" y1="19.6891" x2="32.5" y2="80.3109" gradientUnits="userSpaceOnUse">
<stop stop-color="#3A65D3"/>
<stop offset="1" stop-color="#75D473"/>
</linearGradient>
<clipPath id="clip0_1985_7541">
<rect width="100" height="100" fill="white"/>
</clipPath>
<clipPath id="clip1_1985_7541">
<rect width="50" height="50" fill="white" transform="translate(26 25)"/>
</clipPath>
</defs>
</svg>
