<svg width="50" height="50" viewBox="0 0 50 50" fill="none" xmlns="http://www.w3.org/2000/svg">
<path d="M36.6667 50C38.5076 50 40 48.5076 40 46.6667V3.3333C40 1.49238 38.5076 0 36.6667 0H13.3333C11.4924 0 10 1.49238 10 3.3333V46.6666C10 48.5075 11.4924 49.9999 13.3333 49.9999H36.6667V50ZM31.4092 1.6667L30.34 2.80664C30.0252 3.14248 29.5854 3.33311 29.125 3.3333H20.875C20.4145 3.33271 19.9746 3.14219 19.6592 2.80664L18.5908 1.6666H31.4092V1.6667ZM11.6667 3.3333C11.6667 2.41279 12.4129 1.6666 13.3334 1.6666H16.3059L18.4434 3.94658C19.0745 4.61728 19.9541 4.99824 20.875 4.9999H29.125C30.0461 4.99883 30.9259 4.61768 31.5566 3.94658L33.6941 1.6666H36.6666C37.5871 1.6666 38.3333 2.41279 38.3333 3.3333V42.5C38.3333 43.4205 37.5871 44.1667 36.6666 44.1667H13.3333C12.4128 44.1667 11.6666 43.4205 11.6666 42.5V3.3333H11.6667ZM11.6667 46.6667V45.37C12.1712 45.6699 12.7465 45.8299 13.3334 45.8334H36.6667C37.2536 45.83 37.8289 45.67 38.3334 45.37V46.6667C38.3334 47.5872 37.5872 48.3334 36.6667 48.3334H13.3333C12.4129 48.3333 11.6667 47.5871 11.6667 46.6667Z" fill="white"/>
<path d="M14.1673 25.8333H17.1557L19.0957 27.7741L18.3999 31.2558L16.0782 33.5774C15.8553 33.8007 15.7775 34.1307 15.8773 34.43L16.7106 36.93C16.8047 37.2128 17.0426 37.424 17.3346 37.4839C17.6266 37.5437 17.9283 37.4435 18.1263 37.2205C18.3242 36.9977 18.3881 36.686 18.294 36.4032L17.6273 34.3916L19.6231 32.3916L23.8331 30.9883L25.0006 32.75V38.3333C25.0006 38.5543 25.0885 38.7662 25.2447 38.9225L27.7447 41.4225C28.0717 41.7383 28.5915 41.7338 28.9129 41.4123C29.2344 41.0908 29.2389 40.5711 28.923 40.2441L26.6672 37.9883V32.75L27.8681 30.9483L30.4081 31.5833L34.4081 35.5833C34.7351 35.8991 35.2549 35.8946 35.5763 35.5731C35.8978 35.2517 35.9022 34.7319 35.5864 34.405L31.5156 30.3342L30.1814 27.6667L32.848 25H35.8339C36.2941 25 36.6672 24.627 36.6672 24.1667C36.6672 23.7064 36.2941 23.3334 35.8339 23.3334H32.6364L30.8339 22.7325V20.25L34.0272 15.46C34.1925 15.2123 34.213 14.8952 34.0812 14.6282C33.9492 14.3612 33.685 14.185 33.3878 14.1657C33.0906 14.1465 32.8059 14.2872 32.6406 14.535L29.4298 19.3508L27.1539 20.4916L26.7247 19.2041L29.0997 13.6616C29.1964 13.4364 29.1891 13.1801 29.0797 12.9607L27.413 9.62744C27.2799 9.36094 27.0147 9.18574 26.7175 9.16777C26.4202 9.1498 26.1358 9.2918 25.9717 9.54023C25.8074 9.78867 25.7883 10.106 25.9214 10.3724L27.4172 13.3599L25.1672 18.6099L23.238 19.8957L19.6371 18.4549L17.0121 15.8332L19.7563 13.0891C19.9685 12.8768 20.05 12.5667 19.9698 12.2773C19.8896 11.988 19.6601 11.7643 19.3688 11.6915L16.6671 11.0156V8.3333C16.6671 7.87305 16.294 7.5 15.8338 7.5C15.3735 7.5 15.0005 7.87314 15.0005 8.3333V11.6666C15.0006 12.0491 15.261 12.3824 15.6321 12.4749L17.5371 12.9516L15.2447 15.2441C14.9194 15.5695 14.9194 16.0971 15.2447 16.4225L18.4563 19.6341L19.7747 22.9308L17.3039 24.1666H14.1673C13.707 24.1666 13.334 24.5397 13.334 24.9999C13.3339 25.4603 13.707 25.8333 14.1673 25.8333ZM21.2064 24.0833C21.5948 23.8896 21.7696 23.4303 21.6081 23.0274L20.6673 20.6666L23.0289 21.6116C23.2842 21.7126 23.5728 21.6814 23.8006 21.5283L25.3931 20.4667L25.8814 21.9317C25.9575 22.162 26.1302 22.3477 26.3542 22.4403C26.5783 22.533 26.8316 22.5234 27.0481 22.4143L29.1673 21.3484V23.3334C29.1672 23.6923 29.3969 24.0108 29.7373 24.1242L30.9573 24.5309L28.5781 26.9108C28.3244 27.1643 28.2613 27.5517 28.4215 27.8725L29.2781 29.5833L27.7022 29.1899C27.3608 29.1047 27.0026 29.2431 26.8072 29.5357L25.8339 30.9999L24.8605 29.5399C24.7065 29.3072 24.4463 29.1671 24.1672 29.1666C24.0777 29.1668 23.9889 29.1812 23.9038 29.2091L20.2654 30.4216L20.8171 27.6633C20.8709 27.391 20.7855 27.1098 20.5896 26.9133L18.907 25.2308L21.2064 24.0833Z" fill="white"/>
</svg>
