<svg width="50" height="50" viewBox="0 0 50 50" fill="none" xmlns="http://www.w3.org/2000/svg">
<g clip-path="url(#clip0_1985_7546)">
<path d="M45 5H5C2.23975 5.00273 0.00273438 7.23975 0 10V40C0.00273438 42.7603 2.23975 44.9973 5 45H45C47.7603 44.9973 49.9973 42.7603 50 40V10C49.9973 7.23975 47.7603 5.00273 45 5ZM45 43.3333H5C3.15908 43.3333 1.6667 41.8409 1.6667 40V10C1.6667 8.15908 3.15908 6.6667 5 6.6667H45C46.8409 6.6667 48.3333 8.15908 48.3333 10V22.6533C47.7966 22.4488 47.2034 22.4488 46.6666 22.6533V10C46.6666 9.07949 45.9204 8.3333 44.9999 8.3333H5C4.07949 8.3333 3.3333 9.07949 3.3333 10V40C3.3333 40.9205 4.07949 41.6667 5 41.6667H45C45.9205 41.6667 46.6667 40.9205 46.6667 40V27.3467C47.2034 27.5512 47.7966 27.5512 48.3334 27.3467V40C48.3333 41.8409 46.8409 43.3333 45 43.3333ZM45 40H5V10H45V40ZM48.3333 25C48.3333 25.4603 47.9603 25.8333 47.5 25.8333C47.0397 25.8333 46.6667 25.4602 46.6667 25C46.6667 24.5397 47.0397 24.1667 47.5 24.1667C47.9603 24.1667 48.3333 24.5397 48.3333 25Z" fill="white"/>
<path d="M9.16728 34.1668H12.5006C12.8831 34.1667 13.2164 33.9062 13.3089 33.5352L13.7855 31.6302L16.078 33.9227C16.4034 34.2479 16.931 34.2479 17.2563 33.9227L20.4688 30.711L23.7646 29.3927L25.0006 31.8635V35.0001C25.0006 35.4604 25.3737 35.8334 25.8339 35.8334C26.294 35.8334 26.6672 35.4604 26.6672 35.0001V32.0117L28.608 30.0717L32.0896 30.7675L34.4113 33.0892C34.5676 33.2454 34.7795 33.3333 35.0005 33.3333C35.09 33.3333 35.179 33.3187 35.2639 33.2899L37.7639 32.4566C38.2011 32.3112 38.4376 31.8389 38.2922 31.4017C38.1468 30.9645 37.6744 30.7279 37.2372 30.8733L35.2264 31.54L33.2264 29.54L31.8255 25.34L33.5838 24.1667H39.1671C39.3881 24.1667 39.6 24.0788 39.7562 23.9226L42.2563 21.4226C42.5721 21.0956 42.5676 20.5758 42.2461 20.2544C41.9246 19.9329 41.4049 19.9284 41.0779 20.2442L38.8221 22.5001H33.5837L31.782 21.2992L32.4162 18.7601L36.4204 14.7601C36.7362 14.4331 36.7317 13.9133 36.4103 13.5919C36.0888 13.2704 35.569 13.2659 35.2421 13.5817L31.1713 17.6525L28.5005 18.9858L25.8338 16.3191V13.3333C25.8338 12.873 25.4606 12.5 25.0005 12.5C24.5402 12.5 24.1672 12.8731 24.1672 13.3333V16.5324L23.5663 18.3333H21.0838L16.2937 15.1399C15.9108 14.8845 15.3934 14.9879 15.1379 15.3708C14.8824 15.7537 14.9858 16.2712 15.3687 16.5267L20.1846 19.7375L21.3229 22.0134L20.0346 22.4426L14.4929 20.0676C14.2677 19.9709 14.0113 19.9782 13.792 20.0876L10.4587 21.7543C10.1922 21.8874 10.017 22.1525 9.99902 22.4498C9.98106 22.7471 10.123 23.0314 10.3715 23.1956C10.6199 23.3598 10.9372 23.379 11.2036 23.2459L14.1937 21.7501L19.4437 24.0001L20.7295 25.9293L19.2887 29.5302L16.667 32.1552L13.9229 29.411C13.7105 29.1988 13.4005 29.1173 13.1111 29.1975C12.8218 29.2776 12.598 29.5072 12.5253 29.7985L11.8494 32.5002H9.16728C8.70703 32.5002 8.33398 32.8732 8.33398 33.3335C8.33398 33.7938 8.70703 34.1668 9.16728 34.1668ZM22.764 23.2901C22.9931 23.2139 23.1778 23.042 23.2704 22.8189C23.363 22.5959 23.3543 22.3438 23.2465 22.1276L22.1822 20.0001H24.1672C24.5257 19.9998 24.8438 19.7702 24.9572 19.4301L25.3655 18.2101L27.7447 20.5893C27.9981 20.843 28.3855 20.9061 28.7063 20.7459L30.4172 19.8893L30.023 21.4651C29.9378 21.8065 30.0762 22.1647 30.3688 22.3602L31.8339 23.3335L30.3739 24.3068C30.0616 24.5155 29.9275 24.9072 30.0464 25.2635L31.2589 28.9019L28.5006 28.3502C28.2283 28.2964 27.9471 28.3817 27.7506 28.5777L26.0681 30.2603L24.9172 27.9611C24.7235 27.5731 24.2648 27.3985 23.8622 27.5595L21.5006 28.5045L22.4456 26.1429C22.5466 25.8876 22.5154 25.599 22.3623 25.3712L21.3015 23.7787L22.764 23.2901Z" fill="white"/>
</g>
<defs>
<clipPath id="clip0_1985_7546">
<rect width="50" height="50" fill="white"/>
</clipPath>
</defs>
</svg>
