<svg width="50" height="50" viewBox="0 0 50 50" fill="none" xmlns="http://www.w3.org/2000/svg">
<g clip-path="url(#clip0_1985_7491)">
<path d="M49.2188 21.8719H46.093V21.0891C46.093 17.2117 42.9391 14.0578 39.0617 14.0578H32.0312V10.1562C32.0312 9.72422 31.682 9.375 31.25 9.375H18.75C18.318 9.375 17.9688 9.72422 17.9688 10.1562V14.0578H10.9383C7.06094 14.0578 3.90703 17.2117 3.90703 21.0891V21.8719H0.78125C0.349219 21.8719 0 22.2211 0 22.6531V32.0297C0 32.4617 0.349219 32.8109 0.78125 32.8109H3.90703V33.5938C3.90703 37.4711 7.06094 40.625 10.9383 40.625H22.6562C22.8641 40.625 23.0625 40.543 23.2094 40.3961L25 38.6023L26.7906 40.3961C26.9375 40.543 27.1359 40.625 27.3438 40.625H39.0617C42.9391 40.625 46.093 37.4711 46.093 33.5938V32.8109H49.2188C49.6508 32.8109 50 32.4617 50 32.0297V22.6531C50 22.2211 49.6508 21.8719 49.2188 21.8719ZM19.5312 10.9375H30.4688V14.0578H19.5312V10.9375ZM10.9383 15.6203H18.75H31.25H39.0617C41.5422 15.6203 43.6391 17.282 44.3063 19.5492C43.018 18.1031 41.1469 17.1859 39.0617 17.1859H10.9383C8.85313 17.1859 6.98281 18.1031 5.69375 19.5492C6.36094 17.282 8.45781 15.6203 10.9383 15.6203ZM3.90391 31.2484H1.5625V23.4344H3.90391V31.2484ZM44.5305 33.5938C44.5305 36.6086 42.0766 39.0625 39.0617 39.0625H27.668L25.5531 36.9445C25.2586 36.6516 24.7414 36.6516 24.4469 36.9445L22.332 39.0625H10.9383C7.92344 39.0625 5.46953 36.6086 5.46953 33.5938V30.4656V24.2172C5.46953 21.2023 7.92344 18.7484 10.9383 18.7484H39.0617C42.0766 18.7484 44.5305 21.2023 44.5305 24.2172V30.4656V33.5938ZM48.4375 31.2484H46.0961V23.4344H48.4375V31.2484Z" fill="white"/>
<path d="M35.9375 30.4707H14.0625C13.6305 30.4707 13.2812 30.8199 13.2812 31.252C13.2812 31.684 13.6305 32.0332 14.0625 32.0332H35.9375C36.3695 32.0332 36.7188 31.684 36.7188 31.252C36.7188 30.8199 36.3695 30.4707 35.9375 30.4707Z" fill="white"/>
<path d="M35.9375 27.3457H14.0625C13.6305 27.3457 13.2812 27.6949 13.2812 28.127C13.2812 28.559 13.6305 28.9082 14.0625 28.9082H35.9375C36.3695 28.9082 36.7188 28.559 36.7188 28.127C36.7188 27.6949 36.3695 27.3457 35.9375 27.3457Z" fill="white"/>
<path d="M35.9375 24.2207H14.0625C13.6305 24.2207 13.2812 24.5699 13.2812 25.002C13.2812 25.434 13.6305 25.7832 14.0625 25.7832H35.9375C36.3695 25.7832 36.7188 25.434 36.7188 25.002C36.7188 24.5699 36.3695 24.2207 35.9375 24.2207Z" fill="white"/>
</g>
<defs>
<clipPath id="clip0_1985_7491">
<rect width="50" height="50" fill="white"/>
</clipPath>
</defs>
</svg>
