<svg width="36" height="325" viewBox="0 0 36 325" fill="none" xmlns="http://www.w3.org/2000/svg">
<path opacity="0.15" d="M1 0.143998L1.58713 -0.665496L7.94079e-08 -1.81664L-6.29444e-09 0.143998L1 0.143998ZM20.92 14.592L20.92 15.592L24.0019 15.592L21.5071 13.7825L20.92 14.592ZM15.256 14.592L14.6746 13.7784L12.1368 15.592L15.256 15.592L15.256 14.592ZM34.6 0.768L35.6 0.768L35.6 -1.17575L34.0186 -0.0455973L34.6 0.768ZM34.6 9.6L35.1779 10.4161L35.6 10.1172L35.6 9.6L34.6 9.6ZM21.112 19.152L20.1121 19.165L20.1368 21.068L21.6899 19.9681L21.112 19.152ZM21.064 15.456L21.6347 14.6349L20.0388 13.5257L20.0641 15.469L21.064 15.456ZM34.6 24.864L35.6 24.864L35.6 24.3412L35.1707 24.0429L34.6 24.864ZM34.6 33.312L34.0145 34.1227L35.6 35.2678L35.6 33.312L34.6 33.312ZM15.592 19.584L15.592 18.584L12.4994 18.584L15.0065 20.3947L15.592 19.584ZM21.16 19.584L21.7451 20.395L24.2553 18.584L21.16 18.584L21.16 19.584ZM0.999999 34.128L-1.49178e-06 34.128L-1.57722e-06 36.0825L1.58507 34.939L0.999999 34.128ZM0.999999 25.152L0.43007 24.3303L-1.07655e-06 24.6286L-1.09943e-06 25.152L0.999999 25.152ZM15.256 15.264L16.256 15.264L16.256 13.3534L14.6861 14.4423L15.256 15.264ZM15.256 18.816L14.6917 19.6416L16.256 20.7108L16.256 18.816L15.256 18.816ZM1 9.072L-3.9655e-07 9.072L-4.19619e-07 9.59977L0.435714 9.89758L1 9.072ZM0.412873 0.953493L20.3329 15.4015L21.5071 13.7825L1.58713 -0.665496L0.412873 0.953493ZM20.92 13.592L15.256 13.592L15.256 15.592L20.92 15.592L20.92 13.592ZM15.8374 15.4056L35.1814 1.5816L34.0186 -0.0455973L14.6746 13.7784L15.8374 15.4056ZM33.6 0.768L33.6 9.6L35.6 9.6L35.6 0.768L33.6 0.768ZM34.0221 8.78392L20.5341 18.3359L21.6899 19.9681L35.1779 10.4161L34.0221 8.78392ZM22.1119 19.139L22.0639 15.443L20.0641 15.469L20.1121 19.165L22.1119 19.139ZM20.4933 16.2771L34.0293 25.6851L35.1707 24.0429L21.6347 14.6349L20.4933 16.2771ZM33.6 24.864L33.6 33.312L35.6 33.312L35.6 24.864L33.6 24.864ZM35.1855 32.5013L16.1775 18.7733L15.0065 20.3947L34.0145 34.1227L35.1855 32.5013ZM15.592 20.584L21.16 20.584L21.16 18.584L15.592 18.584L15.592 20.584ZM20.5749 18.773L0.414931 33.317L1.58507 34.939L21.7451 20.395L20.5749 18.773ZM2 34.128L2 25.152L-1.09943e-06 25.152L-1.49178e-06 34.128L2 34.128ZM1.56993 25.9737L15.8259 16.0857L14.6861 14.4423L0.43007 24.3303L1.56993 25.9737ZM14.256 15.264L14.256 18.816L16.256 18.816L16.256 15.264L14.256 15.264ZM15.8203 17.9904L1.56428 8.24642L0.435714 9.89758L14.6917 19.6416L15.8203 17.9904ZM2 9.072L2 0.143998L-6.29444e-09 0.143998L-3.9655e-07 9.072L2 9.072ZM0.999998 37.1715L0.999998 36.1715L-1.58111e-06 36.1715L-1.62482e-06 37.1715L0.999998 37.1715ZM34.6 37.1715L35.6 37.1715L35.6 36.1715L34.6 36.1715L34.6 37.1715ZM33.112 59.4915L32.202 59.0767L32.1971 59.0879L33.112 59.4915ZM28.936 64.5315L28.3915 63.6927L28.3915 63.6927L28.936 64.5315ZM15.928 64.5315L15.3767 65.3659L15.3835 65.3703L15.928 64.5315ZM11.8 59.4915L10.8851 59.8951L10.8851 59.8951L11.8 59.4915ZM10.36 41.4915L11.072 40.7894L9.36 39.0532L9.36 41.4915L10.36 41.4915ZM13.768 44.9475L13.768 45.9475L16.1585 45.9475L14.48 44.2454L13.768 44.9475ZM0.999998 44.9475L-1.96472e-06 44.9475L-2.00843e-06 45.9475L0.999998 45.9475L0.999998 44.9475ZM0.999997 58.5315L0.432643 57.708L-2.53553e-06 58.0061L-2.55849e-06 58.5315L0.999997 58.5315ZM13.192 50.1315L14.192 50.1315L14.192 48.2282L12.6246 49.308L13.192 50.1315ZM13.192 58.4355L13.7637 59.2559L14.192 58.9575L14.192 58.4355L13.192 58.4355ZM0.999997 66.9315L-2.92567e-06 66.9315L-3.00941e-06 68.8472L1.57172 67.7519L0.999997 66.9315ZM12.904 44.9475L12.2163 44.2215L10.3944 45.9475L12.904 45.9475L12.904 44.9475ZM16.552 41.4915L17.552 41.4915L17.552 39.1666L15.8643 40.7655L16.552 41.4915ZM18.088 56.6595L17.3316 57.3137L17.3366 57.3194L17.3417 57.3251L18.088 56.6595ZM28.264 41.4915L28.947 40.7611L27.264 39.1874L27.264 41.4915L28.264 41.4915ZM31.96 44.9475L31.96 45.9475L34.4936 45.9475L32.643 44.2171L31.96 44.9475ZM0.999998 38.1715L34.6 38.1715L34.6 36.1715L0.999998 36.1715L0.999998 38.1715ZM33.6 37.1715L33.6 51.7155L35.6 51.7155L35.6 37.1715L33.6 37.1715ZM33.6 51.7155C33.6 54.6161 33.1215 57.0599 32.2021 59.0767L34.0219 59.9063C35.0865 57.5711 35.6 54.8309 35.6 51.7155L33.6 51.7155ZM32.1971 59.0879C31.3079 61.1032 30.0371 62.6245 28.3915 63.6927L29.4805 65.3703C31.4829 64.0705 32.9961 62.2318 34.0269 59.8951L32.1971 59.0879ZM28.3915 63.6927C26.7546 64.7553 24.7748 65.3075 22.408 65.3075L22.408 67.3075C25.0972 67.3075 27.4694 66.6757 29.4805 65.3703L28.3915 63.6927ZM22.408 65.3075C20.076 65.3075 18.1114 64.7566 16.4725 63.6927L15.3835 65.3703C17.3926 66.6744 19.748 67.3075 22.408 67.3075L22.408 65.3075ZM16.4793 63.6972C14.8642 62.6301 13.6061 61.1079 12.7149 59.0879L10.8851 59.8951C11.9139 62.2271 13.4078 64.0649 15.3767 65.3658L16.4793 63.6972ZM12.7149 59.0879C11.8238 57.0679 11.36 54.62 11.36 51.7155L9.36 51.7155C9.36 54.827 9.85622 57.5631 10.8851 59.8951L12.7149 59.0879ZM11.36 51.7155L11.36 41.4915L9.36 41.4915L9.36 51.7155L11.36 51.7155ZM9.64796 42.1936L13.056 45.6496L14.48 44.2454L11.072 40.7894L9.64796 42.1936ZM13.768 43.9475L0.999998 43.9475L0.999998 45.9475L13.768 45.9475L13.768 43.9475ZM2 44.9475L2 37.1715L-1.62482e-06 37.1715L-1.96472e-06 44.9475L2 44.9475ZM1.56735 59.355L13.7594 50.955L12.6246 49.308L0.432643 57.708L1.56735 59.355ZM12.192 50.1315L12.192 58.4355L14.192 58.4355L14.192 50.1315L12.192 50.1315ZM12.6203 57.6151L0.42827 66.1111L1.57172 67.7519L13.7637 59.2559L12.6203 57.6151ZM2 66.9315L2 58.5315L-2.55849e-06 58.5315L-2.92567e-06 66.9315L2 66.9315ZM13.5917 45.6735L17.2397 42.2175L15.8643 40.7655L12.2163 44.2215L13.5917 45.6735ZM15.552 41.4915L15.552 51.2835L17.552 51.2835L17.552 41.4915L15.552 41.4915ZM15.552 51.2835C15.552 53.8009 16.0854 55.8727 17.3316 57.3137L18.8444 56.0053C18.0426 55.0783 17.552 53.5661 17.552 51.2835L15.552 51.2835ZM17.3417 57.3251C18.6167 58.7547 20.3461 59.4355 22.408 59.4355L22.408 57.4355C20.8219 57.4355 19.6713 56.9323 18.8343 55.9939L17.3417 57.3251ZM22.408 59.4355C24.4951 59.4355 26.2348 58.7585 27.4844 57.3137L25.9716 56.0053C25.1732 56.9285 24.0329 57.4355 22.408 57.4355L22.408 59.4355ZM27.4844 57.3137C28.7306 55.8727 29.264 53.8009 29.264 51.2835L27.264 51.2835C27.264 53.5661 26.7734 55.0783 25.9716 56.0053L27.4844 57.3137ZM29.264 51.2835L29.264 41.4915L27.264 41.4915L27.264 51.2835L29.264 51.2835ZM27.581 42.2219L31.277 45.6779L32.643 44.2171L28.947 40.7611L27.581 42.2219ZM31.96 43.9475L12.904 43.9475L12.904 45.9475L31.96 45.9475L31.96 43.9475ZM0.999996 86.0621L0.999996 85.0621L-3.71818e-06 85.0621L-3.76189e-06 86.0621L0.999996 86.0621ZM34.6 86.0621L35.6 86.0621L35.6 85.0621L34.6 85.0621L34.6 86.0621ZM33.112 108.382L32.202 107.967L32.1971 107.978L33.112 108.382ZM28.936 113.422L28.3915 112.583L28.3915 112.583L28.936 113.422ZM15.928 113.422L15.3767 114.256L15.3835 114.261L15.928 113.422ZM11.8 108.382L10.8851 108.786L10.8851 108.786L11.8 108.382ZM10.36 90.3821L11.072 89.68L9.36 87.9438L9.36 90.3821L10.36 90.3821ZM13.768 93.8381L13.768 94.8381L16.1585 94.8381L14.48 93.136L13.768 93.8381ZM0.999996 93.8381L-4.10179e-06 93.8381L-4.14551e-06 94.8381L0.999996 94.8381L0.999996 93.8381ZM0.999995 107.422L0.432641 106.599L-4.6726e-06 106.897L-4.69557e-06 107.422L0.999995 107.422ZM13.192 99.0221L14.192 99.0221L14.192 97.1188L12.6246 98.1987L13.192 99.0221ZM13.192 107.326L13.7637 108.147L14.192 107.848L14.192 107.326L13.192 107.326ZM0.999995 115.822L-5.06275e-06 115.822L-5.14648e-06 117.738L1.57172 116.643L0.999995 115.822ZM12.904 93.8381L12.2163 93.1122L10.3944 94.8381L12.904 94.8381L12.904 93.8381ZM16.552 90.3821L17.552 90.3821L17.552 88.0573L15.8643 89.6562L16.552 90.3821ZM18.088 105.55L17.3316 106.204L17.3366 106.21L17.3417 106.216L18.088 105.55ZM28.264 90.3821L28.947 89.6517L27.264 88.078L27.264 90.3821L28.264 90.3821ZM31.96 93.8381L31.96 94.8381L34.4936 94.8381L32.643 93.1077L31.96 93.8381ZM0.999996 87.0621L34.6 87.0621L34.6 85.0621L0.999996 85.0621L0.999996 87.0621ZM33.6 86.0621L33.6 100.606L35.6 100.606L35.6 86.0621L33.6 86.0621ZM33.6 100.606C33.6 103.507 33.1215 105.951 32.2021 107.967L34.0219 108.797C35.0865 106.462 35.6 103.721 35.6 100.606L33.6 100.606ZM32.1971 107.978C31.3079 109.994 30.0371 111.515 28.3915 112.583L29.4805 114.261C31.4829 112.961 32.9961 111.122 34.0269 108.786L32.1971 107.978ZM28.3915 112.583C26.7546 113.646 24.7748 114.198 22.408 114.198L22.408 116.198C25.0972 116.198 27.4694 115.566 29.4805 114.261L28.3915 112.583ZM22.408 114.198C20.0759 114.198 18.1114 113.647 16.4725 112.583L15.3835 114.261C17.3926 115.565 19.748 116.198 22.408 116.198L22.408 114.198ZM16.4793 112.588C14.8642 111.521 13.6061 109.999 12.7149 107.978L10.8851 108.786C11.9139 111.118 13.4078 112.956 15.3767 114.256L16.4793 112.588ZM12.7149 107.978C11.8238 105.959 11.36 103.511 11.36 100.606L9.36 100.606C9.36 103.718 9.85622 106.454 10.8851 108.786L12.7149 107.978ZM11.36 100.606L11.36 90.3821L9.36 90.3821L9.36 100.606L11.36 100.606ZM9.64796 91.0843L13.056 94.5403L14.48 93.136L11.072 89.68L9.64796 91.0843ZM13.768 92.8381L0.999996 92.8381L0.999996 94.8381L13.768 94.8381L13.768 92.8381ZM2 93.8381L2 86.0621L-3.76189e-06 86.0621L-4.10179e-06 93.8381L2 93.8381ZM1.56735 108.246L13.7594 99.8456L12.6246 98.1987L0.432641 106.599L1.56735 108.246ZM12.192 99.0221L12.192 107.326L14.192 107.326L14.192 99.0221L12.192 99.0221ZM12.6203 106.506L0.428268 115.002L1.57172 116.643L13.7637 108.147L12.6203 106.506ZM1.99999 115.822L2 107.422L-4.69557e-06 107.422L-5.06275e-06 115.822L1.99999 115.822ZM13.5917 94.5641L17.2397 91.1081L15.8643 89.6562L12.2163 93.1122L13.5917 94.5641ZM15.552 90.3821L15.552 100.174L17.552 100.174L17.552 90.3821L15.552 90.3821ZM15.552 100.174C15.552 102.691 16.0854 104.763 17.3316 106.204L18.8444 104.896C18.0426 103.969 17.552 102.457 17.552 100.174L15.552 100.174ZM17.3417 106.216C18.6167 107.645 20.3461 108.326 22.408 108.326L22.408 106.326C20.8219 106.326 19.6713 105.823 18.8343 104.885L17.3417 106.216ZM22.408 108.326C24.4951 108.326 26.2348 107.649 27.4844 106.204L25.9716 104.896C25.1732 105.819 24.0329 106.326 22.408 106.326L22.408 108.326ZM27.4844 106.204C28.7306 104.763 29.264 102.691 29.264 100.174L27.264 100.174C27.264 102.457 26.7734 103.969 25.9716 104.896L27.4844 106.204ZM29.264 100.174L29.264 90.3821L27.264 90.3821L27.264 100.174L29.264 100.174ZM27.581 91.1125L31.277 94.5685L32.643 93.1077L28.947 89.6517L27.581 91.1125ZM31.96 92.8381L12.904 92.8381L12.904 94.8381L31.96 94.8381L31.96 92.8381ZM21.064 128.511L22.064 128.511L22.064 127.511L21.064 127.511L21.064 128.511ZM21.064 144.687L21.064 145.687L22.064 145.687L22.064 144.687L21.064 144.687ZM15.016 144.687L14.016 144.687L14.016 145.687L15.016 145.687L15.016 144.687ZM15.016 128.511L15.016 127.511L14.016 127.511L14.016 128.511L15.016 128.511ZM7.23999 129.087L7.23999 128.087L6.23999 128.087L6.23999 129.087L7.23999 129.087ZM7.23999 147.375L7.23999 148.375L8.23999 148.375L8.23999 147.375L7.23999 147.375ZM0.999994 147.375L-6.44197e-06 147.375L-6.48568e-06 148.375L0.999994 148.375L0.999994 147.375ZM0.999995 121.359L0.999995 120.359L-5.26106e-06 120.359L-5.30477e-06 121.359L0.999995 121.359ZM34.6 121.359L35.6 121.359L35.6 120.359L34.6 120.359L34.6 121.359ZM34.6 146.751L34.6 147.751L35.6 147.751L35.6 146.751L34.6 146.751ZM28.36 146.751L27.36 146.751L27.36 147.751L28.36 147.751L28.36 146.751ZM28.36 129.087L29.36 129.087L29.36 128.087L28.36 128.087L28.36 129.087ZM20.064 128.511L20.064 144.687L22.064 144.687L22.064 128.511L20.064 128.511ZM21.064 143.687L15.016 143.687L15.016 145.687L21.064 145.687L21.064 143.687ZM16.016 144.687L16.016 128.511L14.016 128.511L14.016 144.687L16.016 144.687ZM15.016 129.511L21.064 129.511L21.064 127.511L15.016 127.511L15.016 129.511ZM6.23999 129.087L6.23999 147.375L8.23999 147.375L8.23999 129.087L6.23999 129.087ZM7.23999 146.375L0.999994 146.375L0.999994 148.375L7.23999 148.375L7.23999 146.375ZM1.99999 147.375L1.99999 121.359L-5.30477e-06 121.359L-6.44197e-06 147.375L1.99999 147.375ZM0.999995 122.359L34.6 122.359L34.6 120.359L0.999995 120.359L0.999995 122.359ZM33.6 121.359L33.6 146.751L35.6 146.751L35.6 121.359L33.6 121.359ZM34.6 145.751L28.36 145.751L28.36 147.751L34.6 147.751L34.6 145.751ZM29.36 146.751L29.36 129.087L27.36 129.087L27.36 146.751L29.36 146.751ZM28.36 128.087L7.23999 128.087L7.23999 130.087L28.36 130.087L28.36 128.087ZM1.67199 162.394L0.74075 162.03L0.737589 162.038L0.734568 162.046L1.67199 162.394ZM5.31999 156.634L4.59889 155.941L4.59889 155.941L5.31999 156.634ZM10.84 152.794L10.4494 151.873L10.4377 151.879L10.84 152.794ZM24.76 152.794L25.1623 151.879L25.1505 151.874L24.76 152.794ZM30.28 156.634L31.0078 155.948L31.0011 155.941L30.28 156.634ZM33.88 162.442L32.9442 162.795L32.9488 162.807L33.88 162.442ZM33.64 177.562L32.7241 177.161L32.7208 177.168L32.7177 177.176L33.64 177.562ZM29.224 183.514L28.4892 184.192L29.1287 184.885L29.8579 184.288L29.224 183.514ZM24.616 178.522L23.9562 177.771L23.1858 178.447L23.8812 179.2L24.616 178.522ZM27.544 174.682L26.6415 174.251L26.6375 174.26L26.6336 174.268L27.544 174.682ZM25.576 162.346L24.8689 163.053L24.8689 163.053L25.576 162.346ZM22.168 160.09L22.551 159.166L22.5413 159.162L22.5315 159.159L22.168 160.09ZM13.432 160.09L13.0685 159.159L13.0587 159.162L13.049 159.166L13.432 160.09ZM10.024 162.346L9.31689 161.639L9.31689 161.639L10.024 162.346ZM8.00799 174.682L7.09763 175.096L7.10149 175.104L7.10551 175.113L8.00799 174.682ZM11.032 178.522L11.7668 179.2L12.4705 178.438L11.6828 177.763L11.032 178.522ZM6.42399 183.514L5.79006 184.288L6.51927 184.885L7.1588 184.192L6.42399 183.514ZM1.95999 177.562L2.87786 177.165L2.87586 177.161L1.95999 177.562ZM1.42399 169.642C1.42399 167.159 1.82218 164.862 2.60942 162.742L0.734568 162.046C-0.142193 164.406 -0.576007 166.941 -0.576007 169.642L1.42399 169.642ZM2.60324 162.759C3.42173 160.667 4.56832 158.86 6.0411 157.327L4.59889 155.941C2.93567 157.672 1.65025 159.705 0.74075 162.03L2.60324 162.759ZM6.0411 157.327C7.51664 155.791 9.24772 154.586 11.2423 153.71L10.4377 151.879C8.20826 152.858 6.25934 154.213 4.59889 155.941L6.0411 157.327ZM11.2305 153.715C13.207 152.876 15.3924 152.45 17.8 152.45L17.8 150.45C15.1515 150.45 12.697 150.92 10.4494 151.874L11.2305 153.715ZM17.8 152.45C20.2075 152.45 22.393 152.876 24.3694 153.715L25.1505 151.874C22.903 150.92 20.4484 150.45 17.8 150.45L17.8 152.45ZM24.3577 153.71C26.3523 154.586 28.0833 155.791 29.5589 157.327L31.0011 155.941C29.3406 154.213 27.3917 152.858 25.1623 151.879L24.3577 153.71ZM29.5522 157.32C31.0266 158.885 32.1573 160.706 32.9442 162.795L34.8158 162.09C33.9387 159.762 32.6694 157.712 31.0078 155.948L29.5522 157.32ZM32.9488 162.807C33.7627 164.887 34.176 167.178 34.176 169.69L36.176 169.69C36.176 166.955 35.7253 164.414 34.8112 162.078L32.9488 162.807ZM34.176 169.69C34.176 172.483 33.6853 174.968 32.7241 177.161L34.5559 177.964C35.6427 175.484 36.176 172.721 36.176 169.69L34.176 169.69ZM32.7177 177.176C31.7876 179.396 30.4135 181.246 28.5901 182.741L29.8579 184.288C31.9385 182.582 33.5084 180.464 34.5623 177.949L32.7177 177.176ZM29.9588 182.836L25.3508 177.844L23.8812 179.2L28.4892 184.192L29.9588 182.836ZM25.2758 179.274C26.6806 178.04 27.7486 176.649 28.4544 175.096L26.6336 174.268C26.0594 175.532 25.1754 176.7 23.9562 177.771L25.2758 179.274ZM28.4465 175.113C29.1869 173.561 29.552 171.877 29.552 170.074L27.552 170.074C27.552 171.599 27.2451 172.987 26.6415 174.251L28.4465 175.113ZM29.552 170.074C29.552 168.396 29.2776 166.831 28.7156 165.391L26.8524 166.118C27.3144 167.301 27.552 168.616 27.552 170.074L29.552 170.074ZM28.7156 165.391C28.1552 163.955 27.3445 162.7 26.2831 161.639L24.8689 163.053C25.7274 163.912 26.3888 164.93 26.8524 166.118L28.7156 165.391ZM26.2831 161.639C25.2261 160.582 23.9785 159.758 22.551 159.166L21.785 161.014C22.9815 161.51 24.0059 162.19 24.8689 163.053L26.2831 161.639ZM22.5315 159.159C21.089 158.596 19.5076 158.322 17.8 158.322L17.8 160.322C19.2924 160.322 20.623 160.561 21.8045 161.022L22.5315 159.159ZM17.8 158.322C16.0924 158.322 14.511 158.596 13.0685 159.159L13.7955 161.022C14.977 160.561 16.3076 160.322 17.8 160.322L17.8 158.322ZM13.049 159.166C11.6215 159.758 10.3739 160.582 9.31689 161.639L10.7311 163.053C11.5941 162.19 12.6185 161.51 13.815 161.014L13.049 159.166ZM9.31689 161.639C8.25545 162.7 7.44476 163.955 6.88442 165.391L8.74757 166.118C9.21123 164.93 9.87254 163.912 10.7311 163.053L9.31689 161.639ZM6.88442 165.391C6.32235 166.831 6.04799 168.396 6.04799 170.074L8.04799 170.074C8.04799 168.616 8.28563 167.301 8.74757 166.118L6.88442 165.391ZM6.04799 170.074C6.04799 171.87 6.39417 173.548 7.09763 175.096L8.91836 174.268C8.34182 173 8.04799 171.606 8.04799 170.074L6.04799 170.074ZM7.10551 175.113C7.84516 176.663 8.94555 178.051 10.3812 179.281L11.6828 177.763C10.4304 176.689 9.51482 175.518 8.91047 174.251L7.10551 175.113ZM10.2972 177.844L5.68919 182.836L7.1588 184.192L11.7668 179.2L10.2972 177.844ZM7.05792 182.741C5.23203 181.244 3.84003 179.39 2.87785 177.165L1.04214 177.959C2.12796 180.47 3.71196 182.584 5.79006 184.288L7.05792 182.741ZM2.87586 177.161C1.91526 174.969 1.42399 172.469 1.42399 169.642L-0.576007 169.642C-0.576008 172.703 -0.0432731 175.483 1.04412 177.964L2.87586 177.161ZM1.71999 196.99L0.786979 196.63L0.785295 196.635L1.71999 196.99ZM5.36799 191.134L4.64685 190.441L4.6402 190.448L5.36799 191.134ZM10.888 187.294L10.4974 186.373L10.4857 186.379L10.888 187.294ZM24.712 187.294L25.1143 186.379L25.1025 186.374L24.712 187.294ZM33.88 197.038L34.813 196.678L34.813 196.678L33.88 197.038ZM33.88 211.63L32.9487 211.266L32.947 211.27L33.88 211.63ZM30.232 217.438L29.5109 216.745L29.5042 216.752L30.232 217.438ZM24.712 221.326L24.3097 220.411L24.3045 220.413L24.712 221.326ZM10.84 221.326L10.4377 222.242L10.4428 222.244L10.84 221.326ZM5.31999 217.438L4.59179 218.123L4.5922 218.124L5.31999 217.438ZM1.71999 211.63L2.653 211.27L2.65123 211.266L1.71999 211.63ZM7.81599 208.462L8.7445 208.091L8.74116 208.083L7.81599 208.462ZM10.024 211.822L10.7311 211.115L10.7311 211.115L10.024 211.822ZM13.432 214.03L13.815 213.106L13.8053 213.102L13.7955 213.099L13.432 214.03ZM22.168 214.03L21.8044 213.099L21.7947 213.102L21.785 213.106L22.168 214.03ZM25.576 211.822L24.881 211.103L24.8749 211.109L24.8689 211.115L25.576 211.822ZM27.784 208.51L26.8555 208.139L26.8555 208.139L27.784 208.51ZM27.784 200.158L28.7125 199.787L28.7092 199.779L27.784 200.158ZM25.576 196.846L24.8689 197.553L24.8689 197.553L25.576 196.846ZM22.168 194.59L22.551 193.666L22.5413 193.662L22.5315 193.659L22.168 194.59ZM13.432 194.59L13.076 193.656L13.0624 193.661L13.049 193.666L13.432 194.59ZM10.024 196.798L9.32897 196.079L9.32288 196.085L9.31689 196.091L10.024 196.798ZM7.81599 200.158L6.88751 199.787L6.88751 199.787L7.81599 200.158ZM1.42399 204.382C1.42399 201.836 1.8377 199.494 2.65469 197.346L0.785295 196.635C-0.125713 199.03 -0.576009 201.616 -0.576009 204.382L1.42399 204.382ZM2.65299 197.35C3.47273 195.225 4.62107 193.385 6.09578 191.82L4.6402 190.448C2.97891 192.211 1.69526 194.275 0.78699 196.63L2.65299 197.35ZM6.0891 191.827C7.56464 190.291 9.29572 189.086 11.2903 188.21L10.4857 186.379C8.25626 187.358 6.30734 188.713 4.64689 190.441L6.0891 191.827ZM11.2785 188.215C13.2565 187.376 15.4263 186.95 17.8 186.95L17.8 184.95C15.1817 184.95 12.7435 185.421 10.4974 186.374L11.2785 188.215ZM17.8 186.95C20.1737 186.95 22.3435 187.376 24.3214 188.215L25.1025 186.374C22.8565 185.421 20.4183 184.95 17.8 184.95L17.8 186.95ZM24.3097 188.21C26.3 189.084 28.029 190.302 29.5042 191.868L30.9598 190.496C29.2989 188.734 27.3479 187.36 25.1143 186.379L24.3097 188.21ZM29.5042 191.868C30.9789 193.433 32.1273 195.273 32.947 197.398L34.813 196.678C33.9047 194.323 32.6211 192.259 30.9598 190.496L29.5042 191.868ZM32.947 197.398C33.7628 199.513 34.176 201.822 34.176 204.334L36.176 204.334C36.176 201.599 35.7252 199.043 34.813 196.678L32.947 197.398ZM34.176 204.334C34.176 206.88 33.7622 209.187 32.9488 211.266L34.8112 211.995C35.7258 209.657 36.176 207.1 36.176 204.334L34.176 204.334ZM32.947 211.27C32.1279 213.394 30.9813 215.215 29.5109 216.745L30.9531 218.131C32.6187 216.397 33.9041 214.346 34.813 211.99L32.947 211.27ZM29.5042 216.752C28.029 218.318 26.3 219.536 24.3097 220.411L25.1143 222.242C27.3479 221.26 29.2989 219.886 30.9598 218.124L29.5042 216.752ZM24.3045 220.413C22.3662 221.278 20.2031 221.718 17.8 221.718L17.8 223.718C20.4529 223.718 22.8978 223.231 25.1194 222.239L24.3045 220.413ZM17.8 221.718C15.4311 221.718 13.2474 221.278 11.2372 220.408L10.4428 222.244C12.7206 223.23 15.1768 223.718 17.8 223.718L17.8 221.718ZM11.2423 220.411C9.25195 219.536 7.52294 218.318 6.04778 216.752L4.5922 218.124C6.25305 219.886 8.20404 221.26 10.4377 222.242L11.2423 220.411ZM6.04819 216.753C4.60704 215.222 3.47378 213.398 2.65299 211.27L0.786989 211.99C1.6942 214.342 2.96094 216.391 4.59179 218.123L6.04819 216.753ZM2.65123 211.266C1.83728 209.186 1.42399 206.895 1.42399 204.382L-0.576009 204.382C-0.576009 207.118 -0.125294 209.659 0.788748 211.995L2.65123 211.266ZM6.04799 204.334C6.04799 205.953 6.32403 207.46 6.89082 208.842L8.74116 208.083C8.28395 206.968 8.04799 205.723 8.04799 204.334L6.04799 204.334ZM6.88751 208.834C7.44901 210.237 8.25962 211.472 9.31688 212.529L10.7311 211.115C9.86837 210.252 9.20697 209.247 8.74447 208.091L6.88751 208.834ZM9.31688 212.529C10.3783 213.591 11.6326 214.401 13.0684 214.962L13.7955 213.099C12.6074 212.635 11.5897 211.974 10.7311 211.115L9.31688 212.529ZM13.049 214.954C14.4968 215.554 16.0851 215.846 17.8 215.846L17.8 213.846C16.3149 213.846 14.9912 213.594 13.815 213.106L13.049 214.954ZM17.8 215.846C19.5149 215.846 21.1032 215.554 22.551 214.954L21.785 213.106C20.6088 213.594 19.2851 213.846 17.8 213.846L17.8 215.846ZM22.5315 214.962C23.9674 214.401 25.2217 213.591 26.2831 212.529L24.8689 211.115C24.0103 211.974 22.9926 212.635 21.8044 213.099L22.5315 214.962ZM26.271 212.541C27.3358 211.512 28.1498 210.288 28.7125 208.882L26.8555 208.139C26.3942 209.292 25.7362 210.276 24.881 211.103L26.271 212.541ZM28.7125 208.882C29.2758 207.473 29.552 205.954 29.552 204.334L27.552 204.334C27.552 205.723 27.3161 206.987 26.8555 208.139L28.7125 208.882ZM29.552 204.334C29.552 202.715 29.2758 201.195 28.7125 199.787L26.8555 200.53C27.3161 201.681 27.552 202.946 27.552 204.334L29.552 204.334ZM28.7092 199.779C28.1466 198.407 27.3361 197.192 26.2831 196.139L24.8689 197.553C25.7358 198.42 26.3974 199.413 26.8588 200.538L28.7092 199.779ZM26.2831 196.139C25.2261 195.082 23.9785 194.258 22.551 193.666L21.785 195.514C22.9815 196.01 24.0059 196.69 24.8689 197.553L26.2831 196.139ZM22.5315 193.659C21.089 193.096 19.5076 192.822 17.8 192.822L17.8 194.822C19.2924 194.822 20.623 195.061 21.8044 195.522L22.5315 193.659ZM17.8 192.822C16.1213 192.822 14.5435 193.097 13.076 193.656L13.788 195.525C15.0084 195.06 16.3427 194.822 17.8 194.822L17.8 192.822ZM13.049 193.666C11.6285 194.255 10.3848 195.058 9.32897 196.079L10.719 197.517C11.5831 196.682 12.6115 196.013 13.815 195.514L13.049 193.666ZM9.31689 196.091C8.25962 197.148 7.44901 198.383 6.88751 199.787L8.74447 200.53C9.20697 199.373 9.86837 198.368 10.7311 197.505L9.31689 196.091ZM6.88751 199.787C6.32413 201.195 6.04799 202.715 6.04799 204.334L8.04799 204.334C8.04799 202.946 8.28385 201.681 8.74447 200.53L6.88751 199.787ZM0.99999 237.564L0.603855 236.646L-1.03555e-05 236.906L-1.03843e-05 237.564L0.99999 237.564ZM34.6 223.068L35.6 223.068L35.6 221.547L34.2039 222.15L34.6 223.068ZM34.6 231.468L34.9918 232.388L35.6 232.129L35.6 231.468L34.6 231.468ZM4.83999 244.14L3.83999 244.14L3.83999 245.653L5.23176 245.06L4.83999 244.14ZM4.83999 239.196L5.23677 238.278L3.83999 237.674L3.83999 239.196L4.83999 239.196ZM34.6 252.06L35.6 252.06L35.6 251.403L34.9968 251.142L34.6 252.06ZM34.6 259.788L34.2028 260.706L35.6 261.311L35.6 259.788L34.6 259.788ZM0.999989 245.244L-1.072e-05 245.244L-1.07487e-05 245.901L0.60275 246.162L0.999989 245.244ZM1.39612 238.482L34.9961 223.986L34.2039 222.15L0.603855 236.646L1.39612 238.482ZM33.6 223.068L33.6 231.468L35.6 231.468L35.6 223.068L33.6 223.068ZM34.2082 230.548L4.44822 243.22L5.23176 245.06L34.9918 232.388L34.2082 230.548ZM5.83999 244.14L5.83999 239.196L3.83999 239.196L3.83999 244.14L5.83999 244.14ZM4.44321 240.114L34.2032 252.978L34.9968 251.142L5.23677 238.278L4.44321 240.114ZM33.6 252.06L33.6 259.788L35.6 259.788L35.6 252.06L33.6 252.06ZM34.9972 258.87L1.39723 244.326L0.60275 246.162L34.2028 260.706L34.9972 258.87ZM1.99999 245.244L1.99999 237.564L-1.03843e-05 237.564L-1.072e-05 245.244L1.99999 245.244ZM21.064 269.745L22.064 269.745L22.064 268.745L21.064 268.745L21.064 269.745ZM21.064 285.921L21.064 286.921L22.064 286.921L22.064 285.921L21.064 285.921ZM15.016 285.921L14.016 285.921L14.016 286.921L15.016 286.921L15.016 285.921ZM15.016 269.745L15.016 268.745L14.016 268.745L14.016 269.745L15.016 269.745ZM7.23999 270.321L7.23999 269.321L6.23999 269.321L6.23999 270.321L7.23999 270.321ZM7.23999 288.609L7.23999 289.609L8.23999 289.609L8.23999 288.609L7.23999 288.609ZM0.999987 288.609L-1.26155e-05 288.609L-1.26592e-05 289.609L0.999987 289.609L0.999987 288.609ZM0.999989 262.593L0.999989 261.593L-1.14346e-05 261.593L-1.14783e-05 262.593L0.999989 262.593ZM34.6 262.593L35.6 262.593L35.6 261.593L34.6 261.593L34.6 262.593ZM34.6 287.985L34.6 288.985L35.6 288.985L35.6 287.985L34.6 287.985ZM28.36 287.985L27.36 287.985L27.36 288.985L28.36 288.985L28.36 287.985ZM28.36 270.321L29.36 270.321L29.36 269.321L28.36 269.321L28.36 270.321ZM20.064 269.745L20.064 285.921L22.064 285.921L22.064 269.745L20.064 269.745ZM21.064 284.921L15.016 284.921L15.016 286.921L21.064 286.921L21.064 284.921ZM16.016 285.921L16.016 269.745L14.016 269.745L14.016 285.921L16.016 285.921ZM15.016 270.745L21.064 270.745L21.064 268.745L15.016 268.745L15.016 270.745ZM6.23999 270.321L6.23999 288.609L8.23999 288.609L8.23999 270.321L6.23999 270.321ZM7.23999 287.609L0.999987 287.609L0.999987 289.609L7.23999 289.609L7.23999 287.609ZM1.99999 288.609L1.99999 262.593L-1.14783e-05 262.593L-1.26155e-05 288.609L1.99999 288.609ZM0.999988 263.593L34.6 263.593L34.6 261.593L0.999989 261.593L0.999988 263.593ZM33.6 262.593L33.6 287.985L35.6 287.985L35.6 262.593L33.6 262.593ZM34.6 286.985L28.36 286.985L28.36 288.985L34.6 288.985L34.6 286.985ZM29.36 287.985L29.36 270.321L27.36 270.321L27.36 287.985L29.36 287.985ZM28.36 269.321L7.23999 269.321L7.23999 271.321L28.36 271.321L28.36 269.321ZM0.999987 294.796L0.999987 293.796L-1.28423e-05 293.796L-1.2886e-05 294.796L0.999987 294.796ZM34.6 294.796L35.6 294.797L35.6 293.797L34.6 293.796L34.6 294.796ZM33.112 317.117L32.202 316.702L32.1971 316.713L33.112 317.117ZM28.936 322.157L28.3915 321.318L28.3915 321.318L28.936 322.157ZM15.928 322.157L15.3767 322.991L15.3835 322.995L15.928 322.157ZM11.8 317.117L10.8851 317.52L10.8851 317.52L11.8 317.117ZM10.36 299.116L11.072 298.414L9.35999 296.678L9.35999 299.116L10.36 299.116ZM13.768 302.572L13.768 303.572L16.1585 303.572L14.48 301.87L13.768 302.572ZM0.999987 302.572L-1.32259e-05 302.572L-1.32696e-05 303.572L0.999987 303.572L0.999987 302.572ZM0.999986 316.156L0.432632 315.333L-1.37967e-05 315.631L-1.38196e-05 316.156L0.999986 316.156ZM13.192 307.756L14.192 307.756L14.192 305.853L12.6246 306.933L13.192 307.756ZM13.192 316.06L13.7637 316.881L14.192 316.583L14.192 316.06L13.192 316.06ZM0.999986 324.556L-1.41868e-05 324.556L-1.42706e-05 326.472L1.57171 325.377L0.999986 324.556ZM12.904 302.572L12.2162 301.847L10.3944 303.572L12.904 303.572L12.904 302.572ZM16.552 299.116L17.552 299.116L17.552 296.792L15.8642 298.391L16.552 299.116ZM18.088 314.285L17.3316 314.939L17.3366 314.944L17.3417 314.95L18.088 314.285ZM28.264 299.116L28.947 298.386L27.264 296.812L27.264 299.116L28.264 299.116ZM31.96 302.572L31.96 303.572L34.4936 303.572L32.643 301.842L31.96 302.572ZM0.999987 295.796L34.6 295.796L34.6 293.796L0.999987 293.796L0.999987 295.796ZM33.6 294.796L33.6 309.341L35.6 309.341L35.6 294.797L33.6 294.796ZM33.6 309.341C33.6 312.241 33.1215 314.685 32.2021 316.702L34.0219 317.531C35.0865 315.196 35.6 312.456 35.6 309.341L33.6 309.341ZM32.1971 316.713C31.3079 318.728 30.0371 320.25 28.3915 321.318L29.4805 322.995C31.4829 321.695 32.996 319.857 34.0269 317.52L32.1971 316.713ZM28.3915 321.318C26.7546 322.38 24.7748 322.933 22.408 322.933L22.408 324.933C25.0971 324.933 27.4694 324.301 29.4805 322.995L28.3915 321.318ZM22.408 322.933C20.0759 322.933 18.1114 322.382 16.4725 321.318L15.3835 322.995C17.3926 324.299 19.748 324.933 22.408 324.933L22.408 322.933ZM16.4792 321.322C14.8642 320.255 13.6061 318.733 12.7149 316.713L10.8851 317.52C11.9139 319.852 13.4078 321.69 15.3767 322.991L16.4792 321.322ZM12.7149 316.713C11.8238 314.693 11.36 312.245 11.36 309.34L9.35999 309.34C9.35999 312.452 9.85621 315.188 10.8851 317.52L12.7149 316.713ZM11.36 309.34L11.36 299.116L9.35999 299.116L9.35999 309.34L11.36 309.34ZM9.64795 299.819L13.056 303.275L14.48 301.87L11.072 298.414L9.64795 299.819ZM13.768 301.572L0.999987 301.572L0.999987 303.572L13.768 303.572L13.768 301.572ZM1.99999 302.572L1.99999 294.796L-1.2886e-05 294.796L-1.32259e-05 302.572L1.99999 302.572ZM1.56734 316.98L13.7593 308.58L12.6246 306.933L0.432632 315.333L1.56734 316.98ZM12.192 307.756L12.192 316.06L14.192 316.06L14.192 307.756L12.192 307.756ZM12.6203 315.24L0.428259 323.736L1.57171 325.377L13.7637 316.881L12.6203 315.24ZM1.99999 324.556L1.99999 316.156L-1.38196e-05 316.156L-1.41868e-05 324.556L1.99999 324.556ZM13.5917 303.298L17.2397 299.842L15.8642 298.391L12.2162 301.847L13.5917 303.298ZM15.552 299.116L15.552 308.908L17.552 308.908L17.552 299.116L15.552 299.116ZM15.552 308.908C15.552 311.426 16.0854 313.498 17.3316 314.939L18.8443 313.63C18.0426 312.703 17.552 311.191 17.552 308.908L15.552 308.908ZM17.3417 314.95C18.6167 316.38 20.3461 317.061 22.408 317.061L22.408 315.061C20.8219 315.061 19.6713 314.557 18.8343 313.619L17.3417 314.95ZM22.408 317.061C24.495 317.061 26.2348 316.383 27.4843 314.939L25.9716 313.63C25.1732 314.554 24.0329 315.061 22.408 315.061L22.408 317.061ZM27.4843 314.939C28.7306 313.498 29.264 311.426 29.264 308.908L27.264 308.908C27.264 311.191 26.7734 312.703 25.9716 313.63L27.4843 314.939ZM29.264 308.908L29.264 299.116L27.264 299.116L27.264 308.908L29.264 308.908ZM27.581 299.847L31.277 303.303L32.643 301.842L28.947 298.386L27.581 299.847ZM31.96 301.572L12.904 301.572L12.904 303.572L31.96 303.572L31.96 301.572Z" fill="white"/>
</svg>
