<svg width="200" height="22" viewBox="0 0 200 22" fill="none" xmlns="http://www.w3.org/2000/svg">
<g clip-path="url(#clip0_2212_26770)">
<path d="M29.2578 4.65234H33.9607L43.2958 13.8791V4.65234H46.8229V21.9779L29.2578 4.65234Z" fill="white"/>
<path d="M47.9688 8.09807V4.65039H51.4959V8.13876L47.9688 8.09807ZM47.9688 17.3481V9.24923H51.4959V17.3481H47.9688Z" fill="white"/>
<path d="M52.6484 17.3481V9.24923H62.0071V8.08644H52.6484V4.65039H65.5107V12.7202H61.9836L66.6864 17.3713H61.9836L57.2807 12.7202H56.105V17.3713L52.6484 17.3481Z" fill="white"/>
<path d="M70.1912 8.10002H66.6641V4.65234H77.1925V8.14072H73.6654V17.35L70.1383 20.8384L70.1912 8.10002Z" fill="white"/>
<path d="M81.8865 17.35L78.3594 13.8616V4.65234H81.8865V12.7221L83.0622 13.8849H87.7651V4.65234H91.2922V17.35H81.8865Z" fill="white"/>
<path d="M92.4102 17.3477V8.09775L95.9373 4.60938H105.29V17.3477H101.763V8.09775H97.0601L95.8844 9.26054V13.9117H100.587V17.4001L92.4102 17.3477Z" fill="white"/>
<path d="M106.441 17.3488V0L109.969 3.48837V13.8953H113.496V17.3837L106.441 17.3488Z" fill="white"/>
<path d="M114.633 8.10002V4.65234H118.16V8.14072L114.633 8.10002ZM114.633 17.35V9.25118H118.16V17.35H114.633Z" fill="white"/>
<path d="M122.816 8.10002H119.289V4.65234H129.818V8.14072H126.29V17.35L122.763 20.8384L122.816 8.10002Z" fill="white"/>
<path d="M140.355 18.507V17.3442H134.512L130.984 13.8558V4.65234H134.512V12.7221L135.687 13.8849H140.361V4.65234H143.888V21.9779L140.355 18.507Z" fill="white"/>
<path d="M150.883 17.3477V8.09775L154.41 4.60938H163.763V8.09775H155.556L154.381 9.26054V13.9117H163.733V17.4001L150.883 17.3477Z" fill="white"/>
<path d="M176.609 17.3481L173.082 13.8597V4.65039H176.609V12.7202L177.785 13.8829H182.488V4.65039H186.015V17.3481H176.609Z" fill="white"/>
<path d="M187.137 17.3488V0L190.664 3.48837V4.65116H196.513L200.04 8.13953V17.3488H187.137ZM196.489 13.8605V9.2093L195.314 8.04651H190.611V13.8256L196.489 13.8605Z" fill="white"/>
<path d="M17.6955 14.6289L17.6367 14.7161L17.6955 14.6289Z" fill="white"/>
<path opacity="0.3" d="M15.0062 4.65117L12.3432 0.0697726C11.9373 0.0231877 11.529 -0.00010714 11.1204 5.11389e-06C9.58197 -0.00146393 8.06001 0.313587 6.65127 0.92514C5.24253 1.53669 3.97782 2.43137 2.9375 3.55233H11.1204C12.4928 3.5613 13.8365 3.94129 15.0062 4.65117Z" fill="white"/>
<path opacity="0.9" d="M17.6363 14.7206C16.9565 15.8911 15.9667 16.8559 14.7734 17.5113H20.0641C21.1056 16.1229 21.8012 14.5111 22.0944 12.8069C22.3875 11.1026 22.27 9.35399 21.7513 7.70312L17.7539 14.5345L17.6951 14.6392L17.6363 14.7206Z" fill="white"/>
<path opacity="0.45" d="M7.47754 4.48242H2.18685C0.770405 6.36692 0.00377815 8.65172 2.94208e-05 10.9999C-0.00259162 12.1182 0.169931 13.2302 0.511463 14.2964L4.47361 7.50568C5.16071 6.23362 6.20354 5.18408 7.47754 4.48242Z" fill="white"/>
<path d="M18.6397 11.1397L21.3027 6.57572C20.5984 4.99296 19.5265 3.59684 18.1742 2.50077C16.8218 1.40469 15.2271 0.639579 13.5195 0.267578L17.6345 7.24432C18.2996 8.37627 18.6504 9.6619 18.6515 10.9711C18.6515 11.0466 18.6397 11.0932 18.6397 11.1397Z" fill="white"/>
<path opacity="0.6" d="M3.59851 10.8672L0.941406 15.4253C1.6458 17.0017 2.71334 18.3931 4.05869 19.4885C5.40403 20.5838 6.98985 21.3526 8.68933 21.7335L4.57435 14.7277C3.90927 13.5978 3.55839 12.3141 3.55736 11.0067C3.59263 10.9544 3.59851 10.9137 3.59851 10.8672Z" fill="white"/>
<path opacity="0.75" d="M7.22656 17.3594L9.89542 21.9291C10.3032 21.9761 10.7135 21.9994 11.124 21.9989C12.6645 22.0004 14.1883 21.6843 15.5983 21.0706C17.0083 20.457 18.2734 19.5593 19.3129 18.435H11.2534H11.124C9.74946 18.4387 8.40059 18.0665 7.22656 17.3594Z" fill="white"/>
<path d="M17.7541 14.5352L17.6953 14.6398L17.7541 14.5352Z" fill="white"/>
<path d="M7.25306 10.9999C6.28176 11.0004 5.3435 10.6511 4.61359 10.0174C4.56212 10.3425 4.53462 10.6709 4.53129 10.9999C4.52653 12.3278 4.93054 13.6257 5.68961 14.721C6.44868 15.8163 7.52686 16.6571 8.78081 17.1317C10.0348 17.6064 11.4051 17.6923 12.7096 17.3781C14.0141 17.0638 15.191 16.3644 16.0838 15.3726C16.9767 14.3809 17.5432 13.1439 17.708 11.826C17.8728 10.5082 17.6281 9.17192 17.0065 7.99492C16.3849 6.81792 15.4158 5.85592 14.228 5.23682C13.0402 4.61771 11.69 4.37083 10.3569 4.52899C10.836 5.11006 11.1387 5.81357 11.2299 6.5579C11.3211 7.30223 11.197 8.05688 10.8721 8.73429C10.5472 9.4117 10.0347 9.98412 9.39412 10.3851C8.75356 10.7861 8.01116 10.9993 7.25306 10.9999Z" fill="white"/>
<path d="M171.937 13.8779H168.427V3.47093L164.918 0V17.3488H168.427H171.937H175.441L171.937 13.8779Z" fill="white"/>
</g>
<defs>
<clipPath id="clip0_2212_26770">
<rect width="200" height="22" fill="white"/>
</clipPath>
</defs>
</svg>
