<svg width="240" height="233" viewBox="0 0 240 233" fill="none" xmlns="http://www.w3.org/2000/svg">
<path opacity="0.8" d="M223.98 218.157C228.727 218.157 232.575 214.309 232.575 209.562V49.4159C232.575 47.1318 231.666 44.9416 230.048 43.329L192.717 6.11429C191.106 4.50827 188.924 3.60645 186.649 3.60645H11.7764C7.02966 3.60645 3.18164 7.45446 3.18164 12.2012V172.347C3.18164 174.631 4.09086 176.822 5.70852 178.434L43.04 215.649C44.6511 217.255 46.8331 218.157 49.1079 218.157H223.98Z" fill="url(#paint0_linear_2212_27079)"/>
<g clip-path="url(#clip0_2212_27079)">
<path opacity="0.4" d="M148.16 218.092L223.575 93.0452L242.171 81.4541H302.858L227.457 206.5L208.848 218.092H148.16Z" fill="url(#paint1_linear_2212_27079)"/>
<path opacity="0.3" d="M72.041 418.81L253.126 117.4L279.486 100.965H365.515L184.417 402.388L158.043 418.81H72.041Z" fill="url(#paint2_linear_2212_27079)"/>
<path opacity="0.6" d="M119.207 367.089L226.099 189.862L252.459 173.427H338.474L231.596 350.653L205.223 367.089H119.207Z" fill="url(#paint3_linear_2212_27079)"/>
<path style="mix-blend-mode:hard-light" opacity="0.3" d="M114.443 305.665L294.185 5.34844L320.558 -11.0869H354.153L174.411 289.243L148.038 305.665H114.443Z" fill="url(#paint4_linear_2212_27079)"/>
<path d="M82.4753 -28.1543L-79.6882 242.786L-246.711 241.086L-93.9268 -14.1883L-71.5169 -28.1543H82.4753Z" fill="url(#paint5_linear_2212_27079)"/>
<path d="M95.1677 -28.1543L-57.6164 227.12L-80.0263 241.086H-234.141L-81.343 -14.1883L-58.933 -28.1543H95.1677Z" fill="url(#paint6_linear_2212_27079)"/>
<path style="mix-blend-mode:hard-light" opacity="0.5" d="M62.7555 44.835L-90.0286 300.109L-112.439 314.089H-123.908L28.8759 58.8145L51.2858 44.835H62.7555Z" fill="url(#paint7_linear_2212_27079)"/>
<path style="mix-blend-mode:hard-light" opacity="0.5" d="M-168.443 42.9154L-70.51 -121.506L-48.1001 -135.472H41.214L-56.7193 28.9494L-79.1293 42.9154H-168.443Z" fill="url(#paint8_linear_2212_27079)"/>
<path style="mix-blend-mode:hard-light" opacity="0.5" d="M-63.4668 29.4367L34.4801 -134.998L56.89 -148.964H85.4488L-12.4845 15.4707L-34.908 29.4367H-63.4668Z" fill="url(#paint9_linear_2212_27079)"/>
<g clip-path="url(#clip1_2212_27079)">
<path d="M213.75 171.252V163.752C213.75 163.338 213.414 163.002 213 163.002H210V164.502H212.25V171.252H213.75Z" fill="white"/>
<path d="M179.25 182.501V201.25C179.25 201.665 179.586 202 180 202H209.999C210.413 202 210.749 201.665 210.749 201.25V196.001H209.249V200.5H180.75V182.501H179.25Z" fill="white"/>
<path d="M203.56 160.078C203.536 160.067 203.514 160.062 203.49 160.053C203.427 160.031 203.362 160.019 203.296 160.014C203.279 160.011 203.265 160.003 203.249 160.003H180C179.586 160.003 179.25 160.339 179.25 160.753V162.253H180.75V161.503H202.499V167.503C202.499 167.917 202.835 168.253 203.249 168.253H209.249V172.003H210.749V167.503C210.749 167.487 210.741 167.473 210.74 167.456C210.736 167.39 210.723 167.325 210.701 167.262C210.693 167.238 210.687 167.216 210.676 167.192C210.64 167.11 210.589 167.036 210.526 166.972L203.777 160.223C203.713 160.162 203.64 160.113 203.56 160.078V160.078ZM208.189 166.753H203.999V162.563L208.189 166.753Z" fill="white"/>
<path d="M191.252 191.502V197.502C191.252 197.916 191.588 198.252 192.002 198.252H201.752V196.752H192.752V192.252H196.502V190.752H192.002C191.588 190.752 191.252 191.088 191.252 191.502Z" fill="white"/>
<path d="M194.25 193.751H198.75V195.251H194.25V193.751Z" fill="white"/>
<path d="M213.751 172.752C210.853 172.756 208.505 175.104 208.501 178.002V178.077L204.676 182.115L202.282 179.72C201.989 179.427 201.514 179.427 201.221 179.72L194.471 186.47C194.179 186.763 194.179 187.237 194.471 187.53L204.971 198.03C205.264 198.323 205.739 198.323 206.031 198.03L208.281 195.78L212.251 191.812V203.501H183.002V205.001H213.001C213.415 205.001 213.751 204.665 213.751 204.251V186.252H212.251V189.691L209.637 187.077L213.676 183.252H213.751C216.651 183.252 219.001 180.901 219.001 178.002C219.001 175.102 216.651 172.752 213.751 172.752V172.752ZM205.501 196.441L196.062 187.001L197.251 185.812L206.691 195.251L205.501 196.441ZM211.19 190.751L207.751 194.191L198.312 184.752L201.751 181.312L203.644 183.205L201.957 184.986C201.675 185.281 201.681 185.748 201.971 186.035L205.721 189.785C206.008 190.072 206.472 190.079 206.766 189.8L208.548 188.112L211.19 190.751ZM213.751 181.752H213.376C213.184 181.752 213 181.825 212.86 181.957L206.265 188.202L203.551 185.487L209.799 178.893C209.93 178.753 210.002 178.568 210.001 178.377V178.002C210.001 175.931 211.68 174.252 213.751 174.252C215.822 174.252 217.501 175.931 217.501 178.002C217.501 180.073 215.822 181.752 213.751 181.752V181.752Z" fill="white"/>
<path d="M188.25 181.752H195.75V183.252H188.25V181.752Z" fill="white"/>
<path d="M183.75 184.751H192.75V186.251H183.75V184.751Z" fill="white"/>
<path d="M190.5 178.752H199.5V180.252H190.5V178.752Z" fill="white"/>
<path d="M183.75 187.752H188.25V189.252H183.75V187.752Z" fill="white"/>
<path d="M183.75 190.752H189.75V192.252H183.75V190.752Z" fill="white"/>
<path d="M183.75 193.751H189.75V195.251H183.75V193.751Z" fill="white"/>
<path d="M183.75 196.752H189.75V198.252H183.75V196.752Z" fill="white"/>
<path d="M183.75 181.752H186.75V183.252H183.75V181.752Z" fill="white"/>
<path d="M189.752 187.752H192.752V189.252H189.752V187.752Z" fill="white"/>
<path d="M192.75 175.002H200.25V176.502H192.75V175.002Z" fill="white"/>
<path d="M183 181.003C187.844 180.997 191.815 177.159 191.984 172.318C192.389 172.657 192.912 172.821 193.438 172.772C193.825 173.235 194.397 173.503 195 173.503C195.603 173.503 196.175 173.235 196.561 172.772C197.162 172.826 197.755 172.611 198.181 172.185C198.608 171.758 198.823 171.165 198.769 170.565C199.232 170.178 199.5 169.606 199.5 169.003C199.5 168.4 199.232 167.828 198.769 167.442C198.823 166.841 198.608 166.248 198.181 165.822C197.755 165.395 197.162 165.18 196.561 165.234C196.175 164.771 195.603 164.503 195 164.503C194.397 164.503 193.825 164.771 193.438 165.234C192.838 165.18 192.244 165.395 191.818 165.822C191.392 166.248 191.177 166.841 191.23 167.442C191.12 167.533 191.019 167.637 190.931 167.751C188.85 163.87 184.267 162.064 180.098 163.483C175.93 164.903 173.4 169.129 174.12 173.474C174.839 177.818 178.597 181.003 183 181.003ZM192.349 168.508C192.549 168.437 192.71 168.285 192.791 168.089C192.872 167.893 192.866 167.672 192.775 167.48C192.678 167.279 192.719 167.038 192.877 166.88C193.035 166.722 193.275 166.681 193.477 166.779C193.668 166.87 193.889 166.875 194.085 166.794C194.281 166.713 194.434 166.552 194.505 166.353C194.579 166.143 194.777 166.002 195 166.002C195.222 166.002 195.421 166.143 195.495 166.353C195.566 166.552 195.718 166.713 195.914 166.794C196.11 166.875 196.331 166.87 196.523 166.779C196.724 166.681 196.965 166.722 197.123 166.88C197.281 167.038 197.321 167.279 197.224 167.48C197.133 167.672 197.128 167.893 197.209 168.089C197.29 168.285 197.45 168.437 197.65 168.508C197.86 168.582 198 168.78 198 169.003C198 169.226 197.86 169.424 197.65 169.498C197.45 169.569 197.29 169.722 197.209 169.917C197.128 170.113 197.133 170.335 197.224 170.526C197.328 170.727 197.286 170.972 197.121 171.126C196.966 171.29 196.722 171.331 196.521 171.23C196.329 171.139 196.108 171.133 195.912 171.215C195.716 171.295 195.564 171.456 195.493 171.656C195.418 171.866 195.22 172.006 194.998 172.006C194.775 172.006 194.577 171.866 194.502 171.656C194.431 171.455 194.279 171.295 194.082 171.214C193.991 171.177 193.894 171.157 193.795 171.157C193.684 171.157 193.574 171.183 193.474 171.232C193.273 171.329 193.033 171.289 192.874 171.131C192.717 170.972 192.676 170.732 192.773 170.531C192.864 170.339 192.87 170.118 192.789 169.922C192.707 169.726 192.547 169.574 192.347 169.503C192.137 169.429 191.997 169.23 191.997 169.007C191.997 168.785 192.137 168.587 192.347 168.513L192.349 168.508ZM183 164.503C187.142 164.503 190.5 167.861 190.5 172.003C190.5 176.145 187.142 179.503 183 179.503C178.858 179.503 175.5 176.145 175.5 172.003C175.505 167.863 178.86 164.508 183 164.503Z" fill="white"/>
<path d="M179.471 176.282C179.764 176.575 180.238 176.575 180.531 176.282L188.031 168.782L186.97 167.722L180.001 174.691L178.281 172.972L177.221 174.032L179.471 176.282Z" fill="white"/>
</g>
</g>
<g opacity="0.5">
<path d="M154.973 175.177L135.15 194.999L154.973 214.821L142.491 214.821L122.669 194.999L142.491 175.177L154.973 175.177Z" fill="url(#paint10_linear_2212_27079)"/>
<path d="M131.791 175.177L111.969 194.999L131.791 214.821L112.859 214.821L93.037 194.999L112.859 175.177L131.791 175.177Z" fill="url(#paint11_linear_2212_27079)"/>
<path d="M96.3164 175.177L76.4941 194.999L96.3164 214.821L90.9999 214.821L71.1776 194.999L90.9999 175.177L96.3164 175.177Z" fill="url(#paint12_linear_2212_27079)"/>
</g>
<defs>
<linearGradient id="paint0_linear_2212_27079" x1="23.3713" y1="-22.2426" x2="274.076" y2="157.181" gradientUnits="userSpaceOnUse">
<stop stop-color="#6510FF"/>
<stop offset="0.21" stop-color="#540DEA"/>
<stop offset="0.64" stop-color="#2806B5"/>
<stop offset="1" stop-color="#000085"/>
</linearGradient>
<linearGradient id="paint1_linear_2212_27079" x1="268.701" y1="81.4541" x2="268.701" y2="218.092" gradientUnits="userSpaceOnUse">
<stop stop-color="#006D88" stop-opacity="0"/>
<stop offset="0.09" stop-color="#00718A" stop-opacity="0.03"/>
<stop offset="0.23" stop-color="#007E8E" stop-opacity="0.13"/>
<stop offset="0.4" stop-color="#009296" stop-opacity="0.28"/>
<stop offset="0.6" stop-color="#00AEA1" stop-opacity="0.49"/>
<stop offset="0.82" stop-color="#00D1AF" stop-opacity="0.76"/>
<stop offset="1" stop-color="#00F1BB"/>
</linearGradient>
<linearGradient id="paint2_linear_2212_27079" x1="316.289" y1="100.965" x2="316.289" y2="418.81" gradientUnits="userSpaceOnUse">
<stop stop-color="#00F1BB"/>
<stop offset="1" stop-color="#006D88" stop-opacity="0"/>
</linearGradient>
<linearGradient id="paint3_linear_2212_27079" x1="289.557" y1="173.427" x2="289.557" y2="367.089" gradientUnits="userSpaceOnUse">
<stop stop-color="#00F1BB"/>
<stop offset="1" stop-color="#006D88" stop-opacity="0"/>
</linearGradient>
<linearGradient id="paint4_linear_2212_27079" x1="321.981" y1="-11.0869" x2="321.981" y2="305.665" gradientUnits="userSpaceOnUse">
<stop stop-color="#C4FF67"/>
<stop offset="0.37" stop-color="#9DEA3C" stop-opacity="0.59"/>
<stop offset="0.68" stop-color="#80DB1C" stop-opacity="0.27"/>
<stop offset="0.89" stop-color="#6DD108" stop-opacity="0.08"/>
<stop offset="1" stop-color="#66CD00" stop-opacity="0"/>
</linearGradient>
<linearGradient id="paint5_linear_2212_27079" x1="-161.516" y1="242.8" x2="-161.516" y2="-28.1408" gradientUnits="userSpaceOnUse">
<stop stop-color="#00F1BB"/>
<stop offset="0.14" stop-color="#00D9B2" stop-opacity="0.82"/>
<stop offset="0.37" stop-color="#00B3A3" stop-opacity="0.53"/>
<stop offset="0.58" stop-color="#009597" stop-opacity="0.3"/>
<stop offset="0.77" stop-color="#007F8F" stop-opacity="0.14"/>
<stop offset="0.91" stop-color="#00728A" stop-opacity="0.04"/>
<stop offset="1" stop-color="#006D88" stop-opacity="0"/>
</linearGradient>
<linearGradient id="paint6_linear_2212_27079" x1="-147.861" y1="241.086" x2="-147.861" y2="-28.1408" gradientUnits="userSpaceOnUse">
<stop stop-color="#00F1BB"/>
<stop offset="0.14" stop-color="#00D9B2" stop-opacity="0.82"/>
<stop offset="0.37" stop-color="#00B3A3" stop-opacity="0.53"/>
<stop offset="0.58" stop-color="#009597" stop-opacity="0.3"/>
<stop offset="0.77" stop-color="#007F8F" stop-opacity="0.14"/>
<stop offset="0.91" stop-color="#00728A" stop-opacity="0.04"/>
<stop offset="1" stop-color="#006D88" stop-opacity="0"/>
</linearGradient>
<linearGradient id="paint7_linear_2212_27079" x1="-108.603" y1="314.089" x2="-108.603" y2="44.8484" gradientUnits="userSpaceOnUse">
<stop stop-color="#C4FF67"/>
<stop offset="0.17" stop-color="#AFF450" stop-opacity="0.78"/>
<stop offset="0.4" stop-color="#95E634" stop-opacity="0.5"/>
<stop offset="0.6" stop-color="#81DB1E" stop-opacity="0.29"/>
<stop offset="0.78" stop-color="#72D40D" stop-opacity="0.13"/>
<stop offset="0.92" stop-color="#69CF04" stop-opacity="0.04"/>
<stop offset="1" stop-color="#66CD00" stop-opacity="0"/>
</linearGradient>
<linearGradient id="paint8_linear_2212_27079" x1="-7.3168" y1="-135.472" x2="-7.3168" y2="42.9289" gradientUnits="userSpaceOnUse">
<stop stop-color="#C4FF67"/>
<stop offset="0.37" stop-color="#9DEA3C" stop-opacity="0.59"/>
<stop offset="0.68" stop-color="#80DB1C" stop-opacity="0.27"/>
<stop offset="0.89" stop-color="#6DD108" stop-opacity="0.08"/>
<stop offset="1" stop-color="#66CD00" stop-opacity="0"/>
</linearGradient>
<linearGradient id="paint9_linear_2212_27079" x1="67.2198" y1="-148.95" x2="67.2198" y2="29.4367" gradientUnits="userSpaceOnUse">
<stop stop-color="#C4FF67"/>
<stop offset="0.37" stop-color="#9DEA3C" stop-opacity="0.59"/>
<stop offset="0.68" stop-color="#80DB1C" stop-opacity="0.27"/>
<stop offset="0.89" stop-color="#6DD108" stop-opacity="0.08"/>
<stop offset="1" stop-color="#66CD00" stop-opacity="0"/>
</linearGradient>
<linearGradient id="paint10_linear_2212_27079" x1="124.225" y1="201.232" x2="159.309" y2="192.33" gradientUnits="userSpaceOnUse">
<stop stop-color="#00F1BB"/>
<stop offset="1" stop-color="#006D88" stop-opacity="0.2"/>
</linearGradient>
<linearGradient id="paint11_linear_2212_27079" x1="94.7997" y1="201.996" x2="135.933" y2="191.548" gradientUnits="userSpaceOnUse">
<stop stop-color="#00F1BB"/>
<stop offset="1" stop-color="#006D88" stop-opacity="0.2"/>
</linearGradient>
<linearGradient id="paint12_linear_2212_27079" x1="72.5207" y1="200.383" x2="100.869" y2="193.179" gradientUnits="userSpaceOnUse">
<stop stop-color="#00F1BB"/>
<stop offset="1" stop-color="#006D88" stop-opacity="0.2"/>
</linearGradient>
<clipPath id="clip0_2212_27079">
<rect x="3.18164" y="3.61035" width="229.393" height="214.55" rx="8.59478" fill="white"/>
</clipPath>
<clipPath id="clip1_2212_27079">
<rect width="45" height="45" fill="white" transform="translate(174 160.001)"/>
</clipPath>
</defs>
</svg>
