<svg width="45" height="45" viewBox="0 0 45 45" fill="none" xmlns="http://www.w3.org/2000/svg">
<g clip-path="url(#clip0_2212_27140)">
<path d="M6.73068 34.4845L5.46396 33.6807L4.91574 34.5446C3.25755 37.1575 3.38059 40.5222 5.22556 43.0069V45.0009H6.72555V42.7509C6.72555 42.5807 6.66769 42.4155 6.56112 42.2822C4.96665 40.2889 4.81467 37.5032 6.18246 35.348L6.73068 34.4845Z" fill="white"/>
<path d="M44.2498 25.501H37.4999C34.6859 25.5043 32.3751 27.7257 32.2605 30.5375L29.9999 34.6068V31.501C29.9966 28.6032 27.6481 26.2543 24.7499 26.251H20.2499C19.4216 26.251 18.7499 25.5798 18.7499 24.751V22.9918C20.8428 21.7913 22.2256 19.6523 22.4611 17.2511H22.4999C23.7703 17.2565 24.9052 16.4582 25.3289 15.2607C25.7526 14.0632 25.3728 12.7284 24.3819 11.9337C24.6243 10.8124 24.6671 9.65697 24.5086 8.52062C26.0829 7.7362 27.0556 6.10546 26.997 4.34729C26.9387 2.58949 25.8603 1.02687 24.2372 0.348649C22.6142 -0.329571 20.7447 0.00111631 19.4527 1.19533C16.3996 -0.461773 12.6994 -0.389996 9.71298 1.38466C6.72654 3.15931 4.89439 6.37463 4.89 9.84886C4.88817 10.2392 4.90977 10.6293 4.95518 11.0171L5.20054 13.0979C4.75084 13.6303 4.50291 14.3042 4.49998 15.0011C4.49998 16.6582 5.84324 18.0011 7.49997 18.0011H7.69736C8.15183 20.0727 9.43612 21.8671 11.25 22.9654V24.751C11.25 25.5798 10.5783 26.251 9.74996 26.251H5.24998C2.3518 26.2543 0.00329588 28.6032 0 31.501V45.001H1.49999V31.501C1.50256 29.4312 3.18016 27.7536 5.24998 27.751H7.57505L14.3616 38.6472C14.4968 38.8644 14.7337 38.998 14.9897 39.001H14.9999C15.2526 39.0013 15.4885 38.8739 15.6269 38.663L22.7859 27.751H24.7499C26.8201 27.7536 28.4973 29.4312 28.4999 31.501V37.501C28.5003 37.8427 28.7313 38.1411 29.062 38.2264C29.3927 38.3121 29.7395 38.1635 29.9054 37.865L33.4408 31.501H37.7251L30.8444 43.8873L32.1554 44.615L39.4408 31.501H39.7499C42.648 31.4977 44.9965 29.1492 44.9998 26.251C44.9998 25.8368 44.664 25.501 44.2498 25.501ZM22.4999 15.7511V12.7511C23.3283 12.7511 23.9999 13.4227 23.9999 14.2511C23.9999 15.0798 23.3283 15.7511 22.4999 15.7511ZM25.4999 4.5011C25.4992 5.49463 25.0044 6.42224 24.1801 6.97631C23.574 5.02844 22.3857 3.31312 20.7751 2.06141C21.6862 1.40626 22.8881 1.31801 23.8853 1.8329C24.8825 2.34779 25.5065 3.37903 25.4999 4.5011ZM14.7451 1.50111C16.3154 1.49708 17.8545 1.93946 19.1835 2.77625C21.1142 3.995 22.4703 5.9425 22.9427 8.17638C22.9427 8.18993 22.9471 8.20385 22.95 8.21739C23.1518 9.23619 23.1602 10.2839 22.9749 11.306C22.8182 11.2752 22.6596 11.2569 22.4999 11.2511V10.5011C22.4988 9.25853 22.1897 8.03576 21.6001 6.94189C21.491 6.74047 21.2962 6.59985 21.0706 6.55993C20.8447 6.51855 20.6125 6.5841 20.4422 6.73791C17.6399 9.23143 14.2056 10.9057 10.515 11.5774L8.18405 12.0011H7.49997C7.19419 12.0044 6.8906 12.0549 6.6002 12.1512L6.45005 10.8336C6.4116 10.5055 6.39329 10.1752 6.39548 9.84483C6.40464 5.23865 10.1385 1.50734 14.7451 1.50111ZM7.49997 16.5011C6.67161 16.5011 5.99998 15.8298 5.99998 15.0011C5.99998 14.1727 6.67161 13.5011 7.49997 13.5011V16.2696C7.49997 16.3443 7.50913 16.4238 7.51132 16.5011H7.49997ZM8.99997 16.2696V13.3777L9.77706 13.2356C9.76022 13.3231 9.75106 13.4121 9.74996 13.5011C9.7496 14.1449 10.1601 14.7169 10.7699 14.9231C11.3796 15.1292 12.0531 14.9231 12.4431 14.4111C12.8331 13.8991 12.8532 13.1953 12.4929 12.6621C15.4467 11.8791 18.2039 10.4875 20.5883 8.57591C20.622 8.59239 20.6586 8.60301 20.6941 8.61803C20.8952 9.22557 20.9985 9.86131 20.9999 10.5011V16.5011C20.9999 18.1622 20.3114 19.749 19.0982 20.8835C17.8853 22.018 16.256 22.5988 14.5989 22.4879C11.3891 22.2073 8.9432 19.4912 8.99997 16.2696ZM15.0164 36.859L12.1501 32.251H18.0435L15.0164 36.859ZM19.0239 30.751H11.2119L9.34274 27.751H9.74996C11.4071 27.751 12.75 26.4081 12.75 24.751V23.6418C13.3176 23.8285 13.9061 23.9439 14.5019 23.9853C14.6715 23.9959 14.8395 24.001 15.0076 24.001C15.7683 24.0003 16.5245 23.8838 17.2499 23.6553V24.751C17.2499 26.4081 18.5932 27.751 20.2499 27.751H20.9919L19.0239 30.751ZM39.7499 30.001H33.825C34.1835 28.2564 35.7186 27.0032 37.4999 27.001H43.4248C43.0662 28.746 41.5315 29.9992 39.7499 30.001Z" fill="white"/>
<path d="M36 11.251C33.9291 11.251 32.25 12.93 32.25 15.001C32.25 17.0722 33.9291 18.7509 36 18.7509C38.0713 18.7509 39.75 17.0722 39.75 15.001C39.7474 12.9311 38.0702 11.2535 36 11.251ZM36 17.251C34.7574 17.251 33.75 16.2439 33.75 15.001C33.75 13.7584 34.7574 12.751 36 12.751C37.2425 12.751 38.25 13.7584 38.25 15.001C38.25 16.2439 37.2425 17.251 36 17.251Z" fill="white"/>
<path d="M44.2499 12.75H43.1506C43.0187 12.3314 42.8499 11.9249 42.6467 11.536L43.4249 10.7574C43.7178 10.4645 43.7178 9.98985 43.4249 9.69689L41.3034 7.57507C41.0104 7.28247 40.5358 7.28247 40.2429 7.57507L39.4643 8.35363C39.0754 8.15002 38.6689 7.98119 38.25 7.84972V6.75C38.25 6.33581 37.9141 6 37.5 6H34.5C34.0858 6 33.75 6.33581 33.75 6.75V7.84972C33.331 7.98156 32.9249 8.15038 32.536 8.35436L31.7574 7.57507C31.4645 7.28247 30.9899 7.28247 30.6969 7.57507L28.5751 9.69689C28.2825 9.98985 28.2825 10.4645 28.5751 10.7574L29.3536 11.536C29.3302 11.5785 29.3086 11.6221 29.287 11.6656C29.1134 12.0154 28.9673 12.3779 28.8497 12.75H27.75C27.3358 12.75 27 13.0858 27 13.5V16.5C27 16.9145 27.3358 17.25 27.75 17.25H28.8497C28.9812 17.6689 29.15 18.0754 29.3536 18.4643L28.5751 19.2429C28.2825 19.5358 28.2825 20.0104 28.5751 20.3034L30.6969 22.4252C30.9899 22.7178 31.4645 22.7178 31.7574 22.4252L32.536 21.6467C32.8469 21.8089 33.1688 21.9495 33.4995 22.0674C33.5819 22.0967 33.6654 22.1242 33.75 22.1513V23.2499C33.75 23.6645 34.0858 23.9999 34.5 23.9999H37.5C37.9141 23.9999 38.25 23.6645 38.25 23.2499V22.1506C38.6689 22.0187 39.0754 21.8499 39.4643 21.6459L40.2429 22.4252C40.5358 22.7178 41.0104 22.7178 41.3034 22.4252L43.4249 20.3034C43.7178 20.0104 43.7178 19.5358 43.4249 19.2429L42.6474 18.4643C42.8507 18.0754 43.0191 17.6689 43.1506 17.25H44.2499C44.6641 17.25 44.9999 16.9145 44.9999 16.5V13.5C44.9999 13.0858 44.6641 12.75 44.2499 12.75ZM43.4999 15.75H42.5775C42.2274 15.75 41.9234 15.992 41.8454 16.3337C41.696 16.9914 41.4356 17.6187 41.0753 18.1893C40.8885 18.4856 40.9321 18.8715 41.1796 19.1191L41.8337 19.7731L40.7731 20.8337L40.1191 20.1796C39.8712 19.9317 39.4845 19.8889 39.1882 20.076C38.6184 20.4371 37.991 20.6989 37.3337 20.8502C36.9935 20.9274 36.7518 21.2288 36.75 21.5775V22.4999H35.25V21.5775C35.25 21.2277 35.0083 20.9245 34.6673 20.8465C34.4414 20.7952 34.2187 20.7304 34.0005 20.6528C33.5841 20.5045 33.1853 20.3107 32.811 20.0753C32.5148 19.8889 32.1288 19.9321 31.8812 20.1796L31.2272 20.8337L30.1666 19.7731L30.8207 19.1191C31.0682 18.8715 31.1114 18.4856 30.9247 18.1893C30.5643 17.6187 30.3039 16.9914 30.1545 16.3337C30.0769 15.992 29.7729 15.75 29.4225 15.75H28.5V14.25H29.4225C29.7729 14.2503 30.0769 14.0083 30.1545 13.6666C30.2596 13.2052 30.4193 12.758 30.6302 12.3347C30.72 12.1545 30.8185 11.9806 30.9247 11.8095C31.1111 11.5137 31.0679 11.128 30.8207 10.8805L30.1666 10.2264L31.2272 9.16588L31.8812 9.81993C32.1291 10.0675 32.5155 10.1107 32.8117 9.92357C33.3823 9.56359 34.0093 9.30321 34.6666 9.15306C35.0075 9.07543 35.2496 8.77257 35.25 8.42248V7.49999H36.75V8.42248C36.75 8.77257 36.9924 9.07616 37.3337 9.1538C37.9907 9.30394 38.618 9.56432 39.1882 9.9243C39.4845 10.1114 39.8712 10.0682 40.1191 9.82067L40.7731 9.16661L41.8337 10.2272L41.1796 10.8812C40.9321 11.1288 40.8885 11.5148 41.0753 11.811C41.4356 12.3812 41.696 13.0089 41.8454 13.6666C41.9234 14.0083 42.2274 14.2503 42.5775 14.25H43.4999V15.75Z" fill="white"/>
<path d="M18.75 35.2505V38.2505C18.75 38.665 19.0858 39.0005 19.5 39.0005H24.7284C24.6412 40.1991 24.1937 41.3431 23.4444 42.2824C23.3382 42.4154 23.28 42.5805 23.28 42.7505V45.0004H24.78V43.0057C25.6432 41.8401 26.1482 40.4485 26.2328 39.0005H26.25C26.6642 39.0005 27 38.665 27 38.2505V35.2505C27 34.8363 26.6642 34.5005 26.25 34.5005H25.0576L24.5325 33.6758L23.2665 34.4803L23.2778 34.4976H19.5C19.3008 34.4976 19.1093 34.577 18.9686 34.7184C18.828 34.8597 18.7493 35.0513 18.75 35.2505ZM20.25 36.0005H25.5V37.5005H20.25V36.0005Z" fill="white"/>
<path d="M20.25 13.5019C20.25 14.3307 19.5784 15.0019 18.75 15.0019C17.9216 15.0019 17.25 14.3307 17.25 13.5019C17.25 12.6736 17.9216 12.002 18.75 12.002C19.5784 12.002 20.25 12.6736 20.25 13.5019Z" fill="white"/>
</g>
<defs>
<clipPath id="clip0_2212_27140">
<rect width="45" height="45" fill="white" transform="translate(0 0.000976562)"/>
</clipPath>
</defs>
</svg>
