<svg width="48" height="43" viewBox="0 0 48 43" fill="none" xmlns="http://www.w3.org/2000/svg">
<path d="M44.814 0.000976562H14.206C13.8204 0.000976562 13.5078 0.313492 13.5078 0.69918C13.5078 1.08487 13.8204 1.39738 14.206 1.39738H44.814C45.6155 1.39738 46.2676 2.04941 46.2676 2.85086V8.20486H1.39641V2.85086C1.39641 2.04941 2.04843 1.39738 2.84997 1.39738H11.1978C11.5834 1.39738 11.896 1.08487 11.896 0.69918C11.896 0.313492 11.5834 0.000976562 11.1978 0.000976562H2.84997C1.27846 0.000976563 0 1.27943 0 2.85086V40.1511C0 41.7225 1.27846 43.001 2.84997 43.001H44.814C46.3854 43.001 47.664 41.7225 47.664 40.1511V2.85086C47.664 1.27943 46.3855 0.000976562 44.814 0.000976562ZM8.56909 22.1969H11.5497C12.4298 22.1969 13.1458 21.481 13.1458 20.6009V18.2747C13.1458 18.1623 13.2373 18.0708 13.3497 18.0708H14.4373C14.5425 18.0708 14.6317 18.1529 14.6407 18.2576L15.0039 22.5567C15.0471 23.0684 14.8795 23.5586 14.532 23.9368C14.1844 24.315 13.7101 24.5233 13.1964 24.5233H12.4477C12.0621 24.5233 11.7495 24.8358 11.7495 25.2215V41.6024H8.36941V25.2214C8.36941 24.8357 8.0568 24.5232 7.6712 24.5232H6.15499C5.84098 24.5232 5.55118 24.3959 5.33865 24.1647C5.12611 23.9334 5.02371 23.6339 5.05015 23.3211L5.4781 18.2574C5.48695 18.1527 5.57622 18.0706 5.68142 18.0706H6.76903C6.88149 18.0706 6.973 18.1621 6.973 18.2745V20.6007C6.973 21.4809 7.68908 22.1969 8.56909 22.1969ZM35.5687 25.2399L33.7101 24.0317C33.6003 23.9604 33.5548 23.8201 33.6017 23.698L35.7661 18.0707H38.869L41.0333 23.698V23.6981C41.0802 23.8201 41.0348 23.9604 40.925 24.0317L39.0664 25.2398C38.8058 25.4091 38.6502 25.6958 38.6502 26.0066V32.8332H35.9847V26.0066C35.9848 25.6959 35.8293 25.4091 35.5687 25.2399ZM41.0213 34.2296C41.4739 34.2296 41.8421 34.5978 41.8421 35.0504C41.8421 35.503 41.4738 35.8712 41.0213 35.8712H40.9857C40.6001 35.8712 40.2875 36.1837 40.2875 36.5694V41.6022H39.1726V37.899C39.1801 37.8581 39.184 37.8159 39.184 37.7729C39.184 37.3872 38.8714 37.0747 38.4858 37.0747H38.4744C38.0888 37.0747 37.7762 37.3872 37.7762 37.7729V41.6023H36.6799V37.712C36.6799 37.3264 36.3673 37.0138 35.9817 37.0138C35.5961 37.0138 35.2835 37.3264 35.2835 37.712V41.6023H33.8891V36.5087C33.8891 36.198 33.6836 35.9246 33.3852 35.8381C33.0365 35.7371 32.793 35.4133 32.793 35.0505C32.793 34.5979 33.1613 34.2297 33.6138 34.2297H41.0213V34.2296ZM44.814 41.6046H41.6838V37.1666C42.5838 36.8842 43.2385 36.0423 43.2385 35.0505C43.2385 33.8279 42.2438 32.8333 41.0213 32.8333H40.0467V26.2682L41.6862 25.2026C42.3454 24.7741 42.619 23.9304 42.3366 23.1967V23.1968L40.1068 17.3993C39.94 16.9656 39.5159 16.6743 39.0513 16.6743H35.5838C35.1191 16.6743 34.6949 16.9657 34.5283 17.3993L32.2984 23.1968C32.0162 23.9305 32.2898 24.7741 32.9489 25.2026L34.5883 26.2681V32.8332H33.6137C32.3911 32.8332 31.3965 33.8279 31.3965 35.0504C31.3965 35.8445 31.8281 36.5696 32.4926 36.9617V41.6045H13.1458V25.9196H13.1963C14.0923 25.9196 14.9538 25.5412 15.5601 24.8816C16.1663 24.2219 16.4707 23.3317 16.3953 22.439L16.032 18.1399C15.9625 17.3181 15.2621 16.6743 14.4373 16.6743H13.3497C12.4673 16.6743 11.7494 17.3923 11.7494 18.2747V20.6009C11.7494 20.711 11.6598 20.8005 11.5497 20.8005H8.56909C8.45896 20.8005 8.36941 20.711 8.36941 20.6009V18.2747C8.36941 17.3923 7.65147 16.6743 6.76903 16.6743H5.68142C4.8567 16.6743 4.15626 17.3181 4.08672 18.1399L3.65877 23.2037C3.59993 23.9002 3.83742 24.5949 4.31052 25.1098C4.78362 25.6245 5.45585 25.9197 6.15499 25.9197H6.973V41.6046H2.84988C2.04843 41.6046 1.39631 40.9525 1.39631 40.1511V9.60127H46.2675V40.1511C46.2676 40.9525 45.6156 41.6046 44.814 41.6046Z" fill="white"/>
<path d="M4.4375 4.80257C4.4375 6.04156 5.44552 7.04958 6.6845 7.04958C7.92349 7.04958 8.93151 6.04156 8.93151 4.80257C8.93151 3.56359 7.92349 2.55566 6.6845 2.55566C5.44552 2.55566 4.4375 3.56368 4.4375 4.80257ZM7.5351 4.80257C7.5351 5.27158 7.15351 5.65317 6.6845 5.65317C6.2155 5.65317 5.83391 5.27158 5.83391 4.80257C5.83391 4.33357 6.2155 3.95198 6.6845 3.95198C7.15351 3.95198 7.5351 4.33357 7.5351 4.80257Z" fill="white"/>
<path d="M10.4551 4.80267C10.4551 6.04165 11.4631 7.04967 12.7021 7.04967C13.9411 7.04967 14.9491 6.04165 14.9491 4.80267C14.9491 3.56368 13.9411 2.55566 12.7021 2.55566C11.4631 2.55566 10.4551 3.56378 10.4551 4.80267ZM12.7021 3.95216C13.1711 3.95216 13.5527 4.33375 13.5527 4.80276C13.5527 5.27177 13.1711 5.65336 12.7021 5.65336C12.2331 5.65336 11.8515 5.27177 11.8515 4.80276C11.8515 4.33375 12.2331 3.95216 12.7021 3.95216Z" fill="white"/>
<path d="M20.9686 4.80267C20.9686 3.56368 19.9606 2.55566 18.7216 2.55566C17.4826 2.55566 16.4746 3.56368 16.4746 4.80267C16.4746 6.04165 17.4826 7.04967 18.7216 7.04967C19.9606 7.04967 20.9686 6.04165 20.9686 4.80267ZM17.871 4.80267C17.871 4.33366 18.2526 3.95207 18.7216 3.95207C19.1906 3.95207 19.5722 4.33366 19.5722 4.80267C19.5722 5.27167 19.1906 5.65327 18.7216 5.65327C18.2526 5.65327 17.871 5.27167 17.871 4.80267Z" fill="white"/>
<path d="M23.5421 26.7139C23.1565 26.7139 22.8439 27.0264 22.8439 27.4121C22.8439 27.7978 23.1565 28.1103 23.5421 28.1103C24.5034 28.1103 25.2854 28.8923 25.2854 29.8535C25.2854 30.8148 24.5034 31.5968 23.5421 31.5968C22.5809 31.5968 21.7988 30.8148 21.7988 29.8535C21.7988 29.7349 21.8108 29.6163 21.8342 29.5015C21.9115 29.1236 21.6679 28.7548 21.2901 28.6775C20.9121 28.6006 20.5434 28.8439 20.4661 29.2216C20.4238 29.4285 20.4023 29.6411 20.4023 29.8535C20.4023 31.5848 21.8108 32.9932 23.542 32.9932C25.2733 32.9932 26.6817 31.5848 26.6817 29.8535C26.6817 28.1223 25.2734 26.7139 23.5421 26.7139Z" fill="white"/>
<path d="M31.0128 26.5922L30.101 25.0128C29.7944 24.4818 29.166 24.219 28.5726 24.374L27.0074 24.7829C26.7501 24.6066 26.4803 24.4505 26.2003 24.3157L25.772 22.7571C25.6096 22.1658 25.0679 21.7529 24.4546 21.7529H22.631C22.0179 21.7529 21.4761 22.1659 21.3136 22.7571L20.8853 24.3157C20.6053 24.4504 20.3355 24.6066 20.0783 24.7829L18.513 24.374C17.92 24.2194 17.2913 24.4818 16.9847 25.0128L16.073 26.5921C15.7663 27.1232 15.853 27.7989 16.2839 28.2351L17.4206 29.3863C17.4083 29.5439 17.4021 29.6996 17.4021 29.8521C17.4021 30.0046 17.4082 30.1603 17.4206 30.3178L16.284 31.469C15.8532 31.9054 15.7664 32.5809 16.073 33.112L16.9848 34.6914C17.2914 35.2224 17.92 35.485 18.5131 35.3301L20.0783 34.9213C20.3357 35.0975 20.6055 35.2537 20.8854 35.3884L21.3137 36.9471C21.4762 37.5384 22.0179 37.9512 22.6311 37.9512H24.4547C25.0679 37.9512 25.6097 37.5383 25.7721 36.947L26.2004 35.3884C26.4804 35.2538 26.7502 35.0975 27.0076 34.9213L28.5727 35.3301C29.1662 35.485 29.7946 35.2224 30.1012 34.6914L31.013 33.112C31.3196 32.5809 31.2328 31.9053 30.802 31.469L29.6654 30.3178C29.6777 30.1602 29.6839 30.0045 29.6839 29.8521C29.6839 29.6997 29.6778 29.5439 29.6654 29.3863L30.802 28.2351C31.2326 27.7988 31.3195 27.1232 31.0128 26.5922ZM28.4395 28.6403C28.288 28.7938 28.2158 29.0087 28.2442 29.2227C28.2728 29.438 28.2872 29.6498 28.2872 29.8523C28.2872 30.0547 28.2728 30.2664 28.2442 30.482C28.2159 30.6959 28.288 30.9107 28.4395 31.0643L29.7919 32.434L28.903 33.9734L27.0406 33.487C26.8314 33.4324 26.6087 33.4777 26.4375 33.6099C26.1027 33.8683 25.7363 34.0804 25.3483 34.2402C25.1487 34.3225 24.9982 34.4925 24.9411 34.7008L24.4316 36.5551H22.6538L22.1443 34.7008C22.0871 34.4925 21.9367 34.3224 21.737 34.2402C21.3491 34.0805 20.9826 33.8684 20.6477 33.6099C20.4765 33.4778 20.2539 33.4324 20.0446 33.4871L18.1822 33.9735L17.2934 32.4341L18.6458 31.0644C18.7973 30.9108 18.8695 30.6959 18.8411 30.482C18.8125 30.2668 18.7981 30.055 18.7981 29.8524C18.7981 29.6497 18.8125 29.4379 18.8411 29.2228C18.8695 29.0088 18.7973 28.794 18.6458 28.6404L17.2934 27.2707L18.1822 25.7311L20.0446 26.2176C20.2539 26.2722 20.4766 26.2268 20.6477 26.0948C20.9826 25.8363 21.3491 25.6241 21.7371 25.4644C21.9367 25.3821 22.0871 25.212 22.1443 25.0039L22.6538 23.1496H24.4316L24.9411 25.0039C24.9983 25.212 25.1486 25.3821 25.3483 25.4644C25.7363 25.6242 26.1028 25.8363 26.4377 26.0948C26.6088 26.2268 26.8315 26.2722 27.0408 26.2176L28.9031 25.7311L29.792 27.2706L28.4395 28.6403Z" fill="white"/>
</svg>
