<svg width="39" height="45" viewBox="0 0 39 45" fill="none" xmlns="http://www.w3.org/2000/svg">
<path d="M17.631 4.16923H37.8648C38.2284 4.16923 38.5231 3.87453 38.5231 3.51093C38.5231 3.14732 38.2284 2.85254 37.8648 2.85254H17.631C17.2674 2.85254 16.9727 3.14724 16.9727 3.51093C16.9727 3.87453 17.2674 4.16923 17.631 4.16923V4.16923Z" fill="white"/>
<path d="M37.8648 6.11621H17.631C17.2674 6.11621 16.9727 6.41091 16.9727 6.7746C16.9727 7.1382 17.2674 7.4329 17.631 7.4329H37.8648C38.2284 7.4329 38.5231 7.1382 38.5231 6.7746C38.5231 6.411 38.2284 6.11621 37.8648 6.11621V6.11621Z" fill="white"/>
<path d="M17.631 10.6995H31.3611C31.7247 10.6995 32.0194 10.4048 32.0194 10.0412C32.0194 9.6776 31.7247 9.38281 31.3611 9.38281H17.631C17.2674 9.38281 16.9727 9.67751 16.9727 10.0412C16.9727 10.4048 17.2674 10.6995 17.631 10.6995Z" fill="white"/>
<path d="M37.8648 18.5771H17.631C17.2674 18.5771 16.9727 18.8718 16.9727 19.2354C16.9727 19.5991 17.2674 19.8937 17.631 19.8937H37.8648C38.2284 19.8937 38.5231 19.5991 38.5231 19.2354C38.5231 18.8718 38.2284 18.5771 37.8648 18.5771V18.5771Z" fill="white"/>
<path d="M37.8648 21.8418H17.631C17.2674 21.8418 16.9727 22.1365 16.9727 22.5002C16.9727 22.8639 17.2674 23.1586 17.631 23.1586H37.8648C38.2284 23.1586 38.5231 22.8639 38.5231 22.5002C38.5231 22.1365 38.2284 21.8418 37.8648 21.8418V21.8418Z" fill="white"/>
<path d="M17.631 26.424H31.3611C31.7247 26.424 32.0194 26.1293 32.0194 25.7657C32.0194 25.4021 31.7247 25.1074 31.3611 25.1074H17.631C17.2674 25.1074 16.9727 25.4021 16.9727 25.7657C16.9727 26.1293 17.2674 26.424 17.631 26.424Z" fill="white"/>
<path d="M14.4693 32.4292C14.0982 32.1029 13.6224 31.941 13.129 31.9721C12.6358 32.0038 12.1845 32.2255 11.858 32.5966L11.5238 32.9766C10.3572 32.0249 8.87029 31.4521 7.25091 31.4521C3.51556 31.4521 0.476562 34.4911 0.476562 38.2264C0.476562 41.9618 3.51547 45.0007 7.25091 45.0007C10.9863 45.0007 14.0253 41.9618 14.0253 38.2264C14.0253 37.4909 13.9048 36.7838 13.6867 36.1205L14.6366 35.0405C14.963 34.6695 15.1254 34.1935 15.0938 33.7003C15.0621 33.2071 14.8403 32.7557 14.4693 32.4292ZM7.25091 43.684C4.24153 43.684 1.79334 41.2357 1.79334 38.2264C1.79334 35.2171 4.24162 32.7688 7.25091 32.7688C8.53745 32.7688 9.72037 33.2175 10.6543 33.9651L7.86579 37.1352L6.86524 35.968C6.54365 35.5928 6.09515 35.3653 5.60243 35.3272C5.11033 35.289 4.63168 35.4455 4.25639 35.7671C3.48181 36.4312 3.39181 37.6014 4.05573 38.3761L6.44293 41.1611C6.79168 41.5681 7.29898 41.8036 7.83494 41.8072C7.83986 41.8073 7.84461 41.8073 7.84777 41.8073C8.37951 41.8073 8.88576 41.5784 9.23697 41.1791L12.6322 37.3193C12.6821 37.6144 12.7087 37.9173 12.7087 38.2264C12.7085 41.2357 10.2602 43.684 7.25091 43.684V43.684ZM13.6479 34.1709L8.2482 40.3095C8.14748 40.4239 8.00255 40.4899 7.85023 40.4906C7.84821 40.4906 7.8461 40.4906 7.84408 40.4906C7.68957 40.4896 7.54323 40.4217 7.4426 40.3043L5.05531 37.5192C4.86389 37.2959 4.8899 36.9584 5.11323 36.7669C5.21079 36.6833 5.33234 36.6385 5.45943 36.6385C5.47332 36.6385 5.48721 36.639 5.50118 36.6402C5.6433 36.6511 5.77259 36.7167 5.8654 36.8249L7.35937 38.5679C7.48347 38.7126 7.66426 38.7966 7.85498 38.7978C8.04799 38.8005 8.22755 38.7175 8.35349 38.5742L12.8466 33.4662C12.9407 33.3592 13.0708 33.2952 13.2131 33.2862C13.355 33.2767 13.4925 33.3239 13.5995 33.4179C13.7066 33.5121 13.7705 33.6422 13.7796 33.7844C13.7888 33.9266 13.742 34.0638 13.6479 34.1709Z" fill="white"/>
<path d="M37.8648 34.3027H17.631C17.2674 34.3027 16.9727 34.5974 16.9727 34.961C16.9727 35.3246 17.2674 35.6193 17.631 35.6193H37.8648C38.2284 35.6193 38.5231 35.3246 38.5231 34.961C38.5231 34.5974 38.2284 34.3027 37.8648 34.3027V34.3027Z" fill="white"/>
<path d="M37.8648 37.5693H17.631C17.2674 37.5693 16.9727 37.864 16.9727 38.2276C16.9727 38.5912 17.2674 38.886 17.631 38.886H37.8648C38.2284 38.886 38.5231 38.5913 38.5231 38.2276C38.5231 37.8641 38.2284 37.5693 37.8648 37.5693V37.5693Z" fill="white"/>
<path d="M31.3611 40.833H17.631C17.2674 40.833 16.9727 41.1277 16.9727 41.4913C16.9727 41.8549 17.2674 42.1497 17.631 42.1497H31.3611C31.7247 42.1497 32.0194 41.855 32.0194 41.4913C32.0194 41.1276 31.7247 40.833 31.3611 40.833V40.833Z" fill="white"/>
<path d="M14.4693 0.978057C14.0982 0.651719 13.6224 0.489648 13.129 0.52085C12.6358 0.55249 12.1845 0.774238 11.858 1.14531L11.5247 1.52438C10.3581 0.572793 8.87029 0.000976562 7.25091 0.000976562C5.57351 0.000976562 3.9638 0.618672 2.71839 1.74042C2.44821 1.98379 2.4265 2.40004 2.66987 2.6703C2.91315 2.94048 3.32949 2.96219 3.59967 2.71891C4.60276 1.81539 5.8995 1.31775 7.25091 1.31775C8.53745 1.31775 9.72037 1.76644 10.6542 2.51412L7.86579 5.68416L6.86516 4.5168C6.54356 4.14159 6.09506 3.91404 5.60234 3.87607C5.11024 3.83784 4.63159 3.99438 4.2563 4.31597C3.48172 4.97998 3.39172 6.15024 4.05564 6.92482L6.44284 9.70981C6.79159 10.1168 7.2989 10.3523 7.83485 10.356C7.83978 10.3561 7.84452 10.3561 7.84769 10.3561C8.37942 10.3561 8.88567 10.1271 9.23688 9.72783L12.632 5.86803C12.6818 6.16316 12.7085 6.46603 12.7085 6.77515C12.7085 9.78443 10.2602 12.2327 7.25091 12.2327C4.24162 12.2327 1.79334 9.78443 1.79334 6.77515C1.79334 6.12968 1.9047 5.49818 2.12442 4.89833C2.24949 4.55688 2.07406 4.17877 1.73261 4.0537C1.39133 3.92872 1.01305 4.10406 0.887979 4.44552C0.614991 5.19092 0.476562 5.97473 0.476562 6.77515C0.476562 10.5105 3.51547 13.5494 7.25091 13.5494C10.9863 13.5494 14.0253 10.5105 14.0253 6.77515C14.0253 6.03933 13.9063 5.33102 13.6884 4.66727L14.6366 3.58929C14.963 3.21821 15.1254 2.74229 15.0938 2.24904C15.0621 1.75589 14.8403 1.30448 14.4693 0.978057V0.978057ZM13.6479 2.7197L8.2482 8.85833C8.14748 8.97276 8.00255 9.03868 7.85023 9.03947C7.84821 9.03947 7.8461 9.03938 7.84408 9.03938C7.68957 9.03842 7.54323 8.97057 7.4426 8.85314L5.05531 6.06807C4.86389 5.84474 4.8899 5.50724 5.11323 5.31572C5.21079 5.23214 5.33234 5.18731 5.45943 5.18731C5.47332 5.18731 5.48721 5.18784 5.50118 5.18898C5.6433 5.19988 5.77259 5.26554 5.8654 5.37373L7.35937 7.11669C7.48347 7.26145 7.66426 7.34538 7.85498 7.34661C8.04799 7.34521 8.22755 7.26628 8.35349 7.12302L12.8466 2.01499C12.9407 1.90803 13.0708 1.84404 13.2131 1.83499C13.355 1.82585 13.4925 1.8727 13.5995 1.96674C13.7066 2.06096 13.7705 2.19104 13.7796 2.33333C13.7888 2.47545 13.742 2.61265 13.6479 2.7197V2.7197Z" fill="white"/>
<path d="M14.4693 16.7036C14.0982 16.3773 13.6224 16.2149 13.129 16.2465C12.6358 16.2782 12.1845 16.4999 11.858 16.871L11.5234 17.2515C10.3569 16.2998 8.87029 15.7266 7.25091 15.7266C3.51556 15.7266 0.476562 18.7655 0.476562 22.5008C0.476562 26.2362 3.51547 29.2751 7.25091 29.2751C10.9863 29.2751 14.0252 26.2362 14.0252 22.5008C14.0252 21.7652 13.9057 21.0572 13.6876 20.3936L14.6365 19.3149C14.963 18.9438 15.1253 18.4679 15.0937 17.9746C15.0621 17.4815 14.8403 17.0301 14.4693 16.7036ZM13.6479 18.4453L10.847 21.6294C10.6068 21.9023 10.6335 22.3184 10.9065 22.5585C11.1794 22.7988 11.5954 22.7721 11.8356 22.499L12.6318 21.5939C12.6817 21.8889 12.7085 22.1918 12.7085 22.5008C12.7085 25.5101 10.2602 27.9584 7.25091 27.9584C4.24162 27.9584 1.79325 25.5101 1.79325 22.5008C1.79325 19.4915 4.24153 17.0433 7.25082 17.0433C8.53736 17.0433 9.72011 17.4922 10.654 18.2397L7.8657 21.4097L6.86516 20.2424C6.54356 19.8672 6.09506 19.6396 5.60234 19.6017C5.11024 19.563 4.63159 19.7199 4.2563 20.0416C3.48172 20.7056 3.39172 21.8758 4.05564 22.6504L6.44284 25.4354C6.79159 25.8424 7.2989 26.0779 7.83485 26.0816C7.83978 26.0817 7.84452 26.0817 7.84769 26.0817C8.37942 26.0817 8.88567 25.8527 9.23688 25.4535L9.84825 24.7586C10.0884 24.4856 10.0618 24.0695 9.78875 23.8294C9.51576 23.589 9.09969 23.6159 8.85957 23.8888L8.2482 24.5838C8.14757 24.6982 8.0029 24.7641 7.85006 24.765C7.84812 24.765 7.8461 24.7649 7.84408 24.7649C7.68957 24.7639 7.54323 24.6961 7.4426 24.5786L5.05531 21.7935C4.86389 21.5701 4.8899 21.2326 5.11323 21.0411C5.22151 20.9484 5.35968 20.903 5.50127 20.9144C5.64339 20.9253 5.77268 20.9909 5.86549 21.0991L7.35945 22.8421C7.48355 22.9869 7.66435 23.0708 7.85507 23.072H7.85929C8.04852 23.072 8.2286 22.9906 8.35358 22.8485L12.8466 17.7405C12.9408 17.6335 13.0709 17.5695 13.2131 17.5605C13.3551 17.5512 13.4926 17.5982 13.5996 17.6922C13.7066 17.7865 13.7705 17.9165 13.7797 18.0588C13.7888 18.201 13.742 18.3382 13.6479 18.4453V18.4453Z" fill="white"/>
</svg>
