<svg width="45" height="45" viewBox="0 0 45 45" fill="none" xmlns="http://www.w3.org/2000/svg">
<g clip-path="url(#clip0_2212_27094)">
<path d="M39.7499 11.2517V3.75193C39.7499 3.33776 39.4141 3.00195 38.9999 3.00195H36V4.5019H38.2499V11.2517H39.7499Z" fill="white"/>
<path d="M5.25 22.501V41.2504C5.25 41.6645 5.5858 42.0003 5.99998 42.0003H35.999C36.4132 42.0003 36.749 41.6645 36.749 41.2504V36.0005H35.249V40.5004H6.74995V22.501H5.25Z" fill="white"/>
<path d="M29.5598 0.0780005C29.5363 0.0673806 29.514 0.0615215 29.4898 0.053099C29.4272 0.0314932 29.362 0.0186762 29.2957 0.0142818C29.2792 0.0113523 29.265 0.00292969 29.2492 0.00292969H5.99998C5.5858 0.00292969 5.25 0.338734 5.25 0.752905V2.25286H6.74995V1.50288H28.4992V7.50268C28.4992 7.91685 28.835 8.25266 29.2492 8.25266H35.249V12.0025H36.749V7.50268C36.749 7.48694 36.7409 7.47266 36.7398 7.45618C36.7358 7.38989 36.7226 7.32471 36.701 7.26209C36.6926 7.23792 36.6867 7.21558 36.6761 7.19215C36.6398 7.11048 36.5889 7.03615 36.5263 6.97243L29.7765 0.222649C29.7132 0.162226 29.6399 0.113156 29.5598 0.0780005V0.0780005ZM34.1885 6.75271H29.9992V2.56339L34.1885 6.75271Z" fill="white"/>
<path d="M17.252 31.5019V37.5017C17.252 37.9159 17.5878 38.2517 18.0019 38.2517H27.7516V36.7518H18.7519V32.2519H22.5018V30.752H18.0019C17.5878 30.752 17.252 31.0878 17.252 31.5019Z" fill="white"/>
<path d="M20.25 33.751H24.7499V35.2509H20.25V33.751Z" fill="white"/>
<path d="M39.7509 12.752C36.8532 12.7556 34.5048 15.104 34.5011 18.0018V18.0769L30.6762 22.1146L28.2816 19.72C27.9886 19.427 27.514 19.427 27.2211 19.72L20.4713 26.4698C20.1787 26.7627 20.1787 27.2373 20.4713 27.5303L30.971 38.0299C31.2639 38.3225 31.7385 38.3225 32.0315 38.0299L34.2814 35.78L38.251 31.8119V43.5009H9.00195V45.0009H39.001C39.4151 45.0009 39.7509 44.6651 39.7509 44.2509V26.2515H38.251V29.6909L35.6367 27.0766L39.6759 23.2516H39.7509C42.6505 23.2516 45.0008 20.9013 45.0008 18.0018C45.0008 15.1022 42.6505 12.752 39.7509 12.752V12.752ZM31.5012 36.4406L22.0621 27.0015L23.2515 25.8121L32.6906 35.2512L31.5012 36.4406ZM37.1905 30.7514L33.7511 34.1907L24.312 24.7516L27.7513 21.3122L29.6442 23.2051L27.9568 24.9856C27.6748 25.2811 27.6814 25.7476 27.9711 26.0355L31.7209 29.7853C32.008 30.0724 32.4716 30.0787 32.7664 29.7996L34.5476 28.1122L37.1905 30.7514ZM39.7509 21.7517H39.376C39.1841 21.7517 38.9995 21.8253 38.86 21.9571L32.2655 28.2015L29.5512 25.4873L35.7986 18.8927C35.9297 18.7529 36.0018 18.5683 36.0011 18.3768V18.0018C36.0011 15.9309 37.6801 14.2519 39.7509 14.2519C41.8218 14.2519 43.5008 15.9309 43.5008 18.0018C43.5008 20.0726 41.8218 21.7517 39.7509 21.7517V21.7517Z" fill="white"/>
<path d="M14.25 21.752H21.7498V23.2519H14.25V21.752Z" fill="white"/>
<path d="M9.75 24.751H18.7497V26.2509H9.75V24.751Z" fill="white"/>
<path d="M16.5 18.752H25.4997V20.2519H16.5V18.752Z" fill="white"/>
<path d="M9.75 27.752H14.2499V29.2519H9.75V27.752Z" fill="white"/>
<path d="M9.75 30.752H15.7498V32.2519H9.75V30.752Z" fill="white"/>
<path d="M9.75 33.751H15.7498V35.2509H9.75V33.751Z" fill="white"/>
<path d="M9.75 36.752H15.7498V38.2519H9.75V36.752Z" fill="white"/>
<path d="M9.75 21.752H12.7499V23.2519H9.75V21.752Z" fill="white"/>
<path d="M15.752 27.752H18.7519V29.2519H15.752V27.752Z" fill="white"/>
<path d="M18.75 15.002H26.2498V16.5019H18.75V15.002Z" fill="white"/>
<path d="M9.00017 21.0027C13.8439 20.9972 17.8146 17.1587 17.9841 12.3179C18.3891 12.657 18.9124 12.8207 19.4383 12.7724C19.8246 13.2352 20.3966 13.5029 20.9998 13.5029C21.6029 13.5029 22.1749 13.2352 22.5612 12.7724C23.1618 12.8262 23.7551 12.6109 24.1813 12.1846C24.6076 11.7583 24.8229 11.1651 24.7691 10.5645C25.2323 10.1782 25.4996 9.60619 25.4996 9.00306C25.4996 8.39994 25.2323 7.82793 24.7691 7.44159C24.8229 6.84103 24.6076 6.24778 24.1813 5.82153C23.7551 5.39527 23.1618 5.17995 22.5612 5.23378C22.1749 4.7709 21.6029 4.50321 20.9998 4.50321C20.3966 4.50321 19.8246 4.7709 19.4383 5.23378C18.8377 5.17995 18.2445 5.39527 17.8182 5.82153C17.392 6.24778 17.1767 6.84103 17.2305 7.44159C17.1195 7.53314 17.0188 7.63678 16.9306 7.75066C14.8498 3.86969 10.2669 2.06433 6.09841 3.48335C1.92997 4.90274 -0.599734 9.1294 0.119847 13.4736C0.839427 17.8178 4.59699 21.0034 9.00017 21.0027ZM18.3492 8.50796C18.5492 8.43692 18.7096 8.28458 18.7909 8.08867C18.8718 7.89275 18.8663 7.67157 18.7755 7.48004C18.6781 7.27863 18.7187 7.03804 18.8766 6.87984C19.0348 6.72201 19.2753 6.68136 19.4768 6.77877C19.6683 6.86959 19.8895 6.87508 20.0854 6.79415C20.2813 6.71286 20.4336 6.55246 20.5047 6.35252C20.579 6.14268 20.7771 6.00243 20.9998 6.00243C21.2224 6.00243 21.4205 6.14268 21.4949 6.35252C21.5659 6.55246 21.7183 6.71286 21.9142 6.79415C22.1101 6.87508 22.3313 6.86959 22.5232 6.77877C22.7242 6.68136 22.9648 6.72201 23.123 6.87984C23.2808 7.03804 23.3215 7.27863 23.2241 7.48004C23.1332 7.67157 23.1278 7.89275 23.2087 8.08867C23.29 8.28458 23.4504 8.43692 23.6503 8.50796C23.8602 8.5823 24.0004 8.78042 24.0004 9.00306C24.0004 9.22571 23.8602 9.42383 23.6503 9.49817C23.4504 9.56921 23.29 9.72155 23.2087 9.91746C23.1278 10.1134 23.1332 10.3346 23.2241 10.5265C23.3277 10.7268 23.2856 10.9718 23.1208 11.1263C22.9655 11.2896 22.7216 11.3314 22.5206 11.2299C22.3291 11.1387 22.1079 11.1332 21.912 11.2145C21.7161 11.2955 21.5637 11.4559 21.4927 11.6558C21.4183 11.8656 21.2199 12.0059 20.9976 12.0059C20.7749 12.0059 20.5768 11.8656 20.5025 11.6558C20.4314 11.4555 20.2787 11.2951 20.0824 11.2142C19.9913 11.1768 19.8939 11.1574 19.7953 11.157C19.684 11.1574 19.5742 11.183 19.4742 11.2321C19.2731 11.3292 19.0326 11.2885 18.8744 11.1307C18.7165 10.9725 18.6759 10.7319 18.7733 10.5308C18.8641 10.3393 18.8696 10.1181 18.7887 9.92222C18.7074 9.72594 18.547 9.5736 18.347 9.50256C18.1372 9.42859 17.9969 9.23011 17.9969 9.00746C17.9969 8.78518 18.1372 8.5867 18.347 8.51272L18.3492 8.50796ZM9.00017 4.50321C13.1422 4.50321 16.4999 7.86089 16.4999 12.003C16.4999 16.145 13.1422 19.5027 9.00017 19.5027C4.85809 19.5027 1.50042 16.145 1.50042 12.003C1.50481 7.86272 4.85993 4.50761 9.00017 4.50321Z" fill="white"/>
<path d="M5.47063 16.2819C5.76359 16.5745 6.23818 16.5745 6.53114 16.2819L14.0309 8.78219L12.9704 7.72168L6.00089 14.6912L4.28122 12.9715L3.2207 14.032L5.47063 16.2819Z" fill="white"/>
</g>
<defs>
<clipPath id="clip0_2212_27094">
<rect width="45" height="45" fill="white" transform="translate(0 0.000976562)"/>
</clipPath>
</defs>
</svg>
