<svg width="45" height="45" viewBox="0 0 45 45" fill="none" xmlns="http://www.w3.org/2000/svg">
<path d="M44.9505 44.0915C43.9844 41.7366 41.9129 40.0562 39.4094 39.5963L30.4671 37.9538L29.42 36.0022V32.4409L30.2441 31.761C31.9011 30.394 32.8851 28.4095 32.977 26.2755C34.5452 26.1464 35.8843 25.0064 36.3514 23.5102L38.7957 25.2628C38.912 25.3462 39.0463 25.3863 39.1792 25.3863C39.3845 25.3863 39.5868 25.2908 39.7155 25.1112C39.9276 24.8154 39.8598 24.4035 39.5639 24.1915L36.5282 22.0149V16.7644L44.7248 10.8876C45.0206 10.6754 45.0885 10.2637 44.8765 9.96782C44.6642 9.67181 44.2523 9.60413 43.9566 9.81621L36.3531 15.2678C36.2523 14.9462 36.1096 14.6431 35.9326 14.3637V11.5687C35.9326 8.78113 34.6216 6.10645 32.2411 4.03725C30.1339 2.2057 27.4328 1.08985 24.7564 0.931031C24.6388 0.399823 24.1647 0.000976562 23.5986 0.000976562H21.4013C20.835 0.000976562 20.3607 0.400174 20.2433 0.931735C17.548 1.09187 14.8262 2.22355 12.7165 4.07408C10.3634 6.13827 9.06733 8.79985 9.06733 11.5687V14.4512C8.9035 14.7099 8.76982 14.9892 8.67086 15.2845L1.0433 9.81568C0.747373 9.60352 0.335607 9.67137 0.123528 9.96729C-0.0886396 10.2631 -0.0207004 10.675 0.275138 10.8871L8.4717 16.7639V22.015L0.275138 27.8919C-0.0207004 28.1041 -0.0886396 28.5158 0.123528 28.8117C0.252287 28.9912 0.454522 29.0868 0.659834 29.0868C0.792812 29.0868 0.927108 29.0466 1.04339 28.9633L8.62814 23.5251C9.07049 25.0293 10.4086 26.1527 12.023 26.2765C12.1151 28.4101 13.099 30.3943 14.7558 31.7611L15.6446 32.4944V35.8924L14.585 37.9765L5.76617 39.5963C3.2627 40.0562 1.19131 41.7366 0.225129 44.0915C0.0869651 44.4283 0.24798 44.8133 0.584776 44.9516C0.666689 44.9852 0.751416 45.0011 0.834736 45.0011C1.09419 45.0011 1.34028 44.8468 1.44487 44.5919C2.23984 42.6542 3.94429 41.2714 6.00435 40.8931L14.933 39.2531C17.2801 40.4152 19.644 41.0525 21.9726 41.1514V44.3418C21.9726 44.7058 22.2677 45.001 22.6318 45.001C22.9959 45.001 23.291 44.7058 23.291 44.3418V41.1494C25.6088 41.0444 27.9111 40.402 30.1478 39.2357L39.1713 40.8931C41.2313 41.2714 42.9358 42.6542 43.7308 44.5919C43.8353 44.8468 44.0814 45.0011 44.3409 45.0011C44.4242 45.0011 44.5089 44.9852 44.5908 44.9516C44.9276 44.8133 45.0886 44.4283 44.9505 44.0915ZM12.3221 13.9747L14.5486 13.9651C14.9126 13.9635 15.2066 13.6671 15.205 13.3031C15.2034 12.94 14.9086 12.6467 14.5458 12.6467C14.5448 12.6467 14.5439 12.6467 14.5429 12.6467L13.3333 12.652V12.1297C13.3333 11.3785 13.5302 10.5382 13.9185 9.63234C14.2093 8.95418 14.7539 8.44363 15.4523 8.19464C16.1586 7.94274 16.9135 7.99504 17.578 8.34176C18.4122 8.77691 19.2973 9.0956 20.2148 9.29344V10.1943C19.3791 10.3504 18.7443 11.0839 18.7443 11.9642V12.6286L17.6192 12.6334C17.2552 12.635 16.9614 12.9314 16.9629 13.2954C16.9644 13.6585 17.2592 13.9518 17.622 13.9518H17.6249L32.6807 13.8868C33.896 13.8868 34.9135 14.7484 35.1552 15.8928H9.86511C10.1392 14.7925 11.1357 13.9747 12.3221 13.9747ZM31.6665 12.5728L26.2557 12.5962V11.9642C26.2557 11.0839 25.6208 10.3504 24.7852 10.1943V9.30662C25.6986 9.11195 26.5787 8.79326 27.4065 8.35495C28.0609 8.00857 28.8367 7.95065 29.5354 8.19622C30.2362 8.44257 30.7836 8.95199 31.0768 9.63059C31.4681 10.5362 31.6666 11.377 31.6666 12.1296V12.5728H31.6665ZM24.4538 11.4807C24.7204 11.4807 24.9372 11.6975 24.9372 11.9641V12.6018L20.0626 12.6228V11.9641C20.0626 11.6975 20.2794 11.4807 20.546 11.4807H24.4538ZM34.6142 11.5687V13.0921C34.1285 12.8085 33.5754 12.6285 32.9848 12.5817V12.1295C32.9848 11.196 32.75 10.1793 32.287 9.10755C31.8527 8.10226 31.0091 7.31679 29.9725 6.95239C28.9279 6.58536 27.7679 6.67176 26.7897 7.1897C26.1532 7.52667 25.4813 7.78252 24.7851 7.95434V2.25536C29.5392 2.60147 34.6142 6.49941 34.6142 11.5687ZM23.4667 1.31933V10.1623H21.5332V1.31933H23.4667ZM20.2148 2.25475V7.94063C19.5119 7.76599 18.8324 7.50918 18.1878 7.17282C17.2086 6.662 16.0502 6.58176 15.0099 6.95266C13.9771 7.32083 13.1377 8.10815 12.7071 9.11274C12.248 10.1837 12.0152 11.1986 12.0152 12.1295V12.6694C11.4248 12.7158 10.8717 12.8958 10.3858 13.1795V11.5687C10.3857 6.52428 15.4793 2.60051 20.2148 2.25475ZM9.78996 22.4414V17.2111H35.2099V22.3535C35.2099 23.7721 34.0515 24.9707 32.6806 24.9707H30.2581C29.6523 24.9707 29.1595 24.4779 29.1595 23.8721V21.6718C29.1595 20.3391 28.0752 19.2548 26.7425 19.2548H18.2574C16.9246 19.2548 15.8404 20.3391 15.8404 21.6718V23.8721C15.8404 24.4779 15.3476 24.9707 14.7418 24.9707H12.3194C10.9246 24.9707 9.78996 23.836 9.78996 22.4414ZM25.6438 24.9707H19.356V22.7704H25.6439V24.9707H25.6438ZM26.303 21.4521H18.6969C18.3328 21.4521 18.0377 21.7472 18.0377 22.1113V24.9707H16.8935C17.0626 24.6408 17.1588 24.2676 17.1588 23.8721V21.6718C17.1588 21.066 17.6516 20.5732 18.2574 20.5732H26.7425C27.3483 20.5732 27.8411 21.066 27.8411 21.6718V23.8721C27.8411 24.2676 27.9372 24.6408 28.1064 24.9707H26.9622V22.1113C26.9621 21.7472 26.6671 21.4521 26.303 21.4521ZM13.3428 26.289H31.657C31.5627 28.0229 30.7539 29.6314 29.4052 30.7441L25.8493 33.6776C25.2648 34.1599 24.5255 34.4255 23.7676 34.4255H21.2321C20.4743 34.4255 19.735 34.1599 19.1505 33.6776C18.3254 32.9973 16.3908 31.3997 15.5946 30.7441C14.2459 29.6314 13.4371 28.0228 13.3428 26.289ZM22.6122 39.8481C20.4128 39.8481 18.1634 39.3161 15.917 38.2655L16.5944 36.9329C18.3846 37.7647 20.1633 38.2366 21.8903 38.337C22.2539 38.3587 22.5655 38.0807 22.5866 37.7172C22.6078 37.3538 22.3302 37.0421 21.9668 37.021C20.3471 36.9268 18.6655 36.4653 16.9628 35.6488V33.5821L18.3115 34.6948C19.1316 35.3714 20.1688 35.7441 21.232 35.7441H23.7675C24.8308 35.7441 25.868 35.3714 26.6881 34.6948L28.1015 33.5287V35.6431C27.0259 36.1904 25.9405 36.5821 24.8703 36.8051C24.5138 36.8794 24.2851 37.2285 24.3594 37.5849C24.4338 37.9413 24.7831 38.1701 25.1391 38.0957C26.2348 37.8674 27.3402 37.4835 28.4334 36.9523L29.1403 38.2697C27.0012 39.3175 24.808 39.8481 22.6122 39.8481Z" fill="white"/>
<path d="M44.7249 27.8914L42.0688 25.9868C41.7729 25.7747 41.3611 25.8424 41.1489 26.1384C40.9368 26.4342 41.0046 26.846 41.3005 27.0581L43.9565 28.9627C44.0729 29.0461 44.2072 29.0863 44.3402 29.0863C44.5454 29.0863 44.7476 28.9908 44.8764 28.8112C45.0885 28.5154 45.0206 28.1035 44.7249 27.8914Z" fill="white"/>
<path d="M0.274032 7.61111L7.08459 12.5152C7.20113 12.5992 7.33578 12.6395 7.4692 12.6395C7.67398 12.6395 7.87587 12.5443 8.00471 12.3655C8.21741 12.07 8.15044 11.658 7.85495 11.4453L1.04439 6.54122C0.748905 6.32861 0.337137 6.39559 0.124266 6.69099C-0.0884291 6.98639 -0.0213685 7.39833 0.274032 7.61111Z" fill="white"/>
<path d="M1.04375 32.2201L3.91865 30.1556C4.21431 29.9432 4.2819 29.5314 4.06956 29.2356C3.85721 28.94 3.44536 28.8724 3.14961 29.0847L0.274704 31.1493C-0.0209602 31.3616 -0.0885481 31.7735 0.123796 32.0692C0.252555 32.2485 0.454704 32.3439 0.659753 32.3439C0.792907 32.344 0.927292 32.3037 1.04375 32.2201Z" fill="white"/>
<path d="M6.03089 28.4856C6.16413 28.4856 6.29851 28.4453 6.41497 28.3616L8.41975 26.9211C8.71542 26.7087 8.78283 26.2967 8.5704 26.0012C8.35797 25.7055 7.94602 25.638 7.65045 25.8505L5.64566 27.2911C5.35 27.5035 5.28259 27.9154 5.49502 28.211C5.62378 28.3902 5.82584 28.4856 6.03089 28.4856Z" fill="white"/>
<path d="M37.5309 12.6395C37.6644 12.6395 37.799 12.5992 37.9156 12.5152L44.7261 7.61111C45.0215 7.39842 45.0886 6.98647 44.8758 6.69099C44.6632 6.39559 44.2512 6.32861 43.9557 6.54122L37.1451 11.4453C36.8497 11.658 36.7826 12.07 36.9954 12.3655C37.1242 12.5443 37.3261 12.6395 37.5309 12.6395Z" fill="white"/>
<path d="M36.4285 26.0012C36.2161 26.2969 36.2837 26.7087 36.5793 26.9212L43.957 32.2208C44.0735 32.3045 44.2079 32.3446 44.3411 32.3446C44.5462 32.3446 44.7482 32.2493 44.8771 32.07C45.0894 31.7743 45.0218 31.3624 44.7262 31.15L37.3485 25.8504C37.0528 25.638 36.641 25.7055 36.4285 26.0012Z" fill="white"/>
<path d="M5.67134 18.2822C6.03538 18.2822 6.33052 17.9871 6.33052 17.623C6.33052 17.259 6.03538 16.9639 5.67134 16.9639H5.67046C5.30642 16.9639 5.01172 17.259 5.01172 17.623C5.01172 17.9871 5.3073 18.2822 5.67134 18.2822Z" fill="white"/>
<path d="M2.94585 22.501C2.58181 22.501 2.28711 22.7961 2.28711 23.1602C2.28711 23.5242 2.58269 23.8193 2.94673 23.8193C3.31077 23.8193 3.60591 23.5242 3.60591 23.1602C3.60591 22.7961 3.31077 22.501 2.94673 22.501H2.94585Z" fill="white"/>
<path d="M1.54048 18.3701H1.5396C1.17556 18.3701 0.880859 18.6653 0.880859 19.0293C0.880859 19.3933 1.17644 19.6885 1.54048 19.6885C1.90452 19.6885 2.19966 19.3933 2.19966 19.0293C2.19966 18.6653 1.90452 18.3701 1.54048 18.3701Z" fill="white"/>
<path d="M5.01074 20.1719H4.4834C4.11936 20.1719 3.82422 20.467 3.82422 20.8311C3.82422 21.1951 4.11936 21.4902 4.4834 21.4902H5.01074V22.0176C5.01074 22.3816 5.30588 22.6768 5.66992 22.6768C6.03396 22.6768 6.3291 22.3816 6.3291 22.0176V21.4902H6.85645C7.22049 21.4902 7.51562 21.1951 7.51562 20.8311C7.51562 20.467 7.22049 20.1719 6.85645 20.1719H6.3291V19.6445C6.3291 19.2805 6.03396 18.9854 5.66992 18.9854C5.30588 18.9854 5.01074 19.2805 5.01074 19.6445V20.1719Z" fill="white"/>
<path d="M2.68164 14.0635C2.3176 14.0635 2.02246 14.3586 2.02246 14.7227V15.25H1.49512C1.13107 15.25 0.835938 15.5451 0.835938 15.9092C0.835938 16.2732 1.13107 16.5684 1.49512 16.5684H2.02246V17.0957C2.02246 17.4597 2.3176 17.7549 2.68164 17.7549C3.04568 17.7549 3.34082 17.4597 3.34082 17.0957V16.5684H3.86816C4.23221 16.5684 4.52734 16.2732 4.52734 15.9092C4.52734 15.5451 4.23221 15.25 3.86816 15.25H3.34082V14.7227C3.34082 14.3586 3.04568 14.0635 2.68164 14.0635Z" fill="white"/>
<path d="M39.3334 18.2822C39.6976 18.2822 39.9926 17.9871 39.9926 17.623C39.9926 17.259 39.6976 16.9639 39.3334 16.9639H39.3326C38.9685 16.9639 38.6738 17.259 38.6738 17.623C38.6738 17.9871 38.9695 18.2822 39.3334 18.2822Z" fill="white"/>
<path d="M42.0572 22.501C41.6931 22.501 41.3984 22.7961 41.3984 23.1602C41.3984 23.5242 41.694 23.8193 42.0581 23.8193C42.4222 23.8193 42.7172 23.5242 42.7172 23.1602C42.7172 22.7961 42.4222 22.501 42.0581 22.501H42.0572Z" fill="white"/>
<path d="M43.4643 18.3701H43.4634C43.0994 18.3701 42.8047 18.6653 42.8047 19.0293C42.8047 19.3933 43.1003 19.6885 43.4643 19.6885C43.8284 19.6885 44.1235 19.3933 44.1235 19.0293C44.1235 18.6653 43.8284 18.3701 43.4643 18.3701Z" fill="white"/>
<path d="M39.3301 22.6768C39.6942 22.6768 39.9893 22.3816 39.9893 22.0176V21.4902H40.5166C40.8807 21.4902 41.1758 21.1951 41.1758 20.8311C41.1758 20.467 40.8807 20.1719 40.5166 20.1719H39.9893V19.6445C39.9893 19.2805 39.6942 18.9854 39.3301 18.9854C38.9659 18.9854 38.6709 19.2805 38.6709 19.6445V20.1719H38.1436C37.7794 20.1719 37.4844 20.467 37.4844 20.8311C37.4844 21.1951 37.7794 21.4902 38.1436 21.4902H38.6709V22.0176C38.6709 22.3816 38.9659 22.6768 39.3301 22.6768Z" fill="white"/>
<path d="M42.3184 14.0635C41.9542 14.0635 41.6592 14.3586 41.6592 14.7227V15.25H41.1318C40.7677 15.25 40.4727 15.5451 40.4727 15.9092C40.4727 16.2732 40.7677 16.5684 41.1318 16.5684H41.6592V17.0957C41.6592 17.4597 41.9542 17.7549 42.3184 17.7549C42.6825 17.7549 42.9775 17.4597 42.9775 17.0957V16.5684H43.5049C43.869 16.5684 44.1641 16.2732 44.1641 15.9092C44.1641 15.5451 43.869 15.25 43.5049 15.25H42.9775V14.7227C42.9775 14.3586 42.6824 14.0635 42.3184 14.0635Z" fill="white"/>
<path d="M22.4503 31.6575C24.8837 31.6575 26.8634 29.9664 26.8634 27.8877V27.6553C26.8634 27.2912 26.5684 26.9961 26.2043 26.9961H18.6963C18.3322 26.9961 18.0371 27.2912 18.0371 27.6553V27.8877C18.0371 29.9664 20.0168 31.6575 22.4503 31.6575ZM25.4981 28.3145C25.2425 29.4634 23.973 30.3392 22.4503 30.3392C20.9276 30.3392 19.6581 29.4634 19.4024 28.3145H25.4981Z" fill="white"/>
</svg>
