<svg width="35" height="45" viewBox="0 0 35 45" fill="none" xmlns="http://www.w3.org/2000/svg">
<path fill-rule="evenodd" clip-rule="evenodd" d="M27.7167 0.00998774C31.7171 -0.00878053 31.8672 -0.00948457 32.3238 0.122071C33.4087 0.43461 34.2049 1.40835 34.2049 2.56086V39.1566C34.2049 40.6341 32.909 41.5529 32.3323 41.5529C31.5924 41.5529 31.3845 40.5657 32.0665 40.2869C32.5374 40.0945 32.8416 39.6508 32.8416 39.1567V7.9954H1.71093V9.88312C1.71093 10.247 1.4058 10.542 1.02929 10.542C0.652879 10.542 0.347656 10.2471 0.347656 9.88312V2.56086C0.347656 1.15795 1.52845 0.0166023 2.97965 0.0166023C16.8631 0.0609086 23.9745 0.0275445 27.7167 0.00998774ZM1.71102 6.67748H32.8416V2.56077C32.8416 1.88595 32.2738 1.33443 31.573 1.33443C19.4179 1.33617 12.4146 1.33476 8.37373 1.33395H8.3737H8.37368H8.37365C2.90793 1.33285 2.86231 1.33285 2.81917 1.34318L2.81808 1.34344C2.81434 1.34434 2.81028 1.34532 2.80244 1.34639C2.1829 1.43059 1.71102 1.94598 1.71102 2.56086V6.67748ZM24.4221 11.2015C24.4221 11.5654 24.1169 11.8604 23.7404 11.8604H10.8112C10.4348 11.8604 10.1296 11.5654 10.1296 11.2015C10.1296 10.8376 10.4347 10.5426 10.8112 10.5426H23.7404C24.1169 10.5426 24.4221 10.8375 24.4221 11.2015ZM6.41503 19.3123V17.5979C6.41503 16.7898 7.09512 16.1324 7.93105 16.1324H26.622C27.458 16.1324 28.138 16.7898 28.138 17.5979V19.3123C28.138 20.1204 27.458 20.7778 26.622 20.7778H7.93105C7.09512 20.7778 6.41503 20.1204 6.41503 19.3123ZM26.7746 19.3123V17.5979C26.7746 17.5165 26.7061 17.4503 26.622 17.4503H7.93105C7.84686 17.4503 7.7784 17.5165 7.7784 17.5979V19.3123C7.7784 19.3937 7.84686 19.4599 7.93105 19.4599H26.6219C26.7061 19.4599 26.7746 19.3937 26.7746 19.3123ZM6.41503 26.7706C6.41503 27.5787 7.09512 28.2361 7.93105 28.2361H26.622C27.458 28.2361 28.138 27.5787 28.138 26.7706V25.0563C28.138 24.2482 27.458 23.5908 26.622 23.5908H7.93105C7.09512 23.5908 6.41503 24.2482 6.41503 25.0563V26.7706ZM7.7784 25.0563C7.7784 24.9749 7.84686 24.9087 7.93105 24.9087H26.622C26.7062 24.9087 26.7747 24.9749 26.7747 25.0563V26.7706C26.7747 26.852 26.7062 26.9182 26.622 26.9182H7.93105C7.84686 26.9182 7.7784 26.852 7.7784 26.7706V25.0563ZM15.6918 31.5221H18.863C20.152 31.5221 21.2008 32.5359 21.2008 33.782V33.8716C21.2008 35.1177 20.152 36.1315 18.863 36.1315H15.6918C14.4027 36.1315 13.3539 35.1177 13.3539 33.8716V33.782C13.3539 32.5359 14.4027 31.5221 15.6918 31.5221ZM18.863 34.8137C19.4003 34.8137 19.8375 34.3911 19.8375 33.8717V33.7821C19.8375 33.2627 19.4003 32.8401 18.863 32.8401H15.6918C15.1545 32.8401 14.7173 33.2627 14.7173 33.7821V33.8717C14.7173 34.3911 15.1545 34.8137 15.6918 34.8137H18.863ZM20.5179 40.384H2.97956C2.28001 40.384 1.71093 39.8338 1.71093 39.1577V12.5199C1.71093 12.1559 1.40571 11.8609 1.02929 11.8609C0.652788 11.8609 0.347656 12.156 0.347656 12.5199V39.1577C0.347656 40.5606 1.52836 41.7019 2.97965 41.7019H20.518C20.8945 41.7019 21.1996 41.4069 21.1996 41.043C21.1996 40.6791 20.8944 40.384 20.5179 40.384ZM5.35532 1.98906C4.20535 1.98906 3.26977 2.89337 3.26977 4.00501C3.26977 5.11665 4.20535 6.02104 5.35532 6.02104C6.50529 6.02104 7.44078 5.11665 7.44078 4.00501C7.44078 2.89337 6.5052 1.98906 5.35532 1.98906ZM5.35532 4.70313C4.95717 4.70313 4.63313 4.38997 4.63313 4.00501C4.63313 3.62005 4.95708 3.30698 5.35532 3.30698C5.75346 3.30698 6.07742 3.62014 6.07742 4.00501C6.07742 4.38988 5.75346 4.70313 5.35532 4.70313ZM8.72566 4.00501C8.72566 2.89337 9.66115 1.98906 10.8111 1.98906C11.9611 1.98906 12.8967 2.89337 12.8967 4.00501C12.8967 5.11665 11.9611 6.02104 10.8111 6.02104C9.66115 6.02104 8.72566 5.11665 8.72566 4.00501ZM10.089 4.00501C10.089 4.38997 10.413 4.70313 10.8111 4.70313C11.2094 4.70313 11.5333 4.38988 11.5333 4.00501C11.5333 3.62014 11.2093 3.30698 10.8111 3.30698C10.413 3.30698 10.089 3.62005 10.089 4.00501ZM16.2671 1.98906C15.1171 1.98906 14.1816 2.89337 14.1816 4.00501C14.1816 5.11665 15.1171 6.02104 16.2671 6.02104C17.4171 6.02104 18.3526 5.11665 18.3526 4.00501C18.3526 2.89337 17.4171 1.98906 16.2671 1.98906ZM16.2671 4.70313C15.869 4.70313 15.5449 4.38997 15.5449 4.00501C15.5449 3.62005 15.8689 3.30698 16.2671 3.30698C16.6652 3.30698 16.9892 3.62014 16.9892 4.00501C16.9892 4.38988 16.6653 4.70313 16.2671 4.70313ZM31.4194 37.2669C31.7833 37.4699 32.0006 37.8337 32.0006 38.2398C32.0006 38.6461 31.7834 39.0098 31.4193 39.2128L29.7023 40.1711L31.0223 42.3811C31.3587 42.9442 31.1584 43.6668 30.5758 43.9919L29.0503 44.8434C28.8587 44.9504 28.6492 45.0012 28.4424 45.0012C28.0205 45.0012 27.6096 44.7897 27.3839 44.4119L26.0639 42.2019L24.3469 43.1601C23.983 43.3633 23.5486 43.3633 23.1847 43.1601C22.8207 42.957 22.6035 42.5932 22.6035 42.1871V34.2928C22.6035 33.8865 22.8207 33.5228 23.1847 33.3197C23.5485 33.1166 23.983 33.1166 24.3469 33.3197L31.4194 37.2669ZM28.3371 39.8176C28.423 39.5078 28.6285 39.2488 28.9159 39.0884L30.4363 38.2399L23.9669 34.6294V41.8505L25.4872 41.0021C25.6823 40.8932 25.8957 40.8414 26.1062 40.8414C26.5358 40.8414 26.9542 41.0567 27.184 41.4415L28.4928 43.6329L29.77 42.9201L28.4612 40.7288C28.2952 40.451 28.2512 40.1274 28.3371 39.8176Z" fill="white"/>
</svg>
