<svg width="115" height="115" viewBox="0 0 115 115" fill="none" xmlns="http://www.w3.org/2000/svg">
<rect width="115" height="115" rx="57.5" fill="url(#paint0_linear_2959_13363)"/>
<rect opacity="0.5" x="5.5" y="5.5" width="103" height="103" rx="51.5" stroke="url(#paint1_linear_2959_13363)"/>
<circle cx="57" cy="57" r="42.5" fill="url(#paint2_linear_2959_13363)" stroke="white" stroke-width="5"/>
<g clip-path="url(#clip0_2959_13363)">
<path d="M48.4062 59.3438H35.9062C35.699 59.3438 35.5003 59.2614 35.3538 59.1149C35.2073 58.9684 35.125 58.7697 35.125 58.5625V57C35.125 55.1352 35.8658 53.3468 37.1844 52.0282C38.503 50.7095 40.2914 49.9688 42.1562 49.9688C44.0211 49.9688 45.8095 50.7095 47.1281 52.0282C48.4467 53.3468 49.1875 55.1352 49.1875 57V58.5625C49.1875 58.7697 49.1052 58.9684 48.9587 59.1149C48.8122 59.2614 48.6135 59.3438 48.4062 59.3438ZM36.6875 57.7812H47.625V57C47.625 55.5496 47.0488 54.1586 46.0232 53.133C44.9977 52.1074 43.6067 51.5312 42.1562 51.5312C40.7058 51.5312 39.3148 52.1074 38.2893 53.133C37.2637 54.1586 36.6875 55.5496 36.6875 57V57.7812Z" fill="white"/>
<path d="M42.1563 51.5313C41.2292 51.5313 40.3229 51.2563 39.552 50.7413C38.7812 50.2262 38.1804 49.4941 37.8256 48.6376C37.4708 47.7811 37.378 46.8386 37.5588 45.9293C37.7397 45.02 38.1861 44.1847 38.8417 43.5292C39.4972 42.8736 40.3325 42.4272 41.2418 42.2463C42.1511 42.0655 43.0936 42.1583 43.9501 42.5131C44.8066 42.8679 45.5387 43.4687 46.0538 44.2395C46.5688 45.0104 46.8438 45.9167 46.8438 46.8438C46.8425 48.0866 46.3483 49.2781 45.4694 50.1569C44.5906 51.0358 43.3991 51.53 42.1563 51.5313ZM42.1563 43.7188C41.5382 43.7188 40.934 43.902 40.4201 44.2454C39.9062 44.5888 39.5057 45.0768 39.2691 45.6479C39.0326 46.2189 38.9707 46.8472 39.0913 47.4534C39.2119 48.0596 39.5095 48.6164 39.9465 49.0535C40.3836 49.4905 40.9404 49.7881 41.5466 49.9087C42.1528 50.0293 42.7811 49.9674 43.3521 49.7309C43.9232 49.4944 44.4112 49.0938 44.7546 48.5799C45.098 48.066 45.2813 47.4618 45.2813 46.8438C45.2813 46.015 44.952 45.2201 44.366 44.634C43.7799 44.048 42.9851 43.7188 42.1563 43.7188Z" fill="white"/>
<path d="M78.0938 78.0938H65.5938C65.3865 78.0938 65.1878 78.0114 65.0413 77.8649C64.8948 77.7184 64.8125 77.5197 64.8125 77.3125V75.75C64.8125 73.8852 65.5533 72.0968 66.8719 70.7782C68.1905 69.4595 69.9789 68.7188 71.8438 68.7188C73.7086 68.7188 75.497 69.4595 76.8156 70.7782C78.1342 72.0968 78.875 73.8852 78.875 75.75V77.3125C78.875 77.5197 78.7927 77.7184 78.6462 77.8649C78.4997 78.0114 78.301 78.0938 78.0938 78.0938ZM66.375 76.5312H77.3125V75.75C77.3125 74.2996 76.7363 72.9086 75.7107 71.883C74.6852 70.8574 73.2942 70.2812 71.8438 70.2812C70.3933 70.2812 69.0023 70.8574 67.9768 71.883C66.9512 72.9086 66.375 74.2996 66.375 75.75V76.5312Z" fill="white"/>
<path d="M71.8438 70.2813C70.9167 70.2813 70.0104 70.0063 69.2395 69.4913C68.4687 68.9762 67.8679 68.2441 67.5131 67.3876C67.1583 66.5311 67.0655 65.5886 67.2463 64.6793C67.4272 63.77 67.8736 62.9347 68.5292 62.2792C69.1847 61.6236 70.02 61.1772 70.9293 60.9963C71.8386 60.8155 72.7811 60.9083 73.6376 61.2631C74.4941 61.6179 75.2262 62.2187 75.7413 62.9895C76.2563 63.7604 76.5313 64.6667 76.5313 65.5938C76.53 66.8366 76.0358 68.0281 75.1569 68.9069C74.2781 69.7858 73.0866 70.28 71.8438 70.2813ZM71.8438 62.4688C71.2257 62.4688 70.6215 62.652 70.1076 62.9954C69.5937 63.3388 69.1932 63.8268 68.9566 64.3979C68.7201 64.9689 68.6582 65.5972 68.7788 66.2034C68.8994 66.8096 69.197 67.3664 69.634 67.8035C70.0711 68.2405 70.6279 68.5381 71.2341 68.6587C71.8403 68.7793 72.4686 68.7174 73.0396 68.4809C73.6107 68.2444 74.0987 67.8438 74.4421 67.3299C74.7855 66.816 74.9688 66.2118 74.9688 65.5938C74.9688 64.765 74.6395 63.9701 74.0535 63.384C73.4674 62.798 72.6726 62.4688 71.8438 62.4688Z" fill="white"/>
<path d="M74.969 59.3438H56.219C55.1834 59.3425 54.1906 58.9306 53.4583 58.1983C52.726 57.466 52.314 56.4731 52.3128 55.4375V52.3125H49.969C49.8218 52.3126 49.6776 52.271 49.553 52.1927C49.4283 52.1143 49.3284 52.0024 49.2646 51.8697C49.2008 51.737 49.1759 51.589 49.1925 51.4427C49.2092 51.2965 49.2669 51.1579 49.3589 51.043L52.3128 47.3508V46.0625C52.314 45.0269 52.726 44.034 53.4583 43.3017C54.1906 42.5694 55.1834 42.1575 56.219 42.1562H74.969C76.0047 42.1575 76.9975 42.5694 77.7298 43.3017C78.4621 44.034 78.8741 45.0269 78.8753 46.0625V55.4375C78.8741 56.4731 78.4621 57.466 77.7298 58.1983C76.9975 58.9306 76.0047 59.3425 74.969 59.3438ZM51.5948 50.75H53.094C53.3012 50.75 53.5 50.8323 53.6465 50.9788C53.793 51.1253 53.8753 51.324 53.8753 51.5312V55.4375C53.8753 56.0591 54.1222 56.6552 54.5618 57.0948C55.0013 57.5343 55.5974 57.7812 56.219 57.7812H74.969C75.5906 57.7812 76.1868 57.5343 76.6263 57.0948C77.0659 56.6552 77.3128 56.0591 77.3128 55.4375V46.0625C77.3128 45.4409 77.0659 44.8448 76.6263 44.4052C76.1868 43.9657 75.5906 43.7188 74.969 43.7188H56.219C55.5974 43.7188 55.0013 43.9657 54.5618 44.4052C54.1222 44.8448 53.8753 45.4409 53.8753 46.0625V47.625C53.8754 47.8025 53.815 47.9747 53.7042 48.1133L51.5948 50.75Z" fill="white"/>
<path d="M57.7812 78.0938H39.0312C37.9956 78.0925 37.0028 77.6806 36.2705 76.9483C35.5382 76.216 35.1262 75.2231 35.125 74.1875V64.8125C35.1262 63.7769 35.5382 62.784 36.2705 62.0517C37.0028 61.3194 37.9956 60.9075 39.0312 60.9062H57.7812C58.8169 60.9075 59.8097 61.3194 60.542 62.0517C61.2743 62.784 61.6863 63.7769 61.6875 64.8125V66.1008L64.6414 69.793C64.7334 69.9079 64.7911 70.0465 64.8078 70.1927C64.8244 70.339 64.7995 70.487 64.7357 70.6197C64.6719 70.7524 64.572 70.8643 64.4473 70.9427C64.3227 71.021 64.1785 71.0626 64.0312 71.0625H61.6875V74.1875C61.6863 75.2231 61.2743 76.216 60.542 76.9483C59.8097 77.6806 58.8169 78.0925 57.7812 78.0938ZM39.0312 62.4688C38.4096 62.4688 37.8135 62.7157 37.374 63.1552C36.9344 63.5948 36.6875 64.1909 36.6875 64.8125V74.1875C36.6875 74.8091 36.9344 75.4052 37.374 75.8448C37.8135 76.2843 38.4096 76.5312 39.0312 76.5312H57.7812C58.4028 76.5312 58.999 76.2843 59.4385 75.8448C59.8781 75.4052 60.125 74.8091 60.125 74.1875V70.2812C60.125 70.074 60.2073 69.8753 60.3538 69.7288C60.5003 69.5823 60.699 69.5 60.9062 69.5H62.4055L60.2961 66.8633C60.1853 66.7247 60.1249 66.5525 60.125 66.375V64.8125C60.125 64.1909 59.8781 63.5948 59.4385 63.1552C58.999 62.7157 58.4028 62.4688 57.7812 62.4688H39.0312Z" fill="white"/>
<path d="M59.3438 53.0938C58.8802 53.0938 58.4271 52.9563 58.0416 52.6988C57.6562 52.4412 57.3558 52.0752 57.1784 51.6469C57.001 51.2187 56.9546 50.7474 57.045 50.2928C57.1355 49.8381 57.3587 49.4205 57.6865 49.0927C58.0142 48.7649 58.4319 48.5417 58.8865 48.4513C59.3412 48.3609 59.8124 48.4073 60.2407 48.5847C60.6689 48.7621 61.035 49.0625 61.2925 49.4479C61.55 49.8333 61.6875 50.2865 61.6875 50.75C61.6875 51.3716 61.4406 51.9677 61.001 52.4073C60.5615 52.8468 59.9654 53.0938 59.3438 53.0938ZM59.3438 49.9688C59.1892 49.9688 59.0382 50.0146 58.9097 50.1004C58.7812 50.1863 58.6811 50.3083 58.622 50.451C58.5628 50.5938 58.5474 50.7509 58.5775 50.9024C58.6077 51.054 58.6821 51.1932 58.7913 51.3024C58.9006 51.4117 59.0398 51.4861 59.1913 51.5162C59.3429 51.5464 59.5 51.5309 59.6427 51.4718C59.7855 51.4127 59.9075 51.3125 59.9933 51.184C60.0792 51.0556 60.125 50.9045 60.125 50.75C60.125 50.5428 60.0427 50.3441 59.8962 50.1976C59.7497 50.0511 59.551 49.9688 59.3438 49.9688Z" fill="white"/>
<path d="M65.5938 53.0938C65.1302 53.0938 64.6771 52.9563 64.2916 52.6988C63.9062 52.4412 63.6058 52.0752 63.4284 51.6469C63.251 51.2187 63.2046 50.7474 63.295 50.2928C63.3855 49.8381 63.6087 49.4205 63.9365 49.0927C64.2642 48.7649 64.6819 48.5417 65.1365 48.4513C65.5912 48.3609 66.0624 48.4073 66.4907 48.5847C66.9189 48.7621 67.285 49.0625 67.5425 49.4479C67.8 49.8333 67.9375 50.2865 67.9375 50.75C67.9375 51.3716 67.6906 51.9677 67.251 52.4073C66.8115 52.8468 66.2154 53.0938 65.5938 53.0938ZM65.5938 49.9688C65.4392 49.9688 65.2882 50.0146 65.1597 50.1004C65.0312 50.1863 64.9311 50.3083 64.872 50.451C64.8128 50.5938 64.7974 50.7509 64.8275 50.9024C64.8577 51.054 64.9321 51.1932 65.0413 51.3024C65.1506 51.4117 65.2898 51.4861 65.4413 51.5162C65.5929 51.5464 65.75 51.5309 65.8927 51.4718C66.0355 51.4127 66.1575 51.3125 66.2433 51.184C66.3292 51.0556 66.375 50.9045 66.375 50.75C66.375 50.5428 66.2927 50.3441 66.1462 50.1976C65.9997 50.0511 65.801 49.9688 65.5938 49.9688Z" fill="white"/>
<path d="M71.8438 53.0938C71.3802 53.0938 70.9271 52.9563 70.5416 52.6988C70.1562 52.4412 69.8558 52.0752 69.6784 51.6469C69.501 51.2187 69.4546 50.7474 69.545 50.2928C69.6355 49.8381 69.8587 49.4205 70.1865 49.0927C70.5142 48.7649 70.9319 48.5417 71.3865 48.4513C71.8412 48.3609 72.3124 48.4073 72.7407 48.5847C73.1689 48.7621 73.535 49.0625 73.7925 49.4479C74.05 49.8333 74.1875 50.2865 74.1875 50.75C74.1875 51.3716 73.9406 51.9677 73.501 52.4073C73.0615 52.8468 72.4654 53.0938 71.8438 53.0938ZM71.8438 49.9688C71.6892 49.9688 71.5382 50.0146 71.4097 50.1004C71.2812 50.1863 71.1811 50.3083 71.122 50.451C71.0628 50.5938 71.0474 50.7509 71.0775 50.9024C71.1077 51.054 71.1821 51.1932 71.2913 51.3024C71.4006 51.4117 71.5398 51.4861 71.6913 51.5162C71.8429 51.5464 72 51.5309 72.1427 51.4718C72.2855 51.4127 72.4075 51.3125 72.4933 51.184C72.5792 51.0556 72.625 50.9045 72.625 50.75C72.625 50.5428 72.5427 50.3441 72.3962 50.1976C72.2497 50.0511 72.051 49.9688 71.8438 49.9688Z" fill="white"/>
<path d="M42.1563 71.8438C41.6927 71.8438 41.2396 71.7063 40.8541 71.4488C40.4687 71.1912 40.1683 70.8252 39.9909 70.3969C39.8135 69.9686 39.7671 69.4974 39.8575 69.0428C39.948 68.5881 40.1712 68.1705 40.499 67.8427C40.8267 67.5149 41.2444 67.2917 41.699 67.2013C42.1537 67.1109 42.6249 67.1573 43.0532 67.3347C43.4814 67.5121 43.8475 67.8125 44.105 68.1979C44.3625 68.5833 44.5 69.0365 44.5 69.5C44.5 70.1216 44.2531 70.7177 43.8135 71.1573C43.374 71.5968 42.7779 71.8438 42.1563 71.8438ZM42.1563 68.7188C42.0017 68.7188 41.8507 68.7646 41.7222 68.8504C41.5937 68.9363 41.4936 69.0583 41.4345 69.201C41.3753 69.3438 41.3599 69.5009 41.39 69.6524C41.4202 69.804 41.4946 69.9432 41.6038 70.0524C41.7131 70.1617 41.8523 70.2361 42.0038 70.2662C42.1554 70.2964 42.3125 70.2809 42.4552 70.2218C42.598 70.1626 42.72 70.0625 42.8058 69.934C42.8917 69.8056 42.9375 69.6545 42.9375 69.5C42.9375 69.2928 42.8552 69.0941 42.7087 68.9476C42.5622 68.8011 42.3635 68.7188 42.1563 68.7188Z" fill="white"/>
<path d="M48.4063 71.8438C47.9427 71.8438 47.4896 71.7063 47.1041 71.4488C46.7187 71.1912 46.4183 70.8252 46.2409 70.3969C46.0635 69.9686 46.0171 69.4974 46.1075 69.0428C46.198 68.5881 46.4212 68.1705 46.749 67.8427C47.0767 67.5149 47.4944 67.2917 47.949 67.2013C48.4037 67.1109 48.8749 67.1573 49.3032 67.3347C49.7314 67.5121 50.0975 67.8125 50.355 68.1979C50.6125 68.5833 50.75 69.0365 50.75 69.5C50.75 70.1216 50.5031 70.7177 50.0635 71.1573C49.624 71.5968 49.0279 71.8438 48.4063 71.8438ZM48.4063 68.7188C48.2517 68.7188 48.1007 68.7646 47.9722 68.8504C47.8437 68.9363 47.7436 69.0583 47.6845 69.201C47.6253 69.3438 47.6099 69.5009 47.64 69.6524C47.6702 69.804 47.7446 69.9432 47.8538 70.0524C47.9631 70.1617 48.1023 70.2361 48.2538 70.2662C48.4054 70.2964 48.5625 70.2809 48.7052 70.2218C48.848 70.1626 48.97 70.0625 49.0558 69.934C49.1417 69.8056 49.1875 69.6545 49.1875 69.5C49.1875 69.2928 49.1052 69.0941 48.9587 68.9476C48.8122 68.8011 48.6135 68.7188 48.4063 68.7188Z" fill="white"/>
<path d="M54.6563 71.8438C54.1927 71.8438 53.7396 71.7063 53.3541 71.4488C52.9687 71.1912 52.6683 70.8252 52.4909 70.3969C52.3135 69.9686 52.2671 69.4974 52.3575 69.0428C52.448 68.5881 52.6712 68.1705 52.999 67.8427C53.3267 67.5149 53.7444 67.2917 54.199 67.2013C54.6537 67.1109 55.1249 67.1573 55.5532 67.3347C55.9814 67.5121 56.3475 67.8125 56.605 68.1979C56.8625 68.5833 57 69.0365 57 69.5C57 70.1216 56.7531 70.7177 56.3135 71.1573C55.874 71.5968 55.2779 71.8438 54.6563 71.8438ZM54.6563 68.7188C54.5017 68.7188 54.3507 68.7646 54.2222 68.8504C54.0937 68.9363 53.9936 69.0583 53.9345 69.201C53.8753 69.3438 53.8599 69.5009 53.89 69.6524C53.9202 69.804 53.9946 69.9432 54.1038 70.0524C54.2131 70.1617 54.3523 70.2361 54.5038 70.2662C54.6554 70.2964 54.8125 70.2809 54.9552 70.2218C55.098 70.1626 55.22 70.0625 55.3058 69.934C55.3917 69.8056 55.4375 69.6545 55.4375 69.5C55.4375 69.2928 55.3552 69.0941 55.2087 68.9476C55.0622 68.8011 54.8635 68.7188 54.6563 68.7188Z" fill="white"/>
<path d="M33.5625 41.375H32V35.9062C32.0012 34.8706 32.4132 33.8778 33.1455 33.1455C33.8778 32.4132 34.8706 32.0012 35.9062 32H50.75V33.5625H35.9062C35.2846 33.5625 34.6885 33.8094 34.249 34.249C33.8094 34.6885 33.5625 35.2846 33.5625 35.9062V41.375Z" fill="white"/>
<path d="M78.0938 82H35.9062C34.8706 81.9988 33.8778 81.5868 33.1455 80.8545C32.4132 80.1222 32.0012 79.1294 32 78.0938V42.9375H33.5625V78.0938C33.5625 78.7154 33.8094 79.3115 34.249 79.751C34.6885 80.1906 35.2846 80.4375 35.9062 80.4375H78.0938C78.7154 80.4375 79.3115 80.1906 79.751 79.751C80.1906 79.3115 80.4375 78.7154 80.4375 78.0938V35.9062C80.4375 35.2846 80.1906 34.6885 79.751 34.249C79.3115 33.8094 78.7154 33.5625 78.0938 33.5625H59.3438V32H78.0938C79.1294 32.0012 80.1222 32.4132 80.8545 33.1455C81.5868 33.8778 81.9988 34.8706 82 35.9062V78.0938C81.9988 79.1294 81.5868 80.1222 80.8545 80.8545C80.1222 81.5868 79.1294 81.9988 78.0938 82Z" fill="white"/>
<path d="M56.2188 32H57.7812V33.5625H56.2188V32Z" fill="white"/>
<path d="M56.2188 39.8123H53.875C53.6678 39.8123 53.4691 39.73 53.3226 39.5834C53.1761 39.4369 53.0938 39.2382 53.0938 39.031V35.906C53.1104 35.5938 53.0612 35.2817 52.9493 34.9898C52.8374 34.6978 52.6654 34.4328 52.4443 34.2117C52.2233 33.9906 51.9582 33.8186 51.6663 33.7067C51.3744 33.5948 51.0622 33.5456 50.75 33.5623V31.9998C51.2682 31.9801 51.785 32.0678 52.2678 32.2571C52.7506 32.4465 53.1891 32.7335 53.5558 33.1002C53.9225 33.4669 54.2095 33.9054 54.3989 34.3883C54.5883 34.8711 54.6759 35.3878 54.6562 35.906V38.2498H56.2188V39.8123Z" fill="white"/>
<path d="M57.7812 38.25H81.2188V39.8125H57.7812V38.25Z" fill="white"/>
<path d="M35.125 35.125H48.4062V36.6875H35.125V35.125Z" fill="white"/>
<path d="M49.9688 35.125H51.5312V36.6875H49.9688V35.125Z" fill="white"/>
<path d="M77.3125 35.125H78.875V36.6875H77.3125V35.125Z" fill="white"/>
<path d="M74.1875 35.125H75.75V36.6875H74.1875V35.125Z" fill="white"/>
<path d="M71.0625 35.125H72.625V36.6875H71.0625V35.125Z" fill="white"/>
<path d="M32.7812 38.25H53.875V39.8125H32.7812V38.25Z" fill="white"/>
</g>
<defs>
<linearGradient id="paint0_linear_2959_13363" x1="-77.6649" y1="-11.7875" x2="158.608" y2="45.0886" gradientUnits="userSpaceOnUse">
<stop stop-color="#A552FE"/>
<stop offset="0.99" stop-color="#009FBF"/>
</linearGradient>
<linearGradient id="paint1_linear_2959_13363" x1="57" y1="-3.62204" x2="57" y2="117.625" gradientUnits="userSpaceOnUse">
<stop stop-color="white" stop-opacity="0.867088"/>
<stop stop-color="white"/>
<stop offset="0.255208" stop-color="white" stop-opacity="0.47"/>
<stop offset="0.479167" stop-color="white" stop-opacity="0.37"/>
<stop offset="0.625" stop-color="white" stop-opacity="0.24"/>
<stop offset="0.828125" stop-color="white" stop-opacity="0.03"/>
<stop offset="1" stop-color="white" stop-opacity="0"/>
</linearGradient>
<linearGradient id="paint2_linear_2959_13363" x1="17" y1="57.002" x2="97" y2="57.002" gradientUnits="userSpaceOnUse">
<stop stop-color="#27AAE1"/>
<stop offset="1" stop-color="#273EE1"/>
</linearGradient>
<clipPath id="clip0_2959_13363">
<rect width="50" height="50" fill="white" transform="translate(32 32)"/>
</clipPath>
</defs>
</svg>
