<svg width="115" height="115" viewBox="0 0 115 115" fill="none" xmlns="http://www.w3.org/2000/svg">
<rect width="115" height="115" rx="57.5" fill="url(#paint0_linear_2959_13333)"/>
<rect opacity="0.5" x="5.5" y="5.5" width="103" height="103" rx="51.5" stroke="url(#paint1_linear_2959_13333)"/>
<circle cx="57" cy="57" r="42.5" fill="url(#paint2_linear_2959_13333)" stroke="white" stroke-width="5"/>
<g clip-path="url(#clip0_2959_13333)">
<path d="M72.5771 75.5483L70.7102 69.9467C70.0578 67.9911 68.3933 66.5475 66.3642 66.1782L60.9747 65.1975V64.7798C61.9126 64.2354 62.7288 63.5072 63.3788 62.6451H65.007C66.3409 62.6451 67.4263 61.5596 67.4263 60.2257V50.5483C67.4263 44.7677 62.7231 40.0645 56.9425 40.0645C51.1618 40.0645 46.4586 44.7677 46.4586 50.5483V56.1935C46.4586 57.7483 47.5642 59.0491 49.0304 59.3524C49.4828 61.6701 50.9312 63.6314 52.9102 64.7798V65.1975L47.5199 66.1782C45.4917 66.5475 43.8263 67.9911 43.1747 69.9467L42.8521 70.9153L40.1054 68.1685C39.7909 67.854 39.7909 67.3419 40.1054 67.0274L43.2909 63.8427L37.3118 57.8636L33.7118 61.4636C32.6457 62.5298 32.0586 63.9475 32.0586 65.4556C32.0586 66.9636 32.6457 68.3806 33.7118 69.4467L44.611 80.3459C45.6771 81.412 47.0949 81.9999 48.6029 81.9999C50.111 81.9999 51.5279 81.412 52.5691 80.3701L56.4973 76.7709L55.2723 75.5483H72.5771ZM65.8134 60.2257C65.8134 60.6709 65.4513 61.0322 65.007 61.0322H64.3288C64.5626 60.4991 64.74 59.937 64.8546 59.3524C65.1997 59.2806 65.5175 59.1435 65.8134 58.9709V60.2257ZM65.007 57.5822V54.8048C65.4868 55.0846 65.8134 55.5991 65.8134 56.1935C65.8134 56.7878 65.4868 57.3024 65.007 57.5822ZM48.8779 57.5822C48.3981 57.3024 48.0715 56.7878 48.0715 56.1935C48.0715 55.5991 48.3981 55.0846 48.8779 54.8048V57.5822ZM48.8779 52.1612V53.0822C48.5909 53.1572 48.3215 53.2701 48.0715 53.4161V50.5483C48.0715 45.6572 52.0513 41.6774 56.9425 41.6774C61.8336 41.6774 65.8134 45.6572 65.8134 50.5483V53.4161C65.5634 53.2701 65.2941 53.1564 65.007 53.0822V52.1612H64.2005C61.8159 52.1612 59.5739 51.2322 57.8868 49.5459L56.9425 48.6016L55.9981 49.5459C54.311 51.2322 52.0691 52.1612 49.6844 52.1612H48.8779ZM50.4909 57.8064V53.7435C52.9126 53.5612 55.1707 52.562 56.9425 50.8774C58.7142 52.562 60.9723 53.562 63.3941 53.7435V57.8064C63.3941 58.9822 63.0731 60.0822 62.5215 61.0322H56.9425V62.6451H61.1957C60.0586 63.6459 58.5723 64.258 56.9425 64.258C53.3852 64.258 50.4909 61.3636 50.4909 57.8064ZM59.3618 65.4991V65.537L56.9425 67.9564L54.5231 65.537V65.4991C55.2876 65.7395 56.0997 65.8709 56.9425 65.8709C57.7852 65.8709 58.5973 65.7395 59.3618 65.4991ZM44.7038 70.4564C45.1691 69.0596 46.3586 68.0282 47.8078 67.7636L53.4449 66.7395L56.9425 70.237L60.4392 66.7403L66.0755 67.7645C67.5247 68.029 68.7142 69.0596 69.1796 70.4572L70.34 73.9354H53.6594L50.5183 70.7943L47.0279 73.9515C46.7239 74.2572 46.1925 74.2572 45.8876 73.9515L44.1263 72.1903L44.7038 70.4564ZM37.311 60.1443L41.0094 63.8427L40.1336 64.7185L36.4352 61.0201L37.311 60.1443ZM51.4521 79.2072C50.6909 79.9669 49.6779 80.387 48.6013 80.387C47.5247 80.387 46.5118 79.9669 45.7497 79.2056L34.8505 68.3072C34.0892 67.5459 33.6699 66.533 33.6699 65.4564C33.6699 64.379 34.0892 63.3661 34.8505 62.6048L35.2941 62.1612L38.9925 65.8596L38.9634 65.8886C38.0207 66.8322 38.0207 68.3669 38.9634 69.3104L44.7465 75.0935C45.2038 75.5499 45.811 75.8024 46.4578 75.8024C47.1046 75.8024 47.7118 75.5507 48.1392 75.1217L48.1997 75.0677L51.915 78.783L51.4521 79.2072ZM53.1054 77.6911L49.3981 73.9838L50.4634 73.0209L54.1642 76.7217L53.1054 77.6911Z" fill="white"/>
<path d="M79.5222 32H68.2319C66.898 32 65.8125 33.0855 65.8125 34.4194V40.871C65.8125 42.2048 66.898 43.2903 68.2319 43.2903H70.3859L69.552 48.154L77.3343 43.2903H79.5222C80.856 43.2903 81.9415 42.2048 81.9415 40.871V34.4194C81.9415 33.0855 80.856 32 79.5222 32ZM80.3286 40.871C80.3286 41.3153 79.9665 41.6774 79.5222 41.6774H76.8714L71.7496 44.8782L72.2988 41.6774H68.2319C67.7875 41.6774 67.4254 41.3153 67.4254 40.871V34.4194C67.4254 33.975 67.7875 33.6129 68.2319 33.6129H79.5222C79.9665 33.6129 80.3286 33.975 80.3286 34.4194V40.871Z" fill="white"/>
<path d="M78.7165 35.2266H69.0391V36.8395H78.7165V35.2266Z" fill="white"/>
<path d="M75.4907 38.4512H69.0391V40.0641H75.4907V38.4512Z" fill="white"/>
<path d="M78.7145 38.4512H77.1016V40.0641H78.7145V38.4512Z" fill="white"/>
<path d="M56.9433 34.4199C46.4062 34.4199 37.3296 41.7086 34.9699 51.8756L33.4417 49.328L32.0586 50.1578L34.8933 54.8812L39.6167 52.0465L38.7868 50.6635L36.6013 51.9748C38.8868 42.674 47.2505 36.0328 56.9433 36.0328C59.0618 36.0328 61.1521 36.3473 63.1562 36.9683L63.6336 35.428C61.4747 34.7586 59.2239 34.4199 56.9433 34.4199Z" fill="white"/>
<path d="M81.5494 49.8562L76.826 47.0215L73.9921 51.7457L75.3752 52.5755L76.7865 50.2231C77.5292 52.3965 77.909 54.6699 77.909 56.9997C77.909 61.7957 76.2477 66.4844 73.2324 70.2013L74.4848 71.2175C77.7332 67.2142 79.5219 62.1642 79.5219 56.9997C79.5219 54.5328 79.1244 52.1239 78.3494 49.8175L80.7195 51.2392L81.5494 49.8562Z" fill="white"/>
</g>
<defs>
<linearGradient id="paint0_linear_2959_13333" x1="-77.6649" y1="-11.7875" x2="158.608" y2="45.0886" gradientUnits="userSpaceOnUse">
<stop stop-color="#A552FE"/>
<stop offset="0.99" stop-color="#009FBF"/>
</linearGradient>
<linearGradient id="paint1_linear_2959_13333" x1="57" y1="-3.62204" x2="57" y2="117.625" gradientUnits="userSpaceOnUse">
<stop stop-color="white" stop-opacity="0.867088"/>
<stop stop-color="white"/>
<stop offset="0.255208" stop-color="white" stop-opacity="0.47"/>
<stop offset="0.479167" stop-color="white" stop-opacity="0.37"/>
<stop offset="0.625" stop-color="white" stop-opacity="0.24"/>
<stop offset="0.828125" stop-color="white" stop-opacity="0.03"/>
<stop offset="1" stop-color="white" stop-opacity="0"/>
</linearGradient>
<linearGradient id="paint2_linear_2959_13333" x1="17" y1="57.002" x2="97" y2="57.002" gradientUnits="userSpaceOnUse">
<stop stop-color="#27AAE1"/>
<stop offset="1" stop-color="#273EE1"/>
</linearGradient>
<clipPath id="clip0_2959_13333">
<rect width="50" height="50" fill="white" transform="translate(32 32)"/>
</clipPath>
</defs>
</svg>
