<svg width="115" height="115" viewBox="0 0 115 115" fill="none" xmlns="http://www.w3.org/2000/svg">
<rect width="115" height="115" rx="57.5" fill="url(#paint0_linear_2959_13411)"/>
<rect opacity="0.5" x="5.5" y="5.5" width="103" height="103" rx="51.5" stroke="url(#paint1_linear_2959_13411)"/>
<circle cx="57" cy="57" r="42.5" fill="url(#paint2_linear_2959_13411)" stroke="white" stroke-width="5"/>
<path d="M54.125 82C53.9625 82 53.8 81.9625 53.65 81.8854C53.3021 81.7062 53.0834 81.35 53.0834 80.9583V75.75H33.2917C29.2708 75.75 26 72.4792 26 68.4583C26 64.4375 29.2708 61.1666 33.2917 61.1666H52.0417C52.6167 61.1666 53.0834 61.6333 53.0834 62.2083V64.3687L63.5646 57L53.0834 49.6312V51.7916C53.0834 52.3666 52.6167 52.8333 52.0417 52.8333C51.4667 52.8333 51 52.3666 51 51.7916V47.625C51 47.2354 51.2167 46.8791 51.5625 46.7C51.9104 46.5208 52.325 46.55 52.6417 46.7729L65.975 56.1479C66.2521 56.3437 66.4167 56.6604 66.4167 57C66.4167 57.3396 66.2521 57.6562 65.975 57.8521L52.6417 67.2271C52.325 67.4479 51.9104 67.4791 51.5625 67.3C51.2167 67.1208 51 66.7646 51 66.375V63.25H33.2917C30.4208 63.25 28.0833 65.5875 28.0833 68.4583C28.0833 71.3292 30.4208 73.6667 33.2917 73.6667H54.125C54.7 73.6667 55.1667 74.1333 55.1667 74.7083V78.9271L85.673 57L55.1667 35.0729V39.2916C55.1667 39.8666 54.7 40.3333 54.125 40.3333H33.2917C30.4208 40.3333 28.0833 42.6708 28.0833 45.5416C28.0833 48.4125 30.4208 50.75 33.2917 50.75H43.7084C44.2834 50.75 44.75 51.2166 44.75 51.7916C44.75 52.3666 44.2834 52.8333 43.7084 52.8333H33.2917C29.2708 52.8333 26 49.5625 26 45.5416C26 41.5208 29.2708 38.25 33.2917 38.25H53.0834V33.0416C53.0834 32.6499 53.3021 32.2937 53.65 32.1145C53.9979 31.9374 54.4167 31.9666 54.7334 32.1958L88.0667 56.1541C88.3376 56.35 88.5001 56.6646 88.5001 57C88.5001 57.3354 88.3376 57.65 88.0667 57.8458L54.7334 81.8042C54.5521 81.9333 54.3396 82 54.125 82Z" fill="white"/>
<path d="M47.8717 50.75C48.4447 50.75 48.9134 51.2188 48.9134 51.7917C48.9134 52.3646 48.4447 52.8333 47.8717 52.8333C47.2988 52.8333 46.8301 52.3646 46.8301 51.7917C46.8301 51.2188 47.2988 50.75 47.8717 50.75Z" fill="white"/>
<defs>
<linearGradient id="paint0_linear_2959_13411" x1="-77.6649" y1="-11.7875" x2="158.608" y2="45.0886" gradientUnits="userSpaceOnUse">
<stop stop-color="#A552FE"/>
<stop offset="0.99" stop-color="#009FBF"/>
</linearGradient>
<linearGradient id="paint1_linear_2959_13411" x1="57" y1="-3.62204" x2="57" y2="117.625" gradientUnits="userSpaceOnUse">
<stop stop-color="white" stop-opacity="0.867088"/>
<stop stop-color="white"/>
<stop offset="0.255208" stop-color="white" stop-opacity="0.47"/>
<stop offset="0.479167" stop-color="white" stop-opacity="0.37"/>
<stop offset="0.625" stop-color="white" stop-opacity="0.24"/>
<stop offset="0.828125" stop-color="white" stop-opacity="0.03"/>
<stop offset="1" stop-color="white" stop-opacity="0"/>
</linearGradient>
<linearGradient id="paint2_linear_2959_13411" x1="17" y1="57.002" x2="97" y2="57.002" gradientUnits="userSpaceOnUse">
<stop stop-color="#27AAE1"/>
<stop offset="1" stop-color="#273EE1"/>
</linearGradient>
</defs>
</svg>
